<svg xmlns="http://www.w3.org/2000/svg" width="180" height="55" viewBox="0 0 180 55">
  <g id="Group_34606" data-name="Group 34606" transform="translate(-888.173 -2737.314)">
    <rect id="Rectangle_17905" data-name="Rectangle 17905" width="180" height="55" transform="translate(888.173 2737.314)" fill="none"/>
    <g id="Group_34604" data-name="Group 34604" transform="translate(890 2670.513)">
      <path id="Path_32390" data-name="Path 32390" d="M169.531,629.786H6.818A6.816,6.816,0,0,1,0,622.969v-40a6.816,6.816,0,0,1,6.816-6.816H169.531a6.816,6.816,0,0,1,6.816,6.816v40a6.816,6.816,0,0,1-6.816,6.817" transform="translate(-0.002 -508.671)"/>
      <path id="Path_32391" data-name="Path 32391" d="M126.08,729.95c-2.861,4.964-1.042,12.5,2.121,17.065,1.579,2.284,3.178,4.334,5.368,4.334.041,0,.083,0,.125,0a6.621,6.621,0,0,0,2.491-.664,6.822,6.822,0,0,1,2.951-.7,6.417,6.417,0,0,1,2.808.676,5.95,5.95,0,0,0,2.691.646c2.466-.046,3.981-2.258,5.317-4.21a18.65,18.65,0,0,0,2.33-4.771l.009-.03a.278.278,0,0,0-.148-.34l-.02-.009a7.07,7.07,0,0,1-4.285-6.475,7.277,7.277,0,0,1,3.439-6.084l.027-.017a.277.277,0,0,0,.079-.389,8,8,0,0,0-6.3-3.418,5.475,5.475,0,0,0-.549-.027,10.972,10.972,0,0,0-3.951.987,6.341,6.341,0,0,1-1.892.566,6.191,6.191,0,0,1-1.958-.572,9.49,9.49,0,0,0-3.451-.876H133.2a8.46,8.46,0,0,0-7.121,4.311" transform="translate(-110.052 -640.551)" fill="#fff"/>
      <path id="Path_32392" data-name="Path 32392" d="M246.554,657.036a7.725,7.725,0,0,0-5.1,2.617,7.237,7.237,0,0,0-1.833,5.367.278.278,0,0,0,.254.24c.118.009.238.014.359.014a6.536,6.536,0,0,0,4.814-2.469,7.631,7.631,0,0,0,1.794-5.521.279.279,0,0,0-.287-.247" transform="translate(-211.515 -580.075)" fill="#fff"/>
      <path id="Path_32393" data-name="Path 32393" d="M470.932,680.6h3.316a4.852,4.852,0,0,1,2.317.539,3.938,3.938,0,0,1,1.574,1.49,4.431,4.431,0,0,1,0,4.322,3.938,3.938,0,0,1-1.574,1.49,4.854,4.854,0,0,1-2.317.539h-3.316Zm3.268,7.83a4.373,4.373,0,0,0,2.047-.461,3.3,3.3,0,0,0,1.365-1.287,3.976,3.976,0,0,0,0-3.783,3.3,3.3,0,0,0-1.365-1.287,4.376,4.376,0,0,0-2.047-.461h-2.658v7.279Z" transform="translate(-415.771 -600.883)" fill="#fff"/>
      <path id="Path_32394" data-name="Path 32394" d="M549.421,704.326a2.931,2.931,0,0,1-1.119-1.131,3.484,3.484,0,0,1,0-3.268,2.934,2.934,0,0,1,1.119-1.131,3.342,3.342,0,0,1,3.2,0,2.935,2.935,0,0,1,1.119,1.131,3.484,3.484,0,0,1,0,3.268,2.932,2.932,0,0,1-1.119,1.131,3.342,3.342,0,0,1-3.2,0m2.885-.467a2.406,2.406,0,0,0,.9-.934,2.993,2.993,0,0,0,0-2.73,2.409,2.409,0,0,0-.9-.934,2.638,2.638,0,0,0-2.574,0,2.407,2.407,0,0,0-.9.934,2.994,2.994,0,0,0,0,2.73,2.4,2.4,0,0,0,.9.934,2.638,2.638,0,0,0,2.574,0" transform="translate(-483.719 -616.584)" fill="#fff"/>
      <path id="Path_32395" data-name="Path 32395" d="M615.826,698.8l-2.371,6.25h-.563l-2.107-5.423-2.119,5.423h-.551l-2.37-6.25h.575l2.083,5.579,2.131-5.579h.515l2.119,5.567,2.107-5.567Z" transform="translate(-534.793 -616.944)" fill="#fff"/>
      <path id="Path_32396" data-name="Path 32396" d="M708.572,699.07a2.658,2.658,0,0,1,.682,1.963v3.651h-.6v-3.6a2.219,2.219,0,0,0-.533-1.6,1.978,1.978,0,0,0-1.49-.551,2.3,2.3,0,0,0-1.736.659,2.446,2.446,0,0,0-.634,1.772v3.328h-.6v-6.249h.575v1.353a2.379,2.379,0,0,1,.964-1.03,2.969,2.969,0,0,1,1.514-.371,2.507,2.507,0,0,1,1.856.682" transform="translate(-621.241 -616.584)" fill="#fff"/>
      <rect id="Rectangle_17900" data-name="Rectangle 17900" width="0.599" height="8.883" transform="translate(90.479 79.218)" fill="#fff"/>
      <path id="Path_32397" data-name="Path 32397" d="M794.824,704.326a2.93,2.93,0,0,1-1.119-1.131,3.484,3.484,0,0,1,0-3.268,2.933,2.933,0,0,1,1.119-1.131,3.341,3.341,0,0,1,3.2,0,2.934,2.934,0,0,1,1.119,1.131,3.484,3.484,0,0,1,0,3.268,2.931,2.931,0,0,1-1.119,1.131,3.341,3.341,0,0,1-3.2,0m2.885-.467a2.407,2.407,0,0,0,.9-.934,2.994,2.994,0,0,0,0-2.73,2.41,2.41,0,0,0-.9-.934,2.638,2.638,0,0,0-2.574,0,2.406,2.406,0,0,0-.9.934,2.993,2.993,0,0,0,0,2.73,2.4,2.4,0,0,0,.9.934,2.638,2.638,0,0,0,2.574,0" transform="translate(-700.377 -616.584)" fill="#fff"/>
      <path id="Path_32398" data-name="Path 32398" d="M861.94,698.98a2.294,2.294,0,0,1,.622,1.742v3.963h-.575v-1.113a2.08,2.08,0,0,1-.874.856,2.9,2.9,0,0,1-1.377.305,2.537,2.537,0,0,1-1.646-.491,1.7,1.7,0,0,1-.048-2.556,2.675,2.675,0,0,1,1.778-.485h2.143v-.5a1.76,1.76,0,0,0-.473-1.329,1.919,1.919,0,0,0-1.383-.455,3.335,3.335,0,0,0-1.191.216,2.992,2.992,0,0,0-.964.575l-.3-.431a3.328,3.328,0,0,1,1.125-.653,4.091,4.091,0,0,1,1.377-.233,2.488,2.488,0,0,1,1.784.593m-.8,4.9a2.185,2.185,0,0,0,.82-1.042v-1.173h-2.131A2.121,2.121,0,0,0,858.5,702a1.123,1.123,0,0,0-.413.922,1.154,1.154,0,0,0,.455.964,2.045,2.045,0,0,0,1.281.353,2.35,2.35,0,0,0,1.323-.359" transform="translate(-757.047 -616.583)" fill="#fff"/>
      <path id="Path_32399" data-name="Path 32399" d="M922.389,676.31v8.883H921.8v-1.472a2.681,2.681,0,0,1-1.042,1.125,2.937,2.937,0,0,1-1.52.4,3.105,3.105,0,0,1-1.58-.407,2.912,2.912,0,0,1-1.108-1.125,3.306,3.306,0,0,1-.4-1.64,3.342,3.342,0,0,1,.4-1.646,2.862,2.862,0,0,1,1.108-1.125,3.144,3.144,0,0,1,1.58-.4,2.883,2.883,0,0,1,1.5.4,2.814,2.814,0,0,1,1.048,1.1V676.31Zm-1.826,8.057a2.408,2.408,0,0,0,.9-.934,2.994,2.994,0,0,0,0-2.73,2.411,2.411,0,0,0-.9-.934,2.638,2.638,0,0,0-2.574,0,2.407,2.407,0,0,0-.9.934,2.994,2.994,0,0,0,0,2.73,2.4,2.4,0,0,0,.9.934,2.639,2.639,0,0,0,2.574,0" transform="translate(-808.841 -597.092)" fill="#fff"/>
      <path id="Path_32400" data-name="Path 32400" d="M1012.936,704.326a2.93,2.93,0,0,1-1.119-1.131,3.484,3.484,0,0,1,0-3.268,2.932,2.932,0,0,1,1.119-1.131,3.341,3.341,0,0,1,3.2,0,2.935,2.935,0,0,1,1.119,1.131,3.484,3.484,0,0,1,0,3.268,2.932,2.932,0,0,1-1.119,1.131,3.341,3.341,0,0,1-3.2,0m2.885-.467a2.407,2.407,0,0,0,.9-.934,2.994,2.994,0,0,0,0-2.73,2.41,2.41,0,0,0-.9-.934,2.638,2.638,0,0,0-2.574,0,2.406,2.406,0,0,0-.9.934,2.994,2.994,0,0,0,0,2.73,2.4,2.4,0,0,0,.9.934,2.638,2.638,0,0,0,2.574,0" transform="translate(-892.941 -616.584)" fill="#fff"/>
      <path id="Path_32401" data-name="Path 32401" d="M1085.514,699.07a2.657,2.657,0,0,1,.682,1.963v3.651h-.6v-3.6a2.218,2.218,0,0,0-.533-1.6,1.978,1.978,0,0,0-1.491-.551,2.3,2.3,0,0,0-1.736.659,2.445,2.445,0,0,0-.634,1.772v3.328h-.6v-6.249h.575v1.353a2.379,2.379,0,0,1,.964-1.03,2.97,2.97,0,0,1,1.515-.371,2.507,2.507,0,0,1,1.856.682" transform="translate(-954.032 -616.584)" fill="#fff"/>
      <path id="Path_32402" data-name="Path 32402" d="M1171,694.363a1.506,1.506,0,0,1-.569.329,2.239,2.239,0,0,1-.712.114,1.686,1.686,0,0,1-1.257-.449,1.7,1.7,0,0,1-.443-1.251v-4.083h-1.149v-.515h1.149v-1.365h.6v1.365h1.987v.515h-1.987v4.023a1.32,1.32,0,0,0,.293.928,1.124,1.124,0,0,0,.868.317,1.389,1.389,0,0,0,.97-.347Z" transform="translate(-1030.191 -606.657)" fill="#fff"/>
      <path id="Path_32403" data-name="Path 32403" d="M1221.246,679.578a2.657,2.657,0,0,1,.682,1.963v3.651h-.6v-3.6a2.218,2.218,0,0,0-.533-1.6,1.978,1.978,0,0,0-1.491-.551,2.3,2.3,0,0,0-1.736.659,2.445,2.445,0,0,0-.635,1.772v3.328h-.6V676.31h.6v3.939a2.3,2.3,0,0,1,.958-1,3.03,3.03,0,0,1,1.5-.353,2.507,2.507,0,0,1,1.856.682" transform="translate(-1073.865 -597.092)" fill="#fff"/>
      <path id="Path_32404" data-name="Path 32404" d="M1285.362,701.7h-5.375a2.609,2.609,0,0,0,.371,1.3,2.376,2.376,0,0,0,.94.88,2.827,2.827,0,0,0,1.335.311,2.858,2.858,0,0,0,1.131-.221,2.2,2.2,0,0,0,.868-.652l.347.4a2.665,2.665,0,0,1-1.024.754,3.565,3.565,0,0,1-3-.144,2.95,2.95,0,0,1-1.143-1.125,3.229,3.229,0,0,1-.413-1.64,3.4,3.4,0,0,1,.389-1.634,2.87,2.87,0,0,1,1.072-1.131,3.1,3.1,0,0,1,3.059-.006,2.852,2.852,0,0,1,1.065,1.119,3.364,3.364,0,0,1,.389,1.628Zm-4.154-2.5a2.236,2.236,0,0,0-.844.826,2.687,2.687,0,0,0-.365,1.2h4.789a2.5,2.5,0,0,0-.359-1.2,2.324,2.324,0,0,0-2.035-1.125,2.394,2.394,0,0,0-1.185.293" transform="translate(-1129.541 -616.584)" fill="#fff"/>
      <path id="Path_32405" data-name="Path 32405" d="M461.326,827.355h-7.161l-1.412,3.314h-2.741l6.445-14.321h2.619l6.465,14.321h-2.782Zm-.88-2.087-2.7-6.26-2.68,6.26Z" transform="translate(-397.301 -720.727)" fill="#fff"/>
      <path id="Path_32406" data-name="Path 32406" d="M604.942,844.99a5.021,5.021,0,0,1,1.974,1.964,6.356,6.356,0,0,1,0,5.862,5,5,0,0,1-1.974,1.974,5.8,5.8,0,0,1-2.854.7,4.411,4.411,0,0,1-3.5-1.473v5.3h-2.557V844.417h2.435v1.432a3.957,3.957,0,0,1,1.565-1.166,5.289,5.289,0,0,1,2.056-.389,5.8,5.8,0,0,1,2.854.7m-.818,7.365a3.821,3.821,0,0,0,0-4.951,3.093,3.093,0,0,0-2.322-.941,3.292,3.292,0,0,0-1.657.419,3.032,3.032,0,0,0-1.166,1.2,3.987,3.987,0,0,0,0,3.6,3.028,3.028,0,0,0,1.166,1.2,3.288,3.288,0,0,0,1.657.419,3.091,3.091,0,0,0,2.322-.941" transform="translate(-526.217 -745.4)" fill="#fff"/>
      <path id="Path_32407" data-name="Path 32407" d="M724.762,844.99a5.021,5.021,0,0,1,1.974,1.964,6.356,6.356,0,0,1,0,5.862,5,5,0,0,1-1.974,1.974,5.8,5.8,0,0,1-2.854.7,4.411,4.411,0,0,1-3.5-1.473v5.3h-2.557V844.417h2.435v1.432a3.957,3.957,0,0,1,1.565-1.166,5.289,5.289,0,0,1,2.056-.389,5.8,5.8,0,0,1,2.854.7m-.818,7.365a3.821,3.821,0,0,0,0-4.951,3.092,3.092,0,0,0-2.322-.941,3.292,3.292,0,0,0-1.657.419,3.032,3.032,0,0,0-1.166,1.2,3.987,3.987,0,0,0,0,3.6,3.028,3.028,0,0,0,1.166,1.2,3.288,3.288,0,0,0,1.657.419,3.091,3.091,0,0,0,2.322-.941" transform="translate(-632.003 -745.4)" fill="#fff"/>
      <path id="Path_32408" data-name="Path 32408" d="M878.114,828.861a6.676,6.676,0,0,1-2.445-1.248l.921-2.066a7.243,7.243,0,0,0,2.158,1.135,7.844,7.844,0,0,0,2.568.44,4.436,4.436,0,0,0,2.384-.512,1.549,1.549,0,0,0,.788-1.35,1.308,1.308,0,0,0-.44-1.013,3.1,3.1,0,0,0-1.115-.624q-.675-.225-1.841-.511a21.426,21.426,0,0,1-2.649-.778,4.357,4.357,0,0,1-1.739-1.217,3.279,3.279,0,0,1-.726-2.24,3.822,3.822,0,0,1,.645-2.158,4.36,4.36,0,0,1,1.944-1.545,7.875,7.875,0,0,1,3.181-.573,10.289,10.289,0,0,1,2.578.327,7.128,7.128,0,0,1,2.189.941l-.839,2.066a8.294,8.294,0,0,0-1.964-.839,7.355,7.355,0,0,0-1.985-.286,4.146,4.146,0,0,0-2.343.532,1.642,1.642,0,0,0-.767,1.412,1.276,1.276,0,0,0,.44,1,3.175,3.175,0,0,0,1.115.614q.675.225,1.841.512a19.378,19.378,0,0,1,2.619.767,4.489,4.489,0,0,1,1.749,1.217,3.21,3.21,0,0,1,.726,2.21,3.773,3.773,0,0,1-.644,2.148,4.383,4.383,0,0,1-1.954,1.534,7.955,7.955,0,0,1-3.192.573,10.931,10.931,0,0,1-3.2-.471" transform="translate(-773.1 -719.185)" fill="#fff"/>
      <path id="Path_32409" data-name="Path 32409" d="M989.362,837.478a3.011,3.011,0,0,1-1.094.552,4.933,4.933,0,0,1-1.361.184,3.86,3.86,0,0,1-2.782-.941,3.621,3.621,0,0,1-.982-2.742v-5.258h-1.8v-2.046h1.8v-2.5H985.7v2.5h2.926v2.046H985.7v5.2a1.728,1.728,0,0,0,.389,1.217,1.458,1.458,0,0,0,1.125.419,2.246,2.246,0,0,0,1.432-.45Z" transform="translate(-866.395 -728.129)" fill="#fff"/>
      <path id="Path_32410" data-name="Path 32410" d="M1059.8,854.769a5.219,5.219,0,0,1-2.077-1.995,5.966,5.966,0,0,1,0-5.78,5.243,5.243,0,0,1,2.077-1.985,6.631,6.631,0,0,1,5.995,0,5.248,5.248,0,0,1,2.077,1.985,5.966,5.966,0,0,1,0,5.78,5.224,5.224,0,0,1-2.077,1.995,6.631,6.631,0,0,1-5.995,0m5.319-2.414a3.788,3.788,0,0,0,0-4.951,3.125,3.125,0,0,0-2.332-.941,3.092,3.092,0,0,0-2.322.941,3.821,3.821,0,0,0,0,4.951,3.091,3.091,0,0,0,2.322.941,3.124,3.124,0,0,0,2.332-.941" transform="translate(-933.168 -745.4)" fill="#fff"/>
      <path id="Path_32411" data-name="Path 32411" d="M1183.64,844.294v2.435a3.24,3.24,0,0,0-.593-.061,3.089,3.089,0,0,0-2.332.869,3.467,3.467,0,0,0-.839,2.506v5.3h-2.557V844.417h2.435v1.6q1.1-1.718,3.887-1.719" transform="translate(-1039.416 -745.4)" fill="#fff"/>
      <path id="Path_32412" data-name="Path 32412" d="M1252.377,850.7H1243.8a2.971,2.971,0,0,0,1.176,1.913,3.856,3.856,0,0,0,2.363.706,3.982,3.982,0,0,0,2.967-1.187l1.371,1.575a4.619,4.619,0,0,1-1.862,1.33,7.379,7.379,0,0,1-5.708-.266,5.156,5.156,0,0,1-2.117-1.995,5.63,5.63,0,0,1-.747-2.895,5.716,5.716,0,0,1,.726-2.875,5.152,5.152,0,0,1,2.015-1.995,5.88,5.88,0,0,1,2.905-.716,5.732,5.732,0,0,1,2.854.706,5,5,0,0,1,1.964,1.984,6.02,6.02,0,0,1,.706,2.956q0,.266-.041.757m-7.56-3.631a3.055,3.055,0,0,0-1.033,1.933h6.2a3.017,3.017,0,0,0-1-1.923,3.049,3.049,0,0,0-2.087-.737,3.087,3.087,0,0,0-2.077.726" transform="translate(-1095.857 -745.4)" fill="#fff"/>
    </g>
  </g>
</svg>
