<svg xmlns="http://www.w3.org/2000/svg" xmlns:xlink="http://www.w3.org/1999/xlink" width="1440" height="962" viewBox="0 0 1440 962">
  <defs>
    <radialGradient id="radial-gradient" cx="0.5" cy="0.5" r="0.557" gradientUnits="objectBoundingBox">
      <stop offset="0" stop-color="#c99e41"/>
      <stop offset="1" stop-color="#c99e41" stop-opacity="0"/>
    </radialGradient>
  </defs>
  <g id="bg-appscreenshot" transform="translate(0 -2996)">
    <path id="Rectangle_18125" data-name="Rectangle 18125" d="M120,0H1320a120,120,0,0,1,120,120V962a0,0,0,0,1,0,0H0a0,0,0,0,1,0,0V120A120,120,0,0,1,120,0Z" transform="translate(0 2996)" fill="#101010"/>
    <path id="net" d="M1359.7,944.406V919.789h-63.476v24.617h-.5V919.789h-63.514v24.617h-.5V919.789h-63.476v24.617h-.5V919.789h-63.514v24.617h-.5V919.789h-63.014v24.617h-.5V919.789H976.232v24.617h-.5V919.789H912.217v24.617h-.5V919.789H848.241v24.617h-.5V919.789H784.226v24.617h-.5V919.789H720.25v24.617h-.5V919.789H656.236v24.617h-.5V919.789H592.26v24.617h-.5V919.789H528.246v24.617h-.5V919.789H464.269v24.617h-.5V919.789H400.255v24.617h-.5V919.789H336.278v24.617h-.5V919.789H272.265v24.617h-.5V919.789H208.25v24.617h-.5V919.789H144.274v24.617h-.5V919.789H80.26v24.617h-.5V919.789H0v-.622H79.758V855.878H0v-.621H79.758V791.969H0v-.623H79.758V728.1H0v-.623H79.758V664.187H0v-.623H79.758V600.316H0v-.623H79.758V536.405H0v-.623H79.758V472.545H.2v-.621H79.758v-63.3H0V408H79.758V344.437H.2v-.623H79.758V280.842H0v-.623H79.758V216.931H0v-.623H79.758V152.883H.2v-.622H79.758V89.149H0v-.623H79.758V24.775H.2v-.623H79.758V0h.5V24.152h63.513V0h.5V24.152h63.475V0h.5V24.152h63.513V0h.5V24.152h63.513V0h.5V24.152h63.476V0h.5V24.152h63.513V0h.5V24.152h63.476V0h.5V24.152h63.513V0h.5V24.152h63.476V0h.5V24.152H719.75V0h.5V24.152h63.476V0h.5V24.152h63.514V0h.5V24.152h63.476V0h.5V24.152h63.514V0h.5V24.152h63.976V0h.5V24.152h63.014V0h.5V24.152h63.514V0h.5V24.152h63.476V0h.5V24.152h63.514V0h.5V24.152H1359.7V0h.5V24.152h79.6v.623h-79.6V88.527H1440v.623h-79.8v63.112h79.6v.622h-79.6v63.426H1440v.623h-79.8v63.288H1440v.623h-79.8v62.972h79.6v.623h-79.6V408H1440v.623h-79.8v63.3h79.6v.621h-79.6v63.238H1440v.623h-79.8v63.288H1440v.623h-79.8v63.249H1440v.623h-79.8v63.288H1440v.623h-79.8v63.249H1440v.623h-79.8v63.288H1440v.621h-79.8v63.289H1440v.622h-79.8v24.617Zm0-25.239V855.878h-63.476v63.289Zm-63.976,0V855.878h-63.514v63.289Zm-64.014,0V855.878h-63.476v63.289Zm-63.976,0V855.878h-63.514v63.289Zm-64.015,0V855.878h-63.014v63.289Zm-63.514,0V855.878H976.232v63.289Zm-64.476,0V855.878H912.217v63.289Zm-64.015,0V855.878H848.241v63.289Zm-63.976,0V855.878H784.226v63.289Zm-64.014,0V855.878H720.25v63.289Zm-63.976,0V855.878H656.236v63.289Zm-64.015,0V855.878H592.26v63.289Zm-63.976,0V855.878H528.246v63.289Zm-64.014,0V855.878H464.269v63.289Zm-63.976,0V855.878H400.255v63.289Zm-64.015,0V855.878H336.278v63.289Zm-63.976,0V855.878H272.265v63.289Zm-64.015,0V855.878H208.25v63.289Zm-64.015,0V855.878H144.274v63.289Zm-63.976,0V855.878H80.26v63.289ZM1359.7,855.257V791.969h-63.476v63.288Zm-63.976,0V791.969h-63.514v63.288Zm-64.014,0V791.969h-63.476v63.288Zm-63.976,0V791.969h-63.514v63.288Zm-64.015,0V791.969h-63.014v63.288Zm-63.514,0V791.969H976.232v63.288Zm-64.476,0V791.969H912.217v63.288Zm-64.015,0V791.969H848.241v63.288Zm-63.976,0V791.969H784.226v63.288Zm-64.014,0V791.969H720.25v63.288Zm-63.976,0V791.969H656.236v63.288Zm-64.015,0V791.969H592.26v63.288Zm-63.976,0V791.969H528.246v63.288Zm-64.014,0V791.969H464.269v63.288Zm-63.976,0V791.969H400.255v63.288Zm-64.015,0V791.969H336.278v63.288Zm-63.976,0V791.969H272.265v63.288Zm-64.015,0V791.969H208.25v63.288Zm-64.015,0V791.969H144.274v63.288Zm-63.976,0V791.969H80.26v63.288ZM1359.7,791.346V728.1h-63.476v63.249Zm-63.976,0V728.1h-63.514v63.249Zm-64.014,0V728.1h-63.476v63.249Zm-63.976,0V728.1h-63.514v63.249Zm-64.015,0V728.1h-63.014v63.249Zm-63.514,0V728.1H976.232v63.249Zm-64.476,0V728.1H912.217v63.249Zm-64.015,0V728.1H848.241v63.249Zm-63.976,0V728.1H784.226v63.249Zm-64.014,0V728.1H720.25v63.249Zm-63.976,0V728.1H656.236v63.249Zm-64.015,0V728.1H592.26v63.249Zm-63.976,0V728.1H528.246v63.249Zm-64.014,0V728.1H464.269v63.249Zm-63.976,0V728.1H400.255v63.249Zm-64.015,0V728.1H336.278v63.249Zm-63.976,0V728.1H272.265v63.249Zm-64.015,0V728.1H208.25v63.249Zm-64.015,0V728.1H144.274v63.249Zm-63.976,0V728.1H80.26v63.249ZM1359.7,727.475V664.187h-63.476v63.288Zm-63.976,0V664.187h-63.514v63.288Zm-64.014,0V664.187h-63.476v63.288Zm-63.976,0V664.187h-63.514v63.288Zm-64.015,0V664.187h-63.014v63.288Zm-63.514,0V664.187H976.232v63.288Zm-64.476,0V664.187H912.217v63.288Zm-64.015,0V664.187H848.241v63.288Zm-63.976,0V664.187H784.226v63.288Zm-64.014,0V664.187H720.25v63.288Zm-63.976,0V664.187H656.236v63.288Zm-64.015,0V664.187H592.26v63.288Zm-63.976,0V664.187H528.246v63.288Zm-64.014,0V664.187H464.269v63.288Zm-63.976,0V664.187H400.255v63.288Zm-64.015,0V664.187H336.278v63.288Zm-63.976,0V664.187H272.265v63.288Zm-64.015,0V664.187H208.25v63.288Zm-64.015,0V664.187H144.274v63.288Zm-63.976,0V664.187H80.26v63.288ZM1359.7,663.565V600.316h-63.476v63.249Zm-63.976,0V600.316h-63.514v63.249Zm-64.014,0V600.316h-63.476v63.249Zm-63.976,0V600.316h-63.514v63.249Zm-64.015,0V600.316h-63.014v63.249Zm-63.514,0V600.316H976.232v63.249Zm-64.476,0V600.316H912.217v63.249Zm-64.015,0V600.316H848.241v63.249Zm-63.976,0V600.316H784.226v63.249Zm-64.014,0V600.316H720.25v63.249Zm-63.976,0V600.316H656.236v63.249Zm-64.015,0V600.316H592.26v63.249Zm-63.976,0V600.316H528.246v63.249Zm-64.014,0V600.316H464.269v63.249Zm-63.976,0V600.316H400.255v63.249Zm-64.015,0V600.316H336.278v63.249Zm-63.976,0V600.316H272.265v63.249Zm-64.015,0V600.316H208.25v63.249Zm-64.015,0V600.316H144.274v63.249Zm-63.976,0V600.316H80.26v63.249ZM1359.7,599.693V536.405h-63.476v63.288Zm-63.976,0V536.405h-63.514v63.288Zm-64.014,0V536.405h-63.476v63.288Zm-63.976,0V536.405h-63.514v63.288Zm-64.015,0V536.405h-63.014v63.288Zm-63.514,0V536.405H976.232v63.288Zm-64.476,0V536.405H912.217v63.288Zm-64.015,0V536.405H848.241v63.288Zm-63.976,0V536.405H784.226v63.288Zm-64.014,0V536.405H720.25v63.288Zm-63.976,0V536.405H656.236v63.288Zm-64.015,0V536.405H592.26v63.288Zm-63.976,0V536.405H528.246v63.288Zm-64.014,0V536.405H464.269v63.288Zm-63.976,0V536.405H400.255v63.288Zm-64.015,0V536.405H336.278v63.288Zm-63.976,0V536.405H272.265v63.288Zm-64.015,0V536.405H208.25v63.288Zm-64.015,0V536.405H144.274v63.288Zm-63.976,0V536.405H80.26v63.288ZM1359.7,535.783V472.545h-63.476v63.238Zm-63.976,0V472.545h-63.514v63.238Zm-64.014,0V472.545h-63.476v63.238Zm-63.976,0V472.545h-63.514v63.238Zm-64.015,0V472.545h-63.014v63.238Zm-63.514,0V472.545H976.232v63.238Zm-64.476,0V472.545H912.217v63.238Zm-64.015,0V472.545H848.241v63.238Zm-63.976,0V472.545H784.226v63.238Zm-64.014,0V472.545H720.25v63.238Zm-63.976,0V472.545H656.236v63.238Zm-64.015,0V472.545H592.26v63.238Zm-63.976,0V472.545H528.246v63.238Zm-64.014,0V472.545H464.269v63.238Zm-63.976,0V472.545H400.255v63.238Zm-64.015,0V472.545H336.278v63.238Zm-63.976,0V472.545H272.265v63.238Zm-64.015,0V472.545H208.25v63.238Zm-64.015,0V472.545H144.274v63.238Zm-63.976,0V472.545H80.26v63.238ZM1359.7,471.923v-63.3h-63.476v63.3Zm-63.976,0v-63.3h-63.514v63.3Zm-64.014,0v-63.3h-63.476v63.3Zm-63.976,0v-63.3h-63.514v63.3Zm-64.015,0v-63.3h-63.014v63.3Zm-63.514,0v-63.3H976.232v63.3Zm-64.476,0v-63.3H912.217v63.3Zm-64.015,0v-63.3H848.241v63.3Zm-63.976,0v-63.3H784.226v63.3Zm-64.014,0v-63.3H720.25v63.3Zm-63.976,0v-63.3H656.236v63.3Zm-64.015,0v-63.3H592.26v63.3Zm-63.976,0v-63.3H528.246v63.3Zm-64.014,0v-63.3H464.269v63.3Zm-63.976,0v-63.3H400.255v63.3Zm-64.015,0v-63.3H336.278v63.3Zm-63.976,0v-63.3H272.265v63.3Zm-64.015,0v-63.3H208.25v63.3Zm-64.015,0v-63.3H144.274v63.3Zm-63.976,0v-63.3H80.26v63.3ZM1359.7,408V344.437h-63.476V408Zm-63.976,0V344.437h-63.514V408Zm-64.014,0V344.437h-63.476V408Zm-63.976,0V344.437h-63.514V408Zm-64.015,0V344.437h-63.014V408Zm-63.514,0V344.437H976.232V408Zm-64.476,0V344.437H912.217V408Zm-64.015,0V344.437H848.241V408Zm-63.976,0V344.437H784.226V408Zm-64.014,0V344.437H720.25V408Zm-63.976,0V344.437H656.236V408Zm-64.015,0V344.437H592.26V408Zm-63.976,0V344.437H528.246V408Zm-64.014,0V344.437H464.269V408Zm-63.976,0V344.437H400.255V408Zm-64.015,0V344.437H336.278V408Zm-63.976,0V344.437H272.265V408Zm-64.015,0V344.437H208.25V408Zm-64.015,0V344.437H144.274V408Zm-63.976,0V344.437H80.26V408ZM1359.7,343.814V280.842h-63.476v62.972Zm-63.976,0V280.842h-63.514v62.972Zm-64.014,0V280.842h-63.476v62.972Zm-63.976,0V280.842h-63.514v62.972Zm-64.015,0V280.842h-63.014v62.972Zm-63.514,0V280.842H976.232v62.972Zm-64.476,0V280.842H912.217v62.972Zm-64.015,0V280.842H848.241v62.972Zm-63.976,0V280.842H784.226v62.972Zm-64.014,0V280.842H720.25v62.972Zm-63.976,0V280.842H656.236v62.972Zm-64.015,0V280.842H592.26v62.972Zm-63.976,0V280.842H528.246v62.972Zm-64.014,0V280.842H464.269v62.972Zm-63.976,0V280.842H400.255v62.972Zm-64.015,0V280.842H336.278v62.972Zm-63.976,0V280.842H272.265v62.972Zm-64.015,0V280.842H208.25v62.972Zm-64.015,0V280.842H144.274v62.972Zm-63.976,0V280.842H80.26v62.972Zm1215.931-63.6V216.931h-63.476v63.288Zm-63.976,0V216.931h-63.514v63.288Zm-64.014,0V216.931h-63.476v63.288Zm-63.976,0V216.931h-63.514v63.288Zm-64.015,0V216.931h-63.014v63.288Zm-63.514,0V216.931H976.232v63.288Zm-64.476,0V216.931H912.217v63.288Zm-64.015,0V216.931H848.241v63.288Zm-63.976,0V216.931H784.226v63.288Zm-64.014,0V216.931H720.25v63.288Zm-63.976,0V216.931H656.236v63.288Zm-64.015,0V216.931H592.26v63.288Zm-63.976,0V216.931H528.246v63.288Zm-64.014,0V216.931H464.269v63.288Zm-63.976,0V216.931H400.255v63.288Zm-64.015,0V216.931H336.278v63.288Zm-63.976,0V216.931H272.265v63.288Zm-64.015,0V216.931H208.25v63.288Zm-64.015,0V216.931H144.274v63.288Zm-63.976,0V216.931H80.26v63.288ZM1359.7,216.309V152.883h-63.476v63.426Zm-63.976,0V152.883h-63.514v63.426Zm-64.014,0V152.883h-63.476v63.426Zm-63.976,0V152.883h-63.514v63.426Zm-64.015,0V152.883h-63.014v63.426Zm-63.514,0V152.883H976.232v63.426Zm-64.476,0V152.883H912.217v63.426Zm-64.015,0V152.883H848.241v63.426Zm-63.976,0V152.883H784.226v63.426Zm-64.014,0V152.883H720.25v63.426Zm-63.976,0V152.883H656.236v63.426Zm-64.015,0V152.883H592.26v63.426Zm-63.976,0V152.883H528.246v63.426Zm-64.014,0V152.883H464.269v63.426Zm-63.976,0V152.883H400.255v63.426Zm-64.015,0V152.883H336.278v63.426Zm-63.976,0V152.883H272.265v63.426Zm-64.015,0V152.883H208.25v63.426Zm-64.015,0V152.883H144.274v63.426Zm-63.976,0V152.883H80.26v63.426ZM1359.7,152.261V89.149h-63.476v63.112Zm-63.976,0V89.149h-63.514v63.112Zm-64.014,0V89.149h-63.476v63.112Zm-63.976,0V89.149h-63.514v63.112Zm-64.015,0V89.149h-63.014v63.112Zm-63.514,0V89.149H976.232v63.112Zm-64.476,0V89.149H912.217v63.112Zm-64.015,0V89.149H848.241v63.112Zm-63.976,0V89.149H784.226v63.112Zm-64.014,0V89.149H720.25v63.112Zm-63.976,0V89.149H656.236v63.112Zm-64.015,0V89.149H592.26v63.112Zm-63.976,0V89.149H528.246v63.112Zm-64.014,0V89.149H464.269v63.112Zm-63.976,0V89.149H400.255v63.112Zm-64.015,0V89.149H336.278v63.112Zm-63.976,0V89.149H272.265v63.112Zm-64.015,0V89.149H208.25v63.112Zm-64.015,0V89.149H144.274v63.112Zm-63.976,0V89.149H80.26v63.112ZM1359.7,88.527V24.775h-63.476V88.527Zm-63.976,0V24.775h-63.514V88.527Zm-64.014,0V24.775h-63.476V88.527Zm-63.976,0V24.775h-63.514V88.527Zm-64.015,0V24.775h-63.014V88.527Zm-63.514,0V24.775H976.232V88.527Zm-64.476,0V24.775H912.217V88.527Zm-64.015,0V24.775H848.241V88.527Zm-63.976,0V24.775H784.226V88.527Zm-64.014,0V24.775H720.25V88.527Zm-63.976,0V24.775H656.236V88.527Zm-64.015,0V24.775H592.26V88.527Zm-63.976,0V24.775H528.246V88.527Zm-64.014,0V24.775H464.269V88.527Zm-63.976,0V24.775H400.255V88.527Zm-64.015,0V24.775H336.278V88.527Zm-63.976,0V24.775H272.265V88.527Zm-64.015,0V24.775H208.25V88.527Zm-64.015,0V24.775H144.274V88.527Zm-63.976,0V24.775H80.26V88.527Z" transform="translate(0 2996)" opacity="0.6" fill="url(#radial-gradient)"/>
  </g>
</svg>
