<svg xmlns="http://www.w3.org/2000/svg" width="395.964" height="440.176" viewBox="0 0 395.964 440.176">
  <g id="Group_34878" data-name="Group 34878" transform="translate(-170.222 -228.26)">
    <path id="Path_33029" data-name="Path 33029" d="M907.6,802.284V737.612S932.806,783.462,907.6,802.284Z" transform="translate(-352.618 -133.848)" fill="#585044"/>
    <path id="Path_33030" data-name="Path 33030" d="M903.7,804.754l-47.641-43.736S906.874,773.458,903.7,804.754Z" transform="translate(-347.154 -136.329)" fill="#585044"/>
    <g id="Group_34879" data-name="Group 34879" transform="translate(170.222 228.26)">
      <path id="Path_33031" data-name="Path 33031" d="M460.792,231.967l-126.37,73.859a1.933,1.933,0,0,1-2.642-.693L250.516,166.092a1.933,1.933,0,0,1,.693-2.642l126.37-73.859a1.933,1.933,0,0,1,2.642.693l81.264,139.041A1.933,1.933,0,0,1,460.792,231.967Z" transform="translate(-250.253 -89.329)" fill="#fff"/>
      <path id="Path_33032" data-name="Path 33032" d="M460.792,231.967l-126.37,73.859a1.933,1.933,0,0,1-2.642-.693L250.516,166.092a1.933,1.933,0,0,1,.693-2.642l126.37-73.859a1.933,1.933,0,0,1,2.642.693l81.264,139.041A1.933,1.933,0,0,1,460.792,231.967ZM251.6,164.118a1.16,1.16,0,0,0-.416,1.585l81.264,139.041a1.16,1.16,0,0,0,1.585.416L460.4,231.3a1.16,1.16,0,0,0,.416-1.585L379.554,90.675a1.16,1.16,0,0,0-1.585-.416Z" transform="translate(-250.253 -89.329)" fill="#3f3d56"/>
      <path id="Path_33033" data-name="Path 33033" d="M369.976,244.426l-31.342,18.319a1.933,1.933,0,0,1-2.642-.693l-18.319-31.342a1.933,1.933,0,0,1,.693-2.642l31.342-18.319a1.933,1.933,0,0,1,2.642.693l18.319,31.342A1.933,1.933,0,0,1,369.976,244.426Zm-51.22-15.691a1.16,1.16,0,0,0-.416,1.585l18.319,31.342a1.16,1.16,0,0,0,1.585.416l31.342-18.319a1.16,1.16,0,0,0,.416-1.585l-18.319-31.342a1.16,1.16,0,0,0-1.585-.416Z" transform="translate(-287.399 -155.79)" fill="#f2f2f2"/>
      <path id="Path_33034" data-name="Path 33034" d="M355.205,265.226l-31.342,18.319a1.74,1.74,0,0,1-2.377-.623l-18.319-31.343a1.74,1.74,0,0,1,.624-2.377l31.342-18.319a1.74,1.74,0,0,1,2.377.623l18.319,31.342A1.74,1.74,0,0,1,355.205,265.226Z" transform="translate(-279.389 -167.494)" fill="#a5a5a5"/>
      <path id="Path_33035" data-name="Path 33035" d="M464.624,251.124,366.6,308.418a1.738,1.738,0,0,1-1.754-3l98.029-57.294a1.738,1.738,0,0,1,1.754,3Z" transform="translate(-313.158 -177.03)" fill="#ccc"/>
      <path id="Path_33036" data-name="Path 33036" d="M454.469,305.216l-74.355,43.458a1.738,1.738,0,0,1-1.754-3l74.355-43.458a1.738,1.738,0,1,1,1.754,3Z" transform="translate(-320.636 -206.95)" fill="#ccc"/>
      <path id="Path_33037" data-name="Path 33037" d="M481.848,166.5,438.5,191.835a1.738,1.738,0,0,1-1.754-3L480.094,163.5a1.738,1.738,0,1,1,1.754,3Z" transform="translate(-352.931 -130.223)" fill="#ccc"/>
      <path id="Path_33038" data-name="Path 33038" d="M484.549,203.779,452.02,222.791a1.738,1.738,0,0,1-1.754-3l32.528-19.012a1.738,1.738,0,0,1,1.754,3Z" transform="translate(-360.408 -150.842)" fill="#ccc"/>
      <path id="Path_33039" data-name="Path 33039" d="M491.662,297.384l-98.029,57.294a1.738,1.738,0,0,1-1.754-3l98.029-57.294a1.738,1.738,0,0,1,1.754,3Z" transform="translate(-328.113 -202.618)" fill="#ccc"/>
      <path id="Path_33040" data-name="Path 33040" d="M481.507,351.477l-74.355,43.458a1.738,1.738,0,0,1-1.754-3l74.355-43.458a1.738,1.738,0,0,1,1.754,3Z" transform="translate(-335.591 -232.537)" fill="#ccc"/>
      <path id="Path_33041" data-name="Path 33041" d="M518.7,343.644l-98.029,57.294a1.738,1.738,0,1,1-1.754-3l98.029-57.294a1.738,1.738,0,0,1,1.754,3Z" transform="translate(-343.068 -228.205)" fill="#ccc"/>
      <path id="Path_33042" data-name="Path 33042" d="M532.218,366.775,434.19,424.069a1.738,1.738,0,0,1-1.754-3l98.029-57.294a1.738,1.738,0,1,1,1.754,3Z" transform="translate(-350.546 -240.999)" fill="#ccc"/>
      <path id="Path_33043" data-name="Path 33043" d="M583.026,428.616a37.861,37.861,0,0,0,3.665-5.126,13.614,13.614,0,0,0,2.127-5.286,5.221,5.221,0,0,0-1.563-4.462,3.674,3.674,0,0,0-4.311-.49,4.383,4.383,0,0,0-2.2,3.915,5.791,5.791,0,0,0,2.474,4.386c2.9,2.1,7.423,1.99,10.511.392,3.479-1.8,5.276-6.507,2.543-9.73-.568-.67-1.514.079-1.372.8a3.9,3.9,0,0,0,7.722-.954l-1.229.718a9.38,9.38,0,0,0,9.33-1,8.7,8.7,0,0,0,1.746-1.688,10.251,10.251,0,0,1,2.429-1.857l5.894-4.073c.867-.6.043-2.027-.832-1.423l-5.338,3.689c-.89.615-1.785,1.222-2.669,1.844a18.283,18.283,0,0,0-1.6,1.692,7.726,7.726,0,0,1-8.156,1.38.834.834,0,0,0-1.229.718,2.256,2.256,0,1,1-4.48.531l-1.372.8c1.763,2.079.589,5.267-1.442,6.662a9.352,9.352,0,0,1-8.188.861,4.831,4.831,0,0,1-2.844-2.61,2.879,2.879,0,0,1,.653-3.295,2.066,2.066,0,0,1,2.872-.031,3.7,3.7,0,0,1,.979,3.333,13.357,13.357,0,0,1-2.026,4.584,35.2,35.2,0,0,1-3.279,4.566C581.166,428.27,582.339,429.429,583.026,428.616Z" transform="translate(-433.054 -262.603)" fill="#a5a5a5"/>
    </g>
    <path id="Path_33044" data-name="Path 33044" d="M617.023,547.59a7.753,7.753,0,0,1,.78.94l36.519-.894,4.26-7.785,12.589,4.894-6.2,14.515a5.893,5.893,0,0,1-6.125,3.535l-41.26-4.984a7.732,7.732,0,1,1-.56-10.22Z" transform="translate(-248.894 -112.887)" fill="#efc4b8"/>
    <path id="Path_33045" data-name="Path 33045" d="M522.652,701.765H510.645l-5.713-46.316h17.722Z" transform="translate(-35.477 -45.279)" fill="#ffb7b7"/>
    <path id="Path_33046" data-name="Path 33046" d="M750.588,807.759H711.87v-.49a15.071,15.071,0,0,1,15.069-15.07h23.649Z" transform="translate(-260.351 -139.634)" fill="#ccc"/>
    <path id="Path_33047" data-name="Path 33047" d="M401.483,701.083l-11.042-4.718,12.941-44.836,16.3,6.963Z" transform="translate(-23.342 -44.864)" fill="#ffb7b7"/>
    <path id="Path_33048" data-name="Path 33048" d="M623.606,806.662,588,791.452l.192-.45a15.071,15.071,0,0,1,19.778-7.938h0l21.746,9.29Z" transform="translate(-247.221 -138.537)" fill="#ccc"/>
    <path id="Path_33049" data-name="Path 33049" d="M459.365,470.2l-.869,14.071,25.382,2.716,26.557,2.842-7.817-21.366Z" transform="translate(-30.555 -25.46)" fill="#ffb7b7"/>
    <path id="Path_33050" data-name="Path 33050" d="M683.433,566.042l-9.86-68.738,17.09-5.6,5.02-6.884,24.427,1.445L723.7,494.3l13.025,6.155-2,37.174,1.46,31.1Z" transform="translate(-256.292 -107.054)" fill="#ccc"/>
    <path id="Path_33051" data-name="Path 33051" d="M675.6,549.119l-17.384-6.955.074-.309c.075-.312,7.473-31.23,8.456-36.2,1.023-5.176,4.762-6.607,4.921-6.666l.116-.043,6.88,2.094,3.021,23.74Z" transform="translate(-254.664 -108.551)" fill="#ccc"/>
    <path id="Path_33052" data-name="Path 33052" d="M637.052,764.084l-23.14-4.747L650.9,657.283l12.658-34.809s8.028-27.91,11.656-38.711l2.189-14.492,51.818,5.736s14.473,21.255,10.076,55.9l1.988,130.212-23.14,1.187L698.759,630.978,664.741,702.97s-10.722,30.721-18.393,37.38Z" transform="translate(-249.968 -116.005)" fill="#777"/>
    <path id="Path_33053" data-name="Path 33053" d="M718.755,576.156a7.76,7.76,0,0,1,1.219.067l24.174-27.387-2.812-8.417,12.148-5.9,6.426,14.417a5.893,5.893,0,0,1-1.573,6.895l-31.708,26.867a7.732,7.732,0,1,1-7.875-6.538Z" transform="translate(-260.286 -112.321)" fill="#efc4b8"/>
    <path id="Path_33054" data-name="Path 33054" d="M744.694,548.086l-10.084-23.72,3.933-16.523,4.238-5.354a2.441,2.441,0,0,1,1.961.018c1.563.629,2.894,2.557,3.956,5.73l9.451,26.919Z" transform="translate(-262.761 -108.906)" fill="#ccc"/>
    <path id="Path_33055" data-name="Path 33055" d="M687.367,470.026V452.143a23.963,23.963,0,1,1,47.926,0v17.883a3.223,3.223,0,0,1-3.219,3.219H690.586a3.222,3.222,0,0,1-3.219-3.219Z" transform="translate(-257.754 -101.05)" fill="#47423c"/>
    <circle id="Ellipse_1337" data-name="Ellipse 1337" cx="17.569" cy="17.569" r="17.569" transform="translate(431.084 336.64)" fill="#efc4b8"/>
    <path id="Path_33056" data-name="Path 33056" d="M681.026,454.337a18.977,18.977,0,0,1,18.956-18.956h3.577a18.977,18.977,0,0,1,18.956,18.956v.358h-7.558l-2.578-7.219-.516,7.219h-3.906l-1.3-3.642-.26,3.642H681.026Z" transform="translate(-257.082 -101.814)" fill="#47423c"/>
    <path id="Path_33057" data-name="Path 33057" d="M706.656,476.96a3.172,3.172,0,0,1-.252-3.367c3.79-7.209,9.1-20.53,2.053-28.745l-.506-.59H728.4v30.7l-18.577,3.278a3.291,3.291,0,0,1-.57.05,3.206,3.206,0,0,1-2.6-1.327Z" transform="translate(-259.732 -102.755)" fill="#47423c"/>
    <path id="Path_33058" data-name="Path 33058" d="M212.9,690.978l10.851,3.878,20.123-40.011-16.016-5.723Z" transform="translate(-4.524 -44.609)" fill="#e8b886"/>
    <path id="Path_33059" data-name="Path 33059" d="M432.6,794.261l5.026-14.062L459,787.837a14.48,14.48,0,0,1,8.752,18.487l-.158.443Z" transform="translate(-230.75 -138.362)" fill="#ccc"/>
    <path id="Path_33060" data-name="Path 33060" d="M291.836,702.676H303.36l5.483-44.449H291.834Z" transform="translate(-12.89 -45.574)" fill="#e8b886"/>
    <path id="Path_33061" data-name="Path 33061" d="M515.548,793.066h22.7a14.463,14.463,0,0,1,14.463,14.463V808H515.549Z" transform="translate(-239.542 -139.726)" fill="#ccc"/>
    <path id="Path_33062" data-name="Path 33062" d="M489.459,478.455l5.012-9.9s18.67,4.678,20.368,15.5Z" transform="translate(-236.777 -105.33)" fill="#f1f1f1"/>
    <path id="Path_33063" data-name="Path 33063" d="M236.653,516.737l13.629,76.057-36.189,64,21.62,8.46,36.66-62.039,4.7-16.92,2.82,88.358,19.5-.592,8.939-82.505-14.338-76.7Z" transform="translate(-4.65 -30.378)" fill="#a5a5a5"/>
    <path id="Path_33064" data-name="Path 33064" d="M491.3,610.142c-20.023,0-32.735-3.83-33.02-3.89l-.461-.1L468.246,557.8l.47-44.6c0-18.9,12.44-32.835,14.166-34.121a8.132,8.132,0,0,1,4.325-5.315c4.149-1.883,9.22.376,9.433.474l15.219,5.706.072.211c.183.541,20.229,66.348,20.229,66.348s-1.213,57.5-1.636,59.382C530.522,605.883,502.423,610.142,491.3,610.142Z" transform="translate(-233.423 -105.803)" fill="#c99e41"/>
    <circle id="Ellipse_1338" data-name="Ellipse 1338" cx="20.569" cy="20.569" r="20.569" transform="translate(252.691 318.965)" fill="#e8b886"/>
    <path id="Path_33065" data-name="Path 33065" d="M259.823,432.715l35.986,50.209,5.314-23.447Z" transform="translate(-9.497 -21.671)" opacity="0.2"/>
    <path id="Path_33066" data-name="Path 33066" d="M607.78,558.375a8.827,8.827,0,0,1-13.254-2.748l-30.974,4.958,6.71-14.856,28.385-2.43a8.875,8.875,0,0,1,9.133,15.076Z" transform="translate(-244.63 -113.168)" fill="#e8b886"/>
    <path id="Path_33067" data-name="Path 33067" d="M345.842,455.709l11.129-1.092,3.084,15.525-14,.248Z" transform="translate(-18.615 -23.992)" fill="#f1f1f1"/>
    <path id="Path_33068" data-name="Path 33068" d="M573.27,559.383l-54.507-4.853L491.24,510.759l-.085-.387a15.069,15.069,0,0,1,28.131-10.09L535.443,531.8l32.607,4.929Z" transform="translate(-236.919 -107.824)" fill="#c99e41"/>
    <path id="Path_33069" data-name="Path 33069" d="M492.306,456.482l17.073.613c1.041.037,3.865-11.194,4.235-13.524a6.359,6.359,0,0,1,6.633-5.144c1.278.121,4.5-2.267,7.826-5.094,6.313-5.368,5.985-15.448-.95-19.984q-.284-.186-.558-.34c-4.375-2.449-9.493-3.271-14.507-3.334-4.545-.057-9.219.515-13.223,2.666-7.178,3.857-11,12.284-11.334,20.426s2.275,16.1,5.236,23.694" transform="translate(-236.566 -99.089)" fill="#47423c"/>
  </g>
</svg>
