<svg xmlns="http://www.w3.org/2000/svg" xmlns:xlink="http://www.w3.org/1999/xlink" width="335" height="302" viewBox="0 0 335 302">
  <defs>
    <clipPath id="clip-path">
      <rect id="Rectangle_17878" data-name="Rectangle 17878" width="13.814" height="1.027" fill="none"/>
    </clipPath>
    <clipPath id="clip-path-2">
      <rect id="Rectangle_17885" data-name="Rectangle 17885" width="101.664" height="55.634" fill="none"/>
    </clipPath>
    <clipPath id="clip-path-3">
      <rect id="Rectangle_17886" data-name="Rectangle 17886" width="15.615" height="1.027" fill="none"/>
    </clipPath>
    <clipPath id="clip-path-4">
      <rect id="Rectangle_17887" data-name="Rectangle 17887" width="15.616" height="1.027" fill="none"/>
    </clipPath>
    <clipPath id="clip-path-5">
      <rect id="Rectangle_17888" data-name="Rectangle 17888" width="13.814" height="1.028" fill="none"/>
    </clipPath>
    <clipPath id="clip-path-8">
      <path id="Path_32347" data-name="Path 32347" d="M94.245,156.306c-9.18,7.157-19.37,14.221-31.322,8.952-5.565-2.451-9.936-6.763-15.994-8.16a25.5,25.5,0,0,0-23.856,7.171c-.395.4.189.959.607.608,8.6-7.2,19.2-9.465,29.419-3.992,5.136,2.751,9.331,6.788,15.278,7.691,10.279,1.564,19.3-5.386,26.861-11.275.566-.441.051-1.155-.538-1.155a.735.735,0,0,0-.455.161" transform="translate(-22.942 -156.145)" fill="none"/>
    </clipPath>
    <linearGradient id="linear-gradient" x1="-0.486" y1="2.235" x2="-0.464" y2="2.235" gradientUnits="objectBoundingBox">
      <stop offset="0" stop-color="#dd85c5"/>
      <stop offset="0.011" stop-color="#dd85c5"/>
      <stop offset="1" stop-color="#6f75d5"/>
    </linearGradient>
    <clipPath id="clip-path-9">
      <rect id="Rectangle_17896" data-name="Rectangle 17896" width="27.042" height="23.009" fill="none"/>
    </clipPath>
  </defs>
  <g id="Group_34576" data-name="Group 34576" transform="translate(-20 -179.668)">
    <g id="Group_34468" data-name="Group 34468" transform="translate(20 180.026)">
      <path id="Path_32155" data-name="Path 32155" d="M282.188,61.677a82.033,82.033,0,0,0-73.706-12.509c-24.647,8.005-44.767,28.622-52.079,53.363-3.377,11.426-6.4,26.046-18.074,28.713-6.567,1.5-13.142-1.782-19.4-4.266a88.584,88.584,0,0,0-76.554,6.011A87.65,87.65,0,0,0,.6,197.078c-2.956,25.041,5.336,50.384,18.463,71.954,33.417,54.913,98.871,76.558,163.95,76.586,81.146.032,122.762-49.064,143.533-109.837s2.262-129.712-44.355-174.1" transform="translate(0 -45.363)" fill="#f6f6f6"/>
      <path id="Path_32156" data-name="Path 32156" d="M276.613,263.776c4.45-7.813-3.706-5.386-1.917-14.678s-1.419-20.259-9.862-24.533c-4.863-2.462-10.628-2.365-16.015-1.505a63.27,63.27,0,0,0-37.486,20.855c1.946-7.91,3.016-18.151-3.927-22.41-6.437-3.953-14.666.6-20.357,5.571A115.51,115.51,0,0,0,159.2,263.513a61.577,61.577,0,0,0-56.231-18.9,61.578,61.578,0,0,0-45.277,38.331s70.443,35.865,134.427,24.82c60.42-10.427,84.5-43.991,84.5-43.991" transform="translate(13.475 -8.236)" fill="#e8e8ea"/>
    </g>
    <g id="Group_34545" data-name="Group 34545" transform="translate(26.96 179.668)">
      <g id="Group_34546" data-name="Group 34546" transform="translate(0 0)">
        <g id="Group_34536" data-name="Group 34536" transform="translate(24.94 122.621)">
          <g id="Group_34548" data-name="Group 34548">
            <path id="Path_32338" data-name="Path 32338" d="M117.025,92.9v98.126a3.948,3.948,0,0,0,3.947,3.948H251.679a3.948,3.948,0,0,0,3.947-3.948V89.488a3.947,3.947,0,0,0-4.05-3.945L120.869,88.954a3.946,3.946,0,0,0-3.844,3.945" transform="translate(40.514 -85.541)" fill="#fff" stroke="#cecece" stroke-width="1"/>
            <g id="Group_34516" data-name="Group 34516" transform="translate(171.984 85.719)" opacity="0.36">
              <g id="Group_34515" data-name="Group 34515">
                <g id="Group_34514" data-name="Group 34514" clip-path="url(#clip-path)">
                  <path id="Path_32339" data-name="Path 32339" d="M140.1,141.027c0,.284-3.092.513-6.906.513s-6.908-.229-6.908-.513,3.092-.513,6.908-.513,6.906.229,6.906.513" transform="translate(-126.289 -140.513)" fill="#251a51"/>
                </g>
              </g>
            </g>
            <path id="Path_32340" data-name="Path 32340" d="M241.113,102.661c-.048.1-1.665-.834-4.835-1.837a31.067,31.067,0,0,0-13.868-1.029,30.287,30.287,0,0,0-9.145,2.938,43.094,43.094,0,0,0-8.994,6.468c-2.949,2.6-5.875,5.557-9.253,8.289a31.89,31.89,0,0,1-11.81,6.392,17.847,17.847,0,0,1-6.9.416,22.323,22.323,0,0,1-6.39-1.973c-3.961-1.867-7.347-4.319-10.7-6.365a33.363,33.363,0,0,0-10.067-4.513,29.882,29.882,0,0,0-9.576-.734,30.829,30.829,0,0,0-13.218,4.3c-2.836,1.734-4.173,3.038-4.249,2.946a6.538,6.538,0,0,1,.961-.943,22.964,22.964,0,0,1,3.077-2.342,30.166,30.166,0,0,1,23.206-4.059,33.928,33.928,0,0,1,10.362,4.534c3.4,2.044,6.788,4.464,10.631,6.258a18.2,18.2,0,0,0,12.612,1.475,31.194,31.194,0,0,0,11.433-6.18c3.323-2.671,6.262-5.607,9.256-8.214a43.292,43.292,0,0,1,9.234-6.518,30.64,30.64,0,0,1,23.524-1.53,24.452,24.452,0,0,1,3.552,1.528,6.562,6.562,0,0,1,1.159.689" transform="translate(43.356 -78.131)" fill="#353584"/>
            <g id="Group_34519" data-name="Group 34519" transform="translate(171.862 27.275)" opacity="0.6">
              <g id="Group_34518" data-name="Group 34518">
                <g id="Group_34517" data-name="Group 34517" clip-path="url(#clip-path-2)">
                  <rect id="Rectangle_17879" data-name="Rectangle 17879" width="12.785" height="34.578" transform="translate(16.544 20.304)" fill="#56a73c"/>
                  <rect id="Rectangle_17880" data-name="Rectangle 17880" width="12.785" height="34.578" transform="translate(70.796 20.304)" fill="#56a73c"/>
                  <rect id="Rectangle_17881" data-name="Rectangle 17881" width="12.785" height="54.881" transform="translate(88.879 0)" fill="#56a73c"/>
                  <rect id="Rectangle_17882" data-name="Rectangle 17882" width="12.785" height="11.637" transform="translate(0 43.996)" fill="#56a73c"/>
                  <rect id="Rectangle_17883" data-name="Rectangle 17883" width="12.785" height="18.963" transform="translate(34.628 35.919)" fill="#56a73c"/>
                  <rect id="Rectangle_17884" data-name="Rectangle 17884" width="12.785" height="23.316" transform="translate(52.712 31.566)" fill="#56a73c"/>
                </g>
              </g>
            </g>
            <g id="Group_34522" data-name="Group 34522" transform="translate(260.43 85.719)" opacity="0.36">
              <g id="Group_34521" data-name="Group 34521">
                <g id="Group_34520" data-name="Group 34520" clip-path="url(#clip-path-3)">
                  <path id="Path_32341" data-name="Path 32341" d="M198.625,141.027c0,.284-3.5.513-7.807.513s-7.809-.229-7.809-.513,3.5-.513,7.809-.513,7.807.229,7.807.513" transform="translate(-183.011 -140.513)" fill="#251a51"/>
                </g>
              </g>
            </g>
            <g id="Group_34525" data-name="Group 34525" transform="translate(241.436 85.719)" opacity="0.36">
              <g id="Group_34524" data-name="Group 34524">
                <g id="Group_34523" data-name="Group 34523" clip-path="url(#clip-path-4)">
                  <path id="Path_32342" data-name="Path 32342" d="M186.445,141.027c0,.284-3.5.513-7.807.513s-7.809-.229-7.809-.513,3.5-.513,7.809-.513,7.807.229,7.807.513" transform="translate(-170.829 -140.513)" fill="#251a51"/>
                </g>
              </g>
            </g>
            <g id="Group_34528" data-name="Group 34528" transform="translate(223.544 85.718)" opacity="0.36">
              <g id="Group_34527" data-name="Group 34527">
                <g id="Group_34526" data-name="Group 34526" clip-path="url(#clip-path-5)">
                  <path id="Path_32343" data-name="Path 32343" d="M173.169,141.027c0,.284-3.092.515-6.906.515s-6.908-.231-6.908-.515,3.092-.513,6.908-.513,6.906.229,6.906.513" transform="translate(-159.355 -140.513)" fill="#251a51"/>
                </g>
              </g>
            </g>
            <g id="Group_34531" data-name="Group 34531" transform="translate(204.861 85.718)" opacity="0.36">
              <g id="Group_34530" data-name="Group 34530">
                <g id="Group_34529" data-name="Group 34529" clip-path="url(#clip-path-5)">
                  <path id="Path_32344" data-name="Path 32344" d="M161.187,141.027c0,.284-3.092.515-6.908.515s-6.906-.231-6.906-.515,3.092-.513,6.906-.513,6.908.229,6.908.513" transform="translate(-147.373 -140.513)" fill="#251a51"/>
                </g>
              </g>
            </g>
            <g id="Group_34534" data-name="Group 34534" transform="translate(187.708 85.718)" opacity="0.36">
              <g id="Group_34533" data-name="Group 34533">
                <g id="Group_34532" data-name="Group 34532" clip-path="url(#clip-path-5)">
                  <path id="Path_32345" data-name="Path 32345" d="M150.187,141.027c0,.284-3.092.515-6.908.515s-6.906-.231-6.906-.515,3.092-.513,6.906-.513,6.908.229,6.908.513" transform="translate(-136.373 -140.513)" fill="#251a51"/>
                </g>
              </g>
            </g>
            <path id="Path_32346" data-name="Path 32346" d="M151.571,196.644H19.113a3.119,3.119,0,0,1-3.119-3.119V146.088a3.12,3.12,0,0,1,3.119-3.119H151.571a3.119,3.119,0,0,1,3.119,3.119v47.437a3.118,3.118,0,0,1-3.119,3.119" transform="translate(-15.994 -53.421)" fill="#fff" stroke="#cecece" stroke-width="1"/>
          </g>
        </g>
        <g id="Group_34538" data-name="Group 34538" transform="translate(35.774 232.863)">
          <g id="Group_34537" data-name="Group 34537" clip-path="url(#clip-path-8)">
            <rect id="Rectangle_17892" data-name="Rectangle 17892" width="73.125" height="15.432" transform="translate(-0.264 -1.051)" fill="url(#linear-gradient)"/>
          </g>
        </g>
        <g id="Group_34543" data-name="Group 34543">
          <g id="Group_34547" data-name="Group 34547">
            <path id="Path_32389" data-name="Path 32389" d="M172.656,264.084l6.373,48.145a226.4,226.4,0,0,0,33.587-4.665,171.783,171.783,0,0,0,29.523-10.076V250.676Z" transform="translate(0 -10.764)"/>
            <path id="Path_32348" data-name="Path 32348" d="M72.454,155.382a2.263,2.263,0,0,1,.906,2.415,1.884,1.884,0,0,1-2.328,1.151,1.942,1.942,0,0,1-1.154-2.222c.3-1.088,1.347-1.176,2.277-1.316.583-.089.44-.879,0-1.043-1.435-.535-3.073.837-3.446,2.169a3.057,3.057,0,0,0,1.987,3.633,3.119,3.119,0,0,0,3.694-1.743,2.856,2.856,0,0,0-1.575-3.663.373.373,0,0,0-.36.619" transform="translate(38.374 75.678)" fill="#a1e0dc"/>
            <path id="Path_32349" data-name="Path 32349" d="M55.016,163.568c.48.059,1.163.412,1.131,1a.842.842,0,0,1-.989.675c-.987-.214-.254-1.26.07-1.7.36-.483-.231-1.029-.716-.931-2.387.488-1.184,4.525,1.279,3.919a2.036,2.036,0,0,0,1.608-2.308,1.975,1.975,0,0,0-2.507-1.572.469.469,0,0,0,.125.917" transform="translate(29.765 80.148)" fill="#a1e0dc"/>
            <path id="Path_32350" data-name="Path 32350" d="M23.863,168.856c4.977.061,9.956.14,14.934.092a.491.491,0,0,0,0-.981c-4.977-.047-9.956.033-14.934.094a.4.4,0,0,0,0,.8" transform="translate(13.132 83.174)"/>
            <path id="Path_32351" data-name="Path 32351" d="M22.254,171.923c26.157.578,52.415.621,78.578.384a.75.75,0,0,0,0-1.5c-26.164-.235-52.421-.193-78.578.384a.366.366,0,0,0,0,.731" transform="translate(12.25 84.696)"/>
            <g id="Group_34541" data-name="Group 34541" transform="translate(125.222 230.443)" opacity="0.6">
              <g id="Group_34540" data-name="Group 34540">
                <g id="Group_34539" data-name="Group 34539" clip-path="url(#clip-path-9)">
                  <rect id="Rectangle_17893" data-name="Rectangle 17893" width="7.669" height="23.009" transform="translate(0 0.001)" fill="#d42424"/>
                  <rect id="Rectangle_17894" data-name="Rectangle 17894" width="7.669" height="14.726" transform="translate(9.686 8.284)" fill="#d42424"/>
                  <rect id="Rectangle_17895" data-name="Rectangle 17895" width="7.669" height="9.253" transform="translate(19.373 13.757)" fill="#d42424"/>
                </g>
              </g>
            </g>
            <path id="Path_32352" data-name="Path 32352" d="M73.261,126.182l-6.309-11.137-7.942-5.37a3.293,3.293,0,0,1-1.413-3.192l.934-6.555a6.928,6.928,0,0,1,1.254-3.1l1.678-1.854s-8.77-10.418-6.883-11.048S66.113,95.7,68,95.909s3.393-1.051,5.261-.21,3.755,5.886,3.755,5.886l1.049,11.983,3.354,7.148Z" transform="translate(30.379 36.573)" fill="#e8b886"/>
            <path id="Path_32353" data-name="Path 32353" d="M132.854,79.058l1.21,28.6a11.257,11.257,0,0,1-22.488,1.065l-.85-16.357Z" transform="translate(61.93 33.888)" fill="#d29660"/>
            <path id="Path_32354" data-name="Path 32354" d="M191.893,168.723l.12-38.167-3.307-21.727a18.7,18.7,0,0,0-23.564-15.213l-20.655,5.847A48.653,48.653,0,0,0,126.476,109L94.67,136.127,75.007,107.118,63,115.547c0,2.409,14.414,52.987,28.227,51.181,9.845-1.288,31.124-13.147,41.052-17.647a168.712,168.712,0,0,1,6.364,16.047l-1.817,45.031a14.2,14.2,0,0,0,13.973,14.784c18.244.27,48.278-2.91,57.539-25.457Z" transform="translate(35.234 41.198)" fill="#5e5e5e"/>
            <path id="Path_32355" data-name="Path 32355" d="M135.991,71.273l1.586,10.39s8.2-.773,7.611,7.022-6.757,5.877-6.757,5.877,2.946,18.939-17.447,17.455c-16.359-1.19-19.9-21.372-21.846-38.672a11.124,11.124,0,0,1,10.647-12.368l13.242-.469a12.671,12.671,0,0,1,12.964,10.767" transform="translate(55.409 23.58)" fill="#e8b886"/>
            <path id="Path_32356" data-name="Path 32356" d="M114.661,59.392s16.6-9.208,26.494,1.771,10.245,36.125,18.723,40.729,24.021,5.313,26.493,20.542,9.538,15.936,9.538,15.936l-14.837,9.563-6.711-3.187,1.413,6.374L168,154.665l-5.3-3.189.352,7.438s-6.357,9.209-10.6,0-.706-29.75-8.124-35.063-26.848-5.313-26.848-25.5c0,0,7.419-2.479,5.3-7.438s-8.124-2.479-8.124-2.479-7.065-2.479-6.359-8.5l-9.719,4.829s-7.7-27.478,16.078-25.372" transform="translate(54.472 20.896)"/>
            <path id="Path_32357" data-name="Path 32357" d="M79.36,135.423H8.643A8.643,8.643,0,0,1,0,126.78V106.643A8.643,8.643,0,0,1,8.643,98H79.36A8.643,8.643,0,0,1,88,106.643V126.78a8.643,8.643,0,0,1-8.643,8.643" transform="translate(0 44.4)" fill="#f4d3d3"/>
            <path id="Path_32358" data-name="Path 32358" d="M17.77,108.66H16.257v-2.012h3.756v11.363H17.77Z" transform="translate(9.093 49.239)" fill="#d42424"/>
            <path id="Path_32359" data-name="Path 32359" d="M19.975,116.324c2.57-2.181,5.267-4.193,5.267-6.281,0-1.014-.452-1.7-1.528-1.7-1.043,0-1.622.747-1.636,1.948H19.958a3.573,3.573,0,0,1,3.788-3.8c2.447,0,3.678,1.45,3.678,3.429,0,2.634-2.542,4.69-4.349,6.219h4.6v1.807h-7.7Z" transform="translate(11.163 49.15)" fill="#d42424"/>
            <path id="Path_32360" data-name="Path 32360" d="M33.279,106.629v1.916H28.229v2.665a2.97,2.97,0,0,1,2.228-.918c2.651,0,3.554,1.994,3.554,3.755a3.647,3.647,0,0,1-3.928,3.975c-2.447,0-3.85-1.355-4.035-3.211h2.119a1.778,1.778,0,0,0,1.887,1.372c1.277,0,1.854-.9,1.854-2.105a1.726,1.726,0,0,0-1.87-1.979,1.7,1.7,0,0,0-1.715,1.2H26.234v-6.671Z" transform="translate(14.569 49.228)" fill="#d42424"/>
            <path id="Path_32361" data-name="Path 32361" d="M33.495,114.922a1.279,1.279,0,1,1,1.325-1.277,1.284,1.284,0,0,1-1.325,1.277" transform="translate(17.975 52.426)" fill="#d42424"/>
            <path id="Path_32362" data-name="Path 32362" d="M42.318,106.629v1.916H37.268v2.665a2.97,2.97,0,0,1,2.228-.918c2.651,0,3.554,1.994,3.554,3.755a3.647,3.647,0,0,1-3.928,3.975c-2.447,0-3.85-1.355-4.035-3.211h2.119a1.778,1.778,0,0,0,1.887,1.372c1.277,0,1.854-.9,1.854-2.105a1.726,1.726,0,0,0-1.87-1.979,1.7,1.7,0,0,0-1.715,1.2H35.273v-6.671Z" transform="translate(19.625 49.228)" fill="#d42424"/>
            <path id="Path_32363" data-name="Path 32363" d="M92.36,91.423H21.643A8.643,8.643,0,0,1,13,82.78V62.643A8.643,8.643,0,0,1,21.643,54H92.36A8.643,8.643,0,0,1,101,62.643V82.78a8.643,8.643,0,0,1-8.643,8.643" transform="translate(7.271 19.989)" fill="#f7e8cb"/>
            <rect id="Rectangle_17897" data-name="Rectangle 17897" width="88.003" height="37.423" rx="5.543" transform="translate(20.27 73.989)" fill="none" stroke="#c99e41" stroke-width="1"/>
            <path id="Path_32364" data-name="Path 32364" d="M27.765,64.66H26.253V62.649h3.756V74.011H27.765Z" transform="translate(14.683 24.81)" fill="#c99e41"/>
            <path id="Path_32365" data-name="Path 32365" d="M33.906,62.479c2.337,0,3.585,1.325,3.585,3.008a2.635,2.635,0,0,1-1.715,2.571v.062a2.709,2.709,0,0,1,1.918,2.836c0,1.854-1.31,3.226-3.694,3.226-2.245,0-3.943-1.121-4.035-3.507h2.118a1.7,1.7,0,0,0,1.871,1.684A1.507,1.507,0,0,0,35.6,70.77c0-1.277-.811-1.745-2.431-1.745h-.452V67.232h.452c1.279,0,2.213-.359,2.213-1.48a1.349,1.349,0,0,0-1.542-1.419,1.478,1.478,0,0,0-1.59,1.4H30.118c.111-2.1,1.606-3.257,3.788-3.257" transform="translate(16.759 24.715)" fill="#c99e41"/>
            <path id="Path_32366" data-name="Path 32366" d="M40.242,62.51c3.211,0,4.207,2.462,4.207,5.751,0,3.32-1,5.8-4.207,5.8s-4.209-2.476-4.209-5.8c0-3.289,1-5.751,4.209-5.751m0,2.026c-1.84,0-2.057,1.776-2.057,3.725,0,2.026.217,3.77,2.057,3.77s2.057-1.745,2.057-3.77c0-1.949-.218-3.725-2.057-3.725" transform="translate(20.154 24.733)" fill="#c99e41"/>
            <path id="Path_32367" data-name="Path 32367" d="M43.76,70.922a1.279,1.279,0,1,1,1.325-1.277,1.284,1.284,0,0,1-1.325,1.277" transform="translate(23.716 27.992)" fill="#c99e41"/>
            <path id="Path_32368" data-name="Path 32368" d="M45.02,72.324c2.57-2.181,5.267-4.193,5.267-6.281,0-1.014-.452-1.7-1.528-1.7-1.043,0-1.622.747-1.636,1.948H45a3.573,3.573,0,0,1,3.788-3.8c2.447,0,3.678,1.45,3.678,3.429,0,2.634-2.542,4.69-4.349,6.219h4.6v1.807h-7.7Z" transform="translate(25.171 24.721)" fill="#c99e41"/>
            <path id="Path_32369" data-name="Path 32369" d="M58.324,62.629v1.916H53.274V67.21a2.97,2.97,0,0,1,2.228-.918c2.651,0,3.554,1.994,3.554,3.755a3.647,3.647,0,0,1-3.928,3.975c-2.447,0-3.85-1.355-4.035-3.211h2.119A1.778,1.778,0,0,0,55.1,72.183c1.277,0,1.854-.9,1.854-2.105a1.726,1.726,0,0,0-1.87-1.979,1.7,1.7,0,0,0-1.715,1.2H51.279V62.629Z" transform="translate(28.577 24.799)" fill="#c99e41"/>
            <path id="Path_32370" data-name="Path 32370" d="M125.36,51.423H54.643A8.643,8.643,0,0,1,46,42.78V22.643A8.643,8.643,0,0,1,54.643,14H125.36A8.643,8.643,0,0,1,134,22.643V42.78a8.643,8.643,0,0,1-8.643,8.643" transform="translate(25.728 -2.17)" fill="#e8e8e8"/>
            <path id="Path_32371" data-name="Path 32371" d="M63.635,24.66H62.123V22.649h3.756V34.011H63.635Z" transform="translate(34.746 2.668)"/>
            <path id="Path_32372" data-name="Path 32372" d="M69.776,22.479c2.337,0,3.585,1.325,3.585,3.008a2.635,2.635,0,0,1-1.715,2.571v.062a2.709,2.709,0,0,1,1.918,2.836c0,1.854-1.31,3.226-3.694,3.226-2.244,0-3.943-1.121-4.035-3.507h2.118a1.7,1.7,0,0,0,1.871,1.684,1.507,1.507,0,0,0,1.651-1.591c0-1.277-.811-1.745-2.431-1.745h-.452V27.232h.452c1.279,0,2.213-.359,2.213-1.48a1.349,1.349,0,0,0-1.542-1.419,1.478,1.478,0,0,0-1.59,1.4H65.988c.111-2.1,1.606-3.257,3.788-3.257" transform="translate(36.822 2.573)"/>
            <path id="Path_32373" data-name="Path 32373" d="M79.395,22.629v1.916H74.345V27.21a2.97,2.97,0,0,1,2.228-.918c2.651,0,3.554,1.994,3.554,3.755A3.647,3.647,0,0,1,76.2,34.021c-2.447,0-3.85-1.355-4.035-3.211h2.119a1.778,1.778,0,0,0,1.887,1.372c1.277,0,1.854-.9,1.854-2.105a1.726,1.726,0,0,0-1.87-1.979,1.7,1.7,0,0,0-1.715,1.2H72.35V22.629Z" transform="translate(40.362 2.657)"/>
            <path id="Path_32374" data-name="Path 32374" d="M79.61,30.922a1.279,1.279,0,1,1,1.325-1.277,1.284,1.284,0,0,1-1.325,1.277" transform="translate(43.768 5.865)"/>
            <path id="Path_32375" data-name="Path 32375" d="M85.152,22.51c3.211,0,4.207,2.462,4.207,5.751,0,3.32-1,5.8-4.207,5.8s-4.21-2.476-4.21-5.8c0-3.289,1-5.751,4.21-5.751m0,2.026c-1.84,0-2.057,1.776-2.057,3.725,0,2.026.217,3.77,2.057,3.77s2.055-1.745,2.055-3.77c0-1.949-.218-3.725-2.055-3.725" transform="translate(45.272 2.59)"/>
            <path id="Path_32376" data-name="Path 32376" d="M224.36,73.423H153.643A8.643,8.643,0,0,1,145,64.78V44.643A8.643,8.643,0,0,1,153.643,36H224.36A8.643,8.643,0,0,1,233,44.643V64.78a8.643,8.643,0,0,1-8.643,8.643" transform="translate(81.1 10.002)" fill="#caefbd"/>
            <path id="Path_32377" data-name="Path 32377" d="M162.335,46.66h-1.513V44.649h3.756V56.011h-2.244Z" transform="translate(89.95 14.816)" fill="#56a73c"/>
            <path id="Path_32378" data-name="Path 32378" d="M170.007,53.746h-5.454V52.032l5.1-7.294h2.54v7.107h1.369v1.9H172.19V55.96h-2.183Zm.14-1.9V47.077l-3.2,4.768Z" transform="translate(92.036 14.866)" fill="#56a73c"/>
            <path id="Path_32379" data-name="Path 32379" d="M178.714,44.629v1.916h-5.049V49.21a2.97,2.97,0,0,1,2.228-.918c2.651,0,3.554,1.994,3.554,3.755a3.647,3.647,0,0,1-3.928,3.975c-2.447,0-3.85-1.355-4.035-3.211H173.6a1.778,1.778,0,0,0,1.887,1.372c1.277,0,1.854-.9,1.854-2.105a1.726,1.726,0,0,0-1.87-1.979,1.7,1.7,0,0,0-1.715,1.2h-2.089V44.629Z" transform="translate(95.912 14.805)" fill="#56a73c"/>
            <path id="Path_32380" data-name="Path 32380" d="M178.93,52.922a1.279,1.279,0,1,1,1.325-1.277,1.284,1.284,0,0,1-1.325,1.277" transform="translate(99.318 17.996)" fill="#56a73c"/>
            <path id="Path_32381" data-name="Path 32381" d="M187.754,44.629v1.916H182.7V49.21a2.97,2.97,0,0,1,2.228-.918c2.651,0,3.554,1.994,3.554,3.755a3.647,3.647,0,0,1-3.928,3.975c-2.447,0-3.85-1.355-4.036-3.211h2.119a1.778,1.778,0,0,0,1.887,1.372c1.277,0,1.854-.9,1.854-2.105a1.726,1.726,0,0,0-1.87-1.979,1.7,1.7,0,0,0-1.715,1.2h-2.089V44.629Z" transform="translate(100.968 14.805)" fill="#56a73c"/>
            <g id="Group_34610" data-name="Group 34610" transform="translate(177.761)">
              <path id="Path_32382" data-name="Path 32382" d="M193.36,37.423H122.643A8.643,8.643,0,0,1,114,28.78V8.643A8.643,8.643,0,0,1,122.643,0H193.36A8.643,8.643,0,0,1,202,8.643V28.78a8.643,8.643,0,0,1-8.643,8.643" transform="translate(-114)" fill="#caefbd"/>
              <path id="Path_32383" data-name="Path 32383" d="M129.455,10.66h-1.513V8.649H131.7V20.011h-2.244Z" transform="translate(-106.202 4.837)" fill="#56a73c"/>
              <path id="Path_32384" data-name="Path 32384" d="M137.127,17.746h-5.454V16.032l5.1-7.294h2.54v7.107h1.369v1.9h-1.369V19.96h-2.183Zm.14-1.9V11.077l-3.2,4.768Z" transform="translate(-104.115 4.887)" fill="#56a73c"/>
              <path id="Path_32385" data-name="Path 32385" d="M142.551,8.51c3.211,0,4.207,2.462,4.207,5.751,0,3.32-1,5.8-4.207,5.8s-4.209-2.476-4.209-5.8c0-3.289,1-5.751,4.209-5.751m0,2.026c-1.84,0-2.057,1.776-2.057,3.725,0,2.026.217,3.77,2.057,3.77s2.057-1.745,2.057-3.77c0-1.949-.218-3.725-2.057-3.725" transform="translate(-100.385 4.76)" fill="#56a73c"/>
              <path id="Path_32386" data-name="Path 32386" d="M146.069,16.922a1.279,1.279,0,1,1,1.325-1.277,1.284,1.284,0,0,1-1.325,1.277" transform="translate(-96.822 8.035)" fill="#56a73c"/>
              <path id="Path_32387" data-name="Path 32387" d="M147.329,18.324c2.57-2.181,5.267-4.193,5.267-6.281,0-1.014-.452-1.7-1.528-1.7-1.043,0-1.622.747-1.636,1.948h-2.121a3.573,3.573,0,0,1,3.788-3.8c2.447,0,3.678,1.45,3.678,3.429,0,2.634-2.542,4.69-4.349,6.219h4.6v1.807h-7.7Z" transform="translate(-95.368 4.748)" fill="#56a73c"/>
              <path id="Path_32388" data-name="Path 32388" d="M160.633,8.629v1.916h-5.049V13.21a2.97,2.97,0,0,1,2.228-.918c2.651,0,3.554,1.994,3.554,3.755a3.647,3.647,0,0,1-3.928,3.975c-2.447,0-3.85-1.355-4.036-3.211h2.119a1.778,1.778,0,0,0,1.887,1.372c1.277,0,1.854-.9,1.854-2.105a1.726,1.726,0,0,0-1.87-1.979,1.7,1.7,0,0,0-1.715,1.2h-2.089V8.629Z" transform="translate(-91.962 4.826)" fill="#56a73c"/>
            </g>
          </g>
        </g>
      </g>
    </g>
  </g>
</svg>
