<svg xmlns="http://www.w3.org/2000/svg" xmlns:xlink="http://www.w3.org/1999/xlink" width="335" height="302" viewBox="0 0 335 302">
  <defs>
    <clipPath id="clip-path">
      <path id="Path_32192" data-name="Path 32192" d="M208.483,49.174A81.479,81.479,0,0,0,156.4,102.595c-3.377,11.439-6.4,26.075-18.074,28.745-6.567,1.5-13.141-1.784-19.4-4.27A86.781,86.781,0,0,0,.6,197.247,87.543,87.543,0,0,0,0,207.486v.1c.011,21.631,7.738,43.07,19.062,61.7,33.416,54.973,98.87,76.641,163.948,76.669,81.146.033,122.761-49.117,143.531-109.959S328.8,106.135,282.188,61.7a81.8,81.8,0,0,0-49.277-16.334,79.038,79.038,0,0,0-24.429,3.811" transform="translate(0 -45.363)" fill="none"/>
    </clipPath>
  </defs>
  <g id="Group_34465" data-name="Group 34465" transform="translate(0 -57.568)">
    <g id="Group_34458" data-name="Group 34458" transform="translate(0 57.594)">
      <g id="Group_34466" data-name="Group 34466">
        <path id="Path_32155" data-name="Path 32155" d="M282.188,61.7a80.371,80.371,0,0,0-125.785,40.9c-3.377,11.439-6.4,26.075-18.074,28.745-6.567,1.5-13.142-1.784-19.4-4.27A86.781,86.781,0,0,0,.6,197.245c-2.956,25.069,5.336,50.44,18.463,72.033,33.417,54.974,98.871,76.642,163.95,76.67,81.146.032,122.762-49.118,143.533-109.959S328.8,106.135,282.188,61.7" transform="translate(0 -45.363)" fill="#f6f6f6"/>
        <path id="Path_32156" data-name="Path 32156" d="M276.613,263.776c4.45-7.813-3.706-5.386-1.917-14.678s-1.419-20.259-9.862-24.533c-4.863-2.462-10.628-2.365-16.015-1.505a63.27,63.27,0,0,0-37.486,20.855c1.946-7.91,3.016-18.151-3.927-22.41-6.437-3.953-14.666.6-20.357,5.571A115.51,115.51,0,0,0,159.2,263.513a61.577,61.577,0,0,0-56.231-18.9,61.578,61.578,0,0,0-45.277,38.331s70.443,35.865,134.427,24.82c60.42-10.427,84.5-43.991,84.5-43.991" transform="translate(13.475 -7.905)" fill="#e8e8ea"/>
        <path id="Path_32157" data-name="Path 32157" d="M30.869,184.516c-.935,5.5-1.774,11-2.575,16.523a1.05,1.05,0,0,0,1.268,1.268c5.165-.778,10.326-1.519,15.449-2.531a.967.967,0,0,0,.572-1.408c-2.958-5.254-6.624-11.407-11.846-14.714-1.066-.675-2.008.785-1.275,1.654,3.977,4.716,8.438,8.487,11.467,14.028q.414-.721.828-1.441c-5.276.639-10.5,1.547-15.743,2.425q.652.5,1.3.994c.675-5.537,1.308-11.071,1.844-16.622.072-.733-1.169-.908-1.294-.175" transform="translate(6.135 -16.466)" fill="#d42424"/>
        <path id="Path_32158" data-name="Path 32158" d="M168.427,190.473c2.958-7.011,11.486-7.786,15.328-1.3,1.2,2.027,1.521,4.475,2.646,6.541,1.455,2.675,3.517,4.713,6.648,5.193,5.681.87,10.023-3.942,9.448-9.4-.138-1.306-2.091-1.374-2.087,0,.015,7.629-8.4,9.588-12.078,3.084-1.155-2.042-1.483-4.491-2.663-6.533a10.7,10.7,0,0,0-5.605-4.977c-5.89-2.2-11.2,1.419-12.973,7.03-.277.876,1,1.163,1.336.368" transform="translate(36.897 -16.704)" fill="#56a73c"/>
        <path id="Path_32159" data-name="Path 32159" d="M193.559,67.041c-2.245-4.342-1.064-9.91,3.658-11.992,3.276-1.443,6.259-.225,9.39.859,3.2,1.109,6.478,1.914,9.591.1,5.661-3.3,5.178-10.843.123-14.326-.967-.666-2.17.87-1.266,1.64,1.333,1.135,3.135,3.79,3.107,5.547q-1.546,2.6-3.095,5.2l-4.947.61c-1.985-.185-3.942-1.43-5.843-1.98a10.991,10.991,0,0,0-8.723.635c-5.442,3-6.4,9.407-3.193,14.4a.694.694,0,0,0,1.2-.7" transform="translate(22.068 -18.586)" fill="#56a73c"/>
        <path id="Path_32160" data-name="Path 32160" d="M101.162,130.9a35.519,35.519,0,0,0,4.3,7.423c.961,1.346,2.2,3.635,3.989,4.027,1.734.38,3.035-.954,4.371-1.89q4.533-3.178,9.031-6.4a1.192,1.192,0,0,0,.42-1.6q-3.987-6.139-7.976-12.277a1.185,1.185,0,0,0-1.6-.42c-3.244,2.3-6.572,4.5-9.692,6.965-.978.773.287,2.377,1.328,1.721,3.276-2.068,6.385-4.424,9.547-6.662l-1.6-.42q3.989,6.137,7.977,12.277.21-.8.421-1.6-2.707,1.926-5.412,3.852c-1.313.938-3.86,3.614-5.391,3.887-3.167.562-7.015-7.221-8.95-9.317-.293-.316-.929.013-.758.442" transform="translate(2.321 -60.701)" fill="#edc483"/>
        <path id="Path_32161" data-name="Path 32161" d="M186.551,11.313a35.519,35.519,0,0,0,4.3,7.423c.961,1.346,2.2,3.634,3.989,4.027,1.733.381,3.035-.954,4.371-1.891,3.02-2.118,6.024-4.259,9.03-6.4a1.194,1.194,0,0,0,.421-1.6Q204.678,6.73,200.687.593a1.184,1.184,0,0,0-1.6-.421c-3.243,2.3-6.57,4.5-9.691,6.966-.978.773.287,2.377,1.328,1.721C194,6.791,197.106,4.435,200.267,2.2l-1.6-.42q3.989,6.139,7.976,12.278.21-.8.421-1.6-2.705,1.926-5.411,3.852c-1.313.938-3.861,3.614-5.392,3.887-3.164.561-7.013-7.223-8.948-9.317-.293-.316-.929.013-.758.442" transform="translate(106.166 6.209)" fill="#d42424"/>
        <path id="Path_32162" data-name="Path 32162" d="M145.7,120.626s-4.753-4.781-5.4-5.495c-3.736-4.149-.016-1.8,1.664-1.339,1.494.408-2.758-9.906-1.389-9.53s2.916,5.389,2.916,5.389-1.812-6.979-.3-5.547,2.924,5.4,2.924,5.4-1.6-7.266-.315-5.759a15.339,15.339,0,0,1,2.18,4.2s-.8-6.293.349-4.556S157,119.328,157,119.328Z" transform="translate(30.605 -34.451)" fill="#d29660"/>
        <path id="Path_32163" data-name="Path 32163" d="M140.59,123.248s4.756-4.781,5.4-5.495c3.736-4.149.016-1.8-1.664-1.339-1.494.408,2.758-9.906,1.389-9.531s-2.916,5.389-2.916,5.389,1.812-6.978.3-5.547-2.924,5.4-2.924,5.4,1.6-7.268.315-5.759a15.339,15.339,0,0,0-2.18,4.2s.8-6.293-.349-4.556-8.67,15.939-8.67,15.939Z" transform="translate(28.529 -33.865)" fill="#e8b886"/>
        <path id="Path_32164" data-name="Path 32164" d="M193.549,233.375s2.671-35.369,1.515-38.065-6.258-20.29-6.258-20.29l11.006-17.678,14.253-2.31,10.642,9.209a28.257,28.257,0,0,1,9.754,20.536l1.391,47.189Z" transform="translate(41.731 -22.6)" fill="#5e5e5e"/>
        <path id="Path_32165" data-name="Path 32165" d="M100.98,175.89c-.256-.793,1.281-16.672-16.952-16.245-17.093.4-28.412,5.537-35.685,13.595l6.136,24.805,2.189,41.743,48.422-4.45Z" transform="translate(10.692 -21.555)" fill="#5e5e5e"/>
        <path id="Path_32166" data-name="Path 32166" d="M53.17,169.42s-24.127,35.7-21.857,63.871,35.765,1.423,39.455-1.706a51.884,51.884,0,0,0,7.394-8.538l-2.229-13.091L53.17,220.484l8.347-16.371Z" transform="translate(6.761 -19.371)" fill="#5e5e5e"/>
        <path id="Path_32167" data-name="Path 32167" d="M80.735,169.3s21.574-10.979,32.361-21.2,30.035-33.426,30.035-33.426l8.85,7.292s-19.643,32.235-31.737,45.544c-7.909,8.706-27.662,27.457-27.662,27.457Z" transform="translate(17.875 -31.673)" fill="#5e5e5e"/>
        <path id="Path_32168" data-name="Path 32168" d="M212.67,165.744s-20.787-10.579-31.18-20.424-30.628-35.027-30.628-35.027l-6.837,9.846s18.926,31.057,30.58,43.882c7.621,8.386,26.65,26.454,26.65,26.454Z" transform="translate(31.881 -32.66)" fill="#5e5e5e"/>
        <path id="Path_32169" data-name="Path 32169" d="M77.2,148.306l-.768,17.376a6.734,6.734,0,0,1-9.741,5.725c-.056-.028-.112-.058-.168-.085a6.733,6.733,0,0,1-3.713-6.232c.186-6.105.252-16.63.252-16.63Z" transform="translate(13.855 -24.318)" fill="#d29660"/>
        <path id="Path_32170" data-name="Path 32170" d="M62.873,160.542c-4.992,1.811-3.24-3.883-3.417-6.305s-.038-4.948-1.038-7.159c-.8-1.766-2.307-3.322-2.312-5.256,0-1.471.881-2.783,1.253-4.207.514-1.957.035-4.05.364-6.048a7.856,7.856,0,0,1,8.451-6.278c1.924.249,3.784,1.24,5.708.975,2.118-.291,3.708-2.01,5.552-3.094a9.09,9.09,0,0,1,8.581-.394,7.626,7.626,0,0,1,4.126,7.349,6.581,6.581,0,0,1-5.88,5.771,17.238,17.238,0,0,1-5.109-1c-1.69-.43-3.617-.589-5.056.393-1.817,1.239-2.6,4.093-4.789,4.3-1.156.107-2.2-.628-3.257-1.094s-2.55-.559-3.152.433c-.5.82-.084,1.859.027,2.814.2,1.744-.207,3.485-1.785,4.255-.635,4.811.818,9.425,2.25,14.066" transform="translate(12.391 -30.189)"/>
        <path id="Path_32171" data-name="Path 32171" d="M61.329,130.752,60.706,145s-4.379-.054-4.375,3.966c.006,5.049,4.746,4.2,4.746,4.2S60.1,162.8,73.317,163.6c15.462.929,12.173-23.239,11.576-34.584Z" transform="translate(12.437 -28.603)" fill="#e8b886"/>
        <path id="Path_32172" data-name="Path 32172" d="M60.45,145.437a3.868,3.868,0,0,0-.219,2.681c.359.843,1.693,1.252,2.191.482a1.938,1.938,0,0,0,.207-1.041q.029-3.7.061-7.4a9.719,9.719,0,0,0,7.524-6.952,6.544,6.544,0,0,0,6.314.211,4.494,4.494,0,0,1,2.513-.913c1.081.145,1.717,1.26,2.606,1.892a3.352,3.352,0,0,0,4.792-1.316c.792-1.793-.281-4-1.957-5.01-2.111-1.279-4.773-1.032-7.224-.741l-13.584,1.6a4.786,4.786,0,0,0-2.468.769,4.447,4.447,0,0,0-1.284,2.32,33.516,33.516,0,0,0-1.382,10.507c.032,1.089.223,2.354,1.171,2.889" transform="translate(12.921 -29.069)"/>
        <path id="Path_32173" data-name="Path 32173" d="M65.213,183.3s5.07,17.592,5.638,18.3,5.777,1.374,5.777,1.374L77,204.6l-1.173.271a1.088,1.088,0,0,0,.312,2.147l1.4-.085,1.987,8.975-6.514,2.25.305,1.774L93.2,217.464l-.681-2.105-7.453-.352-1.42-9.175.88-.2a1.349,1.349,0,0,0-.606-2.63l-.691.158-.243-1.933,4.778-4.106-3.011-17.831-8.511-2.076-4.386,1.014Z" transform="translate(14.397 -17.775)" fill="#d4a627"/>
        <path id="Path_32174" data-name="Path 32174" d="M71.17,169.038s3.629,2.08,3.661,2.93a4.967,4.967,0,0,1-.982,2.2l.3,1.3,3.634.279.414,1.793-2.766.639.349,2.237-4.43,1.021-.431-1.874L68,179.555l-.341-1.466,2.977-1.546-.175-1.117s-1.922-1.832-1.953-2.339a4.729,4.729,0,0,1,2.661-4.049" transform="translate(14.924 -19.719)" fill="#d4a627"/>
        <path id="Path_32175" data-name="Path 32175" d="M69.152,185.268s-3.533-3.717-7.493-1.7-2.717,8.3.445,10.858S72.428,200.2,72.428,200.2l-.74-3.214s-7.451-2.676-9.461-6.938c-.664-1.414-.938-5.407,3.047-4.627a5.016,5.016,0,0,1,4.341,4.087Z" transform="translate(13.054 -16.587)" fill="#d4a627"/>
        <path id="Path_32176" data-name="Path 32176" d="M79.838,182.379s1.257-4.973,5.7-5.161,6.435,5.9,4.932,9.685S84.3,197,84.3,197l-.932-3.167s5.184-5.985,4.844-10.684c-.111-1.559-1.832-5.172-4.925-2.539a5.02,5.02,0,0,0-1.776,5.692Z" transform="translate(17.61 -17.864)" fill="#d4a627"/>
      </g>
    </g>
    <text id="_1" data-name="1" transform="translate(88.419 231.058) rotate(-10.471)" fill="#fff" font-size="9" font-family="Impact"><tspan x="0" y="0">1</tspan></text>
    <g id="Group_34460" data-name="Group 34460" transform="translate(7.797 57.568)">
      <g id="Group_34467" data-name="Group 34467">
        <path id="Path_32177" data-name="Path 32177" d="M67.332,203.827s5.351-5.785,6.4-5.637c1.2.17.926-.192,1.38,1.923.361,1.676,11.124-2.456,10.627-.961s-6.137,2.9-6.137,2.9,7.831-1.582,6.154,0-6.154,2.9-6.154,2.9,8.134-1.325,6.389,0a16.937,16.937,0,0,1-4.773,2.156s7.008-.5,5.019.664S68.087,216.4,68.087,216.4Z" transform="translate(7.059 -14.569)" fill="#e8b886"/>
        <path id="Path_32178" data-name="Path 32178" d="M199.753,146.426l.767,17.376a6.735,6.735,0,0,0,9.742,5.725c.056-.028.111-.056.165-.085a6.732,6.732,0,0,0,3.714-6.232c-.186-6.105-.252-16.63-.252-16.63Z" transform="translate(36.313 -25.799)" fill="#d29660"/>
        <path id="Path_32179" data-name="Path 32179" d="M195.879,193.4a.942.942,0,0,1-.125-.234c-.1-.218-.2-.444-.31-.689-.27-.6-.629-1.477-1.049-2.573a91.23,91.23,0,0,1-2.781-8.737c-.925-3.461-1.642-6.62-2.176-8.9-.236-1.023-.443-1.92-.622-2.705-.058-.262-.111-.505-.163-.739a1.019,1.019,0,0,1-.039-.262,1.062,1.062,0,0,1,.089.249c.066.23.134.469.207.727.2.78.437,1.671.7,2.687.577,2.273,1.322,5.425,2.248,8.88s1.907,6.536,2.7,8.74c.4,1.1.729,1.989.971,2.6.1.249.183.482.269.706a1.246,1.246,0,0,1,.077.253" transform="translate(33.834 -20.997)"/>
        <path id="Path_32180" data-name="Path 32180" d="M214.55,157.036a4.6,4.6,0,0,1,.4.952,7.656,7.656,0,0,1,.316,2.8,7.929,7.929,0,0,1-1.374,3.934,7.836,7.836,0,0,1-9.227,2.7,7.947,7.947,0,0,1-3.278-2.575,7.662,7.662,0,0,1-1.241-2.529,4.683,4.683,0,0,1-.175-1.017,8.634,8.634,0,0,0,1.559,3.438,7.91,7.91,0,0,0,3.224,2.467,7.679,7.679,0,0,0,8.948-2.618,7.9,7.9,0,0,0,1.387-3.815,8.654,8.654,0,0,0-.539-3.736" transform="translate(36.363 -23.497)"/>
        <path id="Path_32181" data-name="Path 32181" d="M15.849,142.247c-4.41-1.281-8.087-5.754-6.625-10.567,1.427-4.7,5.736-5.127,9.72-6.007a9.126,9.126,0,0,0,7.08-5.7c2.407-6.064-1.654-12.263-7.286-14.494-1.3-.516-1.869,1.406-.89,2.111,2.894,2.085,6.131,4.78,6.1,8.751-.054,5.989-6.355,6.028-10.6,7.6a10.754,10.754,0,0,0-6,5.6c-2.979,6.443,1.48,13.041,8.127,14.058a.7.7,0,0,0,.374-1.353" transform="translate(-6.407 -34.702)" fill="#d42424"/>
        <path id="Path_32182" data-name="Path 32182" d="M36.348,56.445c-2.856,2.788-3.8,7.246-1.072,10.508a7.84,7.84,0,0,0,12.788-8.982A10.383,10.383,0,0,0,37.2,53.461a.928.928,0,0,0,.246,1.814c2.765-.01,5.733.268,7.885,2.233A6.012,6.012,0,1,1,37.11,66.28a6.643,6.643,0,0,1-.122-9.194.453.453,0,0,0-.64-.641" transform="translate(-0.496 -46.015)" fill="#56a73c"/>
        <path id="Path_32183" data-name="Path 32183" d="M225.961,81.4c-.937,5.5-1.776,11-2.578,16.524a1.051,1.051,0,0,0,1.268,1.268c5.165-.779,10.326-1.521,15.449-2.534a.967.967,0,0,0,.572-1.408c-2.957-5.254-6.624-11.405-11.845-14.713-1.066-.675-2.007.785-1.275,1.654,3.976,4.716,8.437,8.486,11.466,14.027q.414-.721.828-1.441c-5.276.64-10.5,1.548-15.743,2.428q.652.5,1.3.994c.675-5.537,1.308-11.072,1.846-16.624.072-.733-1.168-.908-1.294-.175" transform="translate(41.624 -40.133)" fill="#edc483"/>
        <path id="Path_32184" data-name="Path 32184" d="M251.961,131.511c-5.473.155-9.868,4.794-7.984,10.434a9.112,9.112,0,0,0,12.983,5.01A10.184,10.184,0,0,0,260.6,133.1c-3.106-5.666-10.227-6.907-15.6-3.838-1.294.739-.156,2.63,1.157,1.98,3.7-1.836,8.437-1.769,11.449,1.342a7.81,7.81,0,0,1,.166,11.037,7.042,7.042,0,0,1-10.353-.1c-3.489-3.857-.763-10.656,4.536-10.961.666-.039.677-1.064,0-1.044" transform="translate(45.999 -29.878)" fill="#56a73c"/>
        <path id="Path_32185" data-name="Path 32185" d="M136.348,91.219a152.538,152.538,0,0,0,2.2-16.513c.075-1.072-1.728-1.34-1.9-.258a152.611,152.611,0,0,0-1.581,16.6c-.034.72,1.145.9,1.278.173" transform="translate(22.003 -52.565)" fill="#e8947e"/>
        <path id="Path_32186" data-name="Path 32186" d="M130.355,201.052a152.519,152.519,0,0,0,2.2-16.514c.075-1.072-1.728-1.34-1.9-.258a152.634,152.634,0,0,0-1.581,16.6c-.034.72,1.145.9,1.278.173" transform="translate(20.679 -17.736)" fill="#d42424"/>
        <path id="Path_32187" data-name="Path 32187" d="M90.724,26.115A152.537,152.537,0,0,0,92.927,9.6c.075-1.072-1.728-1.34-1.9-.258a152.619,152.619,0,0,0-1.582,16.6c-.034.72,1.145.9,1.278.173" transform="translate(9.929 -8.653)" fill="#d42424"/>
      </g>
    </g>
    <g id="Group_34462" data-name="Group 34462" transform="translate(0 57.594)">
      <g id="Group_34461" data-name="Group 34461" clip-path="url(#clip-path)">
        <path id="Path_32189" data-name="Path 32189" d="M233.494,378.141l21.133-1.325L217.259,245.182l-10.586,41.442,25.376,91.517" transform="translate(45.562 -2.359)"/>
        <path id="Path_32190" data-name="Path 32190" d="M235.918,216.125c-16.728,62.1-40.325,170.222-40.325,170.222l-23.224-1.627c7.536-30.368,26.141-150.687,28.5-166.713Z" transform="translate(37.999 -8.613)"/>
        <path id="Path_32191" data-name="Path 32191" d="M57.786,224.715c.466,2.907,5.6,99.519,11.638,162.3H93.4S81.545,242.142,84.35,241.9c3.238-.277,30.565,145.111,30.565,145.111H137.8l-34.82-166.5Z" transform="translate(12.739 -7.669)"/>
      </g>
    </g>
    <g id="Group_34464" data-name="Group 34464" transform="translate(54.948 139.393)">
      <path id="Path_32193" data-name="Path 32193" d="M217.2,244.138s-4.115,4.4-4.668,5.05c-3.224,3.807.034,1.606,1.521,1.151,1.322-.4-2.2,8.919-.981,8.547S215.526,254,215.526,254s-1.425,6.28-.119,4.96,2.464-4.906,2.464-4.906-1.228,6.533-.124,5.151a13.751,13.751,0,0,0,1.831-3.807s-.538,5.641.437,4.06,7.305-14.466,7.305-14.466Z" transform="translate(-8.176 -84.468)" fill="#e8b886"/>
      <path id="Path_32194" data-name="Path 32194" d="M210.733,175.714s16.059,26.449,14.022,41.736c-1.554,11.66-10.225,44.492-10.225,44.492l13.209,4.812s11.107-34.569,11.745-54.388-16.511-47.481-16.511-47.481Z" transform="translate(-8.268 -101.663)" fill="#5e5e5e"/>
      <path id="Path_32195" data-name="Path 32195" d="M223.662,166.094a7.175,7.175,0,0,0-2.868-.067,9.377,9.377,0,0,0-6.141,4.52,11.437,11.437,0,0,0-1.511,5.151,20.272,20.272,0,0,0,.644,6.18c1.066,4.281,3.1,8.718,5.1,13.4a57.647,57.647,0,0,1,4.413,13.674,43.025,43.025,0,0,1,.064,11.732,79.124,79.124,0,0,1-1.375,7.8c-.2.856-.368,1.549-.5,2.094-.119.477-.195.725-.195.725s.041-.256.145-.736c.117-.548.267-1.245.45-2.1.37-1.83.916-4.482,1.294-7.8a43.438,43.438,0,0,0-.118-11.673,58.056,58.056,0,0,0-4.415-13.613c-2-4.683-4.027-9.128-5.089-13.446a20.324,20.324,0,0,1-.627-6.252,11.564,11.564,0,0,1,1.567-5.228,9.414,9.414,0,0,1,6.277-4.523,6.556,6.556,0,0,1,2.154-.015c.483.108.731.178.731.178" transform="translate(-7.8 -101.457)"/>
      <path id="Path_32196" data-name="Path 32196" d="M185.014,158.571a13.711,13.711,0,0,1,.791-3.639,13.713,13.713,0,0,1-.791,3.639" transform="translate(-13.852 -103.822)" fill="#473a60"/>
      <path id="Path_32197" data-name="Path 32197" d="M191.424,159.645a2.906,2.906,0,0,1-.206-1.178,2.875,2.875,0,0,1,.047-1.194,5.63,5.63,0,0,1,.158,2.372" transform="translate(-12.507 -103.314)" fill="#473a60"/>
      <path id="Path_32198" data-name="Path 32198" d="M193.989,167.736a11.2,11.2,0,0,1-2.216-2.534,5.754,5.754,0,0,1,1.2,1.184,5.677,5.677,0,0,1,1.013,1.35" transform="translate(-12.383 -101.594)" fill="#473a60"/>
      <path id="Path_32199" data-name="Path 32199" d="M197.1,166.358a4.327,4.327,0,0,1,.19-1.452,4.275,4.275,0,0,1,.438-1.4,8.434,8.434,0,0,1-.628,2.848" transform="translate(-11.232 -101.961)" fill="#473a60"/>
      <path id="Path_32200" data-name="Path 32200" d="M198.535,177.353a20.35,20.35,0,0,1-2.216-3.956,20.274,20.274,0,0,1,2.216,3.956" transform="translate(-11.397 -99.816)" fill="#473a60"/>
      <path id="Path_32201" data-name="Path 32201" d="M204.5,175.978a8.63,8.63,0,0,1,.786-2.85,8.71,8.71,0,0,1-.786,2.85" transform="translate(-9.624 -99.874)" fill="#473a60"/>
      <path id="Path_32202" data-name="Path 32202" d="M198.076,187.164a14.4,14.4,0,0,1-2.534-2.848,14.393,14.393,0,0,1,2.534,2.848" transform="translate(-11.565 -97.447)" fill="#473a60"/>
      <path id="Path_32203" data-name="Path 32203" d="M201.267,171.273a8.02,8.02,0,0,1,.949-2.689,8.164,8.164,0,0,1-.949,2.689" transform="translate(-10.325 -100.86)" fill="#473a60"/>
      <path id="Path_32204" data-name="Path 32204" d="M202.57,184.2a13.806,13.806,0,0,1-2.216-3.007,13.884,13.884,0,0,1,2.216,3.007" transform="translate(-10.521 -98.124)" fill="#473a60"/>
      <path id="Path_32205" data-name="Path 32205" d="M210.689,179.524a10.44,10.44,0,0,1-1.623,2.825,10.577,10.577,0,0,1,1.623-2.825" transform="translate(-8.632 -98.487)" fill="#473a60"/>
      <path id="Path_32206" data-name="Path 32206" d="M211.765,168.314c.045.054-.377.488-.944.97a3.716,3.716,0,0,1-1.109.778c-.045-.054.377-.488.944-.971a3.7,3.7,0,0,1,1.109-.776" transform="translate(-8.49 -100.92)" fill="#473a60"/>
      <path id="Path_32207" data-name="Path 32207" d="M217.423,164.05a8.106,8.106,0,0,1-2.372-1.583,8.106,8.106,0,0,1,2.372,1.583" transform="translate(-7.332 -102.189)" fill="#473a60"/>
      <path id="Path_32208" data-name="Path 32208" d="M213.339,191.175a2.643,2.643,0,0,1,.359-1.081c.263-.567.527-1,.59-.975a2.629,2.629,0,0,1-.36,1.081c-.262.568-.526,1-.589.975" transform="translate(-7.706 -96.405)" fill="#473a60"/>
      <path id="Path_32209" data-name="Path 32209" d="M208.913,192.71a15.117,15.117,0,0,1-2.058-3.322,15.119,15.119,0,0,1,2.058,3.322" transform="translate(-9.111 -96.347)" fill="#473a60"/>
      <path id="Path_32210" data-name="Path 32210" d="M199.726,197.6a11.467,11.467,0,0,1-1.582-3.007,11.466,11.466,0,0,1,1.582,3.007" transform="translate(-11.001 -95.218)" fill="#473a60"/>
      <path id="Path_32211" data-name="Path 32211" d="M202.794,190.421a10.592,10.592,0,0,1-1.345,2.972,10.59,10.59,0,0,1,1.345-2.972" transform="translate(-10.285 -96.122)" fill="#473a60"/>
      <path id="Path_32212" data-name="Path 32212" d="M198.029,206.194a7.763,7.763,0,0,1-1.864-2.087,7.763,7.763,0,0,1,1.864,2.087" transform="translate(-11.43 -93.154)" fill="#473a60"/>
      <path id="Path_32213" data-name="Path 32213" d="M205.2,202.128a12.816,12.816,0,0,1-2.374,2.692,12.724,12.724,0,0,1,2.374-2.692" transform="translate(-9.985 -93.583)" fill="#473a60"/>
      <path id="Path_32214" data-name="Path 32214" d="M200.42,202.173a4.7,4.7,0,0,1-1.062-1.094,4.655,4.655,0,0,1-.866-1.256,9.211,9.211,0,0,1,1.929,2.35" transform="translate(-10.925 -94.083)" fill="#473a60"/>
      <path id="Path_32215" data-name="Path 32215" d="M201.961,211.713c-.063.029-.321-.394-.574-.946a2.509,2.509,0,0,1-.346-1.053c.065-.029.321.394.576.947a2.509,2.509,0,0,1,.344,1.051" transform="translate(-10.374 -91.937)" fill="#473a60"/>
      <path id="Path_32216" data-name="Path 32216" d="M198.263,213.97c.013.074-.688.234-1.468.624s-1.335.845-1.385.789a3.838,3.838,0,0,1,2.853-1.413" transform="translate(-11.593 -91.018)" fill="#473a60"/>
      <path id="Path_32217" data-name="Path 32217" d="M214.8,208.612a7.128,7.128,0,0,1-3-4.272c.074-.027.466,1.1,1.3,2.276s1.75,1.936,1.7,2" transform="translate(-8.039 -93.102)" fill="#473a60"/>
      <path id="Path_32218" data-name="Path 32218" d="M218.809,211.612a21.142,21.142,0,0,1,2.848-3.639,21.148,21.148,0,0,1-2.848,3.639" transform="translate(-6.517 -92.314)" fill="#473a60"/>
      <path id="Path_32219" data-name="Path 32219" d="M210.41,211.292c-.056.049-.684-.608-1.554-1.3s-1.647-1.165-1.611-1.23a7.013,7.013,0,0,1,3.165,2.531" transform="translate(-9.025 -92.144)" fill="#473a60"/>
      <path id="Path_32220" data-name="Path 32220" d="M212.1,213.922a46.07,46.07,0,0,1-6.806.276,22.912,22.912,0,0,1,3.4-.265,23.177,23.177,0,0,1,3.409-.011" transform="translate(-9.449 -91.034)" fill="#473a60"/>
      <path id="Path_32221" data-name="Path 32221" d="M217.326,203.264a19.679,19.679,0,0,1,2.025-3.975,19.676,19.676,0,0,1-2.025,3.975" transform="translate(-6.839 -94.198)" fill="#473a60"/>
      <path id="Path_32222" data-name="Path 32222" d="M212.392,197.529a34.056,34.056,0,0,1-5.538-1.9,33.651,33.651,0,0,1,5.538,1.9" transform="translate(-9.11 -94.994)" fill="#473a60"/>
      <path id="Path_32223" data-name="Path 32223" d="M216.694,178.954a10.319,10.319,0,0,1,.656-2.186,10.441,10.441,0,0,1,.9-2.1,20.626,20.626,0,0,1-1.552,4.285" transform="translate(-6.977 -99.54)" fill="#473a60"/>
      <path id="Path_32224" data-name="Path 32224" d="M224.413,176.317a11.1,11.1,0,0,1-2.214-2.531,11.329,11.329,0,0,1,2.214,2.531" transform="translate(-5.781 -99.732)" fill="#473a60"/>
      <path id="Path_32225" data-name="Path 32225" d="M222.748,182.058a16.082,16.082,0,0,1-2.731-2.971,16.083,16.083,0,0,1,2.731,2.971" transform="translate(-6.254 -98.582)" fill="#473a60"/>
      <path id="Path_32226" data-name="Path 32226" d="M226.491,186.208a11.583,11.583,0,0,1,.791-3.321,11.609,11.609,0,0,1-.791,3.321" transform="translate(-4.853 -97.757)" fill="#473a60"/>
      <path id="Path_32227" data-name="Path 32227" d="M222,190.145a10.548,10.548,0,0,1-2.531-2.058A10.565,10.565,0,0,1,222,190.145" transform="translate(-6.374 -96.63)" fill="#473a60"/>
      <path id="Path_32228" data-name="Path 32228" d="M229.243,195.5a15.632,15.632,0,0,1-1.582-3.639,15.494,15.494,0,0,1,1.582,3.639" transform="translate(-4.597 -95.81)" fill="#473a60"/>
      <path id="Path_32229" data-name="Path 32229" d="M226.94,198.94a12.689,12.689,0,0,1-2.534-2.53,12.777,12.777,0,0,1,2.534,2.53" transform="translate(-5.302 -94.824)" fill="#473a60"/>
      <path id="Path_32230" data-name="Path 32230" d="M231.695,202.39a7.363,7.363,0,0,1-2.216,1.582,7.363,7.363,0,0,1,2.216-1.582" transform="translate(-4.202 -93.527)" fill="#473a60"/>
      <path id="Path_32231" data-name="Path 32231" d="M225.834,208.36a17.354,17.354,0,0,1-2.048-3.646,17.357,17.357,0,0,1,2.048,3.646" transform="translate(-5.437 -93.021)" fill="#473a60"/>
      <path id="Path_32232" data-name="Path 32232" d="M231.557,213.423a9.707,9.707,0,0,1-1.335-5.05c.075-.006.195,1.162.567,2.552s.836,2.467.768,2.5" transform="translate(-4.046 -92.227)" fill="#473a60"/>
      <path id="Path_32233" data-name="Path 32233" d="M228.757,215.4a4.876,4.876,0,0,1-3.181,1.872c-.021-.073.774-.324,1.645-.842s1.482-1.083,1.536-1.03" transform="translate(-5.048 -90.702)" fill="#473a60"/>
      <path id="Path_32234" data-name="Path 32234" d="M223.718,214.747a5.148,5.148,0,0,1-.476-2.216,5.149,5.149,0,0,1,.476,2.216" transform="translate(-5.561 -91.325)" fill="#473a60"/>
      <path id="Path_32235" data-name="Path 32235" d="M223.354,226.692a8.52,8.52,0,0,1-.633-2.848,8.424,8.424,0,0,1,.633,2.848" transform="translate(-5.672 -88.871)" fill="#473a60"/>
      <path id="Path_32236" data-name="Path 32236" d="M228.549,226.077a15.9,15.9,0,0,1-1.272-3.8,15.954,15.954,0,0,1,1.272,3.8" transform="translate(-4.681 -89.21)" fill="#473a60"/>
      <path id="Path_32237" data-name="Path 32237" d="M224.6,232.514c-.017.073-1.062-.139-2.368-.221s-2.369-.021-2.377-.1a9.09,9.09,0,0,1,4.745.318" transform="translate(-6.288 -87.098)" fill="#473a60"/>
      <path id="Path_32238" data-name="Path 32238" d="M226.478,233.869a8.963,8.963,0,0,1,.152-3.007,9.047,9.047,0,0,1-.152,3.007" transform="translate(-4.868 -87.348)" fill="#473a60"/>
      <path id="Path_32239" data-name="Path 32239" d="M221.648,238.133a6.248,6.248,0,0,1-1.762-.192,6.332,6.332,0,0,1-1.718-.442,12.4,12.4,0,0,1,3.48.634" transform="translate(-6.655 -85.913)" fill="#473a60"/>
      <path id="Path_32240" data-name="Path 32240" d="M225.76,240.46a22.882,22.882,0,0,1-3.351,3.455,22.876,22.876,0,0,1,3.351-3.455" transform="translate(-5.736 -85.266)" fill="#473a60"/>
      <path id="Path_32241" data-name="Path 32241" d="M219.261,241.657a16.136,16.136,0,0,1-3.956.791,16.137,16.137,0,0,1,3.956-.791" transform="translate(-7.276 -85.01)" fill="#473a60"/>
      <path id="Path_32242" data-name="Path 32242" d="M185.406,166.14a14.5,14.5,0,0,1,.476-3.8,14.481,14.481,0,0,1-.476,3.8" transform="translate(-13.77 -102.214)" fill="#473a60"/>
      <path id="Path_32243" data-name="Path 32243" d="M182.614,161.809a8.921,8.921,0,0,1-3.325-2.848,21.8,21.8,0,0,1,1.65,1.438c.911.785,1.713,1.347,1.675,1.409" transform="translate(-15.091 -102.948)" fill="#473a60"/>
      <path id="Path_32244" data-name="Path 32244" d="M181.117,154.466a15.706,15.706,0,0,1,.473-3.956,15.706,15.706,0,0,1-.473,3.956" transform="translate(-14.701 -104.781)" fill="#473a60"/>
      <path id="Path_32245" data-name="Path 32245" d="M176.6,153.5a14.983,14.983,0,0,1-1.571-.735,14.831,14.831,0,0,1-1.592-.69A5.549,5.549,0,0,1,176.6,153.5" transform="translate(-16.359 -104.446)" fill="#473a60"/>
      <path id="Path_32246" data-name="Path 32246" d="M188.021,151.743a6.4,6.4,0,0,1-.156-2.531,6.405,6.405,0,0,1,.156,2.531" transform="translate(-13.245 -105.063)" fill="#473a60"/>
      <path id="Path_32247" data-name="Path 32247" d="M193.321,153.942a13.78,13.78,0,0,1-1.408-.894,14.583,14.583,0,0,1-1.44-.845,5.06,5.06,0,0,1,2.848,1.739" transform="translate(-12.664 -104.417)" fill="#473a60"/>
      <path id="Path_32248" data-name="Path 32248" d="M177.1,147.243a7.179,7.179,0,0,1,.929-4.279c.069.03-.3.943-.55,2.121s-.3,2.159-.378,2.158" transform="translate(-15.579 -106.419)" fill="#473a60"/>
      <path id="Path_32249" data-name="Path 32249" d="M175.121,147.754a16.761,16.761,0,0,1-3.771-1.644,16.762,16.762,0,0,1,3.771,1.644" transform="translate(-16.813 -105.738)" fill="#473a60"/>
      <path id="Path_32250" data-name="Path 32250" d="M165.868,144.986a11.337,11.337,0,0,1,.6-3.328,11.337,11.337,0,0,1-.6,3.328" transform="translate(-18.008 -106.702)" fill="#473a60"/>
      <path id="Path_32251" data-name="Path 32251" d="M170.408,137.912a7.817,7.817,0,0,1-2.689-.791,7.816,7.816,0,0,1,2.689.791" transform="translate(-17.601 -107.69)" fill="#473a60"/>
      <path id="Path_32252" data-name="Path 32252" d="M161.6,138.333a15.631,15.631,0,0,1,.667-2.725,15.467,15.467,0,0,1,.91-2.654,15.629,15.629,0,0,1-.667,2.725,15.542,15.542,0,0,1-.91,2.654" transform="translate(-18.931 -108.59)" fill="#473a60"/>
      <path id="Path_32253" data-name="Path 32253" d="M161.06,133.97a11.57,11.57,0,0,1-2.848-1.9,11.569,11.569,0,0,1,2.848,1.9" transform="translate(-19.664 -108.783)" fill="#473a60"/>
      <path id="Path_32254" data-name="Path 32254" d="M162.3,128.226A16.807,16.807,0,0,1,160,124.8a16.9,16.9,0,0,1,2.3,3.426" transform="translate(-19.277 -110.36)" fill="#473a60"/>
      <path id="Path_32255" data-name="Path 32255" d="M156.219,128.943a6.182,6.182,0,0,1-3.324-3.007c.066-.041.629.8,1.55,1.628s1.807,1.311,1.773,1.379" transform="translate(-20.818 -110.113)" fill="#473a60"/>
      <path id="Path_32256" data-name="Path 32256" d="M159.169,127.762a5.317,5.317,0,0,1-1.273-1.015,5.261,5.261,0,0,1-1.1-1.2,10.5,10.5,0,0,1,2.372,2.215" transform="translate(-19.971 -110.198)" fill="#473a60"/>
      <path id="Path_32257" data-name="Path 32257" d="M154.725,122.733a4.313,4.313,0,0,1,1.567-3.174c.056.052-.471.656-.9,1.531s-.6,1.656-.669,1.643" transform="translate(-20.425 -111.497)" fill="#473a60"/>
      <path id="Path_32258" data-name="Path 32258" d="M149.618,121.67a14.091,14.091,0,0,1,2.066-3.158,14.168,14.168,0,0,1-2.066,3.158" transform="translate(-21.529 -111.724)" fill="#473a60"/>
      <path id="Path_32259" data-name="Path 32259" d="M150.052,119.82a4.626,4.626,0,0,1-3.007-1.424c.046-.058.655.376,1.48.763s1.543.588,1.527.661" transform="translate(-22.087 -111.75)" fill="#473a60"/>
      <path id="Path_32260" data-name="Path 32260" d="M149.784,116.416a12.086,12.086,0,0,1,.316-3.482,6.081,6.081,0,0,1-.032,1.752,6.157,6.157,0,0,1-.285,1.729" transform="translate(-21.501 -112.934)" fill="#473a60"/>
      <path id="Path_32261" data-name="Path 32261" d="M75.823,159.524a4.142,4.142,0,0,1,1.26.613,6.172,6.172,0,0,1,2.339,2.985,6,6,0,0,1-.746,5.481,5.855,5.855,0,0,1-2.6,2.125,6.357,6.357,0,0,1-3.588.348,6.147,6.147,0,0,1-1.975-.763l.159-.022a4.725,4.725,0,0,1-5.846.628,6.473,6.473,0,0,1-2.816-4.049,8.824,8.824,0,0,1-.106-3.325,6.79,6.79,0,0,1,.268-1.18,1.652,1.652,0,0,1-.046.308c-.033.2-.088.5-.13.885a9.146,9.146,0,0,0,.179,3.272,6.338,6.338,0,0,0,2.769,3.9,4.688,4.688,0,0,0,2.773.669,4.177,4.177,0,0,0,2.77-1.275l.071-.075.089.054a5.957,5.957,0,0,0,1.891.729,6.132,6.132,0,0,0,3.445-.33,5.633,5.633,0,0,0,2.5-2.027,5.844,5.844,0,0,0,.77-5.289,6.212,6.212,0,0,0-2.228-2.963,9.224,9.224,0,0,0-1.2-.695" transform="translate(-40.582 -102.826)"/>
      <path id="Path_32262" data-name="Path 32262" d="M138.84,125.849a1.885,1.885,0,0,1-.416-.274c-.258-.189-.623-.473-1.066-.835-.886-.723-2.075-1.766-3.316-2.994s-2.3-2.407-3.028-3.287c-.365-.439-.654-.8-.845-1.058a1.8,1.8,0,0,1-.277-.414,16.707,16.707,0,0,1,1.258,1.354c.763.846,1.835,2,3.07,3.224s2.4,2.282,3.253,3.038a16.683,16.683,0,0,1,1.367,1.245" transform="translate(-25.808 -112.055)"/>
      <path id="Path_32263" data-name="Path 32263" d="M137,119.927c.054.045-.092.309-.326.59s-.469.472-.522.427.092-.309.327-.59.467-.472.521-.427" transform="translate(-24.452 -111.418)" fill="#473a60"/>
      <path id="Path_32264" data-name="Path 32264" d="M72.213,203.42a1.493,1.493,0,0,1-.267.159l-.784.414-2.917,1.46c-2.473,1.213-5.916,2.834-9.762,4.526s-7.374,3.131-9.939,4.132L45.5,215.272l-.835.3a1.573,1.573,0,0,1-.3.089,1.373,1.373,0,0,1,.279-.136l.818-.343,3.017-1.234c2.547-1.044,6.057-2.508,9.9-4.2s7.3-3.285,9.788-4.457l2.95-1.387.806-.371a1.488,1.488,0,0,1,.288-.113" transform="translate(-44.364 -93.302)"/>
      <path id="Path_32265" data-name="Path 32265" d="M68.5,218.855c-.069.007-.488-3.638-.935-8.139s-.752-8.159-.683-8.166.488,3.636.935,8.14.752,8.157.683,8.165" transform="translate(-39.48 -93.491)"/>
      <path id="Path_32266" data-name="Path 32266" d="M71.858,215.948a.984.984,0,0,1-.168.2l-.518.544c-.462.46-1.149,1.109-2.032,1.868-1.759,1.531-4.293,3.518-7.157,5.622s-5.508,3.942-7.431,5.255l-2.29,1.535-.632.406a1,1,0,0,1-.229.127,1.066,1.066,0,0,1,.2-.169l.6-.444,2.244-1.6c1.9-1.351,4.522-3.206,7.382-5.311s5.408-4.063,7.192-5.555c.9-.74,1.6-1.367,2.079-1.8l.551-.507a1.036,1.036,0,0,1,.2-.165" transform="translate(-42.837 -90.584)"/>
      <path id="Path_32267" data-name="Path 32267" d="M53.625,187.929a1.053,1.053,0,0,1,.026.26c.007.237.015.483.023.747.017.8.037,1.71.058,2.747.051,2.32.15,5.521.322,9.055s.385,6.733.539,9.048c.067,1.036.127,1.945.178,2.742.013.264.027.511.039.747a1.036,1.036,0,0,1,0,.262.935.935,0,0,1-.047-.258c-.027-.235-.056-.479-.086-.742-.075-.8-.161-1.7-.258-2.736-.2-2.312-.438-5.512-.613-9.049s-.243-6.746-.248-9.066c.009-1.038.016-1.95.022-2.749.009-.264.017-.511.024-.747a1.054,1.054,0,0,1,.026-.26" transform="translate(-42.37 -96.663)"/>
      <path id="Path_32268" data-name="Path 32268" d="M215.574,139.093a6.243,6.243,0,0,1,8.6,5.221,15.68,15.68,0,0,1-.535,4.346,7.793,7.793,0,0,0,.1,4.332,3.206,3.206,0,0,0,3.42,2.136,5.374,5.374,0,0,1,1.722-.416,1.571,1.571,0,0,1,1.233,1.766A2.553,2.553,0,0,1,228.7,158.3a7.553,7.553,0,0,1-2.3.655,10.749,10.749,0,0,1,2.077,3.051,1.836,1.836,0,0,1,.2,1.333,1.369,1.369,0,0,1-1.549.739,3.989,3.989,0,0,1-1.627-.881c.857.492.626,1.913-.181,2.483a4.489,4.489,0,0,1-2.865.488c-2.121-.116-4.376-.276-6.093-1.53a9.64,9.64,0,0,1-3.087-5.1,35.653,35.653,0,0,1-1.6-12.619" transform="translate(-8.073 -107.358)"/>
      <path id="Path_32269" data-name="Path 32269" d="M218.232,131.86l.469,10.7s4.331-.055,4.326,3.922c0,5-4.694,4.158-4.694,4.158s.97,9.534-12.11,10.32c-13.284.8-12.583-17.121-11.779-29.206a4.983,4.983,0,0,1,5.34-4.644l14.908,1.1a3.823,3.823,0,0,1,3.54,3.648" transform="translate(-11.882 -109.861)" fill="#e8b886"/>
      <path id="Path_32270" data-name="Path 32270" d="M218.631,144.725a3.741,3.741,0,0,1,.212,2.581c-.349.814-1.631,1.208-2.111.466a1.864,1.864,0,0,1-.2-1q-.029-3.561-.058-7.123a9.364,9.364,0,0,1-7.249-6.7,6.3,6.3,0,0,1-6.082.2,4.327,4.327,0,0,0-2.421-.879c-1.041.14-1.653,1.213-2.509,1.824a3.231,3.231,0,0,1-4.616-1.267c-.763-1.727.27-6.283,1.885-7.262,2.034-1.232,4.6-.993,6.959-.713,4.362.515,14.318-4.575,16.7,6.954a32.254,32.254,0,0,1,1.329,10.121c-.03,1.048-.212,2.267-1.124,2.783" transform="translate(-12.042 -110.497)"/>
    </g>
  </g>
</svg>
