<svg xmlns="http://www.w3.org/2000/svg" xmlns:xlink="http://www.w3.org/1999/xlink" width="335" height="302" viewBox="0 0 335 302">
  <defs>
    <clipPath id="clip-path">
      <rect id="Rectangle_17865" data-name="Rectangle 17865" width="254.072" height="135.258" fill="none"/>
    </clipPath>
    <clipPath id="clip-path-2">
      <rect id="Rectangle_17868" data-name="Rectangle 17868" width="20.408" height="17.035" fill="none"/>
    </clipPath>
    <clipPath id="clip-path-3">
      <rect id="Rectangle_17869" data-name="Rectangle 17869" width="4.268" height="7.423" fill="none"/>
    </clipPath>
    <clipPath id="clip-path-4">
      <rect id="Rectangle_17870" data-name="Rectangle 17870" width="25.678" height="19.591" fill="none"/>
    </clipPath>
    <clipPath id="clip-path-5">
      <rect id="Rectangle_17871" data-name="Rectangle 17871" width="6.686" height="5.74" fill="none"/>
    </clipPath>
    <clipPath id="clip-path-6">
      <rect id="Rectangle_17872" data-name="Rectangle 17872" width="2.509" height="83.054" fill="none"/>
    </clipPath>
    <clipPath id="clip-path-7">
      <rect id="Rectangle_17873" data-name="Rectangle 17873" width="12.099" height="12.006" fill="none"/>
    </clipPath>
    <clipPath id="clip-path-8">
      <rect id="Rectangle_17874" data-name="Rectangle 17874" width="4.339" height="20.426" fill="none"/>
    </clipPath>
    <clipPath id="clip-path-9">
      <rect id="Rectangle_17875" data-name="Rectangle 17875" width="2.345" height="1.085" fill="none"/>
    </clipPath>
    <clipPath id="clip-path-10">
      <rect id="Rectangle_17876" data-name="Rectangle 17876" width="11.72" height="2.185" fill="none"/>
    </clipPath>
    <clipPath id="clip-path-11">
      <rect id="Rectangle_17877" data-name="Rectangle 17877" width="8.943" height="31.196" fill="none"/>
    </clipPath>
  </defs>
  <g id="Group_34575" data-name="Group 34575" transform="translate(-20 -180.026)">
    <g id="Group_34468" data-name="Group 34468" transform="translate(20 180.026)">
      <path id="Path_32155" data-name="Path 32155" d="M282.188,61.7A80.368,80.368,0,0,0,156.4,102.6c-3.377,11.44-6.4,26.077-18.074,28.747-6.567,1.5-13.142-1.784-19.4-4.271A86.781,86.781,0,0,0,.6,197.258C-2.358,222.329,5.934,247.7,19.061,269.3c33.417,54.979,98.871,76.649,163.95,76.677,81.146.032,122.762-49.122,143.533-109.968S328.8,106.14,282.188,61.7" transform="translate(0 -45.363)" fill="#f6f6f6"/>
      <path id="Path_32156" data-name="Path 32156" d="M276.613,263.776c4.45-7.813-3.706-5.386-1.917-14.678s-1.419-20.259-9.862-24.533c-4.863-2.462-10.628-2.365-16.015-1.505a63.27,63.27,0,0,0-37.486,20.855c1.946-7.91,3.016-18.151-3.927-22.41-6.437-3.953-14.666.6-20.357,5.571A115.51,115.51,0,0,0,159.2,263.513a61.577,61.577,0,0,0-56.231-18.9,61.578,61.578,0,0,0-45.277,38.331s70.443,35.865,134.427,24.82c60.42-10.427,84.5-43.991,84.5-43.991" transform="translate(13.475 -7.879)" fill="#e8e8ea"/>
    </g>
    <g id="Group_34509" data-name="Group 34509" transform="translate(52 198.811)">
      <g id="Group_34510" data-name="Group 34510">
        <g id="Group_34473" data-name="Group 34473" transform="translate(5.457)">
          <g id="Group_34512" data-name="Group 34512">
            <g id="Group_34471" data-name="Group 34471" transform="translate(0 54.861)" opacity="0.6">
              <g id="Group_34470" data-name="Group 34470">
                <g id="Group_34469" data-name="Group 34469" clip-path="url(#clip-path)">
                  <path id="Path_32271" data-name="Path 32271" d="M10.259,119.132c-3.077-2.623-2.081-6.082-2.1-9.258-.065-10.53-.03-21.061-.007-31.589,0-.875-.427-1.951,1.052-2.31.823-.2.483-1.147.49-1.769.032-2.853.014-5.707.014-8.56H10.5c0,2.835-.011,5.671.007,8.506.006.837-.305,1.8,1.041,2.076.9.184.615,1.078.617,1.7q.022,18.819.009,37.637c0,.7.239,1.564-.909,1.689-1.131.122-.459,1.4-1.005,1.875" transform="translate(-1.978 -26.38)" fill="#30954c"/>
                  <path id="Path_32272" data-name="Path 32272" d="M35.47,144.28c-.257-1.237.1-2.792-1.689-3.09-.141-.023-.185-.954-.185-1.464q-.024-14.782-.01-29.568c0-.82-.34-1.851,1.058-2.062,1.007-.152.611-1.051.625-1.649.042-1.805.016-3.61.016-5.416l.717,0c0,1.725-.022,3.448.01,5.172.016.845-.244,1.812,1.1,2.069.8.152.493.974.495,1.524q.019,14.9,0,29.791c0,.9.274,1.861-1.183,2.215-.945.231,0,1.711-.952,2.481" transform="translate(9.099 -11.029)" fill="#de282f"/>
                  <path id="Path_32273" data-name="Path 32273" d="M31,124.8c0-1.551.108-3.113-.032-4.651-.125-1.369.867-3.18-1.336-3.929-.215-.073-.214-.959-.215-1.468-.016-9.855.1-19.711-.122-29.562-.042-1.867,2.122-1.711,1.88-3.288,3.249,2.124,2.2,5.361,2.225,8.24.072,7.987.034,15.976.011,23.964,0,1.014.5,2.28-1.247,2.6-.713.132-.412,1.018-.417,1.573-.027,2.187-.011,4.373-.011,6.56L31,124.8" transform="translate(7.252 -19.326)" fill="#de282f"/>
                  <path id="Path_32274" data-name="Path 32274" d="M137.868,127.323c-3.218-4.788-2.063-10.113-2.144-15.256-.108-6.857-.027-13.716-.023-20.573,0-1.005-.209-2.023,1.011-2.663.86-.452.529-1.473.538-2.263.026-2.783.01-5.565.01-8.348h.774c0,2.752-.027,5.5.016,8.253.016.939-.473,2.136,1.17,2.425.733.129.49.991.49,1.549q0,15.989-.027,31.978c0,.866.1,1.551-1.161,1.969-1.176.387-.05,2.045-.654,2.928" transform="translate(53.369 -20.924)" fill="#30954c"/>
                  <path id="Path_32275" data-name="Path 32275" d="M128.964,143.947c-.4-1.784-.095-3.613-.188-5.417-.043-.839.307-1.8-1.087-1.987-.806-.109-.565-.936-.566-1.491q-.011-14.311.006-28.62c0-.368-.036-1.011.113-1.065,2.19-.8,1.321-2.813,1.665-4.329.935.1.576.759.634,1.189.135,1-.49,2.271,1.245,2.627.625.129.381,1.042.383,1.612q.019,14.2.006,28.395c0,.773.248,1.673-1.025,1.841-.839.109-.585.913-.592,1.463-.024,1.926-.01,3.85-.01,5.776l-.582.009" transform="translate(49.683 -11.025)" fill="#de282f"/>
                  <path id="Path_32276" data-name="Path 32276" d="M74.218,53.22c0,2-.047,3.553.016,5.1.044,1.058-.576,2.42,1.286,2.773.578.11.406,1.038.406,1.622q0,14.2-.024,28.406c0,.77.261,1.722-1.058,1.778-.774.033-.615.7-.625,1.194-.019.852-.006,1.7-.006,3.034-1-1.09-.654-1.93-.731-2.676-.072-.694.211-1.506-.976-1.626-.839-.086-.594-.922-.594-1.463q-.026-14.539-.011-29.077c0-.224-.083-.575.026-.652,2.9-2.06,1.044-5.092,1.586-7.625.026-.118.179-.209.707-.789" transform="translate(25.724 -31.771)" fill="#de282f"/>
                  <path id="Path_32277" data-name="Path 32277" d="M94.751,81.342c0-3.076.036-6.153-.02-9.227-.019-.975.584-2.3-1.216-2.574-.572-.087-.354-.9-.356-1.382-.007-9.244.073-18.49-.054-27.731-.024-1.778,1.21-1.9,2.035-1.884.78.014,2.119.04,2.1,1.8-.108,9.243-.054,18.487-.06,27.731,0,.371.079.991-.092,1.077-3.139,1.59-1.154,4.4-1.536,6.607a33.056,33.056,0,0,0-.063,5.555l-.737.029" transform="translate(34.938 -38.139)" fill="#de282f"/>
                  <path id="Path_32278" data-name="Path 32278" d="M86.578,89.148c.767-2.452-2.158-3.284-2-5.45.153-2.149.032-4.32.032-6.481q.006-9.614.013-19.228c0-.867-.26-1.755,1.107-1.987.876-.149.516-1.117.523-1.728.039-2.7.017-5.4.017-8.106l.753-.014c0,2.455-.034,4.911.016,7.366.021,1.073-.535,2.438,1.3,2.793.526.1.336.9.336,1.405q.009,13.3,0,26.607c0,.366-.011,1.028-.125,1.052-2.126.456-1.308,2.386-1.963,3.771" transform="translate(31.234 -34.837)" fill="#30954c"/>
                  <path id="Path_32279" data-name="Path 32279" d="M61.438,55.4c0,1.468-.066,2.941.023,4.4.063,1.034-.642,2.482,1.325,2.716.584.069.353.89.354,1.374q.019,15.225.009,30.45c0,.823.113,1.625-1.141,1.735-.832.075-.546.929-.559,1.473-.034,1.474-.013,2.949-.013,4.965-.975-1.292-.5-2.277-.683-3.139-.267-1.288.723-3.044-1.4-3.7-.208-.065-.222-.951-.222-1.455Q59.115,79.114,59.123,64c0-.813-.133-1.6,1.114-1.738.8-.085.522-.949.531-1.5.03-1.769.011-3.54.011-5.311l.658-.052" transform="translate(20.193 -30.823)" fill="#30954c"/>
                  <path id="Path_32280" data-name="Path 32280" d="M14.022,106.1c0-1.556.092-3.119-.027-4.664-.106-1.362.865-3.2-1.447-3.808-.2-.052-.235-.946-.237-1.448q-.009-13.212.016-26.423c0-.809-.156-1.652,1.064-1.828.819-.118.609-.9.618-1.463.019-1.113.006-2.227.006-3.618,1.067.879.6,1.824.714,2.615.148,1.008-.466,2.284,1.213,2.668.6.138.377.9.379,1.389q.034,13.436.04,26.871c0,.37.052.988-.123,1.073-2.716,1.318-1.08,3.754-1.477,5.648-.205.974.181,2.033-.738,2.988" transform="translate(-0.116 -27.595)" fill="#30954c"/>
                  <path id="Path_32281" data-name="Path 32281" d="M116.751,67.714c0,3.684-.014,7.369.01,11.052.006.879-.419,1.966,1.124,2.184.744.106.543.954.545,1.523.009,8.054-.075,16.109.067,24.162.036,2.069-1.544,1.62-2.374,1.775s-1.778-.367-1.758-1.871c.11-8.053.05-16.108.053-24.162,0-.721-.161-1.422.969-1.639.979-.189.607-1.217.612-1.9.032-3.705.014-7.41.014-11.117l.737-.01" transform="translate(44.162 -25.482)" fill="#de282f"/>
                  <path id="Path_32282" data-name="Path 32282" d="M180.291,117.705c-.746-.723-.317-1.584-.429-2.347-.063-.434-.006-1.2-.186-1.257-2.422-.807-1.4-2.809-1.421-4.292-.095-7.155-.056-14.313-.036-21.468,0-.941-.466-2.144,1.2-2.357.621-.079.42-.857.429-1.349.021-1.381.007-2.764.007-4.145l.675-.03a22.618,22.618,0,0,0,.019,2.61c.143,1.22-.766,2.865,1.394,3.364.477.11.3,1.083.3,1.668q.009,11.851-.013,23.7c0,.683.326,1.636-.741,1.834s-.933.939-.961,1.679a4.827,4.827,0,0,1-.238,2.387" transform="translate(71.795 -19.953)" fill="#de282f"/>
                  <path id="Path_32283" data-name="Path 32283" d="M48.365,75.109c.536.893.186,1.811.3,2.677.056.432.073,1.192.249,1.235,2.2.546,1.415,2.3,1.425,3.6.059,7.764.033,15.53.02,23.3,0,.906.33,1.937-1.149,2.233-.813.163-.533,1.123-.539,1.755-.024,2.74-.01,5.479-.01,8.219l-.6,0c0-2.631.013-5.264-.007-7.895-.007-.979.348-2.1-1.243-2.387-.7-.126-.447-1.012-.447-1.574q-.022-12.657-.006-25.313c0-.707-.208-1.544.959-1.637.855-.069.687-.8.75-1.377.1-.921-.275-1.9.3-2.833" transform="translate(14.64 -22.274)" fill="#30954c"/>
                  <path id="Path_32284" data-name="Path 32284" d="M44.468,92.794q0,2.828,0,5.658c0,.819-.12,1.642,1.034,1.893.936.2.634,1.071.637,1.68q.026,10.4,0,20.8c0,.85.247,1.821-1.2,1.891-.677.033-.45.83-.463,1.311a26.542,26.542,0,0,1-.212,3.682c-.7-.645-.4-1.463-.506-2.2-.166-1.17.7-2.773-1.4-3.15-.389-.069-.258-.786-.26-1.229q-.011-10.623-.029-21.244c0-.738-.1-1.5.981-1.675.968-.155.693-1.012.7-1.63.03-1.927.011-3.856.011-5.784h.705" transform="translate(12.794 -14.601)" fill="#30954c"/>
                  <path id="Path_32285" data-name="Path 32285" d="M120.329,131.889c0-2.5.013-4.832-.007-7.164-.006-.77.285-1.709-.986-1.87-.819-.1-.737-.781-.736-1.389q0-11.195,0-22.39c0-.728-.149-1.54,1-1.612.9-.057.7-.806.71-1.368.02-1.176.006-2.353.006-3.889,1.136.971.47,1.9.662,2.663.254,1-.662,2.491,1.339,2.727.592.07.3.91.3,1.388q.026,11.195,0,22.39c0,.3.115.764-.03.869-3.056,2.214-.986,5.41-1.57,8.087-.1.475.2,1.055-.691,1.557" transform="translate(45.995 -14.855)" fill="#de282f"/>
                  <path id="Path_32286" data-name="Path 32286" d="M150.045,108.634c0-.936,0-1.873,0-2.81,0-.862.224-1.8-1.108-2-.634-.1-.553-.81-.553-1.318q-.013-11.752-.006-23.5c0-.224-.066-.559.052-.652,3.037-2.435,1.024-5.813,1.65-8.689.026-.115.151-.208.449-.6.512,2.319.112,4.428.254,6.5.057.846-.264,1.789,1.09,2.046.74.139.486.991.488,1.544q.019,11.526,0,23.054c0,.576.182,1.48-.449,1.594-1.526.275-1.032,1.365-1.131,2.235s.254,1.764-.731,2.6" transform="translate(58.91 -24.898)" fill="#30954c"/>
                  <path id="Path_32287" data-name="Path 32287" d="M23.243,62.89c0,2.73-.011,5.459.007,8.189.006.769-.265,1.645.978,1.894.9.182.6,1.087.6,1.7.022,7.607-.017,15.212.049,22.817.013,1.5-.654,2.081-1.96,1.993-1.209-.082-2.145-.35-2.118-2.093.118-7.6.047-15.21.06-22.816,0-.5-.227-1.308.294-1.435,2.012-.49,1.3-2.038,1.335-3.226.077-2.346.023-4.7.023-7.045l.734.019" transform="translate(3.566 -27.584)" fill="#de282f"/>
                  <path id="Path_32288" data-name="Path 32288" d="M107.508,109.624c0-2.9.007-5.8,0-8.7,0-.781.219-1.665-1.017-1.855-.824-.126-.621-.906-.622-1.465q-.015-7.61.006-15.219c0-.74-.076-1.451,1-1.676s.6-1.229.6-1.883c.033-7.235.013-14.472.034-21.707a3.235,3.235,0,0,1,.311-2.238c.777.68.476,1.539.479,2.273.024,7.162.009,14.323.027,21.485,0,.893-.377,1.984,1.083,2.278.635.128.523.827.522,1.332q-.006,7.721-.037,15.441c0,.3.076.77-.073.865-2.9,1.838-1.037,4.679-1.46,7.019a23.088,23.088,0,0,0-.043,4.072l-.807-.024" transform="translate(40.464 -31.049)" fill="#30954c"/>
                  <path id="Path_32289" data-name="Path 32289" d="M5.547,122.442c0-3.017.024-6.034-.014-9.049-.011-.928.5-2.129-1.189-2.349-.763-.1-.49-.985-.492-1.533q-.028-11.739-.017-23.478c0-.822-.141-1.629,1.12-1.739.833-.075.565-.919.584-1.467.036-1.081.01-2.162.01-3.243l.611-.01c0,.964-.007,1.929,0,2.894.007.867-.221,1.81,1.126,2.017.814.126.553.942.555,1.49q.024,11.851.007,23.7c0,.434-.056,1.227-.189,1.25-2.392.413-1.4,2.276-1.461,3.54-.129,2.653-.039,5.317-.039,7.975H5.547" transform="translate(-3.806 -20.337)" fill="#de282f"/>
                  <path id="Path_32290" data-name="Path 32290" d="M65.759,38.261c0,3.242-.155,6.177.059,9.085.123,1.673-1.2,3.894,1.4,4.971.212.087.125.976.125,1.493q.019,10.061.016,20.123c0,.988.262,2.062-1.266,2.395-.691.151-.042,1.256-.516,1.748-2.962-2.584-2.191-6.061-2.211-9.336-.032-4.993-.013-9.987-.006-14.981,0-.928-.264-1.917,1.167-2.235.827-.184.473-1.134.479-1.756.029-3.13,0-6.26.04-9.39.009-.6-.314-1.311.713-2.115" transform="translate(22.002 -38.261)" fill="#30954c"/>
                  <path id="Path_32291" data-name="Path 32291" d="M103.609,65.033c.545,1.05.234,1.962.333,2.833.113.988-.546,2.323,1.295,2.511.66.067.426.863.426,1.342q.028,10.756.013,21.511c0,.37.044,1.011-.108,1.07-2.975,1.146-1.272,3.658-1.576,5.526-.252,1.554-.052,3.183-.277,4.779-.585-2.6-.337-5.231-.384-7.846-.017-.875.209-1.82-1.108-2.058-.83-.151-.565-.945-.566-1.5q-.03-10.642-.024-21.287c0-.373-.075-1.018.072-1.077,2.779-1.128,1.12-3.709,1.906-5.809" transform="translate(38.629 -26.646)" fill="#de282f"/>
                  <path id="Path_32292" data-name="Path 32292" d="M167.487,78.285c.384,1.89-.373,3.688,1.777,4.089.136.026.178.819.179,1.255q.015,9.954,0,19.9c0,.5.2,1.289-.39,1.382-1.855.3-1.3,1.659-1.345,2.74-.05,1.186-.011,2.377-.011,3.566l-.558.046c0-1.369.007-2.739,0-4.107-.006-.922.326-1.956-1.2-2.145-.787-.1-.493-.966-.495-1.517q-.028-9.952-.016-19.9c0-.44.027-1.246.146-1.266,2.165-.367,1.333-2.266,1.916-4.045" transform="translate(66.299 -20.896)" fill="#30954c"/>
                  <path id="Path_32293" data-name="Path 32293" d="M57.175,64.229c0,2.663-.01,5.327.006,7.989.006.777-.232,1.669,1.085,1.756.847.057.607.893.608,1.441q.013,7.6-.019,15.195c0,.7.235,1.52-.922,1.676-.975.13-.681,1.012-.707,1.62-.049,1.2-.014,2.413-.014,3.619l-.642-.011c0-1,.062-2-.017-2.984-.077-.949.652-2.364-1.3-2.4-.562-.009-.416-.7-.417-1.113q-.015-7.82-.006-15.641c0-.3-.066-.786.075-.86,3.12-1.676,1.146-4.565,1.617-6.852a17.586,17.586,0,0,0,.039-3.479l.612.039" transform="translate(18.326 -27.011)" fill="#de282f"/>
                  <path id="Path_32294" data-name="Path 32294" d="M133.694,98.413c0,4.937-.053,9.537.039,14.132.023,1.1-.9,2.853,1.389,3.07.129.011.265.789.267,1.21.016,6.482-.043,12.965.047,19.446.022,1.636-.981,1.665-1.99,1.639-.941-.023-2.115.165-2.1-1.53.067-6.557.024-13.114.036-19.67,0-.357.09-1.009.211-1.025,2.417-.346,1.428-2.215,1.464-3.457.109-3.8.027-7.6.057-11.4a2.845,2.845,0,0,1,.578-2.416" transform="translate(51.53 -12.163)" fill="#30954c"/>
                  <path id="Path_32295" data-name="Path 32295" d="M142.222,80.359c0,1.507-.112,3.025.037,4.518.112,1.114-.922,2.829,1.382,3.1.449.053.258.938.26,1.437q.03,8.724.013,17.444c0,.545.284,1.455-.489,1.5-1.465.095-1.108,1.07-1.2,1.9a2.914,2.914,0,0,1-.6,2.267c0-1.117.024-1.87-.009-2.62-.019-.434-.072-1.22-.205-1.242-2.417-.384-1.454-2.268-1.477-3.522-.095-5.142-.034-10.287-.029-15.43,0-.86-.232-1.756,1.124-1.97.89-.141.568-1.09.579-1.709.036-1.888.013-3.777.013-5.664l.6-.013" transform="translate(55.184 -19.996)" fill="#de282f"/>
                  <path id="Path_32296" data-name="Path 32296" d="M39.588,143.27c0-1.027.006-2.053,0-3.081-.006-.743.093-1.516-1-1.653-.832-.1-.713-.833-.713-1.408q-.013-8.833,0-17.667c0-.366-.022-.992.139-1.055,2.694-1.06,1.329-3.361,1.531-5.113a46.428,46.428,0,0,0,.044-5.307l.569-.006q0,4.011,0,8.024c0,.923-.313,1.931,1.187,2.116.783.1.529.959.532,1.513q.024,8.61,0,17.218c0,.625.26,1.524-.688,1.637-1.27.151-1.005,1.005-1.051,1.789-.059,1.024.2,2.072-.551,2.992" transform="translate(10.972 -8.013)" fill="#30954c"/>
                  <path id="Path_32297" data-name="Path 32297" d="M90.724,61.753c-.242-1.159.366-2.475-1.385-2.526-.618-.017-.453-.84-.455-1.332-.017-5.807.046-11.616-.06-17.421-.032-1.721.961-1.748,2.1-1.779,1.23-.034,2.022.191,1.989,1.841-.113,5.73-.032,11.465-.032,17.2,0,.79.2,1.583-1.1,1.725-1.269.141-.2,1.619-1.058,2.3" transform="translate(33.08 -38.075)" fill="#30954c"/>
                  <path id="Path_32298" data-name="Path 32298" d="M82.668,67.217q0,3.863,0,7.726c0,.8-.184,1.652,1.081,1.769.82.076.655.866.657,1.438q.013,6.158,0,12.315c0,.434.1,1.144-.3,1.212-2.109.356-1.392,1.957-1.417,3.14-.066,3.2-.021,6.409-.021,9.691-.956-.357-.575-1.061-.584-1.559-.042-2.687.049-5.377-.049-8.061-.042-1.164.751-2.782-1.366-3.2-.439-.086-.284-.938-.284-1.448q-.009-5.934.011-11.867c0-.8-.161-1.632,1.058-1.85.922-.166.588-1.08.6-1.689.033-2.526.014-5.051.014-7.578l.6-.039" transform="translate(29.408 -25.698)" fill="#30954c"/>
                  <path id="Path_32299" data-name="Path 32299" d="M124.582,138.106c0-5.261.027-10.52-.02-15.78-.01-1.252.824-2.9-1.366-3.4-.48-.109-.277-.939-.28-1.444-.016-3.727-.009-7.455-.013-11.181,0-.741-.073-1.344.932-1.719,1.678-.627.043-2.489,1.157-3.592.585,1.388-.7,3.608,1.756,4.066.092.017.162.4.162.611q.013,6.263,0,12.523c0,.211-.066.578-.175.608-2.621.74-1.454,2.882-1.5,4.4-.138,4.978-.052,9.961-.052,14.944l-.6-.039" transform="translate(47.854 -11.044)" fill="#30954c"/>
                  <path id="Path_32300" data-name="Path 32300" d="M159.065,98.655c-.651-.465-.162-1.493-.9-1.544-1.593-.11-1.194-1.245-1.2-2.129-.032-2.985-.08-5.973.019-8.957.043-1.282-.845-2.978,1.4-3.593.578-.158.288-1.364.305-2.092a9.536,9.536,0,0,1,.526-3.669c0,1.138-.072,2.284.02,3.415.089,1.1-.7,2.607,1.368,2.911.559.082.364,1.042.366,1.622.006,3.36.009,6.719-.011,10.079-.007,1.051.383,2.3-1.389,2.472-.585.059-.205.933-.5,1.487" transform="translate(62.592 -21.597)" fill="#de282f"/>
                  <path id="Path_32301" data-name="Path 32301" d="M52.731,68.916c.582,1.179-.528,2.97,1.633,3.255.513.067.321,1.055.321,1.637-.006,2.01-.009,4.022-.047,6.034-.019.971.36,2.081-1.252,2.374-.741.136-.42,1.15-.422,1.774-.022,5.588-.011,11.176-.011,16.763v2.38c-.827-.661-.607-1.29-.609-1.82Q52.3,92.821,52.3,84.327c0-1,.324-2.082-1.217-2.4-.727-.149-.444-1.009-.449-1.563q-.039-3.129.017-6.259c.016-.956-.386-1.989,1.217-2.4,1.005-.255.034-1.8.863-2.795" transform="translate(16.489 -24.961)" fill="#30954c"/>
                  <path id="Path_32302" data-name="Path 32302" d="M69.858,43.048c0,1.326-.042,2.654.013,3.978.044,1.075-.525,2.453,1.354,2.724.607.086.4.873.4,1.364.013,4.238-.062,8.48.044,12.717.04,1.613-1,1.7-1.986,1.659-.9-.04-2.145.132-2.114-1.56.082-4.312.029-8.626.032-12.941,0-.222-.065-.594.034-.647,3.325-1.764.9-5.027,2.218-7.294" transform="translate(23.861 -36.184)" fill="#de282f"/>
                  <path id="Path_32303" data-name="Path 32303" d="M18.395,87.962c0-2.129.011-4.26-.009-6.389,0-.485.308-1.323-.277-1.385-2.227-.231-1.42-1.863-1.447-3-.079-3.124.07-6.257-.073-9.376-.076-1.642,1.027-1.7,1.956-1.656s2.264-.234,2.162,1.666c-.172,3.265-.032,6.547-.053,9.823-.007,1.025.45,2.271-1.331,2.486-.733.089-.43,1-.44,1.549-.037,2.081-.016,4.161-.016,6.242l-.473.04" transform="translate(1.72 -26.163)" fill="#de282f"/>
                  <path id="Path_32304" data-name="Path 32304" d="M175.641,105.75q0-7.708,0-15.417c0-.916.331-1.989-1.226-2.1-.648-.047-.512-.809-.513-1.309-.009-3.212.09-6.427-.039-9.633-.076-1.873,1.309-1.582,2.253-1.682,1.03-.109,1.9.208,1.84,1.709-.122,3.132-.033,6.272-.026,9.408,0,.741.13,1.42-.969,1.642-1.121.225-.743,1.319-.748,2.072-.033,4.256-.006,8.513-.022,12.77a3.313,3.313,0,0,1-.545,2.544" transform="translate(69.973 -22.067)" fill="#de282f"/>
                  <path id="Path_32305" data-name="Path 32305" d="M145.923,115.534q0-4.9,0-9.8c0-.862.244-1.8-1.166-1.913-.835-.066-.572-.933-.576-1.47-.03-3.354.053-6.71-.049-10.061-.052-1.712,1.022-1.493,2.048-1.484s2.088-.186,2.036,1.511c-.1,3.351-.017,6.708-.034,10.061,0,.427-.085,1.194-.248,1.229-2.423.5-1.405,2.4-1.465,3.725-.122,2.739-.036,5.486-.036,8.23l-.508-.03" transform="translate(57.075 -15.469)" fill="#30954c"/>
                  <path id="Path_32306" data-name="Path 32306" d="M171.982,71.836c0,.992-.075,1.992.02,2.975.1,1.027-.7,2.515,1.308,2.723.412.042.336.757.34,1.2.013,1.716.04,3.433.032,5.149,0,.356-.063.988-.211,1.024-2.341.569-1.415,2.438-1.455,3.8-.1,3.58-.032,7.165-.063,10.748,0,.462.262,1.037-.612,1.592,0-4.479.033-8.755-.021-13.03-.013-1.111.685-2.617-1.335-2.962-.485-.083-.347-.909-.351-1.42-.01-1.494.019-2.987-.009-4.479-.016-.847-.122-1.632,1.081-1.807.812-.118.619-.9.628-1.467.02-1.335.006-2.671.006-4.006l.644-.04" transform="translate(68.132 -23.694)" fill="#30954c"/>
                  <path id="Path_32307" data-name="Path 32307" d="M99.39,75.215c-.423-1.286.3-3.023-1.814-3.284-.12-.014-.2-.8-.205-1.23-.019-2.98.112-5.968-.056-8.939-.1-1.871,1.318-1.615,2.165-1.646.82-.032,2.025.023,1.929,1.685-.171,2.971-.037,5.958-.054,8.939,0,.43-.077,1.217-.209,1.237-1.947.293-1.616,1.873-1.755,3.238" transform="translate(36.762 -28.781)" fill="#de282f"/>
                  <path id="Path_32308" data-name="Path 32308" d="M26.845,101.35c0-1.332.034-2.666-.011-4-.033-.946.434-2.162-1.265-2.307-.657-.054-.465-.832-.472-1.319-.026-1.564-.024-3.13-.016-4.694,0-.432-.133-1.113.321-1.206,2.164-.445,1.4-2.115,1.418-3.355a108.58,108.58,0,0,1,.553-12.217v8.952c0,1.566-.01,3.13.011,4.694.007.432-.033,1.117.2,1.253,3.149,1.84.784,4.809,1.507,7.126.04.125,0,.391-.072.42-3.087,1.232-1.13,3.9-1.675,5.85a6.857,6.857,0,0,0-.132.845l-.37-.046" transform="translate(5.417 -23.512)" fill="#30954c"/>
                  <path id="Path_32309" data-name="Path 32309" d="M163.249,87.625c0,1.042-.022,2.085.01,3.126.013.434.073,1.225.217,1.249,3.028.523,1.229,2.865,1.626,4.337a8.278,8.278,0,0,1,.042,2.45c-.04.948.4,2.07-1.249,2.313-.769.113-.489,1.128-.495,1.767a36.345,36.345,0,0,1-.513,7.235q0-3.839,0-7.678c0-.731.184-1.531-1.011-1.551-.885-.014-.731-.789-.74-1.352-.026-1.566-.036-3.132-.014-4.7.016-1.262-.294-2.293,1.735-2.856,1.755-.489.759-2.756.394-4.342" transform="translate(64.442 -16.844)" fill="#de282f"/>
                  <path id="Path_32310" data-name="Path 32310" d="M78.56,78.926c-.2,1.083-.86,2.392,1.121,2.826.774.169.733,4.818-.05,4.987-1.44.311-1.216,1.256-1.216,2.2a91.18,91.18,0,0,1-.516,11.832V95.311c0-2.082.023-4.165-.017-6.247-.017-.948.184-1.725-1.186-2.413-1.316-.662-.373-2.713-.588-4.137-.179-1.179.833-.751,1.379-.846,1.944-.336.961-1.778,1.073-2.742" transform="translate(27.508 -20.618)" fill="#de282f"/>
                  <path id="Path_32311" data-name="Path 32311" d="M156.669,79.288c0,.6,0,1.193,0,1.789-.009,2.429-.5,2.776-2.879,2.413-1-.153-1.18-.605-1.159-1.474.042-1.863.12-3.737-.023-5.589-.135-1.761,1.047-1.473,2.016-1.478s2.225-.327,2.066,1.432c-.087.961-.014,1.937-.017,2.906" transform="translate(60.748 -22.355)" fill="#de282f"/>
                  <path id="Path_32312" data-name="Path 32312" d="M112.355,66.825c0,1.924-.066,3.851.023,5.771.057,1.236-.515,2.482,1.4,3.423,1.14.559.532,3.057.265,4.6-.215,1.243-1.6.536-2.469.648-1.007.129-1.68-.29-1.4-1.359.4-1.539-1.3-3.82,1.564-4.568.182-.047.188-.956.192-1.465.019-2.369.009-4.736.009-7.1l.416.054" transform="translate(42.283 -25.892)" fill="#de282f"/>
                  <path id="Path_32313" data-name="Path 32313" d="M154.2,83.03V94.762h-.255V83.016l.255.014" transform="translate(61.333 -18.844)" fill="#de282f"/>
                </g>
              </g>
            </g>
            <path id="Path_32314" data-name="Path 32314" d="M214.46,34.413H119.946A7.946,7.946,0,0,1,112,26.465V7.948A7.946,7.946,0,0,1,119.946,0H214.46a7.948,7.948,0,0,1,7.948,7.948V26.465a7.948,7.948,0,0,1-7.948,7.948" transform="translate(43.136)" fill="#caefbd"/>
            <path id="Path_32315" data-name="Path 32315" d="M175.358,17.949c-.118-.129-.229-.264-.353-.387-.637-.64-1.286-1.268-1.91-1.92-.189-.2-.281-.165-.455.01-2.445,2.456-4.9,4.9-7.341,7.361-.251.252-.371.231-.609-.009q-3.142-3.17-6.31-6.313c-.2-.2-.2-.291,0-.488,2.475-2.458,4.935-4.93,7.41-7.387.2-.2.189-.3-.006-.485-.69-.665-1.362-1.349-2.036-2.029-.075-.075-.182-.129-.205-.254.09-.07.192-.033.285-.033q5.618,0,11.233-.009c.271,0,.377.037.377.356-.016,3.843-.01,7.687-.01,11.531l-.073.054" transform="translate(63.195 2.606)" fill="#56a73c"/>
          </g>
        </g>
        <path id="Path_32335" data-name="Path 32335" d="M1.19-11.458V-4.9c0,3.6,1.717,5.083,4.369,5.083,2.754,0,4.573-1.564,4.573-5.1v-6.545H8.041v6.681c0,2.244-.9,3.281-2.414,3.281-1.411,0-2.346-1.037-2.346-3.281v-6.681ZM12.529,0H14.6V-4.318a5.893,5.893,0,0,0,1.02.068,5.055,5.055,0,0,0,3.621-1.224,3.472,3.472,0,0,0,.986-2.6,3.237,3.237,0,0,0-1.122-2.533,5.185,5.185,0,0,0-3.383-.935,18.127,18.127,0,0,0-3.2.238ZM14.6-9.843a5.777,5.777,0,0,1,1.207-.1c1.445,0,2.329.68,2.329,1.955,0,1.343-.952,2.108-2.516,2.108a4.219,4.219,0,0,1-1.02-.085Z" transform="translate(193.493 23.115)" fill="#56a73c"/>
        <g id="Group_34475" data-name="Group 34475">
          <g id="Group_34513" data-name="Group 34513">
            <path id="Path_32316" data-name="Path 32316" d="M102.46,34.413H7.946A7.946,7.946,0,0,1,0,26.465V7.948A7.946,7.946,0,0,1,7.946,0H102.46a7.948,7.948,0,0,1,7.948,7.948V26.465a7.948,7.948,0,0,1-7.948,7.948" fill="#f4d3d3"/>
            <path id="Path_32317" data-name="Path 32317" d="M14.851,11.251c.8.8,1.564,1.556,2.314,2.331.176.181.258.173.433,0,2.468-2.482,4.947-4.951,7.413-7.435.2-.2.293-.194.488,0q3.179,3.2,6.382,6.384c.182.181.192.274,0,.462-2.473,2.459-4.935,4.931-7.41,7.389-.209.206-.208.307,0,.508.76.734,1.5,1.491,2.241,2.231-.03.12-.113.076-.169.076q-5.717,0-11.434,0c-.191,0-.3-.01-.3-.26q.013-5.783.007-11.568a.818.818,0,0,1,.029-.123" transform="translate(6.428 2.603)" fill="#d42424"/>
          </g>
        </g>
        <path id="Path_32336" data-name="Path 32336" d="M.994-.028A18.8,18.8,0,0,0,3.318.1,6.3,6.3,0,0,0,7.588-1.19a4.885,4.885,0,0,0,1.47-3.752,4.22,4.22,0,0,0-1.47-3.472,5.745,5.745,0,0,0-3.85-1.092,17.384,17.384,0,0,0-2.744.2ZM2.716-8.064a5.51,5.51,0,0,1,1.176-.1A2.993,2.993,0,0,1,7.238-4.886c0,2.394-1.33,3.626-3.57,3.612a6.415,6.415,0,0,1-.952-.042ZM14.546-9.59c-2.66,0-4.48,2.044-4.48,4.942,0,2.772,1.68,4.8,4.34,4.8,2.6,0,4.522-1.806,4.522-4.97C18.928-7.5,17.3-9.59,14.546-9.59ZM14.5-8.2c1.722,0,2.6,1.68,2.6,3.458,0,1.974-.938,3.514-2.6,3.514s-2.618-1.526-2.618-3.444C11.886-6.622,12.8-8.2,14.5-8.2ZM23.73,0l1.092-4.438c.28-1.078.462-1.988.63-3h.028a26.9,26.9,0,0,0,.518,3L26.978,0h1.848L31.36-9.436H29.61l-.98,4.27c-.252,1.148-.476,2.226-.644,3.262h-.028c-.14-1.022-.336-2.072-.574-3.192l-.938-4.34H24.64l-1.022,4.27c-.266,1.19-.532,2.31-.686,3.3H22.9C22.75-2.8,22.526-4,22.288-5.152l-.9-4.284H19.558L21.868,0ZM34.09,0V-3.374c0-1.554-.014-2.8-.084-4.018l.042-.014a32.86,32.86,0,0,0,1.694,3.262L38.206,0h1.778V-9.436h-1.6v3.29c0,1.442.042,2.66.154,3.92h-.028A25.949,25.949,0,0,0,36.9-5.39L34.468-9.436h-1.96V0Z" transform="translate(50.995 22.549)" fill="#d42424"/>
        <g id="Group_34507" data-name="Group 34507" transform="translate(67.076 28.725)">
          <g id="Group_34511" data-name="Group 34511">
            <path id="Path_32318" data-name="Path 32318" d="M154.749,37.023s5.535-13.94,6.368-12.627-.655,3.238-.346,6.63c0,0,10.206-12.307,10.741-10.877s-5.764,9.719-5.629,9.909,7.562-8.521,8.344-7.552-6.15,9.042-6.15,9.042,7.023-6.994,7.913-6.008-5.569,7.447-5.569,7.447,5.466-5.358,6.263-4.454c.485.551-13.344,17.86-12.959,18.233.2.194-8.976-9.745-8.976-9.745" transform="translate(0.064 -20.033)" fill="#e8b886"/>
            <path id="Path_32319" data-name="Path 32319" d="M202.89,29.344s-24.909,29.827-38.548,42.4-41.278,28.9-41.278,28.9l.026.039c-6.47,1.27-10.773,2.535-13.708,3.327-9.089,2.45-11.1,2.753-17.371,5.211A53.544,53.544,0,0,0,64.824,132.74c-8.645,15.345-19.63,39.523-17.853,60.9,1.914,23.051,21.37,16.145,35.514,7.842.059.609.089.935.089.935h60.591v-69.9s-.006-.693-.082-1.868l.082.122s22.033-26.717,32.4-37.091c17.657-17.664,37.59-51.273,37.59-51.273ZM74.019,177.942l6.934-28.349c.459,4.879-1.951,21.343-1.518,25.917Z" transform="translate(-46.78 -15.994)" fill="#5e5e5e"/>
            <path id="Path_32320" data-name="Path 32320" d="M85.031,84.2s-3.952,18.376,1.589,15.7,9.666-5.1,9.666-5.1,5.518,6.8,8.184,2.658-2.535-17.677-2.535-17.677Z" transform="translate(-30.777 5.743)"/>
            <path id="Path_32321" data-name="Path 32321" d="M82.273,70.326l4.061,21.717a8.69,8.69,0,0,0,17.1-3.129l-2.205-12.447Z" transform="translate(-31.381 1.657)" fill="#d29660"/>
            <g id="Group_34478" data-name="Group 34478" transform="translate(32.673 169.608)" opacity="0.36">
              <g id="Group_34477" data-name="Group 34477">
                <g id="Group_34476" data-name="Group 34476" clip-path="url(#clip-path-2)">
                  <path id="Path_32322" data-name="Path 32322" d="M89.973,138.526a3.911,3.911,0,0,1-.617.856c-.422.531-1.062,1.272-1.88,2.167a72.427,72.427,0,0,1-14.492,12.093c-1.025.644-1.868,1.141-2.465,1.46a3.817,3.817,0,0,1-.952.453c-.043-.072,1.219-.872,3.2-2.235s4.682-3.316,7.5-5.669,5.225-4.656,6.921-6.369a38.951,38.951,0,0,1,2.775-2.754" transform="translate(-69.566 -138.524)"/>
                </g>
              </g>
            </g>
            <g id="Group_34481" data-name="Group 34481" transform="translate(22.708 161.495)" opacity="0.36">
              <g id="Group_34480" data-name="Group 34480">
                <g id="Group_34479" data-name="Group 34479" clip-path="url(#clip-path-3)">
                  <path id="Path_32323" data-name="Path 32323" d="M62.63,140.268a16.965,16.965,0,0,1,1.884-3.844,16.926,16.926,0,0,1,2.357-3.573,16.99,16.99,0,0,1-1.884,3.846,16.939,16.939,0,0,1-2.357,3.572" transform="translate(-62.617 -132.848)"/>
                </g>
              </g>
            </g>
            <g id="Group_34484" data-name="Group 34484" transform="translate(26.829 150.706)" opacity="0.36">
              <g id="Group_34483" data-name="Group 34483">
                <g id="Group_34482" data-name="Group 34482" clip-path="url(#clip-path-4)">
                  <path id="Path_32324" data-name="Path 32324" d="M65.491,136.667a10.841,10.841,0,0,1,1.561-.81l4.322-2.056c3.651-1.734,8.679-4.155,14.175-6.947l2.664-1.361.337-.172.054.373c.789,5.424,1.461,10.223,1.919,13.669.209,1.656.381,3.02.515,4.064a8.678,8.678,0,0,1,.119,1.485,8.371,8.371,0,0,1-.313-1.457c-.175-1.038-.4-2.395-.677-4.039-.553-3.431-1.292-8.222-2.1-13.643l.391.2c-.855.437-1.754.9-2.667,1.368-5.5,2.795-10.565,5.165-14.26,6.809-1.847.823-3.351,1.467-4.4,1.9a10.832,10.832,0,0,1-1.648.617" transform="translate(-65.491 -125.32)"/>
                </g>
              </g>
            </g>
            <g id="Group_34487" data-name="Group 34487" transform="translate(20.553 161.279)" opacity="0.36">
              <g id="Group_34486" data-name="Group 34486">
                <g id="Group_34485" data-name="Group 34485" clip-path="url(#clip-path-5)">
                  <path id="Path_32325" data-name="Path 32325" d="M67.8,132.7a17.951,17.951,0,0,1-3.162,3.07,17.937,17.937,0,0,1-3.514,2.654,17.967,17.967,0,0,1,3.16-3.07A17.968,17.968,0,0,1,67.8,132.7" transform="translate(-61.114 -132.696)"/>
                </g>
              </g>
            </g>
            <g id="Group_34490" data-name="Group 34490" transform="translate(65.218 103.391)" opacity="0.36">
              <g id="Group_34489" data-name="Group 34489">
                <g id="Group_34488" data-name="Group 34488" clip-path="url(#clip-path-6)">
                  <path id="Path_32326" data-name="Path 32326" d="M94.743,175.365c-.151,0-.82-18.586-1.5-41.516s-1.1-41.533-.952-41.538.822,18.581,1.5,41.52,1.1,41.529.952,41.533" transform="translate(-92.264 -92.311)"/>
                </g>
              </g>
            </g>
            <path id="Path_32327" data-name="Path 32327" d="M82,130.458s12.168-8.735,12.162-7.178-2.3,2.369-3.864,5.391c0,0,15.22-4.831,14.9-3.338s-10.087,5.06-10.076,5.292,10.955-3.077,11.089-1.838-10.046,4.28-10.046,4.28,9.679-2.083,9.9-.771-8.7,3.252-8.7,3.252,7.488-1.55,7.67-.357c.112.727-20.851,7.806-20.728,8.328.065.272-2.306-13.061-2.306-13.061" transform="translate(-31.498 24.424)" fill="#e8b886"/>
            <g id="Group_34493" data-name="Group 34493" transform="translate(151.726 17.801)" opacity="0.36">
              <g id="Group_34492" data-name="Group 34492">
                <g id="Group_34491" data-name="Group 34491" clip-path="url(#clip-path-7)">
                  <path id="Path_32328" data-name="Path 32328" d="M164.692,44.451a66.472,66.472,0,0,1-6.237-5.806,66.508,66.508,0,0,1-5.856-6.194,66.586,66.586,0,0,1,6.239,5.806,66.6,66.6,0,0,1,5.854,6.194" transform="translate(-152.596 -32.448)" fill="#251a51"/>
                </g>
              </g>
            </g>
            <g id="Group_34496" data-name="Group 34496" transform="translate(43.746 154.014)" opacity="0.36">
              <g id="Group_34495" data-name="Group 34495">
                <g id="Group_34494" data-name="Group 34494" clip-path="url(#clip-path-8)">
                  <path id="Path_32329" data-name="Path 32329" d="M81.612,148.058a100.261,100.261,0,0,1-2.42-10.156,100.16,100.16,0,0,1-1.886-10.269,100.142,100.142,0,0,1,2.42,10.156,99.937,99.937,0,0,1,1.886,10.269" transform="translate(-77.289 -127.632)"/>
                </g>
              </g>
            </g>
            <g id="Group_34499" data-name="Group 34499" transform="translate(45.074 156.104)" opacity="0.36">
              <g id="Group_34498" data-name="Group 34498">
                <g id="Group_34497" data-name="Group 34497" clip-path="url(#clip-path-9)">
                  <path id="Path_32330" data-name="Path 32330" d="M80.556,129.14c.057.139-.42.467-1.065.733s-1.213.367-1.27.227.42-.467,1.064-.733,1.214-.367,1.272-.227" transform="translate(-78.215 -129.078)"/>
                </g>
              </g>
            </g>
            <g id="Group_34502" data-name="Group 34502" transform="translate(75.057 119.735)" opacity="0.36">
              <g id="Group_34501" data-name="Group 34501">
                <g id="Group_34500" data-name="Group 34500" clip-path="url(#clip-path-10)">
                  <path id="Path_32331" data-name="Path 32331" d="M110.845,103.707a32.865,32.865,0,0,1-5.811,1.328,32.609,32.609,0,0,1-5.909.79,32.674,32.674,0,0,1,5.811-1.328,32.566,32.566,0,0,1,5.909-.79" transform="translate(-99.126 -103.674)"/>
                </g>
              </g>
            </g>
            <g id="Group_34505" data-name="Group 34505" transform="translate(30.101 102.925)" opacity="0.36">
              <g id="Group_34504" data-name="Group 34504">
                <g id="Group_34503" data-name="Group 34503" clip-path="url(#clip-path-11)">
                  <path id="Path_32332" data-name="Path 32332" d="M67.775,91.952c.006-.017.129.007.358.073a7.345,7.345,0,0,1,.985.356,11.2,11.2,0,0,1,3.187,2.168A14.009,14.009,0,0,1,75.5,99.3a17.539,17.539,0,0,1,1.212,6.9A32.159,32.159,0,0,1,73.6,118.455c-.66,1.48-1.237,2.654-1.648,3.46a6.857,6.857,0,0,1-.691,1.227,7.124,7.124,0,0,1,.5-1.318c.391-.931.89-2.111,1.484-3.522a34.153,34.153,0,0,0,2.928-12.11,17.542,17.542,0,0,0-1.133-6.706,13.256,13.256,0,0,0-7.261-7.535" transform="translate(-67.773 -91.945)"/>
                </g>
              </g>
            </g>
            <path id="Path_32333" data-name="Path 32333" d="M82.461,55.957l1.272,16.782s-6.3.852-4.5,6.609,6.1,3.239,6.1,3.239,1.077,14.754,16.151,10.077,10.051-28.071,8.615-42.105Z" transform="translate(-32.84 -6.874)" fill="#e8b886"/>
            <path id="Path_32334" data-name="Path 32334" d="M82.269,76.628c-1.946-4.4-2.529-8.744-3.014-13.531a15.463,15.463,0,0,1,.282-5.846,6.7,6.7,0,0,1,3.6-4.408c2.585-1.08,13.583-5.654,14.73-6.517s6.487-5,12.222-3.569,6.022,12.208,4.3,14.339c-1.609,1.993-2.333,1.458-4.333,3.056-4.216,3.367-10.833,4.059-17.487,2.535-2.881-.66-6.348.465-6.928,3.371a50.628,50.628,0,0,0,.037,6.428,5.334,5.334,0,0,1-.591,3.177,2.268,2.268,0,0,1-2.819.965" transform="translate(-32.752 -10.304)"/>
            <path id="Path_32337" data-name="Path 32337" d="M102.737,214.834l1.774,63.978,26.714,4.124,3.123-56.035,12,56.5,29.812-2.429-12.81-66.137Z" transform="translate(-67.076 -29.132)"/>
          </g>
        </g>
      </g>
    </g>
  </g>
</svg>
