<svg xmlns="http://www.w3.org/2000/svg" width="480" height="380" viewBox="0 0 480 380">
  <g id="Group_34867" data-name="Group 34867" transform="translate(-840.42 -1012.902)">
    <rect id="Rectangle_18654" data-name="Rectangle 18654" width="480" height="380" transform="translate(840.42 1012.902)" fill="none"/>
    <g id="Group_34866" data-name="Group 34866" transform="translate(358.346 -455)">
      <g id="Group_34865" data-name="Group 34865" transform="translate(482.527 1468)">
        <path id="Path_33002" data-name="Path 33002" d="M695.494,654.924c-12.7-13.79-19.236-34.435-12.388-51.887a86.376,86.376,0,0,0,45.255,38.326c7.389,2.686,15.888,4.9,19.9,11.665,2.5,4.207,2.675,9.472,1.543,14.232s-3.457,9.136-5.759,13.453l-.014,1.221C726.045,676.648,708.195,668.714,695.494,654.924Z" transform="translate(-512.727 -328.021)" fill="#e6e6e6"/>
        <path id="Path_33003" data-name="Path 33003" d="M685.335,602.9a73.828,73.828,0,0,0,19.843,40.86,31.791,31.791,0,0,0,7.83,6.158,18.234,18.234,0,0,0,9.385,2.006c3.035-.108,6.127-.57,9.135.061a11.165,11.165,0,0,1,7.308,5.475c1.992,3.379,2.65,7.272,3.162,11.1.568,4.252,1.091,8.678,3.519,12.337.294.443-.411.874-.7.431-4.225-6.367-2.8-14.5-5.649-21.362-1.329-3.2-3.631-6.025-7.076-7-3.013-.848-6.2-.375-9.273-.238a19.457,19.457,0,0,1-9.25-1.619,29.393,29.393,0,0,1-8.038-5.834,71.625,71.625,0,0,1-13.228-18.06,75.137,75.137,0,0,1-7.789-24.3c-.074-.525.753-.538.826-.017Z" transform="translate(-514.574 -327.789)" fill="#fff"/>
        <path id="Path_33004" data-name="Path 33004" d="M703.561,669.13a11.077,11.077,0,0,1-14.3-1.066c-.377-.375.187-.978.565-.6a10.257,10.257,0,0,0,13.307.964C703.558,668.11,703.987,668.816,703.561,669.13Z" transform="translate(-516.628 -356.562)" fill="#fff"/>
        <path id="Path_33005" data-name="Path 33005" d="M747.25,679.173a21.349,21.349,0,0,0-3.22-15.222c-.293-.444.412-.875.7-.431a22.207,22.207,0,0,1,3.319,15.846C747.964,679.892,747.161,679.7,747.25,679.173Z" transform="translate(-540.962 -354.783)" fill="#fff"/>
        <path id="Path_33006" data-name="Path 33006" d="M693.2,629.109a6.27,6.27,0,0,0,3.61-4.729c.082-.526.885-.329.8.193a7.026,7.026,0,0,1-3.982,5.24.427.427,0,0,1-.568-.137A.415.415,0,0,1,693.2,629.109Z" transform="translate(-518.346 -337.356)" fill="#fff"/>
        <path id="Path_32966" data-name="Path 32966" d="M677.405,535.977l16.05-18.367.167.146,2.952-3.378-.167-.146,4.928-5.639a2.13,2.13,0,0,0-.2-3.005L689.2,495.158a2.13,2.13,0,0,0-3.005.2l-3.436,3.932-.272-.227-2.011,2.408.218.182-.455.521-.232-.193-2.011,2.408.177.148-15.908,18.2a2.126,2.126,0,0,0,.2,3.005L674.4,536.179A2.132,2.132,0,0,0,677.405,535.977Z" transform="translate(-504.468 -279.907)" fill="#3f3d56"/>
        <path id="Path_32967" data-name="Path 32967" d="M663.449,525.395a1.023,1.023,0,0,1,.124-1.167l24.182-27.673a1.021,1.021,0,0,1,1.44-.1l2.539,2.219-.1.05a1.176,1.176,0,0,0-.246,1.937l5.636,4.925a1.191,1.191,0,0,0,1.062.177,1.166,1.166,0,0,0,.757-.739l.036-.105,2.623,2.292a1.022,1.022,0,0,1,.1,1.44l-23.071,26.4a2.711,2.711,0,0,1-3.821.257l-11.037-9.645a1.02,1.02,0,0,1-.221-.273Z" transform="translate(-505.172 -280.606)" fill="#fff"/>
        <circle id="Ellipse_1328" data-name="Ellipse 1328" cx="4.034" cy="4.034" r="4.034" transform="translate(178.615 225.81)" fill="#c99e41"/>
        <path id="Path_32968" data-name="Path 32968" d="M692.873,541.362l-11.178-9.768a.353.353,0,1,1,.464-.531l11.178,9.768a.353.353,0,1,1-.464.531Z" transform="translate(-513.273 -296.038)" fill="#fff"/>
        <path id="Path_32969" data-name="Path 32969" d="M690.231,542.857l-3.677-3.213a.353.353,0,0,1,.464-.531l3.677,3.213a.353.353,0,1,1-.464.531Z" transform="translate(-515.43 -299.611)" fill="#fff"/>
        <path id="Path_32970" data-name="Path 32970" d="M686.408,547.232l-3.677-3.213a.353.353,0,0,1,.464-.531l3.677,3.213a.353.353,0,1,1-.464.531Z" transform="translate(-513.733 -301.552)" fill="#fff"/>
        <path id="Path_32971" data-name="Path 32971" d="M684.45,549.472l-3.677-3.213a.353.353,0,0,1,.464-.531l3.677,3.213a.353.353,0,0,1-.464.531Z" transform="translate(-512.864 -302.547)" fill="#fff"/>
        <path id="Path_32972" data-name="Path 32972" d="M688.763,545.378l-7.8-6.817a.353.353,0,1,1,.464-.531l7.8,6.817a.353.353,0,1,1-.464.532Z" transform="translate(-512.948 -299.13)" fill="#fff"/>
        <path id="Path_32973" data-name="Path 32973" d="M679.873,553.277l-1.335-1.167a.6.6,0,1,1,.79-.9l1.335,1.167a.6.6,0,0,1-.79.9Z" transform="translate(-511.835 -304.951)" fill="#fff"/>
        <path id="Path_32974" data-name="Path 32974" d="M642.958,466.655a6.532,6.532,0,0,1,.858-9.98l-10.663-51.606,11.5,3.629,8.579,49.924a6.568,6.568,0,0,1-10.278,8.032Z" transform="translate(-491.782 -240.157)" fill="#e8b886"/>
        <path id="Path_32975" data-name="Path 32975" d="M602.516,263.48l7.126-5.379s6.286-.445,7.4,10.892,8.085,54.847,8.085,54.847l10.9,50.506-15.095,3.313-11.68-54.5-11.692-37.6Z" transform="translate(-475.988 -174.926)" fill="#2f2e41"/>
        <path id="Path_32976" data-name="Path 32976" d="M590.817,386.643l-23.258-29.912a2.549,2.549,0,0,1,.447-3.573l34.183-26.579a2.549,2.549,0,0,1,3.573.447l23.258,29.912a2.549,2.549,0,0,1-.447,3.573L594.39,387.09a2.549,2.549,0,0,1-3.573-.447Z" transform="translate(-462.432 -205.082)" fill="#3f3d56"/>
        <path id="Path_32977" data-name="Path 32977" d="M593.658,386.185l-21.084-27.117a2.263,2.263,0,0,1,.4-3.172l31.284-24.325a2.263,2.263,0,0,1,3.172.4l21.085,27.117a2.263,2.263,0,0,1-.4,3.172L596.83,386.582A2.263,2.263,0,0,1,593.658,386.185Z" transform="translate(-464.684 -207.325)" fill="#fff"/>
        <path id="Path_32978" data-name="Path 32978" d="M655.432,374.061,644.8,360.382a.565.565,0,0,1,.892-.694l10.636,13.68a.565.565,0,0,1-.892.694Z" transform="translate(-496.897 -219.918)" fill="#e4e4e4"/>
        <path id="Path_32979" data-name="Path 32979" d="M652.262,376.526l-10.636-13.68a.565.565,0,1,1,.892-.694l10.636,13.68a.565.565,0,1,1-.892.694Z" transform="translate(-495.49 -221.012)" fill="#e4e4e4"/>
        <path id="Path_32980" data-name="Path 32980" d="M643.066,371.241l-4.611-5.93a.565.565,0,1,1,.892-.694l4.611,5.93a.565.565,0,1,1-.892.694Z" transform="translate(-494.083 -222.106)" fill="#e4e4e4"/>
        <path id="Path_32981" data-name="Path 32981" d="M629.072,379.662l-16.792-21.6a.565.565,0,1,1,.892-.694l16.792,21.6a.565.565,0,1,1-.892.694Z" transform="translate(-482.466 -218.89)" fill="#e4e4e4"/>
        <path id="Path_32982" data-name="Path 32982" d="M625.9,382.126l-16.792-21.6a.565.565,0,0,1,.892-.694l16.792,21.6a.565.565,0,0,1-.892.694Z" transform="translate(-481.059 -219.984)" fill="#e4e4e4"/>
        <path id="Path_32983" data-name="Path 32983" d="M618.707,387.721l-16.792-21.6a.565.565,0,0,1,.892-.694l16.792,21.6a.565.565,0,1,1-.892.694Z" transform="translate(-477.866 -222.467)" fill="#e4e4e4"/>
        <path id="Path_32984" data-name="Path 32984" d="M615.537,390.185l-16.792-21.6a.565.565,0,0,1,.892-.694l16.792,21.6a.565.565,0,1,1-.892.694Z" transform="translate(-476.459 -223.561)" fill="#e4e4e4"/>
        <path id="Path_32985" data-name="Path 32985" d="M608.342,395.78l-16.792-21.6a.565.565,0,0,1,.892-.694l16.792,21.6a.565.565,0,0,1-.892.694Z" transform="translate(-473.265 -226.044)" fill="#e4e4e4"/>
        <path id="Path_32986" data-name="Path 32986" d="M605.173,398.245l-16.792-21.6a.565.565,0,1,1,.892-.694l16.792,21.6a.565.565,0,0,1-.892.694Z" transform="translate(-471.859 -227.138)" fill="#e4e4e4"/>
        <circle id="Ellipse_1329" data-name="Ellipse 1329" cx="0.232" cy="0.232" r="0.232" transform="translate(161.94 195.822)" fill="#fff"/>
        <path id="Path_32987" data-name="Path 32987" d="M665.819,541.26h-1.669V526.244a20.3,20.3,0,1,0-40.6,0V541.26h-1.669V526.244a21.969,21.969,0,1,1,43.937,0Z" transform="translate(-486.78 -284.187)" fill="#2f2e41"/>
        <path id="Path_32988" data-name="Path 32988" d="M667.16,539.629a10.8,10.8,0,0,0-10.562-8.354h-75.65a10.891,10.891,0,0,0-10.728,9.216,124.884,124.884,0,0,0-1.118,23.876q.192,4.605.684,9.455.317,3.17.756,6.452a10.886,10.886,0,0,0,10.756,9.4h75.155a10.784,10.784,0,0,0,10.584-8.471q.834-3.7,1.379-7.38a94.949,94.949,0,0,0,.946-9.455A88.794,88.794,0,0,0,667.16,539.629Z" transform="translate(-463.288 -296.171)" fill="#c99e41"/>
        <path id="Path_32989" data-name="Path 32989" d="M665.819,532.76h-1.669V517.744a20.3,20.3,0,0,0-40.6,0V532.76h-1.669V517.744a21.969,21.969,0,0,1,43.937,0Z" transform="translate(-486.78 -280.415)" fill="#2f2e41"/>
        <path id="Path_32990" data-name="Path 32990" d="M657.686,533.868l-2.781-4.817a2.716,2.716,0,0,0-5.023.6v5.562a1.947,1.947,0,0,0,3.893,0v-.333l.539.933a1.947,1.947,0,0,0,3.372-1.947Z" transform="translate(-499.207 -294.548)" fill="#2f2e41"/>
        <circle id="Ellipse_1330" data-name="Ellipse 1330" cx="3.337" cy="3.337" r="3.337" transform="translate(133.155 249.009)" fill="#2f2e41"/>
        <circle id="Ellipse_1331" data-name="Ellipse 1331" cx="3.337" cy="3.337" r="3.337" transform="translate(174.59 249.287)" fill="#2f2e41"/>
        <path id="Path_32991" data-name="Path 32991" d="M669.482,590.775a94.947,94.947,0,0,1-.945,9.455H569.906q-.492-4.855-.684-9.455Z" transform="translate(-463.408 -322.579)" fill="#3f3d56"/>
        <path id="Path_33007" data-name="Path 33007" d="M776.491,567.453c-.042.33-.084.66-.121.995a82.566,82.566,0,0,0-.534,13.384c.009.346.023.7.042,1.041a87.047,87.047,0,0,0,7.528,31.152,84.529,84.529,0,0,0,6.149,11.277c3.222,4.968,7.11,10.1,8.463,15.677a14.5,14.5,0,0,1,.334,1.764L778.6,666.063c-.072.031-.138.066-.21.1l-.746.967c-.133-.177-.268-.364-.4-.541-.078-.1-.151-.21-.229-.313-.05-.07-.1-.14-.15-.2-.017-.023-.034-.047-.045-.065-.049-.06-.089-.121-.133-.177q-1.131-1.561-2.245-3.144c-.005,0-.005,0-.006-.014a124.292,124.292,0,0,1-14.194-25.731c-.107-.273-.219-.551-.316-.835a80.667,80.667,0,0,1-3.7-12.632,71.331,71.331,0,0,1-1.076-7.135,59.3,59.3,0,0,1,1.109-18.508c2.669-12.106,9.18-23.224,19.45-29.878C775.964,567.784,776.223,567.619,776.491,567.453Z" transform="translate(-545.801 -312.228)" fill="#e6e6e6"/>
        <path id="Path_33008" data-name="Path 33008" d="M786.122,567.462a73.828,73.828,0,0,0-8.757,44.571,31.8,31.8,0,0,0,2.544,9.631,18.233,18.233,0,0,0,6.286,7.252c2.488,1.741,5.235,3.233,7.257,5.549a11.165,11.165,0,0,1,2.539,8.771c-.445,3.9-2.263,7.4-4.16,10.768-2.106,3.737-4.353,7.585-4.618,11.969-.032.531-.854.45-.822-.08.46-7.627,6.492-13.262,8.351-20.458.867-3.358.728-7-1.438-9.846-1.894-2.491-4.726-4.033-7.261-5.774a19.459,19.459,0,0,1-6.41-6.862,29.392,29.392,0,0,1-2.9-9.5,71.623,71.623,0,0,1,.311-22.384,75.133,75.133,0,0,1,8.413-24.095c.258-.464.925.024.67.484Z" transform="translate(-555.181 -311.934)" fill="#fff"/>
        <path id="Path_33009" data-name="Path 33009" d="M768.262,631.352a11.077,11.077,0,0,1-10.779-9.462c-.075-.526.739-.668.814-.142a10.256,10.256,0,0,0,10.044,8.782C768.874,630.536,768.791,631.358,768.262,631.352Z" transform="translate(-546.962 -336.178)" fill="#fff"/>
        <path id="Path_33010" data-name="Path 33010" d="M791.748,665.672a21.349,21.349,0,0,0,6.593-14.093c.034-.531.856-.45.822.08a22.207,22.207,0,0,1-6.891,14.651C791.886,666.676,791.363,666.036,791.748,665.672Z" transform="translate(-562.112 -349.406)" fill="#fff"/>
        <path id="Path_33011" data-name="Path 33011" d="M781.7,594.954a6.27,6.27,0,0,0,5.73-1.6c.382-.371.9.27.525.638a7.026,7.026,0,0,1-6.335,1.786.427.427,0,0,1-.371-.451.415.415,0,0,1,.451-.371Z" transform="translate(-557.512 -323.673)" fill="#fff"/>
        <path id="Path_33012" data-name="Path 33012" d="M310.986,720.4c.027.6.839,1.052,1.85,1.052H564.266c25.945-.158,51.8-.356,76.829-.589a130.733,130.733,0,0,0,14.056-.728c6.957-.823,11.786-2.456,14.763-4.99h0c3.7-3.143,3.82-7.1,3.6-11.571-.456-9.028-.909-18.512-1.36-27.968-.4-8.333-.8-16.644-1.193-24.6-.246-4.722-.791-8.89-5-12.075-4.558-3.445-12.87-5.191-24.707-5.191h-.43c-37.095.132-73.85,12.887-91.459,31.739-2.028,2.171-3.917,4.495-5.745,6.743a91.369,91.369,0,0,1-8.823,9.824,41.468,41.468,0,0,1-5.828,4.543c-.143.1-.307.2-.48.305-.4.258-.81.507-1.213.728A42.145,42.145,0,0,1,519.845,691l-.26.087c-.2.07-.409.14-.621.2-1.491.479-3.039.892-4.591,1.227a73.926,73.926,0,0,1-22.686,1.053,109.627,109.627,0,0,1-22.556-4.6c-7.723-2.441-14.952-5.484-21.943-8.427-3.071-1.293-6.247-2.63-9.419-3.9-.6-.238-1.183-.471-1.778-.7-3.874-1.51-7.386-2.757-10.738-3.812a105.98,105.98,0,0,0-25.588-4.739c-9.226-.505-17.356.448-24.159,2.825a41.486,41.486,0,0,0-5.465,2.355c-8.058,4.184-13.025,10.36-17.828,16.332-5.975,7.428-20.479,15.111-32.68,19.093C305.455,712.6,310.935,719.19,310.986,720.4Z" transform="translate(-309.894 -341.646)" fill="#f2f2f2"/>
        <path id="Path_33015" data-name="Path 33015" d="M758.591,209.216c-2.918-3.974-6.111-8.117-9.681-7.952-8.642.4-13.3,24.842-21.935,23.982-5.506-.548-9.16-11.338-14.287-15.25-6.674-5.093-15.167,4.868-15.9,18.643l.857-1.513c25.86,12.194,52.948,14.608,79.281,7.066Z" transform="translate(-520.028 -149.7)" fill="#f2f2f2"/>
        <circle id="Ellipse_1333" data-name="Ellipse 1333" cx="8.343" cy="8.343" r="8.343" transform="translate(80.597 15.696)" fill="#2f2e41"/>
        <circle id="Ellipse_1334" data-name="Ellipse 1334" cx="21.134" cy="21.134" r="21.134" transform="translate(81.153 21.814)" fill="#2f2e41"/>
        <path id="Path_33016" data-name="Path 33016" d="M376.2,620.027h9.945l4.733-38.358H376.2Z" transform="translate(-284.793 -258.163)" fill="#e8b886"/>
        <path id="Path_33017" data-name="Path 33017" d="M535.885,746.188l15.888-.948v6.807l15.105,10.432a4.252,4.252,0,0,1-2.416,7.751H545.547l-3.26-6.733-1.273,6.733h-7.132Z" transform="translate(-447.723 -391.135)" fill="#2f2e41"/>
        <path id="Path_33018" data-name="Path 33018" d="M269.971,603.509l7.98,5.934,26.687-27.957-11.778-8.758Z" transform="translate(-237.645 -254.195)" fill="#e8b886"/>
        <path id="Path_33019" data-name="Path 33019" d="M426.983,723.316l13.315,8.72-4.062,5.462,5.9,17.385a4.252,4.252,0,0,1-6.564,4.778L420.39,748.374l1.4-7.348-5.039,4.643-5.723-4.256Z" transform="translate(-393.197 -381.405)" fill="#2f2e41"/>
        <rect id="Rectangle_18653" data-name="Rectangle 18653" width="37.819" height="35.595" transform="translate(86.159 149.732)" fill="#9e616a"/>
        <path id="Path_33020" data-name="Path 33020" d="M495.212,403.35s-18.869,16.3-10.163,62.774l10.628,45.535-34.662,57.5,11.052,13.445,45.062-62.241,16.329-38.3,8.637-67.13Z" transform="translate(-415.383 -239.394)" fill="#2f2e41"/>
        <path id="Path_33021" data-name="Path 33021" d="M390.569,455.95l1.135,17.576-3.473,74.9-16.343-2.846-3.123-53.327Z" transform="translate(-281.493 -202.365)" fill="#2f2e41"/>
        <path id="Path_33022" data-name="Path 33022" d="M383.479,125.739l-18.248.712-7.273,12.072-16.592,3.239,9.905,50.111-9.783,36.368,35.153,15.384,7.823-23.442,10.4,28.42,16.691-18.149-13.738-35.035,7.107-27.638-1.6-28.981-13.348-1.669Z" transform="translate(-269.333 -55.807)" fill="#2f2e41"/>
        <circle id="Ellipse_1335" data-name="Ellipse 1335" cx="17.174" cy="17.174" r="17.174" transform="translate(86.863 29.729)" fill="#e8b886"/>
        <path id="Path_33023" data-name="Path 33023" d="M563.126,159.115a19.672,19.672,0,0,0-29.909,17.169c8.751,2.2,17.945,3.879,27.277.526l2.2-5.394,1.3,5.4c2.842,1.162,5.691,2.145,8.541-.011A20.087,20.087,0,0,0,563.126,159.115Z" transform="translate(-447.426 -129.718)" fill="#2f2e41"/>
        <path id="Path_33024" data-name="Path 33024" d="M504.146,109.945a17.064,17.064,0,0,0-17.81,2.744,19.3,19.3,0,0,0-6.16,17.176c.946,6.4,4.84,11.92,8.429,17.308s7.1,11.293,7.091,17.767a17.612,17.612,0,0,1-17.577,17.6c5.473,2.356,11.185,4.758,17.137,4.479s12.19-4.106,13.161-9.984c.7-4.236-1.379-8.366-3.112-12.294a86.969,86.969,0,0,1-6.078-20.007c-.579-3.288-.956-6.745.116-9.907a11.633,11.633,0,0,1,11.556-7.634l1.967-1.769A15.31,15.31,0,0,0,504.146,109.945Z" transform="translate(-422.974 -108.554)" fill="#2f2e41"/>
        <path id="Path_33026" data-name="Path 33026" d="M491.468,460.775H475.054a2.542,2.542,0,0,0-1.946.9,3.893,3.893,0,1,0,1,7.326l1.918,16.1a2.565,2.565,0,0,0,2.451,1.811h10.672A2.565,2.565,0,0,0,491.6,485.1l2.315-21.01a2.565,2.565,0,0,0-2.451-3.319Zm-19.052,7.508a2.781,2.781,0,0,1,0-5.562c.051,0,.1.012.148.015a2.538,2.538,0,0,0,.039,1.357l1.175,3.818a2.746,2.746,0,0,1-1.362.371Z" transform="translate(-418.71 -264.881)" fill="#c99e41"/>
        <path id="Path_33027" data-name="Path 33027" d="M476.28,458.616a6.532,6.532,0,0,0-.908-9.975l10.4-51.659-11.486,3.688-8.325,49.967a6.568,6.568,0,0,0,10.319,7.979Z" transform="translate(-417.163 -236.567)" fill="#e8b886"/>
        <path id="Path_33028" data-name="Path 33028" d="M494.551,268.48l-7.126-5.379s-6.286-.445-7.4,10.892-8.085,54.847-8.085,54.847l-10.9,50.506,15.095,3.313,11.68-54.5,11.692-37.6Z" transform="translate(-415.392 -177.146)" fill="#2f2e41"/>
        <circle id="Ellipse_1336" data-name="Ellipse 1336" cx="4.034" cy="4.034" r="4.034" transform="translate(136.63 130.292)" fill="#c99e41"/>
      </g>
      <g id="Group_34864" data-name="Group 34864" transform="translate(725.981 1468)">
        <path id="Path_32935" data-name="Path 32935" d="M314.574,432.7h12.118l5.765-46.742H314.572Z" transform="translate(-222.454 -64.64)" fill="#e8b886"/>
        <path id="Path_32936" data-name="Path 32936" d="M527.871,638.713h23.866a15.209,15.209,0,0,1,15.209,15.208v.5H527.872Z" transform="translate(-438.842 -274.613)" fill="#2f2e41"/>
        <path id="Path_32937" data-name="Path 32937" d="M235.762,432.7h12.118l5.764-46.742H235.76Z" transform="translate(-209.255 -64.64)" fill="#e8b886"/>
        <path id="Path_32938" data-name="Path 32938" d="M449.059,638.713h23.866a15.209,15.209,0,0,1,15.209,15.208v.5H449.06Z" transform="translate(-425.643 -274.613)" fill="#2f2e41"/>
        <path id="Path_32939" data-name="Path 32939" d="M229.832,187.638V311.051l3.124,79.672h25.776l8.592-149.971,17.184,61.707,10.936,86.7,31.244-1.562L305.6,187.638Z" transform="translate(-208.262 -31.426)" fill="#2f2e41"/>
        <circle id="Ellipse_1326" data-name="Ellipse 1326" cx="18.746" cy="18.746" r="18.746" transform="translate(32.788 7.804)" fill="#e8b886"/>
        <path id="Path_32940" data-name="Path 32940" d="M254.521,60.275l-4.991,5.271-4.686,105.449,55.457-1.563L287.023,77.263,275.307,66.034l-5.945-5.759Z" transform="translate(-210.776 -10.095)" fill="#c99e41"/>
        <path id="Path_32941" data-name="Path 32941" d="M458.392,274.1l4.21-6.832,1.258,14.643s10.154,32.806,9.373,61.707,3.905,96.856-2.343,97.637-32.806,2.343-32.806-3.124-1.562-150.752-1.562-150.752Z" transform="translate(-423.543 -212.403)" fill="#3f3d56"/>
        <path id="Path_32942" data-name="Path 32942" d="M496.852,267.27l10.631,8.394,23.433,8.592s0,99.98,4.687,123.413,13.279,25.776,2.343,26.557-10.154-3.124-10.154-3.124,7.811-39.055-2.343-46.866-29.682-53.115-28.12-78.11S495.29,267.27,496.852,267.27Z" transform="translate(-433.58 -212.403)" fill="#3f3d56"/>
        <path id="Path_32943" data-name="Path 32943" d="M460.562,233.781s1.593-2.8,1.222-12.141,13.859-4.059,25.749-4.951,9.373,15.6,9.373,15.6.858-.98,2.694-8.94-2.333-15.891-2.333-15.891c-1.228-8.364-7.847-5.683-7.847-5.683,3.187,1.241,2.575,3.894,2.575,3.894-2.7-4.73-9.316-2.05-9.316-2.05-8.827-5.539-17.773,1.755-17.773,1.755-10.664,2.42-4.41,10.9-4.41,10.9C449.772,221.694,460.562,233.781,460.562,233.781Z" transform="translate(-426.763 -201.366)" fill="#2f2e41"/>
        <path id="Path_32944" data-name="Path 32944" d="M435.66,452a7.908,7.908,0,0,0-1.4-12.044l3.377-17.752-10.288-4.683-4.417,25.137A7.951,7.951,0,0,0,435.66,452Z" transform="translate(-421.094 -237.568)" fill="#e8b886"/>
        <path id="Path_32945" data-name="Path 32945" d="M437.815,291.2l-2.074-1.112s-11.2,4.236-10.424,7.361-6.249,112.478-3.905,116.383,21.09.781,21.09.781Z" transform="translate(-420.932 -216.225)" fill="#3f3d56"/>
        <path id="Path_32946" data-name="Path 32946" d="M547.1,443a7.908,7.908,0,0,1-.278-12.122l-5.8-17.114,9.541-6.062,7.852,24.284A7.951,7.951,0,0,1,547.1,442.995Z" transform="translate(-441.044 -235.922)" fill="#ffb7b7"/>
        <path id="Path_32947" data-name="Path 32947" d="M534.82,407.175s19,.5,20.779-3.692S535.286,291.963,535.628,288.76s-11.342-5.848-11.342-5.848l-1.9,1.388Z" transform="translate(-437.924 -215.023)" fill="#3f3d56"/>
        <path id="Path_32948" data-name="Path 32948" d="M632.473,417.816l-11.762-57.635-5.167-42.569L604.1,325.018l1.581,46.911,18.27,48.6a6.369,6.369,0,1,0,8.524-2.717Z" transform="translate(-451.609 -220.835)" fill="#e8b886"/>
        <path id="Path_32949" data-name="Path 32949" d="M505.5,422.888l3.256-58.732-1.078-42.868,15.133,5.662,2.526,46.642-11.008,50.744a6.368,6.368,0,1,1-8.829-1.448Z" transform="translate(-434.645 -221.45)" fill="#e8b886"/>
        <path id="Path_32950" data-name="Path 32950" d="M327.1,441.07h7.732l3.679-29.826H327.1Z" transform="translate(-224.552 -68.876)" fill="#e8b886"/>
        <path id="Path_32951" data-name="Path 32951" d="M541.742,645.4H556.97a9.7,9.7,0,0,1,9.7,9.7v.316H541.742Z" transform="translate(-441.165 -275.733)" fill="#2f2e41"/>
        <path id="Path_32952" data-name="Path 32952" d="M362.281,437.03l7.642,1.182,8.2-28.913-11.279-1.744Z" transform="translate(-230.444 -68.258)" fill="#e8b886"/>
        <path id="Path_32953" data-name="Path 32953" d="M577.1,640.966l15.049,2.328h0a9.705,9.705,0,0,1,8.107,11.074l-.048.312-24.64-3.811Z" transform="translate(-446.831 -274.99)" fill="#2f2e41"/>
        <path id="Path_32954" data-name="Path 32954" d="M535.555,593.239l-.04-.216L507.522,441.674a57.172,57.172,0,0,1,5.052-35.752l16.943-33.886,50.556,6.849,5.966,43.142,21.262,82.3-.021.067L580.04,590.926,562.186,592.1,578,514.858l-28.958-65.774,2.042,142.977Z" transform="translate(-435.278 -229.95)" fill="#2f2e41"/>
        <path id="Path_32955" data-name="Path 32955" d="M583.768,370.907l-.334-.523c-.06-.094-6.2-9.346-22.912-3.169-17.059,6.307-30.278-5.875-30.41-6l-.065-.062-3.863-34.435-4.561-27.954,14.518-2.547,7.138-4.282,28.383-.505,7.469,5.874,12.263,1.336,1.122,25.471-.005.028Z" transform="translate(-437.796 -216.45)" fill="#c99e41"/>
        <path id="Path_32956" data-name="Path 32956" d="M601.156,327.993v-21.81l3.448-6.293.14,0a10.337,10.337,0,0,1,7.142,3.245c3.468,3.524,5.04,9.4,4.67,17.451l-.007.147Z" transform="translate(-451.116 -217.866)" fill="#c99e41"/>
        <path id="Path_32957" data-name="Path 32957" d="M525.4,325.655l-17.575-2.109-.014-.2c-.6-8.764.93-15.27,4.547-19.336a11.148,11.148,0,0,1,7.2-3.921l.1,0,4.758,4.325Z" transform="translate(-435.461 -217.898)" fill="#c99e41"/>
        <path id="Path_32958" data-name="Path 32958" d="M580.048,271.411H533.8a3.592,3.592,0,0,1-3.588-3.588V251.078a26.712,26.712,0,1,1,53.424,0v16.745a3.592,3.592,0,0,1-3.588,3.588Z" transform="translate(-439.234 -205.218)" fill="#2f2e41"/>
        <circle id="Ellipse_1327" data-name="Ellipse 1327" cx="19.584" cy="19.584" r="19.584" transform="translate(99.179 26.86)" fill="#e8b886"/>
        <path id="Path_32959" data-name="Path 32959" d="M577.929,253.035H552.072a2,2,0,0,1-1.978-1.747l-.335-2.678a1.2,1.2,0,0,0-2.271-.357l-1.7,3.632a2,2,0,0,1-1.806,1.15H540.06a1.993,1.993,0,0,1-1.984-2.183l1.549-16.176a2.009,2.009,0,0,1,1.139-1.624,40.433,40.433,0,0,1,35.691.021,2,2,0,0,1,1.128,1.53l2.32,16.155a1.993,1.993,0,0,1-1.973,2.277Z" transform="translate(-440.55 -205.979)" fill="#2f2e41"/>
        <path id="Path_32960" data-name="Path 32960" d="M596.788,433.9a7.153,7.153,0,0,0,3.832-10.277l16.763-19.109L604.3,402.709l-13.912,18.423a7.192,7.192,0,0,0,6.4,12.768Z" transform="translate(-448.771 -235.087)" fill="#e8b886"/>
        <path id="Path_32961" data-name="Path 32961" d="M402.529,433.162H390.838l-5.562-45.094h17.256Z" transform="translate(-234.296 -64.994)" fill="#e8b886"/>
        <path id="Path_32962" data-name="Path 32962" d="M619.007,654.164h-37.7v-.477a14.673,14.673,0,0,1,14.672-14.673h23.026Z" transform="translate(-447.792 -274.663)" fill="#2f2e41"/>
        <path id="Path_32963" data-name="Path 32963" d="M473.506,421.818l-11.166,3.467-18.684-41.417,16.48-5.116Z" transform="translate(-244.073 -63.434)" fill="#e8b886"/>
        <path id="Path_32964" data-name="Path 32964" d="M696.573,640.875l-36,11.177-.141-.455a14.674,14.674,0,0,1,9.662-18.364h0l21.989-6.827Z" transform="translate(-460.932 -272.552)" fill="#2f2e41"/>
        <path id="Path_973" data-name="Path 973" d="M608.772,393.871,591.458,413.7l13.555,1.22Z" transform="translate(-449.492 -233.607)" fill="#e6e6e6"/>
        <path id="Path_975" data-name="Path 975" d="M602.744,424.171s-6.014,3.007-6.766,16.539,2.256,48.869,2.256,48.869-3.007,15.787,0,30.071-3.007,66.154.752,66.154,23.3,2.256,24.057,0,1.5-36.085,1.5-36.085,6.014-17.291,0-27.813c0,0,21,36.668,34.582,64.653,2.973,6.125,25.56-.752,21.8-7.518s-12.78-37.589-12.78-37.589-6.766-22.554-18.794-32.327l6.014-48.114s12.781-32.327,5.264-36.837S602.744,424.171,602.744,424.171Z" transform="translate(-450.229 -238.346)" fill="#2f2e41"/>
        <circle id="Ellipse_182" data-name="Ellipse 182" cx="19.546" cy="19.546" r="19.546" transform="translate(155.522 24.192)" fill="#e8b886"/>
        <path id="Path_976" data-name="Path 976" d="M647.526,279.187l-24.3,14.284s-9.3,5.24-12.78,14.284c-3.7,9.639-1.551,23.209,0,26.312,3.007,6.014-1.261,21.05-1.261,21.05L605.427,389.7s-13.532,12.78-3.007,14.284,29.319-.752,40.6,0,24.057,2.256,20.3-5.264-8.269-12.781-3.759-27.813c3.53-11.765,3.377-55.757,3.143-74.335a14.956,14.956,0,0,0-7.263-12.638Z" transform="translate(-450.657 -214.399)" fill="#e5e5e5"/>
        <path id="Path_980" data-name="Path 980" d="M639.628,307.633l2.255,45.858-21.856,44.261-3.707-1.411,22.554-41.348Z" transform="translate(-453.656 -219.163)" opacity="0.1" style="isolation: isolate"/>
        <path id="Path_982" data-name="Path 982" d="M668.971,373.4v-5.264l-25.558,42.1Z" transform="translate(-458.193 -229.296)" opacity="0.1" style="isolation: isolate"/>
        <path id="Path_983" data-name="Path 983" d="M613.3,229.844l-3.229-1.292s6.758-7.438,16.157-6.792l-2.644-2.911s6.462-2.587,12.338,4.2c3.089,3.57,6.662,7.767,8.892,12.494h3.461l-1.444,3.18,5.055,3.18-5.189-.569a17.6,17.6,0,0,1-.491,8.237l.142,2.514s-6.017-9.311-6.017-10.6v3.234s-3.232-2.911-3.232-4.851l-1.763,2.264-.881-3.557-10.869,3.557,1.761-2.912-6.758.97,2.644-3.557s-7.638,4.2-7.931,7.762-4.112,8.085-4.112,8.085l-1.763-3.234S604.78,234.7,613.3,229.844Z" transform="translate(-452.101 -204.213)" fill="#2f2e41"/>
        <path id="Path_32965" data-name="Path 32965" d="M627.574,436.177a7.153,7.153,0,0,0,1.948-10.794l13.1-21.781-13.2.546-10.421,20.6a7.192,7.192,0,0,0,8.567,11.429Z" transform="translate(-453.732 -235.236)" fill="#e8b886"/>
        <path id="Path_981" data-name="Path 981" d="M657.8,290.7l5.638-1.127s16.915,12.4,11.652,37.213-28.567,62.4-28.567,62.4-5.264,6.766-6.766,8.269-4.511,0-3.007,2.256-2.256,3.759-2.256,3.759-16.539,0-15.036-6.014,27.064-48.869,27.064-48.869l-3.759-39.844S639.759,289.2,657.8,290.7Z" transform="translate(-454.166 -216.139)" fill="#e5e5e5"/>
      </g>
    </g>
  </g>
</svg>
