<svg xmlns="http://www.w3.org/2000/svg" width="188" height="144" viewBox="0 0 188 144">
  <g id="logo" transform="translate(0)">
    <path id="Path_32482" data-name="Path 32482" d="M273.058,420.982l16.154-1.024-.829,2Z" transform="translate(-193.364 -297.889)" fill="#c99e41"/>
    <path id="Path_32483" data-name="Path 32483" d="M271.258,434.352l15.054-.954-.771,1.862Z" transform="translate(-192.089 -307.407)" fill="#c99e41"/>
    <path id="Path_32484" data-name="Path 32484" d="M283.412,446.828l-.715,1.728-13.239-.841Z" transform="translate(-190.815 -316.917)" fill="#c99e41"/>
    <path id="Path_32485" data-name="Path 32485" d="M267.658,461.085l12.853-.817-.66,1.591Z" transform="translate(-189.54 -326.435)" fill="#c99e41"/>
    <path id="Path_32486" data-name="Path 32486" d="M264.858,474.412l12.054-.765-.619,1.491Z" transform="translate(-187.557 -335.91)" fill="#c99e41"/>
    <path id="Path_32487" data-name="Path 32487" d="M261.858,487.726l11.312-.718-.379.914-.2.484Z" transform="translate(-185.433 -345.37)" fill="#c99e41"/>
    <path id="Path_32488" data-name="Path 32488" d="M17.05,419.113l-4.417,10.564-.71-10.564H3.8L0,440.735H5.313L7.876,426.28l.958,14.456h3.707l6.085-14.456-2.564,14.456h5.313l3.8-21.622Z" transform="translate(0 -297.291)" fill="#fff"/>
    <path id="Path_32489" data-name="Path 32489" d="M102.451,419.113l-.927,5.313H92.2l-.494,2.841h6.641l-.927,5.313H90.776l-.525,2.842h9.328l-.927,5.313H83.826l3.8-21.622Z" transform="translate(-59.361 -297.292)" fill="#fff"/>
    <g id="Group_34643" data-name="Group 34643" transform="translate(14.163)">
      <g id="Group_34645" data-name="Group 34645">
        <path id="Path_32490" data-name="Path 32490" d="M157.061,425.857c.247-2.131.216-3.336-2.07-3.336s-2.687,1.452-3.12,3.83L151.1,430.8c-.433,2.378-.525,3.83,1.76,3.83s2.687-1.452,2.966-2.965h-2.718l.772-4.324h8.031l-.9,5.1c-.371,2.039-1.761,7.506-9.081,7.506s-6.8-5.467-6.425-7.506l1.359-7.722c.34-2.039,1.761-7.506,9.081-7.506s6.8,5.467,6.456,7.506Z" transform="translate(-117.074 -295.942)" fill="#fff"/>
        <path id="Path_32491" data-name="Path 32491" d="M218.77,439.387h-5.313l.8-4.54h-4.51l-.8,4.54h-5.313l2.5-14.147c.679-3.892,2.039-8.031,8.989-8.031s6.826,4.139,6.147,8.031ZM215.96,425.24c.247-1.483.154-2.224-1.884-2.224s-2.378.741-2.626,2.224l-.772,4.263h4.51Z" transform="translate(-158.365 -295.943)" fill="#fff"/>
        <path id="Path_32492" data-name="Path 32492" d="M312.005,440.739h.015l6.015-14.456-2.492,14.456h3.707l9.535-14.456-6.015,14.456h5.315l8.96-21.621h-8.122l-6.94,10.562,1.812-10.562h-8.122l-.4.957-.6,1.442-.662,1.6-.908,2.183-.718,1.739-.849,2.049-.779,1.874-.791,1.912-.826,1.991-.75,1.812-.867,2.087-.712,1.722-.105.251h5.3Z" transform="translate(-231.356 -297.295)" fill="#c99e41"/>
        <path id="Path_32493" data-name="Path 32493" d="M412.841,432.437a11.382,11.382,0,0,1-10.873,7.506c-7.321,0-5.49-5.467-4.633-7.506l3.2-7.722a11.346,11.346,0,0,1,10.874-7.506c7.321,0,5.459,5.467,4.633,7.506Zm-2.81-6.085c1-2.378,1.44-3.83-.846-3.83s-3.034,1.452-4.035,3.83l-1.834,4.448c-1,2.378-1.44,3.83.846,3.83s3.034-1.452,4.034-3.83Z" transform="translate(-294.932 -295.943)" fill="#c99e41"/>
        <path id="Path_32494" data-name="Path 32494" d="M472.972,419.113l-2.46,13.406,8.637-13.406h5.56l-13.9,21.622h-7.352l3.958-21.622Z" transform="translate(-342.354 -297.292)" fill="#c99e41"/>
        <path id="Path_32495" data-name="Path 32495" d="M535.717,419.113l-2.2,5.313h-9.328l-1.173,2.841h6.641l-2.2,5.313h-6.641l-1.2,2.842h9.328l-2.2,5.313H511.928l8.962-21.622Z" transform="translate(-376.681 -297.292)" fill="#c99e41"/>
        <path id="Path_32496" data-name="Path 32496" d="M587.049,425.142c.543-1.884-.32-2.409-1.834-2.409a2.466,2.466,0,0,0-2.409,1.421c-.575,2.409,9.355,2.348,6.423,9.452A12.3,12.3,0,0,1,578.189,440c-6.61,0-6.325-4.17-5.182-6.888l5.709-1.143c-.747,2.224.185,2.718,1.7,2.718s2.994-.9,3.162-1.73c.5-2.626-9.212-2.039-6.249-9.143a10.9,10.9,0,0,1,10.083-6.394c6.487,0,6.461,3.861,5.348,6.579Z" transform="translate(-419.483 -296.092)" fill="#c99e41"/>
        <path id="Path_32497" data-name="Path 32497" d="M152.9,31.491a3.867,3.867,0,0,0-.47-.067.563.563,0,0,1-.07,0c-.534-.023-1.188-.076-2.469-.2-7.539-1.022-12.813-7.9-15.562-12.553A11.027,11.027,0,0,0,126.7,13.44L48.526,0l3.1,3.391A31.947,31.947,0,0,0,72.534,13.665L123.9,17.975a4.916,4.916,0,0,1,3.733,2.268c6.929,10.91,14.759,14.391,20.891,15.13.394.047.779.082,1.159.108,1.544-1.074,2.317-2.741,3.745-3.879-.175-.038-.347-.076-.522-.111" transform="translate(-48.526)" fill="#c99e41"/>
        <path id="Path_32498" data-name="Path 32498" d="M222.4,73.144l-28.111-1.909.048.044a15.221,15.221,0,0,0,10.705,4.012l18.6-.491-.356-.99a1.009,1.009,0,0,0-.881-.666" transform="translate(-151.744 -50.445)" fill="#c99e41"/>
        <path id="Path_32499" data-name="Path 32499" d="M253.73,97.961l-26.89.086.061.046a15.246,15.246,0,0,0,10.9,2.9l17.016-2-.131-.365a1.009,1.009,0,0,0-.953-.668" transform="translate(-174.798 -69.471)" fill="#c99e41"/>
        <path id="Path_32500" data-name="Path 32500" d="M261.846,117.182a15.308,15.308,0,0,0,10.918,1.709l13.459-2.926-.051-.14a1.009,1.009,0,0,0-1.025-.665l-23.723,1.778.422.245" transform="translate(-199.288 -81.667)" fill="#c99e41"/>
        <path id="Path_32501" data-name="Path 32501" d="M321.3,129.823l-18.546,3.39.053.021a15.04,15.04,0,0,0,10.169.314l9.455-3.073a1.009,1.009,0,0,0-1.131-.652" transform="translate(-228.558 -92.057)" fill="#c99e41"/>
        <path id="Path_32502" data-name="Path 32502" d="M118.588,71.479l.367-.01h0l9.059-.24c-1.99-1.547-3.921-3.177-5.751-4.887l-6.885-.468-12.352-.839c.014.039.029.077.044.115h0l.7.66a20.78,20.78,0,0,0,14.821,5.669" transform="translate(-87.12 -46.053)" fill="#c99e41"/>
        <path id="Path_32503" data-name="Path 32503" d="M167.828,98.331l-2.6.008-12.79.041.044.038a20.388,20.388,0,0,0,15.716,4.828h.012l6.171-.726c-2.179-1.3-4.38-2.7-6.55-4.188" transform="translate(-122.108 -69.735)" fill="#c99e41"/>
        <path id="Path_32504" data-name="Path 32504" d="M206.6,123.329l1.682,1.289a13.725,13.725,0,0,0,11.062,2.557l5.447-1.1-7.024-3.583Z" transform="translate(-160.462 -86.869)" fill="#c99e41"/>
        <path id="Path_32505" data-name="Path 32505" d="M283.5,146.289l-5.716-2.322-4.684.857,1.521.991a8.706,8.706,0,0,0,7.693.9l1.228-.4-.056-.021Z" transform="translate(-207.554 -102.098)" fill="#c99e41"/>
        <path id="Path_32506" data-name="Path 32506" d="M290.713,308.512a35.137,35.137,0,0,0-5.157-1.544,3.288,3.288,0,0,0-2.309,1.313c-1.383,1.774-2.568,3.724-3.8,5.624a1.1,1.1,0,0,0-.089.828c.766,2.037,5.479,4.467,7.771,4.06-.111-1.887-.758-3.925-.182-5.621s2.375-3.019,3.768-4.661" transform="translate(-211.956 -217.708)" fill="#fff"/>
        <path id="Path_32507" data-name="Path 32507" d="M251.366,125.753c-1.57,9.593-9.634,10.6-12.947,10.6a6.359,6.359,0,0,0-1.065-1.885c-2.685-2.738-5.35-5.507-8.178-8.093a88.514,88.514,0,0,0-20.853-14.456,51.034,51.034,0,0,0-11.727-4.08c-.175-.038-.347-.076-.522-.111a3.863,3.863,0,0,0-.47-.067.563.563,0,0,1-.07,0c-.779-.023-1.2.356-1.5,1.243a3.913,3.913,0,0,1-1.141,1.777c-.4.312-.8.622-1.2.931q-1.874,1.445-3.771,2.86c-3.587,2.688-7.434,5.017-11.14,7.542q-1.418.968-2.825,1.95a27.937,27.937,0,0,1-2.688,1.594c-1.955,1.062-3.969,2.011-5.96,3a1.453,1.453,0,0,1-.178.09c-.33.158-.657.318-.986.476-4.719,2.256-9.786,3.639-14.622,5.609a44.668,44.668,0,0,0-4.156,1.955c-9.681,3.47-13.142,3.05-13.142,3.05-11.887,1.7-16.639-.689-18.524-3.091a5.585,5.585,0,0,1-.557-5.913c5.253-8.756,14.876-2.32,14.876-2.32,7.223,7.819,13.478,5.928,13.478,5.928-3.4-10.291-12.67-8.09-12.67-8.09-12.667-4.678-17.517,2.274-17.517,2.274-3.558,5.175-1.267,9.354,1.483,11.914a13.388,13.388,0,0,0,10.685,3.429c4.562-.531,9.4-1.415,14.193-2.472a13.858,13.858,0,0,0-1.381,1.211,11.874,11.874,0,0,0-1.016,1.15,16.893,16.893,0,0,0-3.178,9.366,7.027,7.027,0,0,0,.006,1.643c.458,2.548-.721,4.308-2.7,5.665a4.54,4.54,0,0,0-2.031,3.718,40.3,40.3,0,0,1-3.467,13.145c-.838,1.807-.969,3.946-1.4,5.939-.193.887-.341,1.786-.487,2.682-.134.826.023,1.442,1.054,1.491,2.723.134,5.443.371,8.166.42,1.337.023,1.626-.7.937-1.912a8.156,8.156,0,0,0-1.232-1.967c-2.408-2.288-1.9-4.874-.957-7.562,2.125-6.03,6.558-9.707,12.261-12.112a72.247,72.247,0,0,0,8.368-3.642,14.755,14.755,0,0,0,7.574-10.241,29.689,29.689,0,0,0,.207-3.543,3.6,3.6,0,0,1,.4-1.538c1.751,2.431,1.366,5.14.832,7.746a12.029,12.029,0,0,1-4.32,7.034c.768.441,1.331.788,1.915,1.092a55.624,55.624,0,0,0,14.278,4.991c7.124,1.488,13.125-.654,18.311-5.542,1.69-1.661,4.317-3.7,5.466-3.94,1.439-.3,2.72,1.24,4.179.169a36.914,36.914,0,0,1,4.179-2.306c-.931-.42-1.521-.735-2.142-.963a52.721,52.721,0,0,0-12.81-2.574c-1.652-.175-2-.382-2.028-2.061-.053-2.913-.108-5.828.038-8.735a23.492,23.492,0,0,1,.916-4.095c.368.07.207.038.575.108a18.975,18.975,0,0,0-.6,4.258c.216,2.568.8,5.108,1.2,7.661a1.536,1.536,0,0,0,1.486,1.337,51.867,51.867,0,0,1,6.027,1.129c3.248.966,6.459,2.069,9.663,3.181a2.374,2.374,0,0,1,.873.843,5.049,5.049,0,0,1,.741,2.463,2.083,2.083,0,0,1-.233.986,1.173,1.173,0,0,1-.158.458l-.015.023a1.025,1.025,0,0,1-.283.289,2.024,2.024,0,0,1-.394.362c-.353.35-.7.7-1.045,1.039-1.617,1.605-3.14,3.123-4.6,4.678a4.822,4.822,0,0,0-.949,1.871c-.274.826-.54,1.655-.811,2.481-.137.414-.286.826-.414,1.24a5.729,5.729,0,0,1-.365,1.115,1.966,1.966,0,0,0-.388,1.62c.768,1.83,7.553,4.13,7.568,4.071.038-.158-1.544-3.327-1.6-4.209a7.264,7.264,0,0,1,.009-2.09,4.955,4.955,0,0,1,2.344-3.593,59.352,59.352,0,0,0,5.37-3.712c.283-.213.566-.423.849-.636a4.462,4.462,0,0,0,1.707-2.084,53.55,53.55,0,0,0,1.666-6.257,3.445,3.445,0,0,0-.473-2.887,2.6,2.6,0,0,0-.9-.727c-2.466-2.1-4.953-4.185-7.48-6.211a1.757,1.757,0,0,1-.563-2.522,53.515,53.515,0,0,0,2.437-6.914,9.014,9.014,0,0,0-.131-2.819c-.026-.447-.041-.9-.061-1.343l.49-.125a11.346,11.346,0,0,1,.738,1.888,13.992,13.992,0,0,1-.928,8.826c-.143.309-.528,1.573-.108,2.052,2.349,1.953,5.07,4.042,7.46,5.942.05,0,1.29-6.284,1.95-8.727a2.578,2.578,0,0,1,.756-.951,4.347,4.347,0,0,1,.916-.452c-.061.911-.061,1.6-.158,2.268a24.081,24.081,0,0,0,.555,10.837,3.815,3.815,0,0,1,.026,1.6c-.12.858-.391,1.693-.5,2.551-.394,3.269,1.138,5,4.489,4.877a3.051,3.051,0,0,0,1.923-1.232c1.433-1.888,2.717-3.888,4.08-5.828a3.643,3.643,0,0,1,1.019-1.1c3.394-1.97,4.97-5.478,7.238-8.458a5.487,5.487,0,0,0,.934-3.062c10.953-2.525,11.917-8.519,11.826-16.49m-19.423,20.842-2.2,2.565a.19.19,0,0,1-.312-.029l-.14-.248a.189.189,0,0,1-.012-.172l1.856-4.328a.287.287,0,0,1,.409-.131c1.418.832.4,2.344.4,2.344" transform="translate(-91.697 -76.48)" fill="#fff"/>
      </g>
    </g>
  </g>
</svg>
