<svg xmlns="http://www.w3.org/2000/svg" width="180" height="55" viewBox="0 0 180 55">
  <g id="Group_34605" data-name="Group 34605" transform="translate(-694.173 -2737.314)">
    <rect id="Rectangle_17904" data-name="Rectangle 17904" width="180" height="55" transform="translate(694.173 2737.314)" fill="none"/>
    <g id="Group_34603" data-name="Group 34603" transform="translate(696 2738)">
      <path id="Path_32413" data-name="Path 32413" d="M169.529,53.624H6.817A6.817,6.817,0,0,1,0,46.807v-40A6.816,6.816,0,0,1,6.817,0H169.529a6.816,6.816,0,0,1,6.816,6.816v40a6.816,6.816,0,0,1-6.816,6.817" transform="translate(0 0.004)"/>
      <path id="Path_32414" data-name="Path 32414" d="M413.825,223.51h2.459v5.578a7.813,7.813,0,0,1-2.519,1.32,9.669,9.669,0,0,1-2.959.46,7.98,7.98,0,0,1-3.859-.93,6.9,6.9,0,0,1-2.7-2.569,7.473,7.473,0,0,1,0-7.4,6.89,6.89,0,0,1,2.709-2.569,8.081,8.081,0,0,1,3.889-.93,8.493,8.493,0,0,1,3.2.58,6.28,6.28,0,0,1,2.419,1.7l-1.639,1.6a5.26,5.26,0,0,0-3.859-1.6,5.454,5.454,0,0,0-2.629.62,4.518,4.518,0,0,0-1.8,1.74,5,5,0,0,0-.65,2.559,4.925,4.925,0,0,0,.65,2.519,4.654,4.654,0,0,0,1.8,1.759,5.27,5.27,0,0,0,2.609.64,5.631,5.631,0,0,0,2.879-.72Z" transform="translate(-356.032 -191.116)" fill="#fff"/>
      <path id="Path_32415" data-name="Path 32415" d="M536.781,255.729a5.1,5.1,0,0,1-2.029-1.95,5.829,5.829,0,0,1,0-5.648,5.123,5.123,0,0,1,2.029-1.939,6.48,6.48,0,0,1,5.858,0,5.127,5.127,0,0,1,2.029,1.939,5.83,5.83,0,0,1,0,5.648,5.1,5.1,0,0,1-2.029,1.95,6.481,6.481,0,0,1-5.858,0m5.2-2.359a3.7,3.7,0,0,0,0-4.839,3.054,3.054,0,0,0-2.279-.92,3.021,3.021,0,0,0-2.269.92,3.734,3.734,0,0,0,0,4.839,3.02,3.02,0,0,0,2.269.92,3.053,3.053,0,0,0,2.279-.92" transform="translate(-471.471 -216.736)" fill="#fff"/>
      <path id="Path_32416" data-name="Path 32416" d="M646.881,255.729a5.1,5.1,0,0,1-2.029-1.95,5.829,5.829,0,0,1,0-5.648,5.123,5.123,0,0,1,2.029-1.939,6.48,6.48,0,0,1,5.858,0,5.127,5.127,0,0,1,2.029,1.939,5.829,5.829,0,0,1,0,5.648,5.1,5.1,0,0,1-2.029,1.95,6.481,6.481,0,0,1-5.858,0m5.2-2.359a3.7,3.7,0,0,0,0-4.839,3.054,3.054,0,0,0-2.279-.92,3.021,3.021,0,0,0-2.269.92,3.734,3.734,0,0,0,0,4.839,3.02,3.02,0,0,0,2.269.92,3.053,3.053,0,0,0,2.279-.92" transform="translate(-568.675 -216.736)" fill="#fff"/>
      <path id="Path_32417" data-name="Path 32417" d="M765.7,245.611v9.057q0,5.639-5.758,5.639a10.685,10.685,0,0,1-2.919-.39,6.2,6.2,0,0,1-2.279-1.13l1.12-1.879a5.35,5.35,0,0,0,1.77.93,6.942,6.942,0,0,0,2.169.35,3.582,3.582,0,0,0,2.579-.8,3.269,3.269,0,0,0,.82-2.439v-.56a4.108,4.108,0,0,1-1.56,1.06,5.5,5.5,0,0,1-2.019.36,5.792,5.792,0,0,1-2.749-.65,4.878,4.878,0,0,1-1.939-1.829,5.468,5.468,0,0,1,0-5.389,4.833,4.833,0,0,1,1.939-1.809,5.867,5.867,0,0,1,2.749-.64,5.638,5.638,0,0,1,2.109.38,3.9,3.9,0,0,1,1.59,1.16v-1.42Zm-3.369,7.228a2.885,2.885,0,0,0,.91-2.209,2.831,2.831,0,0,0-.91-2.179,3.678,3.678,0,0,0-4.679,0,2.83,2.83,0,0,0-.91,2.179,2.884,2.884,0,0,0,.91,2.209,3.645,3.645,0,0,0,4.679,0" transform="translate(-665.878 -216.736)" fill="#fff"/>
      <rect id="Rectangle_17901" data-name="Rectangle 17901" width="2.499" height="14.836" transform="translate(103.099 24.717)" fill="#fff"/>
      <path id="Path_32418" data-name="Path 32418" d="M932.893,251.75h-8.378a2.9,2.9,0,0,0,1.15,1.87,3.769,3.769,0,0,0,2.309.69,3.892,3.892,0,0,0,2.9-1.16l1.34,1.54a4.511,4.511,0,0,1-1.82,1.3,7.21,7.21,0,0,1-5.578-.26,5.037,5.037,0,0,1-2.07-1.95,5.5,5.5,0,0,1-.73-2.829,5.587,5.587,0,0,1,.71-2.809,5.037,5.037,0,0,1,1.97-1.949,5.747,5.747,0,0,1,2.839-.7,5.6,5.6,0,0,1,2.789.69,4.888,4.888,0,0,1,1.919,1.94,5.882,5.882,0,0,1,.69,2.889q0,.26-.04.74m-7.388-3.549a2.986,2.986,0,0,0-1.01,1.889h6.058a2.948,2.948,0,0,0-.98-1.88,2.98,2.98,0,0,0-2.039-.72,3.015,3.015,0,0,0-2.029.71" transform="translate(-814.018 -216.736)" fill="#fff"/>
      <path id="Path_32419" data-name="Path 32419" d="M1093.788,218.779a4.607,4.607,0,0,1,2.069,1.719,5.253,5.253,0,0,1,0,5.309,4.585,4.585,0,0,1-2.069,1.729,7.749,7.749,0,0,1-3.169.6h-3.159v4.039h-2.6v-14h5.758a7.747,7.747,0,0,1,3.169.6m-.71,6.438a2.851,2.851,0,0,0,0-4.119,3.993,3.993,0,0,0-2.579-.72h-3.039v5.559h3.039a3.993,3.993,0,0,0,2.579-.72" transform="translate(-957.789 -192.623)" fill="#fff"/>
      <rect id="Rectangle_17902" data-name="Rectangle 17902" width="2.499" height="14.836" transform="translate(141.348 24.717)" fill="#fff"/>
      <path id="Path_32420" data-name="Path 32420" d="M1258.032,246.622a4.367,4.367,0,0,1,1.25,3.409v6.258h-2.359v-1.3a2.906,2.906,0,0,1-1.31,1.07,5.122,5.122,0,0,1-2.049.37,5.025,5.025,0,0,1-2.1-.41,3.241,3.241,0,0,1-1.39-1.14,2.89,2.89,0,0,1-.49-1.649,2.827,2.827,0,0,1,1.07-2.309,5.313,5.313,0,0,1,3.369-.87h2.759v-.16a2.189,2.189,0,0,0-.67-1.72,2.9,2.9,0,0,0-1.99-.6,5.747,5.747,0,0,0-1.77.28,4.357,4.357,0,0,0-1.47.78l-.98-1.82a6.072,6.072,0,0,1,2.02-.98,8.988,8.988,0,0,1,2.5-.34,5.207,5.207,0,0,1,3.609,1.13m-2.279,7.558a2.339,2.339,0,0,0,1.03-1.23v-1.24H1254.2q-2.159,0-2.159,1.42a1.274,1.274,0,0,0,.54,1.08,2.473,2.473,0,0,0,1.5.4,3.226,3.226,0,0,0,1.67-.43" transform="translate(-1103.218 -216.736)" fill="#fff"/>
      <path id="Path_32421" data-name="Path 32421" d="M1353.055,246.516l-5,11.537a5.373,5.373,0,0,1-1.7,2.449,4.072,4.072,0,0,1-2.419.71,4.975,4.975,0,0,1-1.58-.26,3.5,3.5,0,0,1-1.28-.72l1-1.84a2.719,2.719,0,0,0,.85.54,2.6,2.6,0,0,0,.99.2,1.7,1.7,0,0,0,1.09-.34,3.008,3.008,0,0,0,.79-1.14l.18-.42-4.659-10.717h2.6l3.359,7.9,3.379-7.9Z" transform="translate(-1183.995 -217.64)" fill="#fff"/>
      <path id="Path_32422" data-name="Path 32422" d="M269.97,193.849l-6.719-3.877-5.526,5.342,5.05,4.882,7.194-4.153a1.267,1.267,0,0,0,0-2.194" transform="translate(-227.537 -167.72)" fill="#ffd109"/>
      <path id="Path_32423" data-name="Path 32423" d="M117.307,89.595l-7.394-4.268-16.2-8.3,18.3,17.691Z" transform="translate(-82.733 -68.001)" fill="#06ef79"/>
      <path id="Path_32424" data-name="Path 32424" d="M96.006,260.523l15.962-8.793,6.89-3.977-4.82-4.66Z" transform="translate(-84.76 -214.618)" fill="#f93646"/>
      <path id="Path_32425" data-name="Path 32425" d="M84.349,83.134l-.017,35.728,18.489-17.873Z" transform="translate(-74.454 -73.396)" fill="#05d5fb"/>
      <path id="Path_32426" data-name="Path 32426" d="M411.281,86.206a3.456,3.456,0,0,1-1.578-.369,4.175,4.175,0,0,1-1.276-.992,4.69,4.69,0,0,1-.847-1.4,4.427,4.427,0,0,1-.3-1.615,4.551,4.551,0,0,1,1.143-3.036,3.918,3.918,0,0,1,1.27-.949,3.685,3.685,0,0,1,1.591-.345,3.742,3.742,0,0,1,2.056.52,3.344,3.344,0,0,1,1.222,1.355l-.834.581a2.515,2.515,0,0,0-1.028-1.113,2.914,2.914,0,0,0-1.439-.363,2.52,2.52,0,0,0-1.185.278,2.842,2.842,0,0,0-.913.756,3.461,3.461,0,0,0-.581,1.083,3.99,3.99,0,0,0-.2,1.258,3.746,3.746,0,0,0,.224,1.3,3.349,3.349,0,0,0,.635,1.076,3.051,3.051,0,0,0,.956.732,2.634,2.634,0,0,0,1.173.266,2.815,2.815,0,0,0,1.4-.375,4.249,4.249,0,0,0,1.258-1.149v1.125a3.492,3.492,0,0,1-2.746,1.379m2.613-3.52h-1.85v-.822h2.77v4.282h-.919Z" transform="translate(-359.573 -68.42)" fill="#fff"/>
      <path id="Path_32427" data-name="Path 32427" d="M491.583,85.635V86.6h-5.83V78.015h5.721v.968h-4.632v2.782h4.028v.907h-4.028v2.963Z" transform="translate(-428.856 -68.876)" fill="#fff"/>
      <path id="Path_32428" data-name="Path 32428" d="M548.219,78.982h-2.963V86.6h-1.089v-7.62H541.2v-.968h7.015Z" transform="translate(-477.811 -68.876)" fill="#fff"/>
      <rect id="Rectangle_17903" data-name="Rectangle 17903" width="1.089" height="8.587" transform="translate(74.338 9.139)" fill="#fff"/>
      <path id="Path_32429" data-name="Path 32429" d="M662.588,80.022V86.6H661.5V78.015h.919l5.249,6.713v-6.7h1.089V86.6h-.992Z" transform="translate(-584.017 -68.876)" fill="#fff"/>
      <path id="Path_32430" data-name="Path 32430" d="M766.422,86.207a3.676,3.676,0,0,1-1.645-.363,4,4,0,0,1-1.276-.986,4.622,4.622,0,0,1-1.119-3.006,4.415,4.415,0,0,1,.308-1.639,4.566,4.566,0,0,1,.859-1.391,4.15,4.15,0,0,1,1.288-.968,3.646,3.646,0,0,1,1.609-.357,3.579,3.579,0,0,1,1.645.375,4.056,4.056,0,0,1,1.27,1,4.729,4.729,0,0,1,.823,1.4,4.52,4.52,0,0,1-.865,4.614,4.071,4.071,0,0,1-1.288.962,3.7,3.7,0,0,1-1.609.351m-2.939-4.354a3.831,3.831,0,0,0,.212,1.264,3.483,3.483,0,0,0,.6,1.082,2.9,2.9,0,0,0,.931.75,2.617,2.617,0,0,0,1.209.278,2.578,2.578,0,0,0,1.234-.29,2.9,2.9,0,0,0,.925-.774,3.529,3.529,0,0,0,.581-1.089,3.872,3.872,0,0,0,.2-1.222,3.784,3.784,0,0,0-.212-1.258,3.526,3.526,0,0,0-.6-1.083,2.881,2.881,0,0,0-.931-.75,2.782,2.782,0,0,0-2.425.012,2.841,2.841,0,0,0-.925.768,3.654,3.654,0,0,0-.586,1.083,3.752,3.752,0,0,0-.206,1.228" transform="translate(-673.083 -68.421)" fill="#fff"/>
      <path id="Path_32431" data-name="Path 32431" d="M845.457,80.022V86.6h-1.089V78.015h.919l5.249,6.713v-6.7h1.089V86.6h-.992Z" transform="translate(-745.466 -68.876)" fill="#fff"/>
    </g>
  </g>
</svg>
