<svg xmlns="http://www.w3.org/2000/svg" width="71.63" height="49.918" viewBox="0 0 71.63 49.918">
  <g id="logo" transform="translate(50.895 -92.058)">
    <g id="Group_30860" data-name="Group 30860" transform="translate(-50.895 92.058)">
      <path id="Path_19966" data-name="Path 19966" d="M95.363,14.131a1.736,1.736,0,0,0-.211-.03h-.031c-.24-.01-.533-.034-1.108-.088-3.383-.458-5.749-3.547-6.983-5.633A4.948,4.948,0,0,0,83.6,6.031L48.526,0l1.392,1.522A14.335,14.335,0,0,0,59.3,6.132L82.348,8.066a2.206,2.206,0,0,1,1.675,1.018c3.109,4.9,6.623,6.458,9.375,6.789.177.021.35.037.52.048.693-.482,1.04-1.23,1.68-1.741l-.234-.05" transform="translate(-48.526)" fill="#c99e41"/>
      <path id="Path_19967" data-name="Path 19967" d="M206.9,72.092l-12.614-.857.021.02a6.83,6.83,0,0,0,4.8,1.8l8.344-.22-.16-.444a.453.453,0,0,0-.4-.3" transform="translate(-175.196 -61.936)" fill="#c99e41"/>
      <path id="Path_19968" data-name="Path 19968" d="M238.906,97.961,226.84,98l.027.021a6.841,6.841,0,0,0,4.89,1.3l7.636-.9-.059-.164a.453.453,0,0,0-.428-.3" transform="translate(-203.487 -85.173)" fill="#c99e41"/>
      <path id="Path_19969" data-name="Path 19969" d="M261.613,116.065a6.869,6.869,0,0,0,4.9.767l6.04-1.313-.023-.063a.453.453,0,0,0-.46-.3l-10.645.8.189.11" transform="translate(-233.542 -100.124)" fill="#c99e41"/>
      <path id="Path_19970" data-name="Path 19970" d="M311.079,129.814l-8.322,1.521.024.009a6.749,6.749,0,0,0,4.563.141l4.243-1.379a.453.453,0,0,0-.508-.292" transform="translate(-269.461 -112.862)" fill="#c99e41"/>
      <path id="Path_19971" data-name="Path 19971" d="M110.01,67.926l.165,0h0l4.065-.108c-.893-.694-1.759-1.426-2.581-2.193l-3.089-.21-5.543-.377c.006.017.013.034.02.052h0l.314.3a9.324,9.324,0,0,0,6.651,2.544" transform="translate(-95.889 -56.545)" fill="#c99e41"/>
      <path id="Path_19972" data-name="Path 19972" d="M159.342,98.331l-1.168,0-5.739.018.02.017a9.149,9.149,0,0,0,7.052,2.166h.005l2.769-.326c-.978-.583-1.966-1.211-2.939-1.879" transform="translate(-138.827 -85.495)" fill="#c99e41"/>
      <path id="Path_19973" data-name="Path 19973" d="M206.6,122.867l.755.578a6.159,6.159,0,0,0,4.964,1.148l2.444-.494-3.152-1.608Z" transform="translate(-185.894 -106.501)" fill="#c99e41"/>
      <path id="Path_19974" data-name="Path 19974" d="M277.763,145.009l-2.565-1.042-2.1.385.683.445a3.907,3.907,0,0,0,3.452.4l.551-.179-.025-.01Z" transform="translate(-243.685 -125.173)" fill="#c99e41"/>
      <path id="Path_19975" data-name="Path 19975" d="M284.428,307.656a15.763,15.763,0,0,0-2.314-.693,1.476,1.476,0,0,0-1.036.589c-.621.8-1.152,1.671-1.706,2.524a.494.494,0,0,0-.04.372,4.243,4.243,0,0,0,3.487,1.822,7,7,0,0,1-.082-2.522c.256-.754,1.066-1.355,1.691-2.092" transform="translate(-249.087 -266.914)" fill="#fff"/>
      <path id="Path_19976" data-name="Path 19976" d="M173.154,115.777a5.467,5.467,0,0,1-5.81,4.757,2.854,2.854,0,0,0-.478-.846c-1.2-1.228-2.4-2.471-3.67-3.632a39.719,39.719,0,0,0-9.357-6.487,22.9,22.9,0,0,0-5.262-1.831l-.234-.05a1.728,1.728,0,0,0-.211-.03H148.1c-.35-.01-.54.16-.673.558a1.756,1.756,0,0,1-.512.8c-.179.14-.358.279-.538.418q-.841.648-1.692,1.283c-1.61,1.206-3.336,2.251-5,3.384q-.637.434-1.268.875a12.541,12.541,0,0,1-1.206.715c-.877.477-1.781.9-2.674,1.348a.66.66,0,0,1-.08.041l-.443.213c-2.118,1.012-4.391,1.633-6.561,2.517a20.038,20.038,0,0,0-1.865.877c-4.344,1.557-5.9,1.369-5.9,1.369-5.334.765-7.466-.309-8.312-1.387a2.506,2.506,0,0,1-.25-2.653c2.357-3.929,6.675-1.041,6.675-1.041,3.241,3.509,6.048,2.66,6.048,2.66a4.856,4.856,0,0,0-5.685-3.63c-5.684-2.1-7.861,1.02-7.861,1.02a3.8,3.8,0,0,0,.665,5.346,6.008,6.008,0,0,0,4.795,1.539c2.047-.238,4.22-.635,6.369-1.109a6.218,6.218,0,0,0-.619.544,5.326,5.326,0,0,0-.456.516,7.581,7.581,0,0,0-1.426,4.2,3.155,3.155,0,0,0,0,.737,2.4,2.4,0,0,1-1.211,2.542,2.037,2.037,0,0,0-.912,1.669,18.084,18.084,0,0,1-1.556,5.9,12.673,12.673,0,0,0-.627,2.665c-.086.4-.153.8-.219,1.2-.06.371.01.647.473.669,1.222.06,2.442.166,3.664.189.6.01.729-.316.42-.858a3.661,3.661,0,0,0-.553-.883c-1.08-1.027-.854-2.187-.43-3.393a9.151,9.151,0,0,1,5.5-5.435,32.416,32.416,0,0,0,3.755-1.634,6.621,6.621,0,0,0,3.4-4.6,13.318,13.318,0,0,0,.093-1.59,1.616,1.616,0,0,1,.179-.69,4.155,4.155,0,0,1,.373,3.476,5.4,5.4,0,0,1-1.938,3.156c.344.2.6.354.859.49a24.961,24.961,0,0,0,6.407,2.239,8.775,8.775,0,0,0,8.217-2.487,8,8,0,0,1,2.453-1.768c.646-.134,1.221.557,1.875.076a16.563,16.563,0,0,1,1.875-1.035c-.418-.189-.682-.33-.961-.432a23.657,23.657,0,0,0-5.748-1.155c-.741-.079-.9-.172-.91-.925-.024-1.307-.048-2.615.017-3.92a10.542,10.542,0,0,1,.411-1.837l.258.048a8.514,8.514,0,0,0-.269,1.911c.1,1.153.358,2.292.54,3.438a.689.689,0,0,0,.667.6,23.27,23.27,0,0,1,2.7.507c1.458.433,2.9.929,4.336,1.428a1.065,1.065,0,0,1,.392.378,2.265,2.265,0,0,1,.333,1.105.934.934,0,0,1-.1.443.526.526,0,0,1-.071.206l-.007.01a.459.459,0,0,1-.127.13.91.91,0,0,1-.177.162l-.469.466c-.726.72-1.409,1.4-2.065,2.1a2.164,2.164,0,0,0-.426.84c-.123.371-.242.743-.364,1.113-.062.186-.128.371-.186.557a2.571,2.571,0,0,1-.164.5.882.882,0,0,0-.174.727c.344.821,3.389,1.853,3.4,1.827a17.863,17.863,0,0,1-.719-1.889,3.259,3.259,0,0,1,0-.938,2.223,2.223,0,0,1,1.052-1.612,26.632,26.632,0,0,0,2.41-1.666l.381-.285a2,2,0,0,0,.766-.935,24.024,24.024,0,0,0,.748-2.808,1.546,1.546,0,0,0-.212-1.3,1.167,1.167,0,0,0-.406-.326c-1.107-.943-2.222-1.878-3.357-2.787a.788.788,0,0,1-.253-1.132,24.016,24.016,0,0,0,1.094-3.1,4.044,4.044,0,0,0-.059-1.265c-.012-.2-.018-.4-.027-.6l.22-.056a5.1,5.1,0,0,1,.331.847,6.278,6.278,0,0,1-.417,3.96c-.064.139-.237.706-.048.921,1.054.876,2.275,1.814,3.347,2.666.022,0,.579-2.82.875-3.916a1.156,1.156,0,0,1,.339-.427,1.95,1.95,0,0,1,.411-.2c-.027.409-.027.716-.071,1.018a10.806,10.806,0,0,0,.249,4.863,1.711,1.711,0,0,1,.012.716c-.054.385-.175.76-.223,1.145-.177,1.467.511,2.242,2.014,2.188a1.369,1.369,0,0,0,.863-.553c.643-.847,1.219-1.744,1.831-2.615a1.634,1.634,0,0,1,.457-.492c1.523-.884,2.23-2.458,3.248-3.8a2.462,2.462,0,0,0,.419-1.374c4.915-1.133,5.347-3.823,5.307-7.4m-8.716,9.352-.989,1.151a.085.085,0,0,1-.14-.013l-.063-.111a.085.085,0,0,1-.005-.077l.833-1.942a.129.129,0,0,1,.183-.059c.636.373.181,1.052.181,1.052" transform="translate(-101.505 -93.714)" fill="#fff"/>
    </g>
  </g>
</svg>
