<svg xmlns="http://www.w3.org/2000/svg" width="120" height="120" viewBox="0 0 120 120">
  <path id="Icon_metro-qrcode" data-name="Icon metro-qrcode" d="M40.071,9.428h-30v30h30Zm7.5-7.5v45h-45v-45Zm-30,15h15v15h-15Zm97.5-7.5h-30v30h30v-30Zm7.5-7.5v45h-45v-45h45Zm-30,15h15v15h-15Zm-52.5,67.5h-30v30h30Zm7.5-7.5v45h-45v-45Zm-30,15h15v15h-15Zm37.5-90h7.5v7.5h-7.5Zm7.5,7.5h7.5v7.5h-7.5Zm-7.5,7.5h7.5v7.5h-7.5Zm7.5,7.5h7.5v7.5h-7.5Zm-7.5,7.5h7.5v7.5h-7.5Zm7.5,7.5h7.5v7.5h-7.5Zm-7.5,7.5h7.5v7.5h-7.5Zm0,15h7.5v7.5h-7.5Zm7.5,7.5h7.5v7.5h-7.5Zm-7.5,7.5h7.5v7.5h-7.5Zm7.5,7.5h7.5v7.5h-7.5Zm-7.5,7.5h7.5v7.5h-7.5Zm7.5,7.5h7.5v7.5h-7.5Zm-7.5,7.5h7.5v7.5h-7.5Zm7.5,7.5h7.5v7.5h-7.5Zm52.5-52.5h7.5v7.5h-7.5Zm-105,0h7.5v7.5h-7.5Zm7.5-7.5h7.5v7.5h-7.5Zm-15,0h7.5v7.5h-7.5Zm30,0h7.5v7.5h-7.5Zm7.5,7.5h7.5v7.5h-7.5Zm7.5-7.5h7.5v7.5h-7.5Zm22.5,7.5h7.5v7.5h-7.5Zm7.5-7.5h7.5v7.5h-7.5Zm7.5,7.5h7.5v7.5h-7.5Zm7.5-7.5h7.5v7.5h-7.5Zm7.5,7.5h7.5v7.5h-7.5Zm7.5-7.5h7.5v7.5h-7.5Zm7.5,22.5h7.5v7.5h-7.5Zm-45,0h7.5v7.5h-7.5Zm7.5-7.5h7.5v7.5h-7.5Zm7.5,7.5h7.5v7.5h-7.5Zm15,0h7.5v7.5h-7.5Zm7.5-7.5h7.5v7.5h-7.5Zm7.5,22.5h7.5v7.5h-7.5Zm-45,0h7.5v7.5h-7.5Zm7.5-7.5h7.5v7.5h-7.5Zm15,0h7.5v7.5h-7.5Zm7.5,7.5h7.5v7.5h-7.5Zm7.5-7.5h7.5v7.5h-7.5Zm7.5,22.5h7.5v7.5h-7.5Zm-37.5-7.5h7.5v7.5h-7.5Zm7.5,7.5h7.5v7.5h-7.5Zm7.5-7.5h7.5v7.5h-7.5Zm7.5,7.5h7.5v7.5h-7.5Zm-22.5,7.5h7.5v7.5h-7.5Zm15,0h7.5v7.5h-7.5Zm15,0h7.5v7.5h-7.5Z" transform="translate(-2.571 -1.928)"/>
</svg>
