<svg xmlns="http://www.w3.org/2000/svg" width="49.542" height="35.371" viewBox="0 0 49.542 35.371">
  <g id="Icon_ionic-logo-game-controller-b" data-name="Icon ionic-logo-game-controller-b" transform="translate(-2.247 -6.757)">
    <path id="Path_32860" data-name="Path 32860" d="M9.8,14.386a1.665,1.665,0,1,0,1.656,1.665A1.659,1.659,0,0,0,9.8,14.386Z" transform="translate(3.758 4.874)" fill="#c99e41"/>
    <path id="Path_32861" data-name="Path 32861" d="M50.272,23.652C47.928,13.867,45.452,8.67,40.487,7.2a9.863,9.863,0,0,0-2.842-.442c-3.052,0-5.186,1.625-10.626,1.625S19.445,6.757,16.394,6.757a9.753,9.753,0,0,0-2.842.442C8.588,8.67,6.111,13.878,3.767,23.652S1.854,40.5,4.618,41.819A3.226,3.226,0,0,0,6,42.128c2.4,0,4.987-2.632,7.486-5.75,2.842-3.549,3.549-3.649,12.2-3.649h2.687c8.635,0,9.354.088,12.2,3.649,2.488,3.118,5.086,5.75,7.486,5.75a3.262,3.262,0,0,0,1.382-.31C52.185,40.492,52.605,33.426,50.272,23.652Zm-36.61,1.625A4.379,4.379,0,1,1,18,20.9,4.365,4.365,0,0,1,13.663,25.277ZM32.78,23.121A2.222,2.222,0,1,1,35,20.9,2.223,2.223,0,0,1,32.78,23.121Zm4.854,4.854a2.217,2.217,0,1,1,2.222-2.211A2.22,2.22,0,0,1,37.634,27.975Zm0-9.708a2.222,2.222,0,1,1,2.222-2.222A2.223,2.223,0,0,1,37.634,18.267Zm4.854,4.854A2.222,2.222,0,1,1,44.711,20.9,2.223,2.223,0,0,1,42.488,23.121Z" fill="#c99e41"/>
  </g>
</svg>
