<svg xmlns="http://www.w3.org/2000/svg" width="39.385" height="40" viewBox="0 0 39.385 40">
  <path id="Icon_awesome-gift" data-name="Icon awesome-gift" d="M2.462,39.788A2.459,2.459,0,0,0,4.923,42.25H17.231V24.4H2.462ZM22.154,42.25H34.462a2.459,2.459,0,0,0,2.462-2.462V24.4H22.154ZM36.923,12.1H33.685a6.707,6.707,0,0,0,.777-3.077A6.779,6.779,0,0,0,27.692,2.25c-3.2,0-5.269,1.638-7.923,5.254C17.115,3.888,15.046,2.25,11.846,2.25A6.779,6.779,0,0,0,5.077,9.019,6.613,6.613,0,0,0,5.854,12.1H2.462A2.459,2.459,0,0,0,0,14.558v6.154a1.234,1.234,0,0,0,1.231,1.231H38.154a1.234,1.234,0,0,0,1.231-1.231V14.558A2.459,2.459,0,0,0,36.923,12.1Zm-25.085,0a3.077,3.077,0,0,1,0-6.154c1.531,0,2.662.254,6.623,6.154H11.838Zm15.854,0H21.069c3.954-5.885,5.054-6.154,6.623-6.154a3.077,3.077,0,0,1,0,6.154Z" transform="translate(0 -2.25)" fill="#c99e41"/>
</svg>
