<svg xmlns="http://www.w3.org/2000/svg" width="47.72" height="37.495" viewBox="0 0 47.72 37.495">
  <g id="Icon_ionic-md-megaphone" data-name="Icon ionic-md-megaphone" transform="translate(-2.25 -5.625)">
    <path id="Path_32862" data-name="Path 32862" d="M27.7,10.083l-2.461,2.45a8.666,8.666,0,0,1,0,12.271L27.7,27.264a12.151,12.151,0,0,0,0-17.181Z" transform="translate(11.839 2.295)" fill="#c99e41"/>
    <path id="Path_32863" data-name="Path 32863" d="M30.93,6.961,28.512,9.379a15.43,15.43,0,0,1,0,21.794l2.418,2.418a18.824,18.824,0,0,0,0-26.63Z" transform="translate(13.523 0.688)" fill="#c99e41"/>
    <path id="Path_32864" data-name="Path 32864" d="M32.927,16.714V5.625H29.519L19.293,14.146H5.659l-3.409,1.7v11.93l3.409,1.7L14.18,43.12h5.113L16.1,29.485h3.2L29.519,36.3h3.409V25.214a4.035,4.035,0,0,0,3.409-4.25A4.035,4.035,0,0,0,32.927,16.714Z" fill="#c99e41"/>
  </g>
</svg>
