<svg xmlns="http://www.w3.org/2000/svg" width="49.259" height="36.944" viewBox="0 0 49.259 36.944">
  <path id="Icon_metro-profile" data-name="Icon metro-profile" d="M50.239,12.99H46.794V7.821l-7.111-.109.037,5.278H18.353L18.5,7.712l-6.963.109V13.1L8.017,12.99A3.52,3.52,0,0,0,4.5,16.508V41.138a3.52,3.52,0,0,0,3.518,3.518H50.239a3.52,3.52,0,0,0,3.518-3.518V16.508A3.52,3.52,0,0,0,50.239,12.99Zm-8.8-3.518h3.518v7.037H41.443ZM18.573,21.455c2.125,0,3.849,2.264,3.849,5.058s-1.724,5.058-3.849,5.058-3.849-2.264-3.849-5.058,1.724-5.058,3.849-5.058ZM13.295,9.471h3.518v7.037H13.295ZM10.95,37.528s.417-3.346,1.365-3.978A13.492,13.492,0,0,1,15.992,32.5s1.77,1.891,2.523,1.891S21.036,32.5,21.036,32.5a13.451,13.451,0,0,1,3.679,1.052c1.114.742,1.392,3.978,1.392,3.978H10.95ZM46.72,35.86H30.887V34.1H46.72Zm0-3.518H30.887V30.582H46.72Zm0-3.518H30.887V27.064H46.72Zm0-3.518H30.887V23.545H46.72Z" transform="translate(-4.499 -7.712)" fill="#c99e41"/>
</svg>
