<svg xmlns="http://www.w3.org/2000/svg" width="39.659" height="36.721" viewBox="0 0 39.659 36.721">
  <path id="Icon_metro-suitcase" data-name="Icon metro-suitcase" d="M41.22,42.505H7.436A2.938,2.938,0,0,1,4.5,39.567V21.941A74.8,74.8,0,0,0,19.187,27.5v1.786a1.467,1.467,0,0,0,1.469,1.469H28a1.468,1.468,0,0,0,1.469-1.469V27.5a74.838,74.838,0,0,0,14.688-5.558V39.567A2.939,2.939,0,0,1,41.22,42.505ZM26.531,24.879A1.468,1.468,0,0,1,28,26.348v1.469a1.468,1.468,0,0,1-1.469,1.469H22.125a1.467,1.467,0,0,1-1.469-1.469V26.348a1.467,1.467,0,0,1,1.469-1.469Zm2.938,0A1.468,1.468,0,0,0,28,23.41H20.656a1.468,1.468,0,0,0-1.469,1.469V26.2A73.574,73.574,0,0,1,4.5,20.473V14.6a2.938,2.938,0,0,1,2.938-2.938h8.813V8.722a2.939,2.939,0,0,1,2.938-2.938H29.469a2.939,2.939,0,0,1,2.938,2.938v2.938H41.22A2.939,2.939,0,0,1,44.157,14.6v5.875A73.617,73.617,0,0,1,29.469,26.2V24.879Zm0-14.688A1.468,1.468,0,0,0,28,8.722H20.656a1.468,1.468,0,0,0-1.469,1.469v1.469H29.469Z" transform="translate(-4.499 -5.784)" fill="#c99e41"/>
</svg>
