<svg xmlns="http://www.w3.org/2000/svg" width="722.521" height="418.29" viewBox="0 0 722.521 418.29">
  <g id="Group_34748" data-name="Group 34748" transform="translate(-3.935 0)">
    <g id="Group_34760" data-name="Group 34760" transform="translate(3.935 0)" opacity="0.5">
      <path id="Path_32657" data-name="Path 32657" d="M165.639,250.362q53.287-.927,106.585-.266t106.546,2.923q29.884,1.267,59.743,3.036c1.6.095,1.594-2.394,0-2.488q-53.2-3.148-106.482-4.711t-106.575-1.524q-29.91.02-59.818.542A1.245,1.245,0,0,0,165.639,250.362Z" transform="translate(-141.595 -205.883)" fill="#fff"/>
      <path id="Path_32658" data-name="Path 32658" d="M464.176,231.424l15.534-1.156c1.587-.118,1.6-2.607,0-2.488l-15.534,1.156C462.589,229.054,462.576,231.543,464.176,231.424Z" transform="translate(-192.558 -202.545)" fill="#fff"/>
      <path id="Path_32659" data-name="Path 32659" d="M464.176,249.424l15.534-1.156c1.587-.118,1.6-2.607,0-2.488l-15.534,1.156C462.589,247.054,462.576,249.543,464.176,249.424Z" transform="translate(-192.558 -205.617)" fill="#fff"/>
      <path id="Path_32660" data-name="Path 32660" d="M462.768,241.442l22.086,2.006c1.594.145,1.584-2.344,0-2.488l-22.086-2.006C461.174,238.809,461.184,241.3,462.768,241.442Z" transform="translate(-192.318 -204.452)" fill="#fff"/>
      <path id="Path_32661" data-name="Path 32661" d="M175.82,228.141a5.5,5.5,0,0,0-5.086,3.322,4.954,4.954,0,0,0,1.14,5.885,5.89,5.89,0,0,0,5.58,1.134,4.978,4.978,0,0,0,3.337-4.679,5.562,5.562,0,0,0-3.465-5.365,1.249,1.249,0,0,0-1.53.869,1.279,1.279,0,0,0,.869,1.53c.217.084-.2-.107,0,0,.083.045.168.086.25.135s.136.086.2.13c.232.152-.113-.111.035.025.129.118.256.233.373.364.044.049.218.186.083.091-.1-.073-.04-.056,0,0s.062.088.092.133a4.439,4.439,0,0,1,.264.456c.018.036.035.074.054.11.035.068.085.086,0,0s-.028-.076,0,0c.018.051.038.1.056.154a4.789,4.789,0,0,1,.147.512c.018.08.033.161.049.241.056.286-.008-.178.005.035.011.177.024.352.021.53q0,.122-.011.244c0,.041-.007.081-.01.121-.013.2-.013-.071.014-.09a2.3,2.3,0,0,0-.112.512c-.022.077-.049.153-.074.229-.087.267.081-.145-.011.037a4.553,4.553,0,0,1-.254.456c-.041.062-.193.2-.068.1s-.071.076-.115.122-.115.117-.176.173a1.416,1.416,0,0,1-.123.107c-.008,0,.208-.144.092-.07-.148.094-.288.2-.444.277-.018.01-.217.1-.216.105-.009-.034.256-.093.074-.034-.038.012-.076.027-.114.04a4.062,4.062,0,0,1-.505.135c-.039.008-.081.012-.119.022-.129.033.123-.02.13-.015a1.084,1.084,0,0,0-.283.025,4.626,4.626,0,0,1-.53,0l-.122-.009c-.095-.005-.164-.074-.038,0,.1.057.089.015,0,0l-.121-.021a4.824,4.824,0,0,1-.517-.127c-.092-.028-.181-.06-.271-.092a.722.722,0,0,1-.114-.044c0-.01.233.111.11.045-.155-.084-.316-.154-.468-.245-.081-.049-.159-.1-.237-.154a.763.763,0,0,1-.1-.07c0-.011.193.166.093.071-.126-.12-.261-.228-.381-.356-.027-.029-.053-.06-.081-.089l-.026-.03q-.1-.124,0,0c.066.019.063.092,0,0-.022-.033-.046-.066-.068-.1a2.6,2.6,0,0,1-.257-.459c.006,0,.108.3.03.07-.015-.043-.031-.086-.046-.129q-.043-.129-.075-.261c-.021-.087-.033-.177-.054-.264-.037-.146.021.116.015.109s-.012-.148-.013-.178c-.01-.2.012-.385.016-.579,0-.15-.012.117-.016.109a.422.422,0,0,1,.024-.132c.023-.1.043-.2.071-.306s.068-.23.109-.343c.015-.042.034-.084.048-.127.052-.156-.1.189-.018.048.118-.194.206-.4.332-.595.03-.045.211-.3.115-.171s.1-.114.135-.155c.153-.17.332-.309.49-.472.094-.1-.065.047-.075.054.049-.035.1-.071.146-.105q.13-.089.265-.169c.1-.06.217-.1.316-.168.117-.075-.089.033-.093.035a.926.926,0,0,1,.167-.064c.1-.034.515-.215.6-.158,0,0-.318.025-.064.009.06,0,.12-.01.18-.012.122-.005.243,0,.364,0a1.252,1.252,0,0,0,1.244-1.244,1.272,1.272,0,0,0-1.244-1.244Z" transform="translate(-142.582 -202.607)" fill="#fff"/>
      <path id="Path_32662" data-name="Path 32662" d="M196.82,228.141a5.5,5.5,0,0,0-5.086,3.322,4.954,4.954,0,0,0,1.14,5.885,5.89,5.89,0,0,0,5.58,1.134,4.978,4.978,0,0,0,3.337-4.679,5.562,5.562,0,0,0-3.465-5.365,1.249,1.249,0,0,0-1.53.869,1.279,1.279,0,0,0,.869,1.53c.217.084-.2-.107,0,0,.083.045.168.086.25.135s.136.086.2.13c.232.152-.113-.111.035.025.129.118.256.233.373.364.044.049.218.186.083.091-.1-.073-.04-.056,0,0s.062.088.092.133a4.425,4.425,0,0,1,.264.456c.018.036.035.074.054.11.035.068.085.086,0,0s-.028-.076,0,0c.018.051.038.1.056.154a4.789,4.789,0,0,1,.147.512c.018.08.033.161.049.241.056.286-.008-.178.005.035.011.177.024.352.021.53q0,.122-.011.244c0,.041-.007.081-.01.121-.013.2-.013-.071.014-.09a2.3,2.3,0,0,0-.112.512c-.022.077-.049.153-.074.229-.087.267.081-.145-.011.037a4.557,4.557,0,0,1-.254.456c-.041.062-.193.2-.068.1s-.071.076-.115.122-.115.117-.176.173a1.413,1.413,0,0,1-.123.107c-.008,0,.208-.144.092-.07-.148.094-.288.2-.444.277-.018.01-.217.1-.216.105-.009-.034.256-.093.074-.034-.038.012-.076.027-.114.04a4.062,4.062,0,0,1-.505.135c-.039.008-.081.012-.119.022-.129.033.123-.02.13-.015a1.084,1.084,0,0,0-.283.025,4.626,4.626,0,0,1-.53,0l-.122-.009c-.095-.005-.164-.074-.038,0,.1.057.089.015,0,0l-.121-.021a4.827,4.827,0,0,1-.517-.127c-.091-.028-.181-.06-.271-.092a.723.723,0,0,1-.114-.044c0-.01.233.111.11.045-.155-.084-.316-.154-.468-.245-.081-.049-.159-.1-.237-.154a.762.762,0,0,1-.1-.07c0-.011.193.166.093.071-.126-.12-.261-.228-.381-.356-.027-.029-.053-.06-.081-.089l-.026-.03q-.1-.124,0,0c.066.019.063.092,0,0-.022-.033-.046-.066-.068-.1a2.6,2.6,0,0,1-.257-.459c.006,0,.108.3.03.07-.015-.043-.031-.086-.046-.129q-.043-.129-.075-.261c-.021-.087-.033-.177-.054-.264-.037-.146.021.116.015.109s-.012-.148-.013-.178c-.01-.2.012-.385.016-.579,0-.15-.012.117-.016.109a.422.422,0,0,1,.024-.132c.023-.1.043-.2.071-.306s.068-.23.109-.343c.015-.042.034-.084.048-.127.052-.156-.1.189-.018.048.118-.194.206-.4.332-.595.03-.045.211-.3.115-.171s.1-.114.135-.155c.153-.17.332-.309.49-.472.094-.1-.065.047-.075.054.049-.035.1-.071.146-.105q.13-.089.265-.169c.1-.06.217-.1.316-.168.117-.075-.089.033-.093.035a.926.926,0,0,1,.167-.064c.1-.034.515-.215.6-.158,0,0-.318.025-.064.009.06,0,.12-.01.18-.012.122-.005.243,0,.364,0a1.252,1.252,0,0,0,1.244-1.244,1.272,1.272,0,0,0-1.244-1.244Z" transform="translate(-146.167 -202.607)" fill="#fff"/>
      <path id="Path_32663" data-name="Path 32663" d="M217.82,228.141a5.5,5.5,0,0,0-5.086,3.322,4.954,4.954,0,0,0,1.14,5.885,5.89,5.89,0,0,0,5.58,1.134,4.978,4.978,0,0,0,3.337-4.679,5.562,5.562,0,0,0-3.465-5.365,1.249,1.249,0,0,0-1.53.869,1.279,1.279,0,0,0,.869,1.53c.217.084-.2-.107,0,0,.083.045.168.086.25.135s.136.086.2.13c.232.152-.113-.111.035.025.129.118.256.233.373.364.044.049.218.186.083.091-.1-.073-.04-.056,0,0s.062.088.092.133a4.439,4.439,0,0,1,.264.456c.018.036.035.074.054.11.035.068.085.086,0,0s-.028-.076,0,0c.018.051.038.1.056.154a4.792,4.792,0,0,1,.147.512c.018.08.033.161.049.241.056.286-.008-.178.005.035.011.177.024.352.021.53q0,.122-.011.244c0,.041-.007.081-.01.121-.013.2-.013-.071.014-.09a2.3,2.3,0,0,0-.112.512c-.022.077-.049.153-.074.229-.087.267.081-.145-.011.037a4.554,4.554,0,0,1-.254.456c-.041.062-.193.2-.068.1s-.071.076-.115.122-.115.117-.176.173a1.417,1.417,0,0,1-.123.107c-.008,0,.208-.144.092-.07-.148.094-.288.2-.444.277-.018.01-.217.1-.216.105-.009-.034.256-.093.074-.034-.038.012-.076.027-.114.04a4.063,4.063,0,0,1-.505.135c-.039.008-.081.012-.119.022-.129.033.123-.02.13-.015a1.084,1.084,0,0,0-.283.025,4.626,4.626,0,0,1-.53,0l-.122-.009c-.095-.005-.164-.074-.038,0,.1.057.089.015,0,0l-.121-.021a4.826,4.826,0,0,1-.517-.127c-.092-.028-.181-.06-.271-.092a.721.721,0,0,1-.114-.044c0-.01.233.111.109.045-.155-.084-.316-.154-.468-.245-.081-.049-.159-.1-.237-.154a.763.763,0,0,1-.1-.07c0-.011.193.166.093.071-.126-.12-.261-.228-.381-.356-.027-.029-.053-.06-.081-.089l-.026-.03q-.1-.124,0,0c.066.019.063.092,0,0-.022-.033-.046-.066-.068-.1a2.6,2.6,0,0,1-.257-.459c.006,0,.108.3.03.07-.015-.043-.031-.086-.046-.129q-.043-.129-.075-.261c-.021-.087-.033-.177-.054-.264-.037-.146.021.116.015.109s-.012-.148-.013-.178c-.01-.2.012-.385.016-.579,0-.15-.012.117-.016.109a.421.421,0,0,1,.024-.132c.023-.1.043-.2.071-.306s.068-.23.109-.343c.015-.042.034-.084.048-.127.052-.156-.1.189-.018.048.118-.194.206-.4.332-.595.03-.045.211-.3.115-.171s.1-.114.135-.155c.153-.17.332-.309.49-.472.094-.1-.065.047-.075.054.049-.035.1-.071.146-.105q.13-.089.265-.169c.1-.06.217-.1.316-.168.117-.075-.089.033-.093.035a.927.927,0,0,1,.167-.064c.1-.034.515-.215.6-.158,0,0-.318.025-.064.009.06,0,.12-.01.18-.012.122-.005.243,0,.364,0a1.252,1.252,0,0,0,1.244-1.244,1.272,1.272,0,0,0-1.244-1.244Z" transform="translate(-149.752 -202.607)" fill="#fff"/>
      <path id="Path_32664" data-name="Path 32664" d="M456.546,498.385h-305.1a14.568,14.568,0,0,1-14.552-14.552V211.9a14.568,14.568,0,0,1,14.552-14.552h305.1A14.568,14.568,0,0,1,471.1,211.9v271.93A14.568,14.568,0,0,1,456.546,498.385Zm-305.1-299.375A12.908,12.908,0,0,0,138.551,211.9v271.93a12.908,12.908,0,0,0,12.893,12.893h305.1a12.908,12.908,0,0,0,12.893-12.893V211.9a12.908,12.908,0,0,0-12.893-12.893Z" transform="translate(-136.893 -197.352)" fill="#fff"/>
      <path id="Path_32665" data-name="Path 32665" d="M153.583,419.774l107.293-.326,106.746-.325,60.216-.183a1.245,1.245,0,0,0,0-2.488l-107.293.326L213.8,417.1l-60.216.183a1.245,1.245,0,0,0,0,2.488Z" transform="translate(-139.537 -234.753)" fill="#fff"/>
      <path id="Path_32667" data-name="Path 32667" d="M280.423,405.258l1.617-49.239.462-14.068c.053-1.6-2.435-1.6-2.488,0L278.4,391.19l-.462,14.068C277.883,406.86,280.371,406.858,280.423,405.258Z" transform="translate(-160.969 -221.831)" fill="#fff"/>
      <path id="Path_32668" data-name="Path 32668" d="M341.831,313.807c-.975,17.44-2.78,68.881-3.755,86.321-.089,1.6,2.4,1.595,2.488,0,.975-17.44,2.78-68.881,3.755-86.321C344.408,312.207,341.92,312.212,341.831,313.807Z" transform="translate(-171.235 -217.027)" fill="#fff"/>
      <path id="Path_32669" data-name="Path 32669" d="M403.913,394.678l-.3,16.763a1.245,1.245,0,0,0,2.488,0c.36-19.8,1.284-19.152,1.385-24.74a1.245,1.245,0,0,0-2.488,0S404.273,374.88,403.913,394.678Z" transform="translate(-182.423 -229.077)" fill="#fff"/>
      <path id="Path_32670" data-name="Path 32670" d="M464.088,343.693l.281,47.028.081,13.466a1.245,1.245,0,0,0,2.488,0l-.281-47.028-.081-13.466a1.245,1.245,0,0,0-2.488,0Z" transform="translate(-192.747 -222.128)" fill="#fff"/>
      <path id="Path_32671" data-name="Path 32671" d="M153.455,401.557c-2.059-5.659,2.583-11.1,7.353-13.548,5.715-2.93,12.289-3.594,18.064-6.419,8.61-4.211,14.881-11.769,20.461-19.334,5.744-7.786,11-16.143,18.3-22.613a36.65,36.65,0,0,1,13.326-7.712,45.925,45.925,0,0,1,19.249-1.292c13.284,1.617,25.6,7.1,38.416,10.591,12.085,3.288,25.4,5.137,37.261.024,6.026-2.6,10.954-6.954,16.248-10.724a54.149,54.149,0,0,1,16.924-8.164,50.329,50.329,0,0,1,36,3.17,48.3,48.3,0,0,1,22.78,24.043c5.255,12.554,4.571,26.584,2.854,39.8-.444,3.416-.972,6.82-1.506,10.222-.246,1.566,2.151,2.241,2.4.661,2.138-13.626,4.269-27.683,1.609-41.4A50.136,50.136,0,0,0,404.667,328.7a51.452,51.452,0,0,0-33.927-10.707,55.629,55.629,0,0,0-18.638,4.145c-6.153,2.545-11.363,6.317-16.655,10.286-5.441,4.081-11.05,7.457-17.806,8.788-6.553,1.291-13.369.807-19.893-.412-13.461-2.515-26.009-8.281-39.356-11.235-12.366-2.737-25.71-3.01-36.784,3.976-8.518,5.374-14.537,13.716-20.313,21.772-5.726,7.985-11.524,16.524-19.9,21.979-5.107,3.327-10.849,4.555-16.562,6.426s-11.227,5.041-13.563,10.91a10.61,10.61,0,0,0-.217,7.592c.543,1.493,2.948.848,2.4-.661Z" transform="translate(-139.208 -217.936)" fill="#fff"/>
      <path id="Path_32673" data-name="Path 32673" d="M221.4,360.98a4.944,4.944,0,0,0-5.99-2.217,4.351,4.351,0,0,0-2.479,2.308c-.048.113-.075.231-.114.347-.054.087-.119.166-.167.257a4.941,4.941,0,0,0,7.7,5.9A5.321,5.321,0,0,0,221.4,360.98Zm-3.116,2.113C218.292,363.156,218.288,363.213,218.282,363.093Zm-.317-.72Zm-1.4.561C216.55,362.905,216.548,362.9,216.569,362.934Zm.331.281C216.979,363.241,216.947,363.236,216.9,363.215Zm.148.07.033-.015a.041.041,0,0,1-.023,0h0l.026,0,0,0-.015,0c.013,0,.014,0,.015,0,.148-.068.048-.035-.038-.009h-.006a.564.564,0,0,0-.171-.055l-.017-.009c-.048-.034-.288-.222-.065-.025-.049-.043-.1-.085-.142-.131a.648.648,0,0,1-.073-.09q-.044-.075-.085-.152l0-.028c0-.023-.006-.032-.009-.046s0-.029.006-.044a.537.537,0,0,0,.032-.139l.01-.012c.036-.05.067-.108.1-.16-.18.274.071-.03.089-.069,0-.007,0,0,0-.008s.005,0,.014-.006c.056-.033.109-.07.166-.1s.334-.113.058-.034c.063-.018.123-.041.186-.057.012,0,.1-.016.154-.025l.091,0,.062,0c-.046.006.157.05.217.059l.025.02c.051.037.113.07.167.105-.241-.155,0,.012.049.058.027.027.053.057.079.086a.672.672,0,0,1,.064.088c.039.072.081.145.123.217l.011.018a.068.068,0,0,0,0,.007,1.969,1.969,0,0,0,.1.338.275.275,0,0,1,0,.028c0,.063.009.126.009.19v.013a1.363,1.363,0,0,0-1.242-.009Z" transform="translate(-149.735 -224.855)" fill="#fff"/>
      <path id="Path_32678" data-name="Path 32678" d="M150.17,138.9l0,0,.007,0Z" transform="translate(-29.746 -23.712)" fill="#fff"/>
      <path id="Path_32679" data-name="Path 32679" d="M285.4,332.98a4.944,4.944,0,0,0-5.99-2.217,4.351,4.351,0,0,0-2.479,2.308c-.048.113-.075.231-.114.347-.054.087-.119.166-.167.257a4.941,4.941,0,0,0,7.7,5.9A5.321,5.321,0,0,0,285.4,332.98Zm-3.116,2.113C282.292,335.156,282.288,335.213,282.282,335.093Zm-.317-.72Zm-1.4.561C280.55,334.905,280.548,334.9,280.569,334.934Zm.331.281C280.979,335.241,280.947,335.236,280.9,335.215Zm.148.07.033-.015a.042.042,0,0,1-.023,0h0l.026,0,0,0-.015,0c.013,0,.014,0,.015,0,.148-.068.048-.035-.038-.009h-.006a.564.564,0,0,0-.171-.055l-.017-.009c-.048-.034-.288-.222-.065-.025-.049-.043-.1-.085-.142-.131a.645.645,0,0,1-.073-.09q-.044-.075-.085-.152l0-.028c0-.023-.006-.032-.009-.046s0-.03.006-.044a.537.537,0,0,0,.032-.139l.01-.012c.036-.05.067-.108.1-.16-.18.274.07-.03.089-.069,0-.007,0,0,0-.008s.005,0,.014-.006c.056-.033.109-.07.166-.1s.334-.113.058-.034c.063-.018.123-.041.186-.057.011,0,.1-.016.154-.025l.091,0,.062,0c-.046.006.157.05.217.059l.025.02c.051.037.113.07.167.105-.241-.155,0,.012.049.058.027.027.053.057.079.086a.665.665,0,0,1,.064.088c.039.072.081.145.123.217l.011.018a.067.067,0,0,0,0,.007,1.973,1.973,0,0,0,.1.338.273.273,0,0,1,0,.028c0,.063.009.126.009.19v.013a1.362,1.362,0,0,0-1.242-.009Z" transform="translate(-160.66 -220.076)" fill="#fff"/>
      <path id="Path_32680" data-name="Path 32680" d="M282.113,336.257h0S282.112,336.257,282.113,336.257Z" transform="translate(-161.682 -221.063)" fill="#fff"/>
      <path id="Path_32681" data-name="Path 32681" d="M150.177,138.9Z" transform="translate(-29.748 -23.711)" fill="#fff"/>
      <path id="Path_32682" data-name="Path 32682" d="M282.114,336.255s0,0,0,0Z" transform="translate(-161.683 -221.063)" fill="#fff"/>
      <path id="Path_32683" data-name="Path 32683" d="M282.113,336.255h0Z" transform="translate(-161.683 -221.063)" fill="#fff"/>
      <path id="Path_32684" data-name="Path 32684" d="M212.177,152.9Z" transform="translate(-40.332 -26.101)" fill="#fff"/>
      <path id="Path_32685" data-name="Path 32685" d="M347.4,304.98a4.944,4.944,0,0,0-5.99-2.217,4.351,4.351,0,0,0-2.479,2.308c-.048.113-.075.232-.114.347-.054.087-.119.166-.167.257a4.941,4.941,0,0,0,7.7,5.9A5.321,5.321,0,0,0,347.4,304.98Zm-3.116,2.113C344.292,307.156,344.288,307.213,344.282,307.093Zm-.317-.72Zm-1.4.561C342.55,306.905,342.548,306.9,342.569,306.934Zm.331.281C342.979,307.241,342.947,307.236,342.9,307.215Zm.148.07.033-.015a.042.042,0,0,1-.023,0h0l.026,0,0,0-.015,0c.013,0,.014,0,.015,0,.148-.068.048-.035-.038-.009h-.006a.566.566,0,0,0-.171-.055l-.017-.009c-.048-.034-.288-.222-.065-.025-.049-.043-.1-.085-.142-.131a.648.648,0,0,1-.073-.09q-.044-.075-.085-.152l0-.028c0-.023-.006-.032-.009-.046s0-.03.006-.044a.534.534,0,0,0,.032-.139l.01-.012c.036-.05.067-.108.1-.16-.18.274.07-.03.089-.069,0-.007,0,0,0-.008s.005,0,.014-.006c.056-.033.109-.07.166-.1s.334-.113.058-.034c.063-.018.123-.041.186-.057.011,0,.1-.016.154-.025l.091,0,.062,0c-.046.006.157.05.217.059l.025.02c.051.037.113.07.167.105-.241-.155,0,.012.049.058.027.027.053.057.079.086a.668.668,0,0,1,.064.088c.039.072.081.145.123.217l.011.018a.06.06,0,0,0,0,.007,1.963,1.963,0,0,0,.1.338.283.283,0,0,1,0,.028c0,.063.009.126.009.19v.013a1.362,1.362,0,0,0-1.242-.009Z" transform="translate(-171.244 -215.295)" fill="#fff"/>
      <path id="Path_32686" data-name="Path 32686" d="M212.17,152.9l0,0,.007,0Z" transform="translate(-40.33 -26.102)" fill="#fff"/>
      <path id="Path_32687" data-name="Path 32687" d="M344.113,350.255h0Z" transform="translate(-172.267 -223.453)" fill="#fff"/>
      <path id="Path_32688" data-name="Path 32688" d="M344.113,350.257h0S344.112,350.257,344.113,350.257Z" transform="translate(-172.266 -223.453)" fill="#fff"/>
      <path id="Path_32689" data-name="Path 32689" d="M344.114,350.255s0,0,0,0Z" transform="translate(-172.267 -223.453)" fill="#fff"/>
      <path id="Path_32690" data-name="Path 32690" d="M410.4,381.98a4.944,4.944,0,0,0-5.99-2.217,4.351,4.351,0,0,0-2.479,2.308c-.048.113-.076.231-.114.347-.054.087-.119.166-.167.257a4.941,4.941,0,0,0,7.7,5.9,5.321,5.321,0,0,0,1.045-6.6Zm-3.116,2.113C407.292,384.156,407.288,384.213,407.282,384.093Zm-.317-.72Zm-1.4.561C405.55,383.905,405.548,383.9,405.569,383.934Zm.331.281C405.979,384.241,405.947,384.236,405.9,384.215Zm.148.07.033-.015a.042.042,0,0,1-.023,0h0l.026,0,0,0-.015,0c.013,0,.014,0,.015,0,.148-.068.048-.035-.038-.009h-.006a.564.564,0,0,0-.171-.055l-.017-.009c-.048-.034-.288-.222-.065-.025-.049-.043-.1-.085-.142-.131a.657.657,0,0,1-.073-.09q-.044-.075-.085-.152l0-.028c0-.023-.006-.032-.009-.046s0-.03.006-.044a.535.535,0,0,0,.032-.139l.01-.012c.036-.05.067-.108.1-.16-.18.274.07-.03.089-.069,0-.007,0,0,0-.008s.005,0,.014-.006c.056-.033.109-.07.166-.1s.334-.113.058-.034c.063-.018.123-.041.186-.057.011,0,.1-.016.154-.025l.091,0,.062,0c-.046.006.157.05.217.059l.025.02c.051.037.113.07.167.105-.241-.155,0,.012.049.058.027.027.053.057.079.086a.675.675,0,0,1,.064.088c.039.072.081.145.123.217l.011.018a.059.059,0,0,0,0,.007,1.969,1.969,0,0,0,.1.338c0,.009,0,.019,0,.028,0,.063.009.126.009.19v.013A1.362,1.362,0,0,0,406.048,384.285Z" transform="translate(-181.998 -228.44)" fill="#fff"/>
      <path id="Path_32691" data-name="Path 32691" d="M275.17,121.9l0,0,.007,0Z" transform="translate(-51.085 -20.81)" fill="#fff"/>
      <path id="Path_32692" data-name="Path 32692" d="M407.113,319.255h0Z" transform="translate(-183.021 -218.161)" fill="#fff"/>
      <path id="Path_32693" data-name="Path 32693" d="M407.113,319.257h0S407.112,319.257,407.113,319.257Z" transform="translate(-183.02 -218.161)" fill="#fff"/>
      <path id="Path_32694" data-name="Path 32694" d="M407.114,319.255s0,0,0,0Z" transform="translate(-183.021 -218.161)" fill="#fff"/>
      <path id="Path_32695" data-name="Path 32695" d="M275.177,121.9Z" transform="translate(-51.086 -20.809)" fill="#fff"/>
      <path id="Path_32696" data-name="Path 32696" d="M466.113,339.255h0Z" transform="translate(-193.093 -221.575)" fill="#fff"/>
      <path id="Path_32697" data-name="Path 32697" d="M469.4,335.98a4.944,4.944,0,0,0-5.99-2.217,4.351,4.351,0,0,0-2.479,2.308c-.048.113-.075.231-.114.347-.054.087-.119.166-.167.257a4.941,4.941,0,0,0,7.7,5.9,5.321,5.321,0,0,0,1.045-6.6Zm-3.116,2.113C466.292,338.156,466.288,338.213,466.282,338.093Zm-.317-.72Zm-1.4.561C464.55,337.905,464.548,337.9,464.569,337.934Zm.331.28C464.979,338.241,464.947,338.236,464.9,338.215Zm.148.07.033-.015a.041.041,0,0,1-.023,0h0l.026,0,0,0-.015,0c.013,0,.014,0,.015,0,.148-.068.048-.035-.038-.009h-.006a.564.564,0,0,0-.171-.055l-.017-.009c-.048-.034-.288-.222-.065-.025-.049-.043-.1-.085-.142-.131a.655.655,0,0,1-.073-.09q-.044-.075-.085-.152l0-.028c0-.023-.006-.032-.009-.046s0-.03.006-.044a.535.535,0,0,0,.032-.139l.01-.012c.036-.05.067-.108.1-.16-.18.274.07-.03.089-.069,0-.007,0,0,0-.008s.005,0,.014-.006c.056-.033.109-.07.166-.1s.334-.113.058-.034c.063-.018.123-.041.186-.057.012,0,.1-.016.154-.025l.091,0,.062,0c-.046.006.157.05.217.059l.025.02c.051.037.113.07.167.105-.241-.156,0,.012.049.058.027.027.053.057.079.086a.671.671,0,0,1,.064.088c.039.072.081.145.123.217l.012.018a.066.066,0,0,0,0,.007,1.963,1.963,0,0,0,.1.338.28.28,0,0,1,0,.028c0,.063.009.126.009.19v.013a1.362,1.362,0,0,0-1.242-.009Z" transform="translate(-192.07 -220.588)" fill="#fff"/>
      <path id="Path_32698" data-name="Path 32698" d="M334.17,141.9l0,0,.007,0Z" transform="translate(-61.157 -24.224)" fill="#fff"/>
      <path id="Path_32699" data-name="Path 32699" d="M334.177,141.9Z" transform="translate(-61.158 -24.223)" fill="#fff"/>
      <path id="Path_32700" data-name="Path 32700" d="M466.114,339.255s0,0,0,0Z" transform="translate(-193.093 -221.575)" fill="#fff"/>
      <path id="Path_32701" data-name="Path 32701" d="M466.113,339.257h0S466.112,339.257,466.113,339.257Z" transform="translate(-193.092 -221.575)" fill="#fff"/>
    </g>
    <path id="Path_32666" data-name="Path 32666" d="M218.588,409.715l.663-39.173a1.245,1.245,0,0,0-2.488,0l-.663,39.173A1.245,1.245,0,0,0,218.588,409.715Z" transform="translate(-146.479 -226.712)" fill="#e6e6e6"/>
    <path id="Path_32672" data-name="Path 32672" d="M86.17,166.9l0,0,.007,0Z" transform="translate(-14.886 -28.492)" fill="#e6e6e6"/>
    <path id="Path_32674" data-name="Path 32674" d="M218.114,364.255s0,0,0,0Z" transform="translate(-146.823 -225.844)" fill="#e6e6e6"/>
    <path id="Path_32675" data-name="Path 32675" d="M218.113,364.255h0Z" transform="translate(-146.823 -225.843)" fill="#e6e6e6"/>
    <path id="Path_32676" data-name="Path 32676" d="M218.113,364.257h0S218.112,364.257,218.113,364.257Z" transform="translate(-146.822 -225.844)" fill="#e6e6e6"/>
    <path id="Path_32677" data-name="Path 32677" d="M86.177,166.9Z" transform="translate(-14.888 -28.491)" fill="#e6e6e6"/>
    <path id="Path_32702" data-name="Path 32702" d="M441.815,383.859,403.256,386a.85.85,0,0,1-.184-1.688l39.412-6.413Z" transform="translate(-178.275 -228.173)" fill="#3f3d56"/>
    <path id="Path_32703" data-name="Path 32703" d="M507.987,483.569l14.531-24.446,10.74,5.072s-18.506,23.114-19.1,23.779a5.687,5.687,0,1,1-6.175-4.4Z" transform="translate(-195.442 -242.038)" fill="#e8b886"/>
    <path id="Path_32704" data-name="Path 32704" d="M515.77,420.126l23.542,12.282a13.033,13.033,0,0,1,2.206,19.139l-16.229,18.617-7.07-9.581,5.45-11.394-10.552-2.782Z" transform="translate(-197.182 -235.381)" fill="#c99e41"/>
    <path id="Path_32705" data-name="Path 32705" d="M432.429,383.4l-2.652,28.315-11.877.02s6.814-28.815,7.062-29.668a5.686,5.686,0,1,1,7.467,1.334Z" transform="translate(-180.928 -227.315)" fill="#e8b886"/>
    <path id="Path_32706" data-name="Path 32706" d="M455.289,446.1l-27.337-5.013c-11.512-1.384-16.236-8.959-14.159-16.347l6.685-23.776,10.494,5.626-.04,12.63,14.689-2.008Z" transform="translate(-180.145 -232.11)" fill="#c99e41"/>
    <path id="Path_32707" data-name="Path 32707" d="M316.218,488.024H308.7l-3.576-28.994h11.094Z" transform="translate(-52.264 -78.36)" fill="#e8b886"/>
    <path id="Path_32708" data-name="Path 32708" d="M446,698.228H422.881v-.292a9,9,0,0,1,9-9h0l4.222-3.2,7.878,3.2H446Z" transform="translate(-181.778 -280.722)" fill="#c1c1c1"/>
    <path id="Path_32709" data-name="Path 32709" d="M382.636,488.024h7.517l3.576-28.994H382.634Z" transform="translate(-65.495 -78.36)" fill="#e8b886"/>
    <path id="Path_32710" data-name="Path 32710" d="M514.251,698.228h23.115v-.292a9,9,0,0,0-9-9h0l-4.222-3.2-7.878,3.2H514.25Z" transform="translate(-197.375 -280.722)" fill="#c1c1c1"/>
    <path id="Path_32711" data-name="Path 32711" d="M436.658,611.1c.111-1.654.994-10.8.994-10.8l2.114-19.4,3.726-51.434,3.321-13.519,16.441,6.4,13.341-6.4,15.857,5.069,12.347,4.63s.021,1.982.116,4.376c.127,3.134.349,6.977.877,7.976.883,1.765.661,11.242.661,11.242s.877,19.282,1.982,21.4a14.686,14.686,0,0,1,.994,7.4c-.333.883,1.1,24.039,1.1,24.039s3.69,40.978,1.375,47.157-11.063,2.131-11.063,2.131.423-1.649-2.114-2.426-10.265-58.882-10.265-58.882-1.438-11.914-2.759-15.328-2.537-13.008-2.537-13.008-8.161-15.878-8.267-19.409c0,0-1.068-3.3-2.077.333s-3.985,12.347-3.985,12.347l-2.9,10.7-3.414,15.984-2.209,13.457s-3.309,17.86-3.837,18.632,0,17.088,0,17.088-2.558,13.9-6.174,16.322-13.194.039-13.194.039S436.547,612.756,436.658,611.1Z" transform="translate(-184.127 -251.737)" fill="#ccc"/>
    <path id="Path_32712" data-name="Path 32712" d="M449.324,454.251l-2.1,27.216-3.156,3.267a3.044,3.044,0,0,0,.159,4.384h0l-1.739,2.982-.616,9.4a5.107,5.107,0,0,0,4.726,6.294l54.428,2.557a5.107,5.107,0,0,0,5.3-5.774L501.7,469.731v-2.605l-2.072-5.031,1.065-16.855,2.477-26.752-14.4-3.719-7.807-5.371-13.563.216-8.23,6.759L448.2,418.091l-8.3,1.65-1.057,2.3,2.114-.459,7.663,29.889Z" transform="translate(-184.503 -233.55)" fill="#c99e41"/>
    <circle id="Ellipse_1297" data-name="Ellipse 1297" cx="15.977" cy="15.977" r="15.977" transform="translate(273.4 140.247)" fill="#e8b886"/>
    <path id="Path_32713" data-name="Path 32713" d="M472.694,396.686l11.544-.589c1.479-.075,3.093-.206,4.169-1.224a6.316,6.316,0,0,0,1.309-2.174c1.067-2.479,2.134-4.958,3.174-7.448,1.438-3.445,2.851-7.082,2.484-10.8a6.871,6.871,0,0,0-2-4.5,3.814,3.814,0,0,0-4.636-.47,7.839,7.839,0,0,0-3.891-5.65A12.013,12.013,0,0,0,478,362.378a16.537,16.537,0,0,0-9.418,3.712,20.45,20.45,0,0,1-2.4,1.9,3.771,3.771,0,0,1-2.932.543,2.122,2.122,0,0,1-1.558-2.313,4.083,4.083,0,0,0-1.044,5.39,3.768,3.768,0,0,1-3.682-.436,4.5,4.5,0,1,0,4.721,7.62c.7.981.44,2.315.348,3.517s.231,2.7,1.39,3.029c1.567.449,2.836-1.661,4.466-1.638a2.451,2.451,0,0,1,1.944,1.253,7.234,7.234,0,0,1,.778,2.272l2.086,9.391" transform="translate(-187.169 -225.515)"/>
    <path id="Path_32742" data-name="Path 32742" d="M352.714,462.077H338.495a3.248,3.248,0,0,1-3.214-2.792,72.3,72.3,0,0,1,0-19.471,3.249,3.249,0,0,1,3.159-2.792,17.79,17.79,0,0,1,14.323,0,3.211,3.211,0,0,1,2.443,1.178,3.285,3.285,0,0,1,.678,2.738,43.713,43.713,0,0,0,0,17.223,3.285,3.285,0,0,1-.678,2.738,3.21,3.21,0,0,1-2.492,1.178Z" transform="translate(-166.712 -238.008)" fill="#c99e41"/>
    <path id="Path_32743" data-name="Path 32743" d="M352.025,445.974H340.057a.748.748,0,1,1,0-1.5h11.968a.748.748,0,1,1,0,1.5Z" transform="translate(-167.512 -239.538)" fill="#fff"/>
    <path id="Path_32744" data-name="Path 32744" d="M352.025,453.19H340.057a.748.748,0,1,1,0-1.5h11.968a.748.748,0,1,1,0,1.5Z" transform="translate(-167.512 -240.77)" fill="#fff"/>
    <path id="Path_32745" data-name="Path 32745" d="M352.025,460.406H340.057a.748.748,0,1,1,0-1.5h11.968a.748.748,0,1,1,0,1.5Z" transform="translate(-167.512 -242.002)" fill="#fff"/>
    <path id="Path_32748" data-name="Path 32748" d="M222.365,527.565a5.512,5.512,0,0,0-.766-8.417l8.776-43.588-9.691,3.112-7.024,42.16a5.542,5.542,0,0,0,8.706,6.733Z" transform="translate(-145.928 -244.844)" fill="#e8b886"/>
    <path id="Path_32749" data-name="Path 32749" d="M234.937,426.132l-6.013-4.539s-5.3-.376-6.244,9.19-2.868,28.207-2.868,28.207l-9.2,42.614,12.736,2.8,9.855-45.988,5.912-13.657Z" transform="translate(-145.542 -235.631)" fill="#ccc"/>
    <path id="Path_32750" data-name="Path 32750" d="M96.057,308.741l33.882-.565,2.824-23.153H96.057Z" transform="translate(-16.575 -48.655)" fill="#9e616a"/>
    <path id="Path_32751" data-name="Path 32751" d="M132.828,479.216h7.822l3.721-30.171H132.826Z" transform="translate(-22.851 -76.655)" fill="#e8b886"/>
    <path id="Path_32752" data-name="Path 32752" d="M73.738,480.074l7.822-.056,3.51-30.2L74.9,452.157Z" transform="translate(-12.765 -76.788)" fill="#e8b886"/>
    <path id="Path_32753" data-name="Path 32753" d="M102.873,260.25l-1.772,4.608.354,4.608,34.687,12.014-1.721-20.167-3.9-4.608Z" transform="translate(-17.436 -43.821)" fill="#e8b886"/>
    <circle id="Ellipse_1301" data-name="Ellipse 1301" cx="12.389" cy="12.389" r="12.389" transform="translate(87.93 150.183)" fill="#e8b886"/>
    <path id="Path_32754" data-name="Path 32754" d="M262.1,677.974l12.365-.738v5.3l11.756,8.119a3.309,3.309,0,0,1-1.88,6.032H269.621l-2.537-5.24-.991,5.24h-5.55Z" transform="translate(-154.066 -279.272)" fill="#626262"/>
    <path id="Path_32755" data-name="Path 32755" d="M202.152,678.852l12.359-.824.037,5.3,11.812,8.036a3.309,3.309,0,0,1-1.838,6.045l-14.72.1-2.574-5.222-.954,5.247-5.55.039Z" transform="translate(-143.854 -279.407)" fill="#626262"/>
    <path id="Path_32756" data-name="Path 32756" d="M202.37,628.718l5.7-45.526,6.777-48c-4.963-9.216,6.212-37.835,6.212-37.835l1.577.076,35.7,6.735-.008-.034c7.3,19.916,9.721,29.755,9.321,50.964l-1.439,76.241h.451a2.824,2.824,0,0,1,0,5.647H252.541a2.824,2.824,0,1,1,0-5.647h.364l-12.958-90.78L228.96,578.674l-12.424,49.694c4.518-1.129,3.816,1.487,3.816,2.969a2.824,2.824,0,0,1-2.823,2.824H203.412a2.821,2.821,0,0,1-1.041-5.443Z" transform="translate(-143.831 -248.565)" fill="#8d8d8d"/>
    <path id="Path_32757" data-name="Path 32757" d="M221.914,484.914l1.129-11.294a2.251,2.251,0,0,1,2.036-1.691c.471-5.38,2.45-28.59,2.569-29.6l0-.043.9-19.233a2.844,2.844,0,0,1,2.656-2.705l4.755-.311a.252.252,0,0,0,.243-.251,4,4,0,0,1,4-4h14.079A3.744,3.744,0,0,1,258,419.061a.249.249,0,0,0,.253.224h0a6.689,6.689,0,0,1,6.729,5.548c1.925,11.2,5.782,36.616,3.875,50.746-.664,4.919.767,1.023,1.018,5.139a3.029,3.029,0,0,1-.754,2.2,2.184,2.184,0,0,1,1.315,2.776l.247-.061a2.259,2.259,0,0,1-2.742,1.638l-36.834,4.991C229.9,491.953,221.609,486.123,221.914,484.914Z" transform="translate(-147.47 -234.64)" fill="#ccc"/>
    <path id="Path_32758" data-name="Path 32758" d="M335.682,442.3a5.512,5.512,0,0,1-7.762,3.343l-14.24,13-1.891-10L325.61,437.86a5.542,5.542,0,0,1,10.071,4.438Z" transform="translate(-162.814 -237.943)" fill="#e8b886"/>
    <path id="Path_32759" data-name="Path 32759" d="M277.726,429.883s-4.965-11.221-11.236-8.99-3.033,13.118-3.033,13.118l23.561,35.5s33.984-21.8,29.851-21.954-5.369-7.67-5.369-7.67l-17.961,8.974-.608-3.195-.974.974-2.514-1.978Z" transform="translate(-154.42 -235.462)" fill="#ccc"/>
    <g id="Group_34749" data-name="Group 34749" transform="translate(390.666 140.398)">
      <path id="Path_32714" data-name="Path 32714" d="M960.138,573.315c0-2.474-.831-4.482-1.851-4.487h-278.1c-1.025,0-1.851,2.012-1.856,4.487V675.16a.924.924,0,0,1-.835.92q-1.119.107-2.239.2c-.018,0-.037,0-.055,0-.406.037-.812.065-1.219.1h0q-.313-.579-.62-1.169a.928.928,0,0,1-.105-.429V567.494c0-.683.028-1.371.074-2.049a26.249,26.249,0,0,1,.346-2.779c.78-4.288,2.543-7.191,4.547-7.2H960.248a2.162,2.162,0,0,1,.849.18,3.31,3.31,0,0,1,1.048.734,6.492,6.492,0,0,1,1.029,1.408,18.528,18.528,0,0,1,1.943,7.353c0,.028,0,.055,0,.083.065.748.1,1.509.092,2.271l.065,9.892.042,5.9.125,18.509.046,6.573.2,67.483h0a.923.923,0,0,1-.923.923h-3.711a.923.923,0,0,1-.923-.923Z" transform="translate(-636.084 -398.883)" fill="#e6e6e6"/>
      <path id="Path_32715" data-name="Path 32715" d="M921.57,499.652H891.6a1.6,1.6,0,0,0-1.6,1.6v47.337h33.163V501.253a1.6,1.6,0,0,0-1.6-1.6Zm-14.882,26.9a3.555,3.555,0,0,1-3.539-3.538v-5.46a3.538,3.538,0,0,1,7.077,0v5.46A3.555,3.555,0,0,1,906.689,526.548Z" transform="translate(-673.086 -389.355)" fill="#ccc"/>
      <path id="Path_32716" data-name="Path 32716" d="M889.884,556.837V561.4a.894.894,0,0,0,.893.893H922.36a.9.9,0,0,0,.893-.893v-4.567Z" transform="translate(-673.064 -399.117)" fill="#3f3d56"/>
      <path id="Path_32717" data-name="Path 32717" d="M960.68,410.571H832.589a4.158,4.158,0,0,0-4.152,4.151v86.437a4.155,4.155,0,0,0,4.152,4.151H960.68a4.156,4.156,0,0,0,4.151-4.151V414.722a4.158,4.158,0,0,0-4.151-4.151Z" transform="translate(-662.575 -374.148)" fill="#e6e6e6"/>
      <path id="Path_32718" data-name="Path 32718" d="M960.229,414.186H834.277a2.225,2.225,0,0,0-2.22,2.225v84.294a2.224,2.224,0,0,0,2.22,2.22H960.229a2.224,2.224,0,0,0,2.22-2.22V416.411a2.225,2.225,0,0,0-2.22-2.225Z" transform="translate(-663.192 -374.765)" fill="#fff"/>
      <path id="Path_32719" data-name="Path 32719" d="M941.321,563.633H866.386a1.378,1.378,0,0,1-1.349-1.662l1.163-5.522a1.384,1.384,0,0,1,1.349-1.094h72.61a1.384,1.384,0,0,1,1.349,1.094l1.163,5.522a1.379,1.379,0,0,1-1.349,1.662Z" transform="translate(-668.817 -398.864)" fill="#ccc"/>
      <rect id="Rectangle_18313" data-name="Rectangle 18313" width="2.308" height="1.385" rx="0.488" transform="translate(199.263 157.484)" fill="#e6e6e6"/>
      <rect id="Rectangle_18314" data-name="Rectangle 18314" width="2.308" height="1.385" rx="0.488" transform="translate(203.879 157.484)" fill="#e6e6e6"/>
      <rect id="Rectangle_18315" data-name="Rectangle 18315" width="2.308" height="1.385" rx="0.488" transform="translate(208.495 157.484)" fill="#e6e6e6"/>
      <rect id="Rectangle_18316" data-name="Rectangle 18316" width="2.308" height="1.385" rx="0.488" transform="translate(213.111 157.484)" fill="#e6e6e6"/>
      <rect id="Rectangle_18317" data-name="Rectangle 18317" width="2.308" height="1.385" rx="0.488" transform="translate(217.726 157.484)" fill="#e6e6e6"/>
      <rect id="Rectangle_18318" data-name="Rectangle 18318" width="2.308" height="1.385" rx="0.488" transform="translate(222.342 157.484)" fill="#e6e6e6"/>
      <rect id="Rectangle_18319" data-name="Rectangle 18319" width="2.308" height="1.385" rx="0.488" transform="translate(226.958 157.484)" fill="#e6e6e6"/>
      <rect id="Rectangle_18320" data-name="Rectangle 18320" width="2.308" height="1.385" rx="0.488" transform="translate(231.574 157.484)" fill="#e6e6e6"/>
      <rect id="Rectangle_18321" data-name="Rectangle 18321" width="2.308" height="1.385" rx="0.488" transform="translate(236.19 157.484)" fill="#e6e6e6"/>
      <rect id="Rectangle_18322" data-name="Rectangle 18322" width="2.308" height="1.385" rx="0.488" transform="translate(240.806 157.484)" fill="#e6e6e6"/>
      <rect id="Rectangle_18323" data-name="Rectangle 18323" width="2.308" height="1.385" rx="0.488" transform="translate(245.421 157.484)" fill="#e6e6e6"/>
      <rect id="Rectangle_18324" data-name="Rectangle 18324" width="2.308" height="1.385" rx="0.488" transform="translate(250.037 157.484)" fill="#e6e6e6"/>
      <rect id="Rectangle_18325" data-name="Rectangle 18325" width="2.308" height="1.385" rx="0.488" transform="translate(254.653 157.484)" fill="#e6e6e6"/>
      <rect id="Rectangle_18326" data-name="Rectangle 18326" width="2.308" height="1.385" rx="0.488" transform="translate(259.269 157.484)" fill="#e6e6e6"/>
      <rect id="Rectangle_18327" data-name="Rectangle 18327" width="2.308" height="1.385" rx="0.488" transform="translate(263.885 157.484)" fill="#e6e6e6"/>
      <rect id="Rectangle_18328" data-name="Rectangle 18328" width="2.308" height="1.385" rx="0.488" transform="translate(268.5 157.484)" fill="#e6e6e6"/>
      <rect id="Rectangle_18329" data-name="Rectangle 18329" width="2.308" height="1.385" rx="0.488" transform="translate(199.209 159.793)" fill="#e6e6e6"/>
      <rect id="Rectangle_18330" data-name="Rectangle 18330" width="2.308" height="1.385" rx="0.488" transform="translate(203.824 159.793)" fill="#e6e6e6"/>
      <rect id="Rectangle_18331" data-name="Rectangle 18331" width="2.308" height="1.385" rx="0.488" transform="translate(208.44 159.793)" fill="#e6e6e6"/>
      <rect id="Rectangle_18332" data-name="Rectangle 18332" width="2.308" height="1.385" rx="0.488" transform="translate(213.056 159.793)" fill="#e6e6e6"/>
      <rect id="Rectangle_18333" data-name="Rectangle 18333" width="2.308" height="1.385" rx="0.488" transform="translate(217.672 159.793)" fill="#e6e6e6"/>
      <rect id="Rectangle_18334" data-name="Rectangle 18334" width="2.308" height="1.385" rx="0.488" transform="translate(222.288 159.793)" fill="#e6e6e6"/>
      <rect id="Rectangle_18335" data-name="Rectangle 18335" width="2.308" height="1.385" rx="0.488" transform="translate(226.904 159.793)" fill="#e6e6e6"/>
      <rect id="Rectangle_18336" data-name="Rectangle 18336" width="2.308" height="1.385" rx="0.488" transform="translate(231.519 159.793)" fill="#e6e6e6"/>
      <rect id="Rectangle_18337" data-name="Rectangle 18337" width="2.308" height="1.385" rx="0.488" transform="translate(236.135 159.793)" fill="#e6e6e6"/>
      <rect id="Rectangle_18338" data-name="Rectangle 18338" width="2.308" height="1.385" rx="0.488" transform="translate(240.751 159.793)" fill="#e6e6e6"/>
      <rect id="Rectangle_18339" data-name="Rectangle 18339" width="2.308" height="1.385" rx="0.488" transform="translate(245.367 159.793)" fill="#e6e6e6"/>
      <rect id="Rectangle_18340" data-name="Rectangle 18340" width="2.308" height="1.385" rx="0.488" transform="translate(249.983 159.793)" fill="#e6e6e6"/>
      <rect id="Rectangle_18341" data-name="Rectangle 18341" width="2.308" height="1.385" rx="0.488" transform="translate(254.599 159.793)" fill="#e6e6e6"/>
      <rect id="Rectangle_18342" data-name="Rectangle 18342" width="2.308" height="1.385" rx="0.488" transform="translate(259.214 159.793)" fill="#e6e6e6"/>
      <rect id="Rectangle_18343" data-name="Rectangle 18343" width="2.308" height="1.385" rx="0.488" transform="translate(263.83 159.793)" fill="#e6e6e6"/>
      <rect id="Rectangle_18344" data-name="Rectangle 18344" width="2.308" height="1.385" rx="0.488" transform="translate(268.446 159.793)" fill="#e6e6e6"/>
      <rect id="Rectangle_18345" data-name="Rectangle 18345" width="18.463" height="1.385" rx="0.488" transform="translate(221.364 162.562)" fill="#e6e6e6"/>
      <path id="Path_32720" data-name="Path 32720" d="M954.622,428H836.769a.469.469,0,1,1,0-.937H954.622a.469.469,0,1,1,0,.937Z" transform="translate(-663.917 -376.964)" fill="#cacaca"/>
      <ellipse id="Ellipse_1298" data-name="Ellipse 1298" cx="2.747" cy="2.808" rx="2.747" ry="2.808" transform="translate(178.128 42.089)" fill="#ccc"/>
      <ellipse id="Ellipse_1299" data-name="Ellipse 1299" cx="2.747" cy="2.808" rx="2.747" ry="2.808" transform="translate(187.616 42.089)" fill="#ccc"/>
      <ellipse id="Ellipse_1300" data-name="Ellipse 1300" cx="2.747" cy="2.808" rx="2.747" ry="2.808" transform="translate(197.104 42.089)" fill="#ccc"/>
      <path id="Path_32721" data-name="Path 32721" d="M970.6,418.243h-6.74a.51.51,0,1,0,0,1.021h6.74a.51.51,0,1,0,0-1.021Z" transform="translate(-685.605 -375.458)" fill="#ccc"/>
      <path id="Path_32722" data-name="Path 32722" d="M970.6,420.553h-6.74a.51.51,0,1,0,0,1.021h6.74a.51.51,0,1,0,0-1.021Z" transform="translate(-685.605 -375.852)" fill="#ccc"/>
      <path id="Path_32723" data-name="Path 32723" d="M970.6,422.86h-6.74a.51.51,0,1,0,0,1.021h6.74a.51.51,0,1,0,0-1.021Z" transform="translate(-685.605 -376.246)" fill="#ccc"/>
      <rect id="Rectangle_18346" data-name="Rectangle 18346" width="18.732" height="4.006" rx="2.003" transform="translate(224.565 76.569)" fill="#c99e41"/>
      <rect id="Rectangle_18347" data-name="Rectangle 18347" width="37.759" height="4.006" rx="2.003" transform="translate(215.052 84.579)" fill="#e6e6e6"/>
      <rect id="Rectangle_18348" data-name="Rectangle 18348" width="37.759" height="4.006" rx="2.003" transform="translate(215.052 92.591)" fill="#e6e6e6"/>
      <path id="Path_32724" data-name="Path 32724" d="M523.329,424.937l-6.789-3.247,9.325-28.376,10.02,4.792Z" transform="translate(-499.919 -207.54)" fill="#e8b886"/>
      <path id="Path_32725" data-name="Path 32725" d="M707.964,617.769c-.494.309-.987.613-1.486.918-.992.608-1.995,1.207-3,1.8-.5.294-1.012.589-1.516.878v.015l-.03,0-.01.005-.768.19-1.1-2.912-.509-1.341-.718-1.9-1.316-3.476-6.931-18.3,10.776-2.658.4,1.651h0l.2.818,3.765,15.269.768,3.122.025.095.464,1.865.4,1.616.444,1.805Z" transform="translate(-639.042 -404.947)" fill="#e8b886"/>
      <path id="Path_32726" data-name="Path 32726" d="M770.6,539.047c-.683,1.1-1.381,2.189-2.084,3.271q-1.96,3.022-4.024,5.954c0,.005-.005.005-.01.01a14.081,14.081,0,0,1-2.643,1.93c-.04.03-.085.05-.125.075a9.743,9.743,0,0,1-2.224.893l-.843.209c-1.007.239-2,.444-3,.623-1.765.314-3.511.539-5.246.678-.14.015-.279.025-.419.035a81.132,81.132,0,0,1-21.333-1.7c-3.58-.678-7.236-1.491-11.02-2.334-1.237-.279-2.478-.553-3.735-.828-.095-.02-.195-.045-.294-.065-1.8-.394-3.62-.783-5.49-1.167-2.354-.484-4.782-.952-7.305-1.4l.179,3.555a26.758,26.758,0,0,0,1.685,7.994c1.077,3.152,1.93,5.645.13,10.836l-.868,2.513a8.583,8.583,0,0,1-.883,7.595l-.174.264L708.11,596.3l.469,1.187h-3.705l-4.558.005h-7.724l-11.145-22.36-.534-1.067v-.055l1.152-42.97c.015-.379.045-.763.095-1.142a13.065,13.065,0,0,1,4.972-8.8,12.581,12.581,0,0,1,9.37-2.563l3.815.494,7.794,1.007,5.49.713.11.015L729.9,522.86l1.162-4.737.214-.08,6.817-2.5,23.577-8.642.06-.02,1.551-.568.184.3c.055.09.11.18.16.269a46.225,46.225,0,0,1,3.725,8.647,135.755,135.755,0,0,1,3.914,14.945q.068.329.12.6l.015.055c.015.085.025.14.03.155a13.947,13.947,0,0,1-.833,7.764Z" transform="translate(-637.391 -390.493)" fill="#777"/>
      <path id="Path_32727" data-name="Path 32727" d="M767.178,521.826c-.075-.319-.17-.643-.269-.957a68.221,68.221,0,0,0-2.763-6.991c-1.177-2.593-2.588-5.371-4.268-8.378q-1.219-2.184-2.623-4.543-.7-1.182-1.461-2.409a1.252,1.252,0,0,0-.065-.11l-.145-.239-23.327,3.122-8.687,1.162-.519,4.328-.125,1.072s0,0,0,0l-.349,2.922v.005l-.464,3.86-.04-.005L709.184,513l-13.284-1.72-7.136-.923a12.573,12.573,0,0,0-9.37,2.563,13.07,13.07,0,0,0-4.972,8.8c-.045.349-.075.708-.09,1.062L667.6,538.73a102.92,102.92,0,0,0-7.61,29.94l-4.937,15.783.7.065,10.462.972,2.763.259,6.084-8.881c.693-1.012,1.351-2.055,1.965-3.122a47.384,47.384,0,0,0,2.688-5.406l13.16-31.316q1.526.262,3.022.5,6.919,1.122,13.284,1.83c13.8,1.541,25.746,1.661,36.382.354q4.48-.546,8.662-1.436,1.534-.322,3.027-.693c.234-.055.464-.11.693-.169a12.725,12.725,0,0,0,8.9-8.318A12.985,12.985,0,0,0,767.178,521.826Z" transform="translate(-632.977 -389.107)" fill="#777"/>
      <path id="Path_32728" data-name="Path 32728" d="M654.01,622.373l-7.345-3.521-1.152-.553-1.84,4.518-12.846,2.827a3.048,3.048,0,0,0-.5,5.8l12.551,5.121,3.984-3.585-.977,4.812,4.727,1.93L655.8,623.23Z" transform="translate(-628.432 -409.609)" fill="#9d9d9d"/>
      <path id="Path_32729" data-name="Path 32729" d="M581.774,417.469l.469,1.187h-.469Z" transform="translate(-511.056 -211.663)" fill="#2f2e41"/>
      <path id="Path_32730" data-name="Path 32730" d="M707.606,616.424l-7.7,2.667-1.208.417,1.871,4.5-7.138,11.047a3.048,3.048,0,0,0,3.726,4.472l12.522-5.192.308-5.351,2.691,4.107,4.717-1.955-7.922-15.363Z" transform="translate(-639.446 -409.179)" fill="#9d9d9d"/>
      <path id="Path_32731" data-name="Path 32731" d="M654.166,415.947a5.466,5.466,0,0,0,8.175,1.853l16.184,10.744.031-10.094-15.373-8.655a5.5,5.5,0,0,0-9.016,6.153Z" transform="translate(-632.719 -373.694)" fill="#e8b886"/>
      <path id="Path_32732" data-name="Path 32732" d="M668.874,421.459l7.551-8.59,30.745,18.252,40.756-3.732a13.782,13.782,0,0,1,14.98,14.994h0a13.8,13.8,0,0,1-14.993,12.453l-45.9-4.249Z" transform="translate(-635.336 -374.54)" fill="#ccc"/>
      <path id="Path_32733" data-name="Path 32733" d="M774.953,423.339l-.071-.089h0a29.778,29.778,0,0,0-28.82,14.933l-3.459,6.093c-11.188,13.678-3.058,23.11-2.571,24.513l-3.883,17.906.87,5.992.435,1.78,44.329,23.163c2.524-12.126.083-22.459-9.111-30.353l8.9-27.68A38.993,38.993,0,0,0,774.953,423.339Z" transform="translate(-646.82 -376.288)" fill="#ccc"/>
      <path id="Path_32734" data-name="Path 32734" d="M736.714,580.077H722.495a3.248,3.248,0,0,1-3.214-2.792,72.29,72.29,0,0,1,0-19.471,3.248,3.248,0,0,1,3.159-2.792,17.79,17.79,0,0,1,14.323,0,3.211,3.211,0,0,1,2.443,1.178,3.285,3.285,0,0,1,.678,2.738,43.711,43.711,0,0,0,0,17.223,3.285,3.285,0,0,1-.678,2.738A3.21,3.21,0,0,1,736.714,580.077Z" transform="translate(-643.829 -398.55)" fill="#c99e41"/>
      <path id="Path_32735" data-name="Path 32735" d="M736.024,563.974H724.057a.748.748,0,1,1,0-1.5h11.968a.748.748,0,1,1,0,1.5Z" transform="translate(-644.628 -400.08)" fill="#fff"/>
      <path id="Path_32736" data-name="Path 32736" d="M736.024,571.19H724.057a.748.748,0,1,1,0-1.5h11.968a.748.748,0,1,1,0,1.5Z" transform="translate(-644.628 -401.311)" fill="#fff"/>
      <path id="Path_32737" data-name="Path 32737" d="M736.024,578.406H724.057a.748.748,0,1,1,0-1.5h11.968a.748.748,0,1,1,0,1.5Z" transform="translate(-644.628 -402.544)" fill="#fff"/>
      <path id="Path_32738" data-name="Path 32738" d="M653.714,418.077H639.495a3.248,3.248,0,0,1-3.214-2.792,72.3,72.3,0,0,1,0-19.471,3.249,3.249,0,0,1,3.159-2.792,17.79,17.79,0,0,1,14.323,0,3.211,3.211,0,0,1,2.443,1.178,3.285,3.285,0,0,1,.678,2.738,43.712,43.712,0,0,0,0,17.223,3.285,3.285,0,0,1-.678,2.738A3.21,3.21,0,0,1,653.714,418.077Z" transform="translate(-629.66 -370.896)" fill="#c99e41"/>
      <path id="Path_32739" data-name="Path 32739" d="M653.025,401.974H641.057a.748.748,0,0,1,0-1.5h11.968a.748.748,0,0,1,0,1.5Z" transform="translate(-630.46 -372.425)" fill="#fff"/>
      <path id="Path_32740" data-name="Path 32740" d="M653.025,409.19H641.057a.748.748,0,0,1,0-1.5h11.968a.748.748,0,0,1,0,1.5Z" transform="translate(-630.46 -373.657)" fill="#fff"/>
      <path id="Path_32741" data-name="Path 32741" d="M653.025,416.406H641.057a.748.748,0,0,1,0-1.5h11.968a.748.748,0,0,1,0,1.5Z" transform="translate(-630.46 -374.888)" fill="#fff"/>
      <path id="Path_32746" data-name="Path 32746" d="M743.748,558.467a5.467,5.467,0,0,0,1.365-8.27l9.765-16.793-10.079.568-7.728,15.86a5.5,5.5,0,0,0,6.677,8.635Z" transform="translate(-646.697 -395.116)" fill="#e8b886"/>
      <path id="Path_32747" data-name="Path 32747" d="M748.356,529.159l-9.023-7.028,16.4-31.774-6.144-40.463a13.782,13.782,0,0,1,14.079-15.843h0a13.8,13.8,0,0,1,13.32,14.228l-1.518,46.073Z" transform="translate(-647.364 -378.156)" fill="#ccc"/>
      <circle id="Ellipse_1302" data-name="Ellipse 1302" cx="17.296" cy="17.296" r="17.296" transform="translate(100.616 7.104)" fill="#e8b886"/>
      <path id="Path_32760" data-name="Path 32760" d="M821.9,416.5a15,15,0,0,1-8.245,5.805,17.246,17.246,0,0,1-4.1.7,15.519,15.519,0,0,0-1.22-4.56,12.816,12.816,0,0,1-.633,4.55,15.25,15.25,0,0,1-6-1.608,13.223,13.223,0,0,1-7.075-9.49c-.733-4.731,1.412-9.376,2.188-14.1s-.683-10.707-5.307-11.948c-3.521-.946-3.127-.537-6.054,1.636,3.045,4.5-8.2,21-12.805,19.564-2.6-.813-4.268-3.2-4.806-3.2-3.617,6.232,3.194,16.733-3.671,18.913l.566-.566c4.144-5.1-4.517-15.886-.373-20.983,1.156-1.426,2.387-3.116,2.045-4.919-.324-1.715-3.045-2.622-3.842-1.213a6.475,6.475,0,0,0-4.187-8.508c-3.112-.751-3.056.174-6.179.576a15.5,15.5,0,0,0-1.135-3.916,12.709,12.709,0,0,1-.466,3.991,5.011,5.011,0,0,1-3.031-1.1c-2.547-2.052-2.031-6.364.242-8.715s5.659-3.2,8.886-3.746c.938-6.531,18.958-7.212,21.346-.687,1.017-4.873,7.118-7.4,11.859-5.891s8.032,5.94,9.764,10.607,2.216,9.682,3.283,14.541,2.871,9.807,6.584,13.118,9.764,4.4,13.677,1.33A10.953,10.953,0,0,1,821.9,416.5Z" transform="translate(-648.48 -366.651)"/>
      <path id="Path_32761" data-name="Path 32761" d="M1026.516,473.138l-2.422,12.149c-.182.929-.373,1.874-.581,2.811a11.848,11.848,0,0,0-6.087.34,56.845,56.845,0,0,1,4.18,6.991c-1.526,4.7-3.765,9.048-7.513,12.191a18.841,18.841,0,0,1-18.2,3.2l.108-.481c-4.03-7.82-1.841-17.681,3.168-24.9a48.421,48.421,0,0,1,9-9.512c3.383-2.82,7.041-5.349,10.665-7.845a4.968,4.968,0,0,1,7.688,5.059Z" transform="translate(-690.821 -383.816)" fill="#e4e4e4"/>
      <path id="a4b268fa-75d0-4ac1-9d87-14bdca948464-2189" d="M997.012,545.121c-1.019-7.425-2.068-14.944-1.353-22.448.635-6.664,2.668-13.173,6.808-18.511a30.8,30.8,0,0,1,7.9-7.159c.79-.5,1.517.754.73,1.25a29.274,29.274,0,0,0-11.579,13.971c-2.521,6.412-2.926,13.4-2.488,20.213.263,4.119.819,8.21,1.381,12.3a.746.746,0,0,1-.506.891.728.728,0,0,1-.891-.506Z" transform="translate(-691.081 -388.883)" fill="#f2f2f2"/>
    </g>
    <path id="Path_32763" data-name="Path 32763" d="M224.4,381.075c-1.9.912-4.027-.46-5.667-1.819l.587.507c-2.9,2.821-4.255,6.879-4.917,10.874s-.737,8.072-1.572,12.034-2.568,7.935-5.805,10.359c-4.336,3.247-10.317,3.039-15.639,2.043l-.208-.04a32.489,32.489,0,0,0,1.711-12.88,29.54,29.54,0,0,1-7.092,11.624,67.815,67.815,0,0,1-10.3-3.752c-2.152-.99-4.469-2.345-5.066-4.638-.6-2.276.792-4.663,2.651-6.1s4.141-2.187,6.259-3.211,4.207-2.472,5.054-4.665c1.953-5.045-3.61-10.835-1.442-15.795,1.069-2.439,3.688-3.765,6.149-4.788a90.251,90.251,0,0,1,11.548-3.9c3.452-.911,7.057-1.618,10.574-1.021s6.963,2.736,8.229,6.076c2.112.714,4.354,1.518,5.71,3.3S226.408,380.111,224.4,381.075Z" transform="translate(-138.659 -226.089)"/>
    <path id="Path_32764" data-name="Path 32764" d="M251.274,376.562c-5.436-4.291-9.83-3.559-13.221-.893-.57-.634-3,1.11-3.817.86l-2.97,5.576c-1.529,2.7-2.156,5.451-1.909,7-2.812,7.885,3.856,13.209,11.741,16.021a15.045,15.045,0,0,0,9.757.141l.1-1.344.6,1.1s7.208,14.842,8.912,15.509c-1.034-2.681-3.759-15.424-4.52-18.08-1.043-3.614-.331-9.355.283-12.876a19.949,19.949,0,0,0,.059-6.566l-.015-.1,1.686,3.4,3.784-2.379C260.291,379.731,260.262,374.692,251.274,376.562Z" transform="translate(-148.63 -227.423)"/>
  </g>
</svg>
