<svg xmlns="http://www.w3.org/2000/svg" xmlns:xlink="http://www.w3.org/1999/xlink" width="599.867" height="442.376" viewBox="0 0 599.867 442.376">
  <defs>
    <linearGradient id="linear-gradient" y1="1" x2="1" y2="0.243" gradientUnits="objectBoundingBox">
      <stop offset="0" stop-color="#f02828"/>
      <stop offset="1" stop-color="#11aa30"/>
    </linearGradient>
  </defs>
  <g id="Group_34757" data-name="Group 34757" transform="translate(-38.01 -163.705)">
    <g id="Group_34758" data-name="Group 34758" transform="translate(144.504 163.705)">
      <path id="Path_32838" data-name="Path 32838" d="M1010.987,348.631c-12.4,5.637-23.5,14.744-33.2,27.27-11.21,14.486-23.219,24.69-35.487,31.6-.58.322-1.148.632-1.729.942a94.849,94.849,0,0,1-35.487,10.874,107.7,107.7,0,0,1-11.3.542c-1.574-.013-3.148-.052-4.709-.129-3.7-.181-7.366-.542-10.965-1.058-20.665-2.941-39.357-10.887-53.2-18.356a193.611,193.611,0,0,0-60.9-21.31q-5.727-.948-11.429-1.483c-1.574-.155-3.135-.271-4.7-.374q-5.747-.387-11.481-.361c-1.961.013-3.909.052-5.869.129C697.59,378.21,654.622,387.6,616.091,420.4c-.516.439-1.019.877-1.535,1.316-.477.413-.955.838-1.432,1.264a192.387,192.387,0,0,0-17.208,17.376,218.184,218.184,0,0,0-17.028,22.252,141.955,141.955,0,0,1-21.465,24.9,119.55,119.55,0,0,0-38.467,86.582v.645c-.013.7-.013,1.406-.013,2.1H944.8c.516-.7,1.032-1.393,1.535-2.1,1.29-1.767,2.567-3.56,3.818-5.353q3.773-5.379,7.314-10.9,3.58-5.534,6.914-11.21c.555-.942,1.109-1.9,1.664-2.851,1.1-1.9,2.18-3.818,3.251-5.74s2.116-3.87,3.135-5.818,2.042-3.9,3.031-5.869c.5-.993.993-1.987,1.471-2.967s.942-1.935,1.419-2.915c.284-.593.555-1.174.839-1.767.426-.89.838-1.793,1.251-2.7q2.825-6.095,5.392-12.319c.439-1.032.864-2.077,1.277-3.122q1.258-3.115,2.464-6.282c.4-1.045.787-2.1,1.187-3.16s.774-2.116,1.148-3.186.761-2.128,1.122-3.186.735-2.141,1.1-3.212.709-2.141,1.058-3.225.7-2.154,1.032-3.238c.3-.942.594-1.9.89-2.851q1.568-5.166,2.98-10.4.852-3.212,1.664-6.45,2.051-8.282,3.715-16.731c.219-1.135.439-2.27.645-3.418s.413-2.27.606-3.406.4-2.27.581-3.405.374-2.283.542-3.431c.142-.877.271-1.767.4-2.644.039-.271.077-.529.116-.787.09-.606.168-1.2.245-1.793.077-.555.155-1.109.232-1.651.155-1.161.3-2.309.439-3.47.219-1.716.413-3.457.593-5.2h.013c.052-.581.116-1.161.181-1.741.026-.271.052-.555.077-.838q.89-8.785,1.316-17.711.058-1.335.116-2.709c.026-.477.039-.942.052-1.419.064-1.664.116-3.328.142-4.992q.1-3.812.09-7.65Q1011.851,360.718,1010.987,348.631Z" transform="translate(-518.479 -348.631)" opacity="0.3" fill="url(#linear-gradient)"/>
      <rect id="Rectangle_18353" data-name="Rectangle 18353" width="4.706" height="137.947" transform="translate(88.501 86.512)" fill="#fff"/>
      <rect id="Rectangle_18354" data-name="Rectangle 18354" width="4.706" height="202.374" transform="translate(229.402 22.085)" fill="#fff"/>
      <rect id="Rectangle_18355" data-name="Rectangle 18355" width="4.706" height="160.017" transform="translate(370.593 64.443)" fill="#fff"/>
      <circle id="Ellipse_1311" data-name="Ellipse 1311" cx="14.398" cy="14.398" r="14.398" transform="translate(217.648 10.931)" fill="#fff"/>
      <circle id="Ellipse_1312" data-name="Ellipse 1312" cx="14.398" cy="14.398" r="14.398" transform="translate(358.839 50.936)" fill="#fff"/>
      <circle id="Ellipse_1313" data-name="Ellipse 1313" cx="14.398" cy="14.398" r="14.398" transform="translate(73.877 60.506)" fill="#fff"/>
      <path id="Path_32839" data-name="Path 32839" d="M946.439,523.911c-.516.709-1.032,1.406-1.548,2.1-.632.877-1.29,1.742-1.948,2.606H518.583v-4.708Z" transform="translate(-518.583 -297.806)" fill="#fff"/>
      <path id="Path_32850" data-name="Path 32850" d="M606.553,404.271v2.58h15.634v-2.58Zm31.269,0v2.58h15.622v-2.58Zm31.256,0v2.58h15.634v-2.58Zm31.256,0v2.58h15.634v-2.58Zm31.269,0v2.58h15.622v-2.58Zm31.256,0v2.58h15.634v-2.58Zm31.256,0v2.58h15.634v-2.58Zm31.269,0v2.58H841v-2.58Zm31.256,0v2.58h15.634v-2.58Zm31.256,0v2.58h15.634v-2.58Zm31.256,0v2.58h15.634v-2.58Zm31.269,0v2.58H966.04v-2.58Zm31.256,0v2.58h1.161c.039-.271.077-.529.116-.787.09-.593.168-1.187.258-1.793Z" transform="translate(-493.075 -332.497)" fill="#fff"/>
      <path id="Path_32851" data-name="Path 32851" d="M710.553,364.271v2.58h15.634v-2.58Zm31.269,0v2.58h15.621v-2.58Zm31.256,0v2.58h15.634v-2.58Zm31.256,0v2.58h15.634v-2.58Zm31.269,0v2.58h15.622v-2.58Zm31.256,0v2.58h15.634v-2.58Zm31.256,0v2.58h15.634v-2.58Zm31.269,0v2.58H945v-2.58Z" transform="translate(-462.919 -344.096)" fill="#fff"/>
      <path id="Path_32852" data-name="Path 32852" d="M821.553,394.271v2.58h15.635v-2.58Zm31.269,0v2.58h15.621v-2.58Zm31.256,0v2.58h15.634v-2.58Zm31.256,0v2.58h6.8c.051-.581.116-1.161.181-1.741.026-.271.052-.555.077-.838Z" transform="translate(-430.733 -335.397)" fill="#fff"/>
    </g>
    <g id="Group_34759" data-name="Group 34759" transform="translate(38.01 209.539)">
      <path id="Path_32840" data-name="Path 32840" d="M127.115,681.9h9.734l4.631-37.548H127.113Z" transform="translate(-78.711 -294.789)" fill="#e8b886"/>
      <path id="Path_32841" data-name="Path 32841" d="M451.172,786.419a12.1,12.1,0,0,0-3.96-2.661,12.348,12.348,0,0,0-4.678-.921l-5.737-4.346-.3.12-10.387,4.227h-2.744v12.615h31.391v-.4A12.119,12.119,0,0,0,451.172,786.419Z" transform="translate(-377.444 -398.91)" fill="#6a6a6a"/>
      <path id="Path_32842" data-name="Path 32842" d="M176.228,681.9h9.734l4.631-37.548H176.226Z" transform="translate(-82.599 -294.789)" fill="#e8b886"/>
      <path id="Path_32843" data-name="Path 32843" d="M500.292,786.419a12.042,12.042,0,0,0-3.969-2.661,12.28,12.28,0,0,0-4.678-.921l-5.728-4.346-.313.129-10.387,4.217h-2.744l.009,12.615h31.382v-.4a12.149,12.149,0,0,0-3.573-8.637Z" transform="translate(-381.332 -398.91)" fill="#6a6a6a"/>
      <path id="Path_32844" data-name="Path 32844" d="M477.048,563.522l-76.482,2,1.33,37.244s-1.33,9.976,1.33,12.636,3.99,2.66,2.66,7.316,5.7,12.259,4.844,13.113-2.849,5.509-2.849,5.509l6.651,37.909s4.655,65.841,5.986,67.172,2.66,0,1.33,3.325-2.66,2-1.33,3.325a48.974,48.974,0,0,1,3.325,3.99h16.079s1.212-6.651,1.212-7.316,1.33-4.655,1.33-5.321-1.176-1.841-1.176-1.841a21.878,21.878,0,0,1-.82-4.145c0-1.33-3.99-52.54-3.99-52.54l7.981-66.506,19.287,65.176s0,57.2,1.33,58.526,1.33.665.665,3.325-3.325,2-1.33,3.99,2.66-1.33,2,2l-.665,3.325,19.952.285s2.66-5.606,1.33-7.6-1.25-1.451.372-4.716,2.288-3.93,1.623-4.6-.665-4.2-.665-4.2l-3.325-63.634s-.665-67.172-.665-69.167a6.634,6.634,0,0,1,.553-2.992V596.4l-2.548-9.6Z" transform="translate(-375.639 -381.891)" fill="#ccc"/>
      <path id="Path_32845" data-name="Path 32845" d="M573.693,405.134A7.427,7.427,0,0,1,563,409.059l-33.2,27.814-1.8-13.6,32.472-24.858a7.467,7.467,0,0,1,13.222,6.715Z" transform="translate(-385.728 -368.555)" fill="#e8b886"/>
      <circle id="Ellipse_1314" data-name="Ellipse 1314" cx="20.617" cy="20.617" r="20.617" transform="translate(20.956 6.824)" fill="#e8b886"/>
      <path id="Path_32846" data-name="Path 32846" d="M433.289,373.2c-1.919-4.575-10.145-7.291-23.161-6.882s-15.3,15.931-15.3,15.931c-7.169,6.682,4.405,27.546,6.414,24.669s5.38-.158,5.38-.158l-3.213-18.073c3.393,1.305,7.042,2.182,10.234.661l-5.288-2.828,13.148,1.636-5.422-4.171.394-.133a19.268,19.268,0,0,0,6.869,1.56c2.764-.021,5.7-1.316,6.86-3.826a5.654,5.654,0,0,0,.491-2.188c3.811,1.237,5.813,5.7,5.813,5.7a70.349,70.349,0,0,0-3.222-11.9Z" transform="translate(-375.001 -366.274)" fill="#605950"/>
      <path id="Path_32847" data-name="Path 32847" d="M432.269,419.061c-4.6,0-7.569.635-14.733,1.842-13.223,2.228-5.3,14.793-5.3,14.793s.6-.3-1.022,0-7.146,5.083-7.146,5.083l-9.88,8.775c-14.89,11.685-11.556,29.918-11.556,29.918l21.713,21.851-9.512,43.84s4.042,6.51,1.952,9.429,18.416,2.081,18.416,2.081c14.153,6.308,64.016.976,64.016.976-.691-1.8-7.367-15.792-7.367-15.792,2.9-5.009.138-12.247.138-12.247s-2.882-34.236-4.724-38.969,4.715-30.378,9.024-30.1,32.146-13.923,32.146-13.923-.7-1.114,8.49-4.871a45.039,45.039,0,0,0,14.264-9l3.775-7.542c-1.814.7-7.937-10.847-7.937-10.847l-2.67,1.018-1.547-.447s-12.072,3.435-14.54,5.939-3.3,1.8-5.525,2.367-2.5,2.127-3.2,1.952-1.943,1.943-2.919,1.667-3.066.838-4.457,1.114-11.271,4.457-11.271,4.457c-6.114-3.094-22.689-1.842-22.689-1.842s-5.424-3.2-6.961,0a5.239,5.239,0,0,1-4.724,3.066l-6.612-2.827C439.519,432.227,432.307,417.607,432.269,419.061Z" transform="translate(-374.194 -370.081)" fill="#c99e41"/>
      <path id="Path_32853" data-name="Path 32853" d="M452.053,597.361v-59.31a4.533,4.533,0,0,1,4.528-4.528h44.792a4.533,4.533,0,0,1,4.528,4.528v59.31a4.533,4.533,0,0,1-4.528,4.528H456.581A4.533,4.533,0,0,1,452.053,597.361Z" transform="translate(-379.715 -379.516)" fill="#e6e6e6"/>
      <path id="Path_32854" data-name="Path 32854" d="M455.785,579.752v-38.13a4.245,4.245,0,0,1,4.24-4.24h38.5a4.245,4.245,0,0,1,4.241,4.24V594.4a4.245,4.245,0,0,1-4.241,4.24H474.673a18.91,18.91,0,0,1-18.889-18.888Z" transform="translate(-380.011 -379.821)" fill="#fff"/>
      <path id="Path_32855" data-name="Path 32855" d="M462.553,553.184a4.148,4.148,0,0,1,4.144-4.144h26.7a4.144,4.144,0,1,1,0,8.287H466.7A4.148,4.148,0,0,1,462.553,553.184Z" transform="translate(-380.547 -380.744)" fill="#e6e6e6"/>
      <path id="Path_32856" data-name="Path 32856" d="M462.553,567.185a4.148,4.148,0,0,1,4.144-4.144h26.7a4.144,4.144,0,1,1,0,8.287H466.7A4.148,4.148,0,0,1,462.553,567.185Z" transform="translate(-380.547 -381.853)" fill="#e6e6e6"/>
      <path id="Path_32857" data-name="Path 32857" d="M462.553,581.184a4.148,4.148,0,0,1,4.144-4.144h26.7a4.144,4.144,0,0,1,0,8.288H466.7A4.148,4.148,0,0,1,462.553,581.184Z" transform="translate(-380.547 -382.961)" fill="#e6e6e6"/>
      <path id="Path_32858" data-name="Path 32858" d="M449.318,577.343a6.89,6.89,0,0,1-6.932-7.974L404.144,548.43l11.192-6.053,35.438,21.284a6.928,6.928,0,0,1-1.457,13.682Z" transform="translate(-375.922 -380.216)" fill="#e8b886"/>
      <path id="Path_32859" data-name="Path 32859" d="M424.655,555.845l-13.561-2.409-4.856-4.037-3.266-1.663-11.255-7.9-.034-.1L373.8,486.873a17.315,17.315,0,0,1,12.813-20.016h0a17.3,17.3,0,0,1,21.334,14.6l5.755,45.307,9.54,9.852,4.174.808.961,4.495,3.643,5.634Z" transform="translate(-373.496 -374.197)" fill="#c99e41"/>
    </g>
  </g>
</svg>
