<svg xmlns="http://www.w3.org/2000/svg" width="300" height="232" viewBox="0 0 300 232">
  <g id="Group_34743" data-name="Group 34743" transform="translate(-125.202 -2794.691)">
    <rect id="Rectangle_18312" data-name="Rectangle 18312" width="300" height="232" transform="translate(125.202 2794.691)" fill="none"/>
    <g id="Group_34734" data-name="Group 34734" transform="translate(120 2827.943)">
      <g id="Group_34740" data-name="Group 34740" transform="translate(6.036 12.761)">
        <ellipse id="Ellipse_1250" data-name="Ellipse 1250" cx="39.969" cy="3.049" rx="39.969" ry="3.049" transform="translate(0 177.583)" fill="#e6e6e6"/>
        <path id="Path_32515" data-name="Path 32515" d="M313.338,285.186l-15.946-4.349q6.387-6.027,5.557-11.355h10.389Z" transform="translate(-260.423 -238.272)" fill="#9f616a"/>
        <path id="Path_32516" data-name="Path 32516" d="M109.327,357.233l-5.151.725-6.2-57.018-9.906,56.776-5.315.242v-72h32.858Z" transform="translate(-54.721 -188.069)" fill="#2f2e41"/>
        <path id="Path_32517" data-name="Path 32517" d="M272.028,684.408h0a3.623,3.623,0,0,0,3.593-2.647l.376-5.614-.758-3.982a4.38,4.38,0,0,0-6.067,0l-.652,8.34a3.623,3.623,0,0,0,3.508,3.9Z" transform="translate(-241.323 -503.749)" fill="#2f2e41"/>
        <path id="Path_32518" data-name="Path 32518" d="M334.8,684.408h0a3.623,3.623,0,0,0,3.593-2.647l.376-5.614-.758-3.982a4.38,4.38,0,0,0-6.067,0l-.652,8.34a3.623,3.623,0,0,0,3.508,3.9Z" transform="translate(-282.83 -503.749)" fill="#2f2e41"/>
        <circle id="Ellipse_1251" data-name="Ellipse 1251" cx="9.181" cy="9.181" r="9.181" transform="translate(41.559 20.338)" fill="#9f616a"/>
        <path id="Path_32519" data-name="Path 32519" d="M303.893,353.409H268.861c4.541-21.043,4.528-37.991.911-51.7A3.663,3.663,0,0,1,272,297.358l9.425-3.625c2.83,3.654,6.822,5.25,13.046,2.9l4.939,1.013a5.075,5.075,0,0,1,4.05,5.306c-.363,5.36-.22,10.762-.533,15.425C301.959,332.816,301.54,344.072,303.893,353.409Z" transform="translate(-241.556 -254.309)" fill="#e6e6e6"/>
        <path id="Path_32520" data-name="Path 32520" d="M312.29,223.442s5.315-6.04,11.6-.242l1.691.483-1.208.966s6.282,2.9,5.8,8.939a2.77,2.77,0,0,0-1.45,0c-.483.242-.725,2.9-.725,2.9a15.257,15.257,0,0,0-.966-2.174c-.242-.242-3.624,2.658-9.181-1.691,0,0-1.691,4.349-3.624,3.866a4.562,4.562,0,0,0-5.8,2.9S301.9,225.375,312.29,223.442Z" transform="translate(-266.382 -206.003)" fill="#2f2e41"/>
        <path id="Path_32521" data-name="Path 32521" d="M369.645,387.242l-3.1,4.157a4.074,4.074,0,0,0,.879,5.738h0a4.074,4.074,0,0,0,6.409-2.658l.887-5.545,1.691-23.919-1.208-12.08-7.731,2.9,2.174,10.389Z" transform="translate(-305.617 -293.458)" fill="#9f616a"/>
        <path id="Path_32522" data-name="Path 32522" d="M362.346,327.131l9.422-4.349-.483-3.423a14.053,14.053,0,0,0-8.972-13.1l-2.866-1.111Z" transform="translate(-301.458 -261.855)" fill="#e6e6e6"/>
        <path id="Path_32523" data-name="Path 32523" d="M253.515,384.389l3.1,4.157a4.074,4.074,0,0,1-.879,5.738h0a4.074,4.074,0,0,1-6.409-2.658l-.887-5.545-1.691-23.918,1.208-12.08,7.731,2.9-2.174,10.389Z" transform="translate(-226.935 -291.57)" fill="#9f616a"/>
        <path id="Path_32524" data-name="Path 32524" d="M257.6,324.278l-9.422-4.349.483-3.423a14.053,14.053,0,0,1,8.972-13.1l2.866-1.111Z" transform="translate(-227.878 -259.969)" fill="#e6e6e6"/>
      </g>
      <g id="Group_34739" data-name="Group 34739" transform="translate(-18 -30.943)">
        <path id="Path_32525" data-name="Path 32525" d="M718.914,509.1H523.824a3.077,3.077,0,0,1-3.074-3.074V421.19a3.077,3.077,0,0,1,3.074-3.074H718.914a3.077,3.077,0,0,1,3.074,3.074v84.84A3.077,3.077,0,0,1,718.914,509.1ZM523.824,419.346a1.846,1.846,0,0,0-1.844,1.844v84.84a1.846,1.846,0,0,0,1.844,1.844H718.914a1.846,1.846,0,0,0,1.844-1.844V421.19a1.846,1.846,0,0,0-1.844-1.844Z" transform="translate(-399.621 -320.681)" fill="#e6e6e6"/>
        <path id="Path_32526" data-name="Path 32526" d="M545.094,443.616a1.844,1.844,0,1,0,0,3.689h25.821a1.844,1.844,0,1,0,0-3.689Z" transform="translate(-412.899 -335.73)" fill="#e6e6e6"/>
        <path id="Path_32527" data-name="Path 32527" d="M728.328,473.852v34.2H554.21V490.046c1.206-.774,2.419-1.545,3.643-2.29,5.227-3.2,10.822-6.191,16.92-7.3a25.542,25.542,0,0,1,8.735-.109,49.852,49.852,0,0,1,8.888,2.617,60.7,60.7,0,0,0,8.717,2.734,25.523,25.523,0,0,0,8.841.174c5.6-.84,10.859-3.09,16.1-5.125,5.271-2.047,10.7-3.98,16.406-4.235,5.632-.254,11.194,1.076,16.538,2.726,10.9,3.362,22.02,8.35,33.556,4.929,11.715-3.468,22.49-13.479,35.472-10.509A.489.489,0,0,1,728.328,473.852Z" transform="translate(-419.367 -353.138)" fill="#e6e6e6"/>
        <path id="Path_32528" data-name="Path 32528" d="M728.148,474.448a.526.526,0,0,1-.6.262,19.416,19.416,0,0,0-4.718-.487c-12.77.225-22.588,10.505-35.075,12.043-11.258,1.385-21.854-4.089-32.439-6.95-5.5-1.487-11.171-2.276-16.83-1.265-5.616,1-10.887,3.3-16.18,5.336-5.1,1.963-10.393,3.788-15.911,3.879-6.067.1-11.53-2.4-17.157-4.3a30.551,30.551,0,0,0-9.03-1.854,27.315,27.315,0,0,0-8.9,1.378c-5.98,1.9-11.367,5.289-16.612,8.655a.466.466,0,0,1-.309.084.563.563,0,0,1-.24-1.025l.24-.153c1.2-.774,2.414-1.545,3.635-2.29,5.216-3.2,10.8-6.191,16.885-7.3a25.438,25.438,0,0,1,8.717-.109,49.675,49.675,0,0,1,8.87,2.617,60.473,60.473,0,0,0,8.7,2.734,25.415,25.415,0,0,0,8.822.174c5.587-.84,10.836-3.09,16.063-5.125,5.26-2.047,10.68-3.98,16.372-4.235,5.62-.254,11.17,1.076,16.5,2.726,10.872,3.362,21.974,8.35,33.486,4.929,11.69-3.468,22.443-13.479,35.4-10.509a.489.489,0,0,1,.305.193A.56.56,0,0,1,728.148,474.448Z" transform="translate(-419.187 -353.138)" fill="#c99e41"/>
        <circle id="Ellipse_1252" data-name="Ellipse 1252" cx="2.545" cy="2.545" r="2.545" transform="translate(156.289 125.108)" fill="#c99e41"/>
        <circle id="Ellipse_1253" data-name="Ellipse 1253" cx="2.545" cy="2.545" r="2.545" transform="translate(220.63 121.836)" fill="#c99e41"/>
        <circle id="Ellipse_1254" data-name="Ellipse 1254" cx="2.545" cy="2.545" r="2.545" transform="translate(299.147 118.564)" fill="#c99e41"/>
        <path id="Path_32529" data-name="Path 32529" d="M606.594,593.616a1.844,1.844,0,0,0,0,3.689h25.821a1.844,1.844,0,0,0,0-3.689Z" transform="translate(-449.193 -424.251)" fill="#e6e6e6"/>
        <circle id="Ellipse_1255" data-name="Ellipse 1255" cx="6.968" cy="6.968" r="6.968" transform="translate(133.835 164.036)" fill="#c99e41"/>
        <path id="Path_32530" data-name="Path 32530" d="M758.594,593.616a1.844,1.844,0,0,0,0,3.689h25.821a1.844,1.844,0,1,0,0-3.689Z" transform="translate(-538.895 -424.251)" fill="#e6e6e6"/>
        <circle id="Ellipse_1256" data-name="Ellipse 1256" cx="6.968" cy="6.968" r="6.968" transform="translate(196.133 164.036)" fill="#c99e41"/>
        <path id="Path_32531" data-name="Path 32531" d="M910.594,593.616a1.844,1.844,0,0,0,0,3.689h25.821a1.844,1.844,0,1,0,0-3.689Z" transform="translate(-628.597 -424.251)" fill="#e6e6e6"/>
        <circle id="Ellipse_1257" data-name="Ellipse 1257" cx="6.968" cy="6.968" r="6.968" transform="translate(258.43 164.036)" fill="#c99e41"/>
        <path id="Path_78" data-name="Path 78" d="M828.186,325.14H731.937c-1.876,0-3.4-1.083-3.4-2.418V301.8c0-1.335,1.523-2.418,3.4-2.418h96.249c1.876,0,3.4,1.083,3.4,2.418v20.919C831.583,324.056,830.063,325.138,828.186,325.14Zm-96.249-24.79c-1.126,0-2.038.65-2.039,1.451V322.72c0,.8.914,1.45,2.039,1.451h96.249c1.126,0,2.038-.65,2.039-1.451V301.8c0-.8-.914-1.45-2.039-1.451Z" transform="translate(-522.246 -250.611)" fill="#e6e6e6"/>
        <path id="Path_32532" data-name="Path 32532" d="M786.978,328.391a2.052,2.052,0,0,0-2.049,2.049v14.345a2.051,2.051,0,0,0,2.049,2.049h73.364a2.052,2.052,0,0,0,2.049-2.049V330.44a2.052,2.052,0,0,0-2.049-2.049Z" transform="translate(-555.525 -267.729)" fill="#c99e41"/>
        <circle id="Ellipse_1258" data-name="Ellipse 1258" cx="4.508" cy="4.508" r="4.508" transform="translate(237.191 65.579)" fill="#fff"/>
        <path id="Path_32533" data-name="Path 32533" d="M862.405,346.616a1.844,1.844,0,1,0,0,3.689h25.821a1.844,1.844,0,1,0,0-3.689Z" transform="translate(-600.159 -278.485)" fill="#fff"/>
        <path id="Path_78-2" data-name="Path 78" d="M652.186,206.14H555.937c-1.876,0-3.4-1.083-3.4-2.418V182.8c0-1.335,1.523-2.418,3.4-2.418h96.249c1.876,0,3.4,1.083,3.4,2.418v20.919C655.583,205.056,654.063,206.138,652.186,206.14Zm-96.249-24.79c-1.126,0-2.038.65-2.039,1.451V203.72c0,.8.914,1.45,2.039,1.451h96.249c1.126,0,2.038-.65,2.039-1.451V182.8c0-.8-.914-1.45-2.039-1.451Z" transform="translate(-418.38 -180.384)" fill="#e6e6e6"/>
        <path id="Path_32534" data-name="Path 32534" d="M610.978,209.391a2.052,2.052,0,0,0-2.049,2.049v14.345a2.052,2.052,0,0,0,2.049,2.049h73.364a2.052,2.052,0,0,0,2.049-2.049V211.44a2.052,2.052,0,0,0-2.049-2.049Z" transform="translate(-451.659 -197.502)" fill="#c99e41"/>
        <circle id="Ellipse_1259" data-name="Ellipse 1259" cx="4.508" cy="4.508" r="4.508" transform="translate(165.057 16.807)" fill="#fff"/>
        <path id="Path_32535" data-name="Path 32535" d="M686.405,227.616a1.844,1.844,0,1,0,0,3.689h25.821a1.844,1.844,0,1,0,0-3.689Z" transform="translate(-496.293 -208.257)" fill="#fff"/>
      </g>
    </g>
  </g>
</svg>
