<svg xmlns="http://www.w3.org/2000/svg" width="491.685" height="387.83" viewBox="0 0 491.685 387.83">
  <g id="Group_34753" data-name="Group 34753" transform="translate(-72.439)">
    <path id="Path_32766" data-name="Path 32766" d="M893.935,610.646c12.234-11.025,30.431-16.568,45.7-10.386a75.876,75.876,0,0,0-34.1,39.385c-2.43,6.465-4.46,13.909-10.437,17.37-3.719,2.154-8.346,2.259-12.516,1.219s-7.992-3.124-11.762-5.188l-1.073-.024C874.561,637.275,881.7,621.671,893.935,610.646Z" transform="translate(-415.103 -306.722)" fill="#e6e6e6"/>
    <path id="Path_32767" data-name="Path 32767" d="M939.634,601.732a64.855,64.855,0,0,0-36.081,17.04,27.932,27.932,0,0,0-5.484,6.819,16.017,16.017,0,0,0-1.852,8.225c.066,2.667.442,5.387-.141,8.024a9.808,9.808,0,0,1-4.879,6.367c-2.987,1.717-6.413,2.258-9.782,2.671-3.74.458-7.633.875-10.87,2.973-.392.254-.764-.369-.372-.623,5.633-3.65,12.761-2.322,18.818-4.758,2.826-1.137,5.327-3.132,6.213-6.149.774-2.638.388-5.444.3-8.143a17.091,17.091,0,0,1,1.511-8.109,25.818,25.818,0,0,1,5.2-7,62.918,62.918,0,0,1,15.99-11.447,66.008,66.008,0,0,1,21.423-6.61c.462-.06.466.667.007.726Z" transform="translate(-415.193 -307.858)" fill="#fff"/>
    <path id="Path_32768" data-name="Path 32768" d="M924.715,616.578a9.73,9.73,0,0,1,1.073-12.554c.333-.328.858.174.524.5a9.01,9.01,0,0,0-.974,11.68c.273.379-.352.749-.623.372Z" transform="translate(-433.331 -308.858)" fill="#fff"/>
    <path id="Path_32769" data-name="Path 32769" d="M909.339,647.453a18.755,18.755,0,0,0,13.4-2.683c.393-.253.765.371.372.623a19.507,19.507,0,0,1-13.951,2.764C908.7,648.074,908.88,647.371,909.339,647.453Z" transform="translate(-428.525 -322.844)" fill="#fff"/>
    <path id="Path_32770" data-name="Path 32770" d="M953.306,607.249a5.508,5.508,0,0,0,4.119,3.216c.461.077.281.78-.178.7a6.172,6.172,0,0,1-4.565-3.548.375.375,0,0,1,.126-.5.365.365,0,0,1,.5.125Z" transform="translate(-443.523 -309.939)" fill="#fff"/>
    <path id="Path_32771" data-name="Path 32771" d="M955.984,672.379c-.29-.04-.579-.08-.873-.115a72.539,72.539,0,0,0-11.751-.6c-.3,0-.612.013-.915.027a76.466,76.466,0,0,0-27.436,6.315,74.251,74.251,0,0,0-9.964,5.294c-4.395,2.783-8.938,6.149-13.851,7.284a12.758,12.758,0,0,1-1.552.277l-20.3-17.576c-.026-.063-.056-.122-.083-.185l-.842-.665c.157-.115.322-.232.479-.347.091-.067.186-.131.277-.2.062-.044.124-.087.177-.13.021-.015.041-.029.058-.039.053-.043.108-.077.157-.115q1.382-.979,2.783-1.942s0,0,.013-.005A109.181,109.181,0,0,1,895.1,657.438c.241-.091.486-.187.736-.27a70.869,70.869,0,0,1,11.131-3.132,62.662,62.662,0,0,1,6.277-.877,52.088,52.088,0,0,1,16.247,1.151c10.608,2.46,20.312,8.285,26.059,17.37C955.7,671.913,955.841,672.141,955.984,672.379Z" transform="translate(-414.648 -325.674)" fill="#e6e6e6"/>
    <path id="Path_32772" data-name="Path 32772" d="M955.944,678.018a64.855,64.855,0,0,0-39.068-8.118,27.935,27.935,0,0,0-8.484,2.143,16.018,16.018,0,0,0-6.43,5.452c-1.553,2.169-2.89,4.568-4.943,6.322a9.808,9.808,0,0,1-7.729,2.146c-3.419-.428-6.48-2.058-9.419-3.757-3.262-1.886-6.621-3.9-10.47-4.171-.466-.033-.387-.755.078-.722,6.7.477,11.587,5.829,17.89,7.531,2.941.794,6.139.707,8.663-1.169,2.206-1.64,3.587-4.113,5.141-6.322a17.094,17.094,0,0,1,6.089-5.565,25.819,25.819,0,0,1,8.37-2.461,62.919,62.919,0,0,1,19.659.487,66.007,66.007,0,0,1,21.084,7.62c.4.231-.029.813-.432.584Z" transform="translate(-414.878 -331.096)" fill="#fff"/>
    <path id="Path_32773" data-name="Path 32773" d="M948.408,664.481a9.73,9.73,0,0,1,8.415-9.378c.463-.061.58.655.117.717a9.01,9.01,0,0,0-7.81,8.739c-.01.467-.732.386-.722-.078Z" transform="translate(-442.074 -326.406)" fill="#fff"/>
    <path id="Path_32774" data-name="Path 32774" d="M919.748,680.149a18.754,18.754,0,0,0,12.316,5.926c.466.035.388.756-.078.722a19.508,19.508,0,0,1-12.8-6.193C918.865,680.26,919.432,679.807,919.748,680.149Z" transform="translate(-432.021 -334.953)" fill="#fff"/>
    <path id="Path_32775" data-name="Path 32775" d="M979.846,673.374a5.508,5.508,0,0,0,1.353,5.048c.322.339-.246.792-.566.455a6.172,6.172,0,0,1-1.509-5.581.375.375,0,0,1,.4-.322A.364.364,0,0,1,979.846,673.374Z" transform="translate(-452.553 -332.534)" fill="#fff"/>
    <path id="Path_32776" data-name="Path 32776" d="M411.847,621.5c10.018-15.195,27.938-26.186,45.983-23.821a83.854,83.854,0,0,0-25.511,51.61c-.8,7.591-.9,16.117-6.33,21.482-3.378,3.338-8.3,4.738-13.047,4.786s-9.417-1.118-14.023-2.276l-1.154.272C398.534,655.367,401.829,636.691,411.847,621.5Z" transform="translate(-253.278 -306.608)" fill="#e6e6e6"/>
    <path id="Path_32777" data-name="Path 32777" d="M457.828,598a71.672,71.672,0,0,0-33.849,28.262,30.866,30.866,0,0,0-3.968,8.819,17.7,17.7,0,0,0,.308,9.311c.813,2.834,1.972,5.639,2.082,8.621a10.839,10.839,0,0,1-3.447,8.167c-2.717,2.668-6.231,4.2-9.719,5.578-3.873,1.531-7.92,3.06-10.8,6.2-.349.381-.92-.183-.571-.563,5.009-5.471,13-6.034,18.8-10.324,2.707-2,4.826-4.832,4.934-8.3.094-3.037-1.1-5.93-1.947-8.792a18.889,18.889,0,0,1-.64-9.093,28.534,28.534,0,0,1,3.615-8.939,69.538,69.538,0,0,1,13.918-16.692,72.941,72.941,0,0,1,21.073-13.029c.478-.192.684.584.209.775Z" transform="translate(-253.275 -306.554)" fill="#fff"/>
    <path id="Path_32778" data-name="Path 32778" d="M439.222,627.694a10.753,10.753,0,0,1-2.345-13.725c.265-.443.966-.052.7.391a9.957,9.957,0,0,0,2.208,12.763c.4.33-.168.9-.563.571Z" transform="translate(-266.173 -312.237)" fill="#fff"/>
    <path id="Path_32779" data-name="Path 32779" d="M430.977,663.41a20.726,20.726,0,0,0,13.587-6.6c.35-.38.921.184.571.563a21.559,21.559,0,0,1-14.152,6.837c-.516.039-.519-.763-.006-.8Z" transform="translate(-264.534 -326.95)" fill="#fff"/>
    <path id="Path_32780" data-name="Path 32780" d="M466.415,610.163a6.086,6.086,0,0,0,5.3,2.294c.515-.046.518.757.006.8a6.82,6.82,0,0,1-5.869-2.525.415.415,0,0,1,0-.567.4.4,0,0,1,.567,0Z" transform="translate(-276.584 -310.959)" fill="#fff"/>
    <path id="Path_32781" data-name="Path 32781" d="M490.178,671.01c-.321.038-.641.076-.965.119a80.158,80.158,0,0,0-12.734,2.631c-.324.089-.65.185-.971.283a84.506,84.506,0,0,0-27.586,14.387,82.061,82.061,0,0,0-9.184,8.434c-3.926,4.2-7.849,9.064-12.788,11.644a14.071,14.071,0,0,1-1.583.727l-26.6-13.15c-.046-.06-.094-.115-.14-.175l-1.086-.476c.136-.167.28-.337.416-.5.078-.1.163-.192.241-.289.054-.064.108-.128.154-.188.018-.021.036-.042.051-.058.045-.061.093-.112.136-.167q1.206-1.431,2.436-2.851c0-.006,0-.006.012-.009a120.661,120.661,0,0,1,20.918-19.4c.233-.165.468-.335.712-.494a78.319,78.319,0,0,1,11.034-6.447,69.233,69.233,0,0,1,6.47-2.684,57.567,57.567,0,0,1,17.7-3.289c12.03-.32,24.029,3.21,32.7,11.328C489.743,670.591,489.959,670.8,490.178,671.01Z" transform="translate(-252.859 -327.756)" fill="#e6e6e6"/>
    <path id="Path_32782" data-name="Path 32782" d="M490.165,676.03a71.672,71.672,0,0,0-44.043,2.186,30.867,30.867,0,0,0-8.478,4.652,17.7,17.7,0,0,0-5.36,7.62c-1.057,2.752-1.82,5.689-3.528,8.136a10.839,10.839,0,0,1-7.669,4.445c-3.776.494-7.5-.4-11.119-1.4-4.014-1.109-8.166-2.325-12.358-1.548-.508.094-.624-.7-.117-.794,7.294-1.352,14.015,3.011,21.229,3.078,3.367.031,6.763-.952,8.939-3.66,1.9-2.368,2.693-5.4,3.739-8.192a18.891,18.891,0,0,1,4.964-7.646,28.535,28.535,0,0,1,8.268-4.961A69.536,69.536,0,0,1,465.795,673a72.941,72.941,0,0,1,24.67,2.285C490.962,675.419,490.659,676.163,490.165,676.03Z" transform="translate(-253.073 -332.467)" fill="#fff"/>
    <path id="Path_32783" data-name="Path 32783" d="M478.269,671.56a10.753,10.753,0,0,1,6.391-12.371c.478-.194.8.539.324.734a9.957,9.957,0,0,0-5.921,11.52C479.182,671.945,478.387,672.059,478.269,671.56Z" transform="translate(-280.785 -327.797)" fill="#fff"/>
    <path id="Path_32784" data-name="Path 32784" d="M450.8,697.462a20.726,20.726,0,0,0,14.821,2.912c.508-.092.625.7.117.794a21.558,21.558,0,0,1-15.416-3.061C449.891,697.827,450.372,697.185,450.8,697.462Z" transform="translate(-271.241 -340.907)" fill="#fff"/>
    <path id="Path_32785" data-name="Path 32785" d="M513.282,673.48a6.087,6.087,0,0,0,2.851,5.023c.439.273-.042.916-.478.644a6.821,6.821,0,0,1-3.166-5.55.415.415,0,0,1,.338-.455.4.4,0,0,1,.455.338Z" transform="translate(-292.612 -332.591)" fill="#fff"/>
    <path id="Path_32786" data-name="Path 32786" d="M521.936,429.188a6.414,6.414,0,0,0-.842-9.8l10.47-50.67-11.3,3.563L511.845,421.3a6.449,6.449,0,0,0,10.091,7.886Z" transform="translate(-292.071 -228.217)" fill="#e8b886"/>
    <path id="Path_32787" data-name="Path 32787" d="M547.346,251.872l-7-5.282s-6.172-.437-7.266,10.694-7.938,53.852-7.938,53.852l-10.707,49.589,14.821,3.253,11.468-53.516,11.479-36.921Z" transform="translate(-293.282 -186.342)" fill="#c99e41"/>
    <path id="Path_32788" data-name="Path 32788" d="M538.389,362.989l-33.563-26.1a2.5,2.5,0,0,1-.439-3.508l22.836-29.369a2.5,2.5,0,0,1,3.508-.439l33.563,26.1a2.5,2.5,0,0,1,.439,3.508L541.9,362.55A2.5,2.5,0,0,1,538.389,362.989Z" transform="translate(-289.655 -205.701)" fill="#3f3d56"/>
    <path id="Path_32789" data-name="Path 32789" d="M539.65,361.728l-30.716-23.883a2.222,2.222,0,0,1-.39-3.115l20.7-26.625a2.222,2.222,0,0,1,3.115-.39L563.077,331.6a2.222,2.222,0,0,1,.39,3.115l-20.7,26.625A2.222,2.222,0,0,1,539.65,361.728Z" transform="translate(-291.1 -207.141)" fill="#fff"/>
    <path id="Path_32790" data-name="Path 32790" d="M515.4,345.251a.555.555,0,0,1-.1-.779l10.444-13.431a.555.555,0,1,1,.876.681l-10.444,13.431A.556.556,0,0,1,515.4,345.251Z" transform="translate(-293.537 -215.225)" fill="#e4e4e4"/>
    <path id="Path_32791" data-name="Path 32791" d="M518.031,347.3a.555.555,0,0,1-.1-.779l10.444-13.431a.555.555,0,0,1,.876.681L518.809,347.2a.555.555,0,0,1-.779.1Z" transform="translate(-294.44 -215.927)" fill="#e4e4e4"/>
    <path id="Path_32792" data-name="Path 32792" d="M529.668,341.738a.555.555,0,0,1-.1-.779l4.527-5.822a.555.555,0,0,1,.876.681l-4.527,5.822A.556.556,0,0,1,529.668,341.738Z" transform="translate(-298.43 -216.629)" fill="#e4e4e4"/>
    <path id="Path_32793" data-name="Path 32793" d="M533.22,351.1a.555.555,0,0,1-.1-.779l16.487-21.2a.555.555,0,1,1,.876.681L534,351A.555.555,0,0,1,533.22,351.1Z" transform="translate(-299.647 -214.565)" fill="#e4e4e4"/>
    <path id="Path_32794" data-name="Path 32794" d="M535.854,353.147a.556.556,0,0,1-.1-.779l16.487-21.2a.555.555,0,1,1,.876.681l-16.487,21.2A.556.556,0,0,1,535.854,353.147Z" transform="translate(-300.55 -215.267)" fill="#e4e4e4"/>
    <path id="Path_32795" data-name="Path 32795" d="M541.833,357.8a.555.555,0,0,1-.1-.779l16.487-21.2a.555.555,0,0,1,.876.681l-16.487,21.2A.556.556,0,0,1,541.833,357.8Z" transform="translate(-302.6 -216.861)" fill="#e4e4e4"/>
    <path id="Path_32796" data-name="Path 32796" d="M544.467,359.845a.555.555,0,0,1-.1-.779l16.487-21.2a.555.555,0,0,1,.876.681l-16.487,21.2A.555.555,0,0,1,544.467,359.845Z" transform="translate(-303.504 -217.563)" fill="#e4e4e4"/>
    <path id="Path_32797" data-name="Path 32797" d="M550.446,364.494a.556.556,0,0,1-.1-.779l16.487-21.2a.555.555,0,1,1,.876.681l-16.487,21.2A.556.556,0,0,1,550.446,364.494Z" transform="translate(-305.554 -219.158)" fill="#e4e4e4"/>
    <path id="Path_32798" data-name="Path 32798" d="M553.08,366.542a.555.555,0,0,1-.1-.779l16.487-21.2a.555.555,0,1,1,.876.681l-16.487,21.2A.555.555,0,0,1,553.08,366.542Z" transform="translate(-306.457 -219.86)" fill="#e4e4e4"/>
    <circle id="Ellipse_1303" data-name="Ellipse 1303" cx="0.228" cy="0.228" r="0.228" transform="translate(218.84 170.851)" fill="#fff"/>
    <path id="Path_32799" data-name="Path 32799" d="M558.61,169.232a54.849,54.849,0,0,1-3.914,12.492c-10.3,21.788,19.032,14.687,29.514,14.687,11.46,0,22.426,6.026,20.751-20.751-.715-11.438-9.29-20.751-20.751-20.751C574.42,154.909,560.657,159.26,558.61,169.232Z" transform="translate(-306.344 -154.909)" fill="#2f2e41"/>
    <path id="Path_32800" data-name="Path 32800" d="M445.821,488.434h-9.764l-4.647-37.662h14.411Z" transform="translate(-157.273 -154.553)" fill="#e8b886"/>
    <path id="Path_32801" data-name="Path 32801" d="M606.989,675.937h-7l-1.25-6.611-3.2,6.611H576.964a4.175,4.175,0,0,1-2.372-7.61l14.831-10.243V651.4l15.6.931Z" transform="translate(-313.287 -325.138)" fill="#2f2e41"/>
    <path id="Path_32802" data-name="Path 32802" d="M523.858,473.564l-7.836,5.827-26.2-27.449,11.564-8.6Z" transform="translate(-177.3 -152.006)" fill="#e8b886"/>
    <path id="Path_32803" data-name="Path 32803" d="M710.874,650.951l-5.619,4.178-4.948-4.559,1.376,7.215-14.9,11.082a4.175,4.175,0,0,1-6.445-4.691l5.789-17.069-3.988-5.363,13.074-8.561Z" transform="translate(-350.085 -318.891)" fill="#2f2e41"/>
    <path id="Path_32804" data-name="Path 32804" d="M404.675,226.078l46.351-7.219-9.218-27.73H404.675Z" transform="translate(-148.107 -65.531)" fill="#e8b886"/>
    <path id="Path_32805" data-name="Path 32805" d="M610.272,367.291s18.526,16.006,9.979,61.635l-10.436,44.709L638.247,523l-14.457,7.886-35.037-48.7L572.72,444.577l-8.481-65.912Z" transform="translate(-310.356 -227.727)" fill="#2f2e41"/>
    <path id="Path_32806" data-name="Path 32806" d="M426.36,346.3l-1.114,17.257,3.262,51.1,16.194,5.576,3.067-52.359Z" transform="translate(-155.16 -118.734)" fill="#2f2e41"/>
    <path id="Path_32807" data-name="Path 32807" d="M572.033,226.805l17.917.7,7.141,11.853,16.292,3.18-9.726,49.2,1.788,28.005-16.222-.1a47.449,47.449,0,0,0-31.749,11.927h0l.485-36.353-6.978-27.137,1.568-28.455,13.106-1.638Z" transform="translate(-305.811 -179.56)" fill="#c99e41"/>
    <circle id="Ellipse_1304" data-name="Ellipse 1304" cx="16.863" cy="16.863" r="16.863" transform="translate(259.286 7.772)" fill="#e8b886"/>
    <path id="Path_32808" data-name="Path 32808" d="M575.868,164.766a19.316,19.316,0,0,1,29.367,16.857c-8.593,2.157-17.619,3.808-26.782.516l-2.164-5.3-1.276,5.3c-2.79,1.141-5.588,2.106-8.386-.011a19.723,19.723,0,0,1,9.241-17.366Z" transform="translate(-311.171 -157.321)" fill="#2f2e41"/>
    <path id="Path_32809" data-name="Path 32809" d="M641.135,418.27l2.273,20.629a2.518,2.518,0,0,0,2.407,1.778h10.478A2.518,2.518,0,0,0,658.7,438.9l1.883-15.811a3.824,3.824,0,1,0,.986-7.194,2.5,2.5,0,0,0-1.91-.883H643.542a2.518,2.518,0,0,0-2.407,3.259Zm19.777,3.749,1.153-3.749a2.492,2.492,0,0,0,.038-1.333c.049,0,.1-.015.145-.015a2.73,2.73,0,1,1,0,5.461A2.694,2.694,0,0,1,660.912,422.019Z" transform="translate(-336.683 -244.089)" fill="#c99e41"/>
    <path id="Path_32810" data-name="Path 32810" d="M660.375,422.515a6.414,6.414,0,0,1,.892-9.794L651.055,362l11.277,3.621,8.174,49.061a6.449,6.449,0,0,1-10.131,7.835Z" transform="translate(-340.122 -225.913)" fill="#e8b886"/>
    <path id="Path_32811" data-name="Path 32811" d="M632.755,256.027l7-5.282s6.172-.437,7.266,10.694,7.938,53.853,7.938,53.853l10.707,49.589-14.821,3.253-11.468-53.516L627.894,277.7Z" transform="translate(-332.181 -187.767)" fill="#c99e41"/>
    <circle id="Ellipse_1305" data-name="Ellipse 1305" cx="3.961" cy="3.961" r="3.961" transform="translate(236.225 106.511)" fill="#c99e41"/>
    <path id="Path_32812" data-name="Path 32812" d="M187.544,561.394H195.8l3.927-31.838H187.543Z" transform="translate(-73.66 -181.565)" fill="#e8b886"/>
    <path id="Path_32813" data-name="Path 32813" d="M347.992,726.889h2.323l9.071-3.689,4.862,3.688h0a10.36,10.36,0,0,1,10.359,10.359v.337H347.992Z" transform="translate(-236.213 -349.755)" fill="#2f2e41"/>
    <path id="Path_32814" data-name="Path 32814" d="M236.221,553.887l8.052,1.818,10.843-30.191-11.884-2.683Z" transform="translate(-90.35 -179.259)" fill="#e8b886"/>
    <path id="Path_32815" data-name="Path 32815" d="M396.421,719.725l2.266.512,9.66-1.6,3.93,4.669h0a10.36,10.36,0,0,1,7.823,12.387l-.074.328-25.962-5.862Z" transform="translate(-252.01 -348.191)" fill="#2f2e41"/>
    <path id="Path_32816" data-name="Path 32816" d="M328.2,476.29l7.464,83.627s-2.8,50.206,6.228,67.873H354.98l6.48-72.458.814-48.634,28.059,41.031L372.462,626.6l16.108,1.44,29-85.6L385.71,462.088Z" transform="translate(-229.427 -260.229)" fill="#2f2e41"/>
    <circle id="Ellipse_1306" data-name="Ellipse 1306" cx="19.25" cy="19.25" r="19.25" transform="translate(87.341 44.387)" fill="#e8b886"/>
    <path id="Path_32817" data-name="Path 32817" d="M358.056,301.166l-15.792-6.776-7.688-8.154-19.2,3.1-5.1,8.737L293.78,313.408l19.326,87.382-.585,19.085s12.369,5.568,66.011-7.252c.643-.154-.7-.827-.7-.827Z" transform="translate(-217.626 -199.936)" fill="#3f3d56"/>
    <path id="Path_32818" data-name="Path 32818" d="M309.347,268.08q-.2-.274-.4-.554c-.053.112-.095.227-.155.336Z" transform="translate(-222.773 -193.522)" fill="#2f2e41"/>
    <path id="Path_32819" data-name="Path 32819" d="M348.2,225.492a12.283,12.283,0,0,0-6.427-6.209,11.726,11.726,0,0,0-8.792.008,17.708,17.708,0,0,0-8.35-3.04,9.34,9.34,0,0,0-7.961,3.379,13,13,0,0,1-1.391,1.807c-1.475,1.366-3.717,1.169-5.678.89l2.639,2.261-3.194.834,3.727,2.26c-3.606,2.165-5.245,6.889-4.813,11.18.41,4.062,2.371,7.777,4.716,11.079.935-1.974.734-4.335.718-6.558-.016-2.349.4-5.016,2.282-6.329a7.532,7.532,0,0,1,4.433-.917,203.681,203.681,0,0,1,23.1,1.442,6.5,6.5,0,0,1,2.958.858c1.7,1.157,2.026,3.544,2.2,5.639a40.857,40.857,0,0,0,1.3-10.591A19.522,19.522,0,0,0,348.2,225.492Z" transform="translate(-222.466 -175.936)" fill="#2f2e41"/>
    <circle id="Ellipse_1307" data-name="Ellipse 1307" cx="30.297" cy="30.297" r="30.297" transform="translate(101.434 214.088)" fill="#fff"/>
    <path id="Path_32820" data-name="Path 32820" d="M362.2,479.674a31.117,31.117,0,0,0-4.649.35c-.792.115-1.559.263-2.32.445A30.955,30.955,0,0,0,342.105,534.2c.518.438,1.043.862,1.589,1.266a30.964,30.964,0,1,0,18.5-55.788Zm0,60.595a29.453,29.453,0,0,1-17.505-5.743c-.552-.4-1.084-.821-1.6-1.266a29.607,29.607,0,0,1,13.21-51.647c.754-.155,1.508-.276,2.276-.37a29.3,29.3,0,0,1,3.622-.222,29.624,29.624,0,0,1,0,59.248Z" transform="translate(-230.464 -266.259)" fill="#3f3d56"/>
    <rect id="Rectangle_18349" data-name="Rectangle 18349" width="33.664" height="4.04" rx="2.02" transform="translate(148.564 238.326) rotate(180)" fill="#c99e41"/>
    <rect id="Rectangle_18350" data-name="Rectangle 18350" width="33.664" height="4.04" rx="2.02" transform="translate(148.564 246.406) rotate(180)" fill="#c99e41"/>
    <rect id="Rectangle_18351" data-name="Rectangle 18351" width="33.664" height="4.04" rx="2.02" transform="translate(148.564 254.485) rotate(180)" fill="#c99e41"/>
    <path id="Path_32821" data-name="Path 32821" d="M723.856,559.024H715.2l-4.118-33.384h12.774Z" transform="translate(-253.163 -180.222)" fill="#9e616a"/>
    <path id="Path_32822" data-name="Path 32822" d="M661.545,559.024h-8.655l-4.118-33.384h12.774Z" transform="translate(-231.799 -180.222)" fill="#9e616a"/>
    <path id="Path_32823" data-name="Path 32823" d="M818.437,737.585H791.822v-.337a10.36,10.36,0,0,1,10.359-10.359h0l4.862-3.688,9.071,3.689h2.323Z" transform="translate(-388.386 -349.755)" fill="#2f2e41"/>
    <path id="Path_32824" data-name="Path 32824" d="M882.437,737.585H855.822v-.337a10.36,10.36,0,0,1,10.359-10.359h0l4.862-3.688,9.07,3.689h2.323Z" transform="translate(-410.329 -349.755)" fill="#2f2e41"/>
    <path id="Path_32825" data-name="Path 32825" d="M811.494,427.805,798.341,507.9l3.58,11.935-4.7,8.453,6.9,74.237-2.8,6.165,7.824,4.825h15.92l.845-67.207,3.932-9.867V531l8.005-40.981,1.474,57.392,2.329,9.883-1.956,7.037,2.556,4.93,6.789,45.717H866.89l-1.381-10.636h0a7.861,7.861,0,0,0,4.127-8.7l-1.023-4.662,2.329-13.784,4.242-76.9-1.2-62.049L853.106,422.28Z" transform="translate(-390.238 -246.581)" fill="#2f2e41"/>
    <circle id="Ellipse_219" data-name="Ellipse 219" cx="16.585" cy="16.585" r="16.585" transform="translate(434.827 45.203)" fill="#9e616a"/>
    <path id="Path_32826" data-name="Path 32826" d="M803.269,460.681a7.1,7.1,0,0,0-1.137-10.826l6.449-24.39-12.426,4.18-4.219,22.52a7.138,7.138,0,0,0,11.332,8.516Z" transform="translate(-388.094 -247.673)" fill="#9e616a"/>
    <path id="Path_1101" data-name="Path 1101" d="M810.069,300.572l-2.667-.553-2.275,1.259s-6.354,8.472-6.354,16.237-7.766,82.6-7.766,82.6l14.12,6.354,11.3-58.6Z" transform="translate(-388.107 -204.662)" fill="#c4c4c4"/>
    <path id="Path_1104" data-name="Path 1104" d="M869.126,223.77s4.338-8.293-5.205-9.047c0,0-8.136-7.38-16.429-1.349,0,0-4.523,0-7,5.119,0,0-3.557-1.349-4.339,2.262,0,0-2.6,7.539,0,14.324s3.468,7.539,3.468,7.539-4.278-14.225,6.134-14.979,22.063-7.261,22.931,1.032,2.173,10.336,2.173,10.336S879.1,227.162,869.126,223.77Z" transform="translate(-403.19 -174.142)" fill="#2f2e41"/>
    <path id="Path_32827" data-name="Path 32827" d="M950.277,536.106a5.074,5.074,0,0,1-3.393-1.294l-50.193-44.679a5.119,5.119,0,0,1-.419-7.218l32.154-36.121a5.118,5.118,0,0,1,7.219-.42l50.193,44.68a5.112,5.112,0,0,1,.419,7.218L954.1,534.392a5.077,5.077,0,0,1-3.522,1.705C950.479,536.1,950.378,536.106,950.277,536.106Z" transform="translate(-423.755 -254.398)" fill="#fff"/>
    <path id="Path_32828" data-name="Path 32828" d="M950.1,536.263a5.4,5.4,0,0,1-3.611-1.377L896.3,490.207a5.448,5.448,0,0,1-.446-7.683L928.009,446.4a5.449,5.449,0,0,1,7.683-.447l50.193,44.68a5.442,5.442,0,0,1,.446,7.682L954.177,534.44a5.408,5.408,0,0,1-3.749,1.815Q950.266,536.263,950.1,536.263ZM932.076,445.9a4.116,4.116,0,0,0-3.085,1.381L896.837,483.4a4.132,4.132,0,0,0,.339,5.827l50.193,44.68a4.126,4.126,0,0,0,5.827-.339l32.154-36.121a4.127,4.127,0,0,0-.338-5.826l-50.193-44.68a4.11,4.11,0,0,0-2.742-1.043Z" transform="translate(-423.584 -254.227)" fill="#3f3d56"/>
    <path id="Path_32829" data-name="Path 32829" d="M985.115,510.934a2.2,2.2,0,0,1-1.47-.559l-39.4-35.072A2.212,2.212,0,1,1,947.187,472l39.4,35.072a2.212,2.212,0,0,1-1.473,3.864Z" transform="translate(-440.392 -263.435)" fill="#c99e41"/>
    <path id="Path_32830" data-name="Path 32830" d="M973.679,523.781a2.2,2.2,0,0,1-1.47-.559l-39.4-35.072a2.212,2.212,0,0,1,2.942-3.3l39.4,35.072a2.211,2.211,0,0,1-1.472,3.863Z" transform="translate(-436.471 -267.84)" fill="#c99e41"/>
    <path id="Path_32831" data-name="Path 32831" d="M962.242,536.629a2.2,2.2,0,0,1-1.47-.56L921.372,501a2.212,2.212,0,0,1,2.942-3.305l39.4,35.072a2.212,2.212,0,0,1-1.472,3.864Z" transform="translate(-432.55 -272.245)" fill="#c99e41"/>
    <path id="Path_32832" data-name="Path 32832" d="M914.919,462.777a7.1,7.1,0,0,1,3.884-10.169l.043-25.228,10.932,7.236-1.717,22.847a7.138,7.138,0,0,1-13.142,5.314Z" transform="translate(-430.283 -248.329)" fill="#9e616a"/>
    <path id="Path_1100" data-name="Path 1100" d="M914.347,308.924l4.884-4.707,3.588,2.589s3.53,4.236,6.354,16.943,0,82.6,0,82.6l-15.531-2.118,2.118-36.711-6.354-31.063Z" transform="translate(-428.701 -206.101)" fill="#c4c4c4"/>
    <path id="Path_32833" data-name="Path 32833" d="M890.25,296.378l-16.454-7.86-11.171-10.362L842.253,278l-6.571,8.543-17.349,5.893,2.891,59.821-1.971,4.6s1.373,1.241,2,1.935-.867,6.5-.867,6.5l-.843,6.32,2.337,1.67-3.039,3.589-.754,5.658s53.041-13.183,63.063,8.656c.53,1.154-.774-10.123-.774-10.123l-1.3-8.256,1.294-7.41,1.971-1.971-3.306-3.306,2.12-15.688Z" transform="translate(-397.392 -197.114)" fill="#3f3d56"/>
    <path id="Path_32834" data-name="Path 32834" d="M349.708,488.415a7.622,7.622,0,0,0-5.588-10.266l-3.655-26.84-10.6,9.264,5.1,24.067a7.664,7.664,0,0,0,14.745,3.774Z" transform="translate(-229.999 -256.534)" fill="#e8b886"/>
    <path id="Path_1101-2" data-name="Path 1101" d="M293.876,326.838l-2.873.55-1.736,2.186s-2.809,11.018.391,18.718,26.336,85.1,26.336,85.1l16.618.482-12.945-62.753Z" transform="translate(-215.687 -213.857)" fill="#3f3d56"/>
    <path id="Path_32835" data-name="Path 32835" d="M393.824,482.022a7.622,7.622,0,0,1,1.357-11.609l-6.616-26.267,13.288,4.645,4.245,24.232a7.664,7.664,0,0,1-12.275,9Z" transform="translate(-250.124 -254.078)" fill="#e8b886"/>
    <path id="Path_1101-3" data-name="Path 1101" d="M383.861,310.043l2.871-.561,2.426,1.381s6.715,9.176,6.616,17.514,7.293,88.78,7.293,88.78l-15.24,6.643-11.386-63.054Z" transform="translate(-245.967 -207.907)" fill="#3f3d56"/>
  </g>
</svg>
