<svg xmlns="http://www.w3.org/2000/svg" width="374.56" height="310" viewBox="0 0 374.56 310">
  <g id="Group_34810" data-name="Group 34810" transform="translate(-804.808 -1016)">
    <g id="Group_34827" data-name="Group 34827" transform="translate(804.808 1016)">
      <path id="Path_32866" data-name="Path 32866" d="M465.141,742.878q-1.848.042-3.71.042c-29.49,0-66.582-15.751-100.242-37.556q-4.177-2.706-8.28-5.537l2.4-14.6,72.626-9.642,36.45,27.872Z" transform="translate(-290.944 -432.919)" fill="#2f2e41"/>
      <path id="Path_32867" data-name="Path 32867" d="M588.527,259.635H578.178a1.209,1.209,0,0,0-1.209,1.209V271.2a1.205,1.205,0,0,0,1.209,1.2h10.349a1.208,1.208,0,0,0,1.209-1.2V260.844a1.212,1.212,0,0,0-1.209-1.209Z" transform="translate(-410.834 -210.354)" fill="#fff"/>
      <path id="Path_32868" data-name="Path 32868" d="M588.527,297.585H578.178a1.209,1.209,0,0,0-1.209,1.209v10.354a1.205,1.205,0,0,0,1.209,1.2h10.349a1.208,1.208,0,0,0,1.209-1.2V298.794A1.212,1.212,0,0,0,588.527,297.585Z" transform="translate(-410.834 -230.66)" fill="#e6e6e6"/>
      <path id="Path_32869" data-name="Path 32869" d="M588.527,335.535H578.178a1.209,1.209,0,0,0-1.209,1.209v10.349a1.206,1.206,0,0,0,1.209,1.209h10.349a1.209,1.209,0,0,0,1.209-1.209V336.744A1.212,1.212,0,0,0,588.527,335.535Z" transform="translate(-410.834 -250.966)" fill="#e6e6e6"/>
      <path id="Path_32870" data-name="Path 32870" d="M589.717,374.48a1.217,1.217,0,0,0-1.19-1H578.178a1.209,1.209,0,0,0-1.209,1.209v10.349a1.206,1.206,0,0,0,1.209,1.209h10.349a1.209,1.209,0,0,0,1.209-1.209V374.694A1.078,1.078,0,0,0,589.717,374.48Z" transform="translate(-410.834 -271.272)" fill="#e6e6e6"/>
      <path id="Path_32871" data-name="Path 32871" d="M589,411.528a1.225,1.225,0,0,0-.47-.093H578.178a1.206,1.206,0,0,0-1.209,1.209v10.349a1.2,1.2,0,0,0,1.209,1.209h10.349a1.209,1.209,0,0,0,1.209-1.209V412.644A1.216,1.216,0,0,0,589,411.528Z" transform="translate(-410.834 -291.579)" fill="#e6e6e6"/>
      <path id="Path_32872" data-name="Path 32872" d="M635.287,259.635H624.938a1.209,1.209,0,0,0-1.209,1.209V271.2a1.205,1.205,0,0,0,1.209,1.2h10.349a1.208,1.208,0,0,0,1.209-1.2V260.844A1.212,1.212,0,0,0,635.287,259.635Z" transform="translate(-435.854 -210.354)" fill="#e6e6e6"/>
      <path id="Path_32873" data-name="Path 32873" d="M635.287,297.585H624.938a1.209,1.209,0,0,0-1.209,1.209v10.354a1.205,1.205,0,0,0,1.209,1.2h10.349a1.208,1.208,0,0,0,1.209-1.2V298.794A1.212,1.212,0,0,0,635.287,297.585Z" transform="translate(-435.854 -230.66)" fill="#c99e41"/>
      <path id="Path_32874" data-name="Path 32874" d="M635.287,335.535H624.938a1.209,1.209,0,0,0-1.209,1.209v10.349a1.206,1.206,0,0,0,1.209,1.209h10.349a1.209,1.209,0,0,0,1.209-1.209V336.744a1.212,1.212,0,0,0-1.209-1.209Z" transform="translate(-435.854 -250.966)" fill="#c99e41"/>
      <path id="Path_32875" data-name="Path 32875" d="M635.287,373.485H624.938a1.205,1.205,0,0,0-1.144.828,1.151,1.151,0,0,0-.065.381v10.349a1.206,1.206,0,0,0,1.209,1.209h10.349a1.209,1.209,0,0,0,1.209-1.209V374.694A1.213,1.213,0,0,0,635.287,373.485Z" transform="translate(-435.854 -271.272)" fill="#c99e41"/>
      <path id="Path_32876" data-name="Path 32876" d="M635.287,411.435H624.938a1.206,1.206,0,0,0-1.209,1.209v10.349a1.206,1.206,0,0,0,1.209,1.209h10.349a1.209,1.209,0,0,0,1.209-1.209V412.644A1.209,1.209,0,0,0,635.287,411.435Z" transform="translate(-435.854 -291.579)" fill="#e6e6e6"/>
      <path id="Path_32877" data-name="Path 32877" d="M682.047,259.635H671.7a1.209,1.209,0,0,0-1.209,1.209V271.2a1.205,1.205,0,0,0,1.209,1.2h10.349a1.208,1.208,0,0,0,1.209-1.2V260.844A1.212,1.212,0,0,0,682.047,259.635Z" transform="translate(-460.874 -210.354)" fill="#c99e41"/>
      <path id="Path_32878" data-name="Path 32878" d="M682.047,297.585H671.7a1.209,1.209,0,0,0-1.209,1.209v10.354a1.205,1.205,0,0,0,1.209,1.2h10.349a1.208,1.208,0,0,0,1.209-1.2V298.794a1.212,1.212,0,0,0-1.209-1.209Z" transform="translate(-460.874 -230.66)" fill="#c99e41"/>
      <path id="Path_32879" data-name="Path 32879" d="M682.047,335.535H671.7a1.209,1.209,0,0,0-1.209,1.209v10.349A1.206,1.206,0,0,0,671.7,348.3h10.349a1.209,1.209,0,0,0,1.209-1.209V336.744A1.212,1.212,0,0,0,682.047,335.535Z" transform="translate(-460.874 -250.966)" fill="#e6e6e6"/>
      <path id="Path_32880" data-name="Path 32880" d="M682.047,373.485H671.7a1.209,1.209,0,0,0-1.209,1.209v10.349a1.206,1.206,0,0,0,1.209,1.209h10.349a1.209,1.209,0,0,0,1.209-1.209V374.694A1.212,1.212,0,0,0,682.047,373.485Z" transform="translate(-460.874 -271.272)" fill="#c99e41"/>
      <path id="Path_32881" data-name="Path 32881" d="M682.047,411.435H671.7a1.206,1.206,0,0,0-1.209,1.209v10.349A1.206,1.206,0,0,0,671.7,424.2h10.349a1.209,1.209,0,0,0,1.209-1.209V412.644a1.209,1.209,0,0,0-1.209-1.209Z" transform="translate(-460.874 -291.579)" fill="#c99e41"/>
      <path id="Path_32882" data-name="Path 32882" d="M728.807,259.635H718.458a1.209,1.209,0,0,0-1.209,1.209V271.2a1.205,1.205,0,0,0,1.209,1.2h10.349a1.208,1.208,0,0,0,1.209-1.2V260.844a1.212,1.212,0,0,0-1.209-1.209Z" transform="translate(-485.894 -210.354)" fill="#c99e41"/>
      <path id="Path_32883" data-name="Path 32883" d="M728.807,297.585H718.458a1.209,1.209,0,0,0-1.209,1.209v10.354a1.205,1.205,0,0,0,1.209,1.2h10.349a1.208,1.208,0,0,0,1.209-1.2V298.794A1.212,1.212,0,0,0,728.807,297.585Z" transform="translate(-485.894 -230.66)" fill="#fff"/>
      <path id="Path_32884" data-name="Path 32884" d="M728.807,335.535H718.458a1.209,1.209,0,0,0-1.209,1.209v10.349a1.206,1.206,0,0,0,1.209,1.209h10.349a1.209,1.209,0,0,0,1.209-1.209V336.744A1.212,1.212,0,0,0,728.807,335.535Z" transform="translate(-485.894 -250.966)" fill="#fff"/>
      <path id="Path_32885" data-name="Path 32885" d="M728.807,373.485H718.458a1.209,1.209,0,0,0-1.209,1.209v10.349a1.206,1.206,0,0,0,1.209,1.209h10.349a1.209,1.209,0,0,0,1.209-1.209V374.694A1.212,1.212,0,0,0,728.807,373.485Z" transform="translate(-485.894 -271.272)" fill="#e6e6e6"/>
      <path id="Path_32886" data-name="Path 32886" d="M728.807,411.435H718.458a1.206,1.206,0,0,0-1.209,1.209v10.349a1.206,1.206,0,0,0,1.209,1.209h10.349a1.209,1.209,0,0,0,1.209-1.209V412.644A1.209,1.209,0,0,0,728.807,411.435Z" transform="translate(-485.894 -291.579)" fill="#c99e41"/>
      <path id="Path_32887" data-name="Path 32887" d="M775.567,259.635H765.213a1.208,1.208,0,0,0-1.2,1.209V271.2a1.2,1.2,0,0,0,1.2,1.2h10.354a1.208,1.208,0,0,0,1.209-1.2V260.844A1.212,1.212,0,0,0,775.567,259.635Z" transform="translate(-510.914 -210.354)" fill="#fff"/>
      <path id="Path_32888" data-name="Path 32888" d="M775.567,297.585H765.213a1.208,1.208,0,0,0-1.2,1.209v10.354a1.2,1.2,0,0,0,1.2,1.2h10.354a1.208,1.208,0,0,0,1.209-1.2V298.794A1.212,1.212,0,0,0,775.567,297.585Z" transform="translate(-510.914 -230.66)" fill="#fff"/>
      <path id="Path_32889" data-name="Path 32889" d="M775.567,335.535H765.213a1.208,1.208,0,0,0-1.2,1.209v10.349a1.205,1.205,0,0,0,1.2,1.209h10.354a1.209,1.209,0,0,0,1.209-1.209V336.744A1.212,1.212,0,0,0,775.567,335.535Z" transform="translate(-510.914 -250.966)" fill="#fff"/>
      <path id="Path_32890" data-name="Path 32890" d="M775.567,373.485H765.213a1.208,1.208,0,0,0-1.2,1.209v10.349a1.205,1.205,0,0,0,1.2,1.209h10.354a1.209,1.209,0,0,0,1.209-1.209V374.694A1.213,1.213,0,0,0,775.567,373.485Z" transform="translate(-510.914 -271.272)" fill="#c99e41"/>
      <path id="Path_32891" data-name="Path 32891" d="M775.567,411.435H765.213a1.205,1.205,0,0,0-1.2,1.209v10.349a1.205,1.205,0,0,0,1.2,1.209h10.354a1.209,1.209,0,0,0,1.209-1.209V412.644A1.209,1.209,0,0,0,775.567,411.435Z" transform="translate(-510.914 -291.579)" fill="#e6e6e6"/>
      <path id="Path_32892" data-name="Path 32892" d="M822.327,259.635H811.973a1.208,1.208,0,0,0-1.2,1.209V271.2a1.2,1.2,0,0,0,1.2,1.2h10.354a1.208,1.208,0,0,0,1.209-1.2V260.844A1.212,1.212,0,0,0,822.327,259.635Z" transform="translate(-535.935 -210.354)" fill="#fff"/>
      <path id="Path_32893" data-name="Path 32893" d="M822.327,297.585H811.973a1.208,1.208,0,0,0-1.2,1.209v10.354a1.2,1.2,0,0,0,1.2,1.2h10.354a1.208,1.208,0,0,0,1.209-1.2V298.794A1.212,1.212,0,0,0,822.327,297.585Z" transform="translate(-535.935 -230.66)" fill="#fff"/>
      <path id="Path_32894" data-name="Path 32894" d="M822.327,335.535H811.973a1.208,1.208,0,0,0-1.2,1.209v10.349a1.205,1.205,0,0,0,1.2,1.209h10.354a1.209,1.209,0,0,0,1.209-1.209V336.744A1.212,1.212,0,0,0,822.327,335.535Z" transform="translate(-535.935 -250.966)" fill="#c99e41"/>
      <path id="Path_32895" data-name="Path 32895" d="M822.327,373.485H811.973a1.209,1.209,0,0,0-1.2,1.209v10.349a1.205,1.205,0,0,0,1.2,1.209h10.354a1.209,1.209,0,0,0,1.209-1.209V374.694A1.213,1.213,0,0,0,822.327,373.485Z" transform="translate(-535.935 -271.272)" fill="#e6e6e6"/>
      <path id="Path_32896" data-name="Path 32896" d="M822.327,411.435H811.973a1.205,1.205,0,0,0-1.2,1.209v10.349a1.205,1.205,0,0,0,1.2,1.209h10.354a1.209,1.209,0,0,0,1.209-1.209V412.644A1.209,1.209,0,0,0,822.327,411.435Z" transform="translate(-535.935 -291.579)" fill="#fff"/>
      <path id="Path_32897" data-name="Path 32897" d="M869.087,259.635H858.733a1.208,1.208,0,0,0-1.2,1.209V271.2a1.2,1.2,0,0,0,1.2,1.2h10.354a1.208,1.208,0,0,0,1.209-1.2V260.844A1.212,1.212,0,0,0,869.087,259.635Z" transform="translate(-560.955 -210.354)" fill="#c99e41"/>
      <path id="Path_32898" data-name="Path 32898" d="M869.087,297.585H858.733a1.208,1.208,0,0,0-1.2,1.209v10.354a1.2,1.2,0,0,0,1.2,1.2h10.354a1.208,1.208,0,0,0,1.209-1.2V298.794A1.212,1.212,0,0,0,869.087,297.585Z" transform="translate(-560.955 -230.66)" fill="#c99e41"/>
      <path id="Path_32899" data-name="Path 32899" d="M869.087,335.535H858.733a1.208,1.208,0,0,0-1.2,1.209v10.349a1.205,1.205,0,0,0,1.2,1.209h10.354a1.209,1.209,0,0,0,1.209-1.209V336.744a1.212,1.212,0,0,0-1.209-1.209Z" transform="translate(-560.955 -250.966)" fill="#e6e6e6"/>
      <path id="Path_32900" data-name="Path 32900" d="M869.087,373.485H858.733a1.209,1.209,0,0,0-1.2,1.209v10.349a1.205,1.205,0,0,0,1.2,1.209h10.354a1.209,1.209,0,0,0,1.209-1.209V374.694A1.213,1.213,0,0,0,869.087,373.485Z" transform="translate(-560.955 -271.272)" fill="#fff"/>
      <path id="Path_32901" data-name="Path 32901" d="M869.087,411.435H858.733a1.205,1.205,0,0,0-1.2,1.209v10.349a1.205,1.205,0,0,0,1.2,1.209h10.354a1.21,1.21,0,0,0,1.209-1.209V412.644A1.209,1.209,0,0,0,869.087,411.435Z" transform="translate(-560.955 -291.579)" fill="#c99e41"/>
      <path id="Path_32902" data-name="Path 32902" d="M915.847,259.635H905.493a1.208,1.208,0,0,0-1.2,1.209V271.2a1.2,1.2,0,0,0,1.2,1.2h10.354a1.208,1.208,0,0,0,1.209-1.2V260.844A1.212,1.212,0,0,0,915.847,259.635Z" transform="translate(-585.975 -210.354)" fill="#c99e41"/>
      <path id="Path_32903" data-name="Path 32903" d="M915.847,297.585H905.493a1.208,1.208,0,0,0-1.2,1.209v10.354a1.2,1.2,0,0,0,1.2,1.2h10.354a1.208,1.208,0,0,0,1.209-1.2V298.794A1.212,1.212,0,0,0,915.847,297.585Z" transform="translate(-585.975 -230.66)" fill="#c99e41"/>
      <path id="Path_32904" data-name="Path 32904" d="M915.847,335.535H905.493a1.208,1.208,0,0,0-1.2,1.209v10.349a1.205,1.205,0,0,0,1.2,1.209h10.354a1.209,1.209,0,0,0,1.209-1.209V336.744a1.212,1.212,0,0,0-1.209-1.209Z" transform="translate(-585.975 -250.966)" fill="#e6e6e6"/>
      <path id="Path_32905" data-name="Path 32905" d="M915.847,373.485H905.493a1.208,1.208,0,0,0-1.2,1.209v10.349a1.205,1.205,0,0,0,1.2,1.209h10.354a1.209,1.209,0,0,0,1.209-1.209V374.694A1.212,1.212,0,0,0,915.847,373.485Z" transform="translate(-585.975 -271.272)" fill="#c99e41"/>
      <path id="Path_32906" data-name="Path 32906" d="M915.847,411.435H905.493a1.206,1.206,0,0,0-1.2,1.209v10.349a1.205,1.205,0,0,0,1.2,1.209h10.354a1.209,1.209,0,0,0,1.209-1.209V412.644A1.209,1.209,0,0,0,915.847,411.435Z" transform="translate(-585.975 -291.578)" fill="#c99e41"/>
      <path id="Path_32907" data-name="Path 32907" d="M962.607,259.635H952.253a1.208,1.208,0,0,0-1.2,1.209V271.2a1.2,1.2,0,0,0,1.2,1.2h10.354a1.208,1.208,0,0,0,1.209-1.2V260.844A1.212,1.212,0,0,0,962.607,259.635Z" transform="translate(-610.995 -210.354)" fill="#e6e6e6"/>
      <path id="Path_32908" data-name="Path 32908" d="M962.607,297.585H952.253a1.208,1.208,0,0,0-1.2,1.209v10.354a1.2,1.2,0,0,0,1.2,1.2h10.354a1.208,1.208,0,0,0,1.209-1.2V298.794A1.212,1.212,0,0,0,962.607,297.585Z" transform="translate(-610.995 -230.66)" fill="#c99e41"/>
      <path id="Path_32909" data-name="Path 32909" d="M962.607,335.535H952.253a1.208,1.208,0,0,0-1.2,1.209v10.349a1.205,1.205,0,0,0,1.2,1.209h10.354a1.209,1.209,0,0,0,1.209-1.209V336.744A1.213,1.213,0,0,0,962.607,335.535Z" transform="translate(-610.995 -250.966)" fill="#c99e41"/>
      <path id="Path_32910" data-name="Path 32910" d="M962.607,373.485H952.253a1.208,1.208,0,0,0-1.2,1.209v10.349a1.205,1.205,0,0,0,1.2,1.209h10.354a1.209,1.209,0,0,0,1.209-1.209V374.694A1.213,1.213,0,0,0,962.607,373.485Z" transform="translate(-610.995 -271.272)" fill="#c99e41"/>
      <path id="Path_32911" data-name="Path 32911" d="M962.607,411.435H952.253a1.206,1.206,0,0,0-1.2,1.209v10.349a1.205,1.205,0,0,0,1.2,1.209h10.354a1.209,1.209,0,0,0,1.209-1.209V412.644A1.209,1.209,0,0,0,962.607,411.435Z" transform="translate(-610.995 -291.578)" fill="#e6e6e6"/>
      <path id="Path_32912" data-name="Path 32912" d="M1009.367,259.635H999.013a1.208,1.208,0,0,0-1.2,1.209V271.2a1.2,1.2,0,0,0,1.2,1.2h10.354a1.208,1.208,0,0,0,1.209-1.2V260.844A1.213,1.213,0,0,0,1009.367,259.635Z" transform="translate(-636.016 -210.354)" fill="#e6e6e6"/>
      <path id="Path_32913" data-name="Path 32913" d="M1009.367,297.585H999.013a1.208,1.208,0,0,0-1.2,1.209v10.354a1.2,1.2,0,0,0,1.2,1.2h10.354a1.208,1.208,0,0,0,1.209-1.2V298.794A1.212,1.212,0,0,0,1009.367,297.585Z" transform="translate(-636.016 -230.66)" fill="#e6e6e6"/>
      <path id="Path_32914" data-name="Path 32914" d="M1009.367,335.535H999.013a1.208,1.208,0,0,0-1.2,1.209v10.349a1.206,1.206,0,0,0,1.2,1.209h10.354a1.209,1.209,0,0,0,1.209-1.209V336.744A1.213,1.213,0,0,0,1009.367,335.535Z" transform="translate(-636.016 -250.966)" fill="#c99e41"/>
      <path id="Path_32915" data-name="Path 32915" d="M1009.367,373.485H999.013a1.209,1.209,0,0,0-1.2,1.209v10.349a1.205,1.205,0,0,0,1.2,1.209h10.354a1.209,1.209,0,0,0,1.209-1.209V374.694a1.213,1.213,0,0,0-1.209-1.209Z" transform="translate(-636.016 -271.272)" fill="#e6e6e6"/>
      <path id="Path_32916" data-name="Path 32916" d="M1009.367,411.435H999.013a1.205,1.205,0,0,0-1.2,1.209v10.349a1.205,1.205,0,0,0,1.2,1.209h10.354a1.209,1.209,0,0,0,1.209-1.209V412.644A1.209,1.209,0,0,0,1009.367,411.435Z" transform="translate(-636.016 -291.578)" fill="#e6e6e6"/>
      <path id="Path_32917" data-name="Path 32917" d="M335.763,660.014h-.288l.246-.033Z" transform="translate(-200.379 -387.569)" fill="#2f2e41"/>
      <circle id="ab6171fa-7d69-4734-b81c-8dff60f9761b" cx="31.764" cy="31.764" r="31.764" transform="translate(78.848 15.975)" fill="#e8b886"/>
      <path id="bf427902-b9bf-4946-b5d7-5c1c7e04535e" d="M442.154,178.086s8.308-15.882-9.97-17.326c0,0-15.582-14.135-31.464-2.584,0,0-8.663,0-13.4,9.8,0,0-6.813-2.584-8.311,4.331,0,0-4.986,14.438,0,27.433s6.642,14.438,6.642,14.438-8.192-27.244,11.749-28.688,42.255-13.906,43.917,1.977,4.163,19.8,4.163,19.8S461.263,184.584,442.154,178.086Z" transform="translate(-303.724 -153.636)" fill="#2f2e41"/>
      <path id="Path_32918" data-name="Path 32918" d="M475.762,384.195l-.1.539-1.148,6.063-7.936,41.936-.47,2.469-.986,5.221-1.348,7.123-2.989,15.784-.855,4.524-.321,1.7-.112.6-.888,4.682-.27,1.413-2.167,16.054-1.892,13.99,6.332,6.332-3.775,3.775-2.478,14.194,0,.033H353.227q-6.137-3.975-12.1-8.2l.832-6.23s2.864-11.126,1.66-12.455-3.831-3.705-3.831-3.705l3.315-7.736.46-1.074-.772-16.007-.019-.386-.256-5.277-.033-.679-.051-1.018-.981-20.308-.019-.335-.3-6.156-.279-5.853-.121-2.469-1.195-24.7-.809-16.774-.707-14.6,2.841-.962,30.383-10.326L383.838,349l26.194.2,12.823.1,21.4,19.843,4.868,2.325.037.019,3.492,1.669,8.852,4.226,9.359,4.473,4.8,2.292Z" transform="translate(-282.982 -258.174)" fill="#cacaca"/>
      <path id="Path_32919" data-name="Path 32919" d="M365.064,594.624A14.081,14.081,0,0,1,346.159,584.2l-49.542-7.029,17.222-19.481,44.405,9.661a14.157,14.157,0,0,1,6.82,27.277Z" transform="translate(-260.824 -369.834)" fill="#e8b886"/>
      <path id="Path_32920" data-name="Path 32920" d="M309.622,469.439a6.287,6.287,0,0,0-3.668-2.264l-20.326-4.226-2.087-.432a8.8,8.8,0,0,1-5.826-4.217,8.908,8.908,0,0,1-1.139-3.673,8.785,8.785,0,0,1,.414-3.478l7.044-21.224,4.57-13.771a19.432,19.432,0,0,0,.972-5.137,20.154,20.154,0,0,0-4.217-13.432,19.849,19.849,0,0,0-22.786-6.342c-.116.042-.237.088-.353.135a19.8,19.8,0,0,0-11.767,13.208l-4.965,18.062-10.242,37.236a26.857,26.857,0,0,0,22.763,33.791l29.276,3.431,13.548,1.59a6.275,6.275,0,0,0,6.9-4.989,2.27,2.27,0,0,0,.051-.256l.325-2.008,2.757-16.914.028-.172A6.265,6.265,0,0,0,309.622,469.439Z" transform="translate(-227.47 -280.067)" fill="#cacaca"/>
      <path id="Path_32921" data-name="Path 32921" d="M499,587.9a14.081,14.081,0,0,0,17.246-12.99L564.3,560.967l-19.8-16.858-42.6,15.827A14.157,14.157,0,0,0,499,587.9Z" transform="translate(-363.204 -362.569)" fill="#e8b886"/>
      <path id="Path_32922" data-name="Path 32922" d="M619.308,438.91l-22.856-52.6a19.908,19.908,0,0,0-9.424-9.926,20.16,20.16,0,0,0-4.082-1.488c-.219-.056-.437-.107-.656-.149a19.589,19.589,0,0,0-9.057.167,19.905,19.905,0,0,0-12.711,10.1.46.46,0,0,0-.037.065,20.039,20.039,0,0,0-.172,18.062l.284.567,16.151,32.438a8.787,8.787,0,0,1-4.882,12.176l-1.134.409-20.4,7.369a6.275,6.275,0,0,0-3.873,7.806l.051.163,5.719,18.3c.028.084.056.167.088.251a3.28,3.28,0,0,0,.186.46,6.268,6.268,0,0,0,7.35,3.5l11.009-2.906,2.246-.6,28.43-7.508a26.854,26.854,0,0,0,17.769-36.664Z" transform="translate(-394.351 -271.706)" fill="#cacaca"/>
      <path id="Path_32923" data-name="Path 32923" d="M219.629,608.285a239.014,239.014,0,0,0,21.27,22.744H451.03a7.646,7.646,0,0,1,7.634,7.639l.3,53.248a165.247,165.247,0,0,0,36.018-22.563q4.575-3.759,8.866-7.843,2.81-2.664,5.486-5.458a165.341,165.341,0,0,0,32-47.766Z" transform="translate(-219.629 -396.909)" fill="#3f3d56"/>
      <path id="Path_32924" data-name="Path 32924" d="M784.965,711.025q-2.671,2.8-5.486,5.458h-44.73v-5.458Z" transform="translate(-495.258 -451.882)" fill="#fff"/>
      <path id="Path_32925" data-name="Path 32925" d="M452.389,333.983a2.575,2.575,0,0,0-2.264-1.348H297.7a2.582,2.582,0,0,0-2.576,2.58v91.227H452.705V335.215A2.5,2.5,0,0,0,452.389,333.983Z" transform="translate(-260.027 -249.414)" fill="#3f3d56"/>
      <path id="Path_32926" data-name="Path 32926" d="M294.832,529.092V540.35a3.554,3.554,0,0,0,3.554,3.554h58.16v22.217h-.773a.462.462,0,0,0-.462.462v1.545a.462.462,0,0,0,.462.462h36.105a.462.462,0,0,0,.462-.462v-1.545a.462.462,0,0,0-.462-.462h-.773V543.9h58.16a3.554,3.554,0,0,0,3.554-3.554V529.092Z" transform="translate(-259.869 -354.534)" fill="#3f3d56"/>
      <circle id="Ellipse_1320" data-name="Ellipse 1320" cx="14.555" cy="14.555" r="14.555" transform="translate(97.494 113.137)" fill="#c99e41"/>
      <path id="Path_32927" data-name="Path 32927" d="M451.041,211.465h-2.325c0-17.574-17.393-29.09-34.939-29.1a38.3,38.3,0,0,0-7.6.739c-2.817.563-5.742,1.237-8.615,2.115-11.33,3.473-21.837,10.186-21.837,26.245a36.538,36.538,0,0,0,1.181,9.243l-2.25.586a38.994,38.994,0,0,1-1.255-9.828c0-14.031,5.76-23.669,15.71-29.416a50.759,50.759,0,0,1,18.927-5.918,45.158,45.158,0,0,1,9.182-.279C437.4,177.3,451.041,192.775,451.041,211.465Z" transform="translate(-301.908 -165.462)" fill="#c99e41"/>
      <path id="Path_32928" data-name="Path 32928" d="M533.185,240.2l-.916-6.769a7.4,7.4,0,0,0-8.485-6.3l-1.455.2a3.06,3.06,0,0,0-2.622,3.44l2.115,15.594a3.058,3.058,0,0,0,2.464,2.59,2.86,2.86,0,0,0,.567.056,3.017,3.017,0,0,0,.409-.028l1.628-.219a7.342,7.342,0,0,0,4.993-2.989c.125-.177.246-.358.358-.544A7.786,7.786,0,0,0,533.185,240.2Z" transform="translate(-380.179 -192.909)" fill="#c99e41"/>
      <path id="Path_32929" data-name="Path 32929" d="M521.39,228.275a2.99,2.99,0,0,0-1.083.893,3.045,3.045,0,0,0-.6,2.264l2.115,15.594a3.058,3.058,0,0,0,2.464,2.59Z" transform="translate(-380.179 -193.574)" fill="#fff"/>
      <path id="Path_32930" data-name="Path 32930" d="M545,242.449l-.916-6.769a7.3,7.3,0,0,0-2.325-4.445l2.106,15.514a2.873,2.873,0,0,0,.191.725,7.786,7.786,0,0,0,.944-5.026Z" transform="translate(-391.994 -195.158)" fill="#3f3d56"/>
      <ellipse id="Ellipse_1321" data-name="Ellipse 1321" cx="1.162" cy="3.254" rx="1.162" ry="3.254" transform="translate(143.74 45.874) rotate(-7.726)" fill="#3f3d56"/>
      <ellipse id="Ellipse_1322" data-name="Ellipse 1322" cx="1.162" cy="3.254" rx="1.162" ry="3.254" transform="translate(142.345 37.505) rotate(-7.726)" fill="#3f3d56"/>
      <ellipse id="Ellipse_1323" data-name="Ellipse 1323" cx="1.162" cy="3.254" rx="1.162" ry="3.254" transform="translate(151.179 40.76) rotate(-7.726)" fill="#3f3d56"/>
      <path id="Path_32932" data-name="Path 32932" d="M380.7,267.68l-3.58-14.882a2.8,2.8,0,0,0-2.269-2.115,3.125,3.125,0,0,0-.465-.037,2.8,2.8,0,0,0-.651.079l-1.386.335a6.929,6.929,0,0,0-5.109,8.35l1.6,6.676a7.367,7.367,0,0,0,2.483,4.008,6.525,6.525,0,0,0,.632.451,6.885,6.885,0,0,0,5.286.855l1.381-.335a2.715,2.715,0,0,0,1.009-.47A2.786,2.786,0,0,0,380.7,267.68Z" transform="translate(-298.508 -205.543)" fill="#c99e41"/>
      <ellipse id="Ellipse_1324" data-name="Ellipse 1324" cx="1.162" cy="3.254" rx="1.162" ry="3.254" transform="translate(72.032 53.312) rotate(-13.53)" fill="#3f3d56"/>
      <ellipse id="Ellipse_1325" data-name="Ellipse 1325" cx="1.162" cy="3.254" rx="1.162" ry="3.254" transform="translate(67.382 54.707) rotate(-13.53)" fill="#3f3d56"/>
      <path id="Path_32933" data-name="Path 32933" d="M389.948,267.4l-3.58-14.882a3.037,3.037,0,0,0-2.459-2.287l4.886,20.326a3.027,3.027,0,0,0,1.153-3.157Z" transform="translate(-307.531 -205.324)" fill="#fff"/>
      <path id="Path_32934" data-name="Path 32934" d="M368.044,261.844a3.012,3.012,0,0,0-.544-1.139,6.846,6.846,0,0,0-.265,4.087l1.6,6.676a7.367,7.367,0,0,0,2.483,4.008Z" transform="translate(-298.506 -210.926)" fill="#3f3d56"/>
    </g>
  </g>
</svg>
