<svg xmlns="http://www.w3.org/2000/svg" width="484.865" height="363.973" viewBox="0 0 484.865 363.973">
  <g id="Group_34747" data-name="Group 34747" transform="translate(0)">
    <path id="Path_32617" data-name="Path 32617" d="M864.966,636.926l.728-16.365a52.855,52.855,0,0,1,24.653-6.241c-11.841,9.681-10.361,28.341-18.388,41.359a31.793,31.793,0,0,1-23.314,14.692l-9.909,6.067a53.274,53.274,0,0,1,11.229-43.17,51.465,51.465,0,0,1,9.457-8.787C861.8,630.738,864.966,636.926,864.966,636.926Z" transform="translate(-421.923 -312.465)" fill="#f2f2f2"/>
    <path id="Path_32618" data-name="Path 32618" d="M406.307,434.838a6.063,6.063,0,0,1,.4-9.288L399.915,405.1l10.813,2.9,4.789,18.972a6.1,6.1,0,0,1-9.209,7.859Z" transform="translate(-303.441 -255.868)" fill="#a0616a"/>
    <path id="Path_32619" data-name="Path 32619" d="M423.68,293.226c1.794,1.028,12.409-1.52,14.482-.8-1.144,6.982,5.071,4.362-1.678,13.532S416.14,342.625,413.052,352.9s-.032,24.756-.494,29.626A50.541,50.541,0,0,0,412.6,391c-3.647-.046-7.241.711-10.945.227-3.95-11.176-6.605-27.084-8.409-35.876s-1.869-5.074-1.042-9.47,1.027-1.2.159-5.407,2.645-9.49,5.891-12.5c1.4-4.026,3.209-7.78,4.595-11.764C413,307.35,413.671,302.232,423.68,293.226Z" transform="translate(-301.217 -225.353)" fill="#c99e41"/>
    <path id="Path_32620" data-name="Path 32620" d="M567.43,470.568h-8.972l-4.268-34.607h13.242Z" transform="translate(-149.918 -117.935)" fill="#e8b886"/>
    <path id="Path_32621" data-name="Path 32621" d="M832.414,690.052h-28.93v-.366a11.261,11.261,0,0,1,11.259-11.26h0l5.284-4.009,9.86,4.01h2.525Z" transform="translate(-412.613 -328.722)" fill="#2f2e41"/>
    <path id="Path_32622" data-name="Path 32622" d="M510.29,470.568h-8.972l-4.268-34.607h13.242Z" transform="translate(-134.461 -117.935)" fill="#e8b886"/>
    <path id="Path_32623" data-name="Path 32623" d="M775.274,690.052h-28.93v-.366a11.261,11.261,0,0,1,11.26-11.26h0l5.284-4.009,9.859,4.01h2.525Z" transform="translate(-397.156 -328.722)" fill="#2f2e41"/>
    <path id="Path_32624" data-name="Path 32624" d="M772.143,424.569l58.359,1.459c11.084,6.02,11.252,19.05,7.62,34.519,0,0,1.226,9.195-1.226,11.647s-3.678,2.452-2.452,6.743-5.251,11.3-4.465,12.086,2.626,5.078,2.626,5.078l-6.13,34.94s-4.291,60.685-5.517,61.911-2.452,0-1.226,3.065,2.452,1.839,1.226,3.065a45.134,45.134,0,0,0-3.065,3.678h-14.82s-1.117-6.13-1.117-6.743-1.226-4.291-1.226-4.9,1.084-1.7,1.084-1.7a20.176,20.176,0,0,0,.755-3.82c0-1.226,3.678-48.426,3.678-48.426l-7.356-61.3-17.776,60.072s0,52.717-1.226,53.943-1.226.613-.613,3.065,3.065,1.839,1.226,3.678-2.452-1.226-1.839,1.839l.613,3.065-18.389.263s-2.452-5.167-1.226-7.006,1.152-1.337-.343-4.346-2.109-3.622-1.5-4.235.613-3.873.613-3.873l3.065-58.651s.613-61.911.613-63.75a6.113,6.113,0,0,0-.509-2.758v-2.5l2.348-8.845Z" transform="translate(-400.197 -261.134)" fill="#2f2e41"/>
    <circle id="Ellipse_1289" data-name="Ellipse 1289" cx="18.132" cy="18.132" r="18.132" transform="translate(388.87 5.823)" fill="#e8b886"/>
    <path id="Path_32625" data-name="Path 32625" d="M801.674,271.382c-3.906,2.322-6.243,6.589-7.585,10.931a103.59,103.59,0,0,0-4.452,24.751l-1.417,25.149-17.547,53.55c15.208,12.868,72.371,2.925,72.371,2.925s1.755-.585,0-2.34-3.463-.2-1.708-1.955.545.2-.04-1.555,0-.585.585-1.17-4.528-5.849-4.528-5.849l4.679-30.738,5.849-62c-7.019-8.774-21.135-13.946-21.135-13.946l-3.647-6.565-18.237,1.459Z" transform="translate(-403.738 -217.31)" fill="#3f3d56"/>
    <path id="Path_32626" data-name="Path 32626" d="M807.335,213.841a8.569,8.569,0,0,1,2.079.273,29.591,29.591,0,0,0,4.07.682,18.858,18.858,0,0,1,16.886,16c1.054-.919,3.451-2.608,5.416-1.038h0c.03.025.047.038.116,0,1.305-.619,3.622-8.239,3.692-14.949.037-3.561-.524-8.109-3.4-9.549l-.152-.076-.04-.165c-.192-.8-2.342-2.169-6.079-3.233-6.79-1.934-16.713-2.214-22.412,3.331-.431,1.869-2.035,2.382-3.452,2.835-1.57.5-2.925.935-3.139,2.861a59.013,59.013,0,0,0,.039,8.228,8.4,8.4,0,0,1,2.985-4.193,5.917,5.917,0,0,1,3.394-1.008Z" transform="translate(-411.885 -200.527)" fill="#2f2e41"/>
    <path id="Path_32627" data-name="Path 32627" d="M740.94,341.732l29.619-18.969-14.918-19.831-14.731,18.12-45.9,2.815a8.747,8.747,0,1,0-.49,12.89Z" transform="translate(-379.24 -228.229)" fill="#e8b886"/>
    <path id="Path_32628" data-name="Path 32628" d="M819.944,288.806c1.719,10.4-30.744,30.27-30.744,30.27,0-2.442-19.376,15.993-20.251,13.968-2.486-5.756-4.233-19.389-7.707-21.571C759.255,310.225,773.2,298.5,773.2,298.5s7.3-7.356,16.884-16.634a22.354,22.354,0,0,1,20.7-6.052S818.225,278.4,819.944,288.806Z" transform="translate(-401.134 -220.749)" fill="#3f3d56"/>
    <path id="Path_32629" data-name="Path 32629" d="M722.956,420.779a99.041,99.041,0,0,1-5.515,32.7c-.168.489-.343.97-.518,1.459a99.56,99.56,0,0,1-39.72,49.43c-1.247.8-2.509,1.568-3.793,2.312a98.64,98.64,0,0,1-48,13.291c-.554.007-1.109.015-1.663.015-.715,0-1.423-.007-2.13-.022a98.743,98.743,0,0,1-48-13.554q-1.926-1.127-3.793-2.342a99.3,99.3,0,0,1-35.431-126.456c.233-.489.474-.97.722-1.459a99.249,99.249,0,0,1,177.264,0c.248.489.489.97.722,1.459A98.783,98.783,0,0,1,722.956,420.779Z" transform="translate(-337.15 -233.271)" fill="#f2f2f2" style="mix-blend-mode: normal;isolation: isolate"/>
    <path id="Path_32630" data-name="Path 32630" d="M695.156,502.4v1.459h8.885V502.4Zm-17.77,0v1.459h8.885V502.4Zm-17.77,0v1.459H668.5V502.4Zm-17.77,0v1.459h8.885V502.4Zm-17.77,0v1.459h8.885V502.4Zm-17.77,0v1.459h8.885V502.4Zm-17.77,0v1.459h8.885V502.4Zm-17.763,0v1.459h8.878V502.4Zm-17.77,0v1.459h8.885V502.4Zm-17.77,0v1.459h8.885V502.4Zm185.106,0h-7.412v1.459h6.894Z" transform="translate(-340.046 -282.189)" fill="#e6e6e6"/>
    <path id="Path_32631" data-name="Path 32631" d="M712.926,488.4v1.459h8.885V488.4Zm-17.77,0v1.459h8.885V488.4Zm-17.77,0v1.459h8.885V488.4Zm-17.77,0v1.459H668.5V488.4Zm-17.77,0v1.459h8.885V488.4Zm-17.77,0v1.459h8.885V488.4Zm-17.77,0v1.459h8.885V488.4Zm-17.77,0v1.459h8.885V488.4Zm-17.763,0v1.459h8.878V488.4Zm-17.77,0v1.459h8.885V488.4Zm-17.77,0v1.459h8.885V488.4Z" transform="translate(-340.046 -278.401)" fill="#e6e6e6"/>
    <path id="Path_32632" data-name="Path 32632" d="M712.926,459.4v1.459h8.885V459.4Zm-17.77,0v1.459h8.885V459.4Zm-17.77,0v1.459h8.885V459.4Zm-17.77,0v1.459H668.5V459.4Zm-17.77,0v1.459h8.885V459.4Zm-17.77,0v1.459h8.885V459.4Zm-17.77,0v1.459h8.885V459.4Zm-17.77,0v1.459h8.885V459.4Zm-17.763,0v1.459h8.878V459.4Zm-17.77,0v1.459h8.885V459.4Zm-17.77,0v1.459h8.885V459.4Z" transform="translate(-340.046 -270.556)" fill="#e6e6e6"/>
    <path id="Path_32633" data-name="Path 32633" d="M712.926,439.4v1.459h8.885V439.4Zm-17.77,0v1.459h8.885V439.4Zm-17.77,0v1.459h8.885V439.4Zm-17.77,0v1.459H668.5V439.4Zm-17.77,0v1.459h8.885V439.4Zm-17.77,0v1.459h8.885V439.4Zm-17.77,0v1.459h8.885V439.4Zm-17.77,0v1.459h8.885V439.4Zm-17.763,0v1.459h8.878V439.4Zm-17.77,0v1.459h8.885V439.4Zm-17.77,0v1.459h8.885V439.4Z" transform="translate(-340.046 -265.146)" fill="#e6e6e6"/>
    <path id="Path_32634" data-name="Path 32634" d="M716.038,396.4h-2.349v1.459h3.071C716.527,397.369,716.286,396.888,716.038,396.4Zm-20.119,0v1.459H704.8V396.4Zm-17.77,0v1.459h8.885V396.4Zm-17.77,0v1.459h8.885V396.4Zm-17.77,0v1.459h8.885V396.4Zm-17.77,0v1.459h8.885V396.4Zm-17.77,0v1.459h8.885V396.4Zm-17.77,0v1.459h8.885V396.4Zm-17.763,0v1.459h8.878V396.4Zm-17.77,0v1.459h8.885V396.4Zm-14.991,0c-.248.489-.489.97-.722,1.459h6.828V396.4Z" transform="translate(-340.809 -253.514)" fill="#e6e6e6"/>
    <path id="Path_32635" data-name="Path 32635" d="M732.415,403.139v123.3c-1.247.8-2.509,1.568-3.793,2.312V403.139Z" transform="translate(-392.362 -255.337)" fill="#3f3d56"/>
    <path id="Path_32636" data-name="Path 32636" d="M661.415,459.139v98.05c-.554.007-1.109.015-1.663.015-.715,0-1.422-.007-2.13-.022V459.139Z" transform="translate(-373.155 -270.486)" fill="#3f3d56"/>
    <path id="Path_32637" data-name="Path 32637" d="M590.415,403.139v125.34q-1.926-1.127-3.793-2.342v-123Z" transform="translate(-353.948 -255.337)" fill="#3f3d56"/>
    <path id="Path_32638" data-name="Path 32638" d="M325.148,623.177,323.7,603.051a65.1,65.1,0,0,0-30.564-6.854c14.9,11.521,13.711,34.547,24.033,50.3a39.159,39.159,0,0,0,29.2,17.3l12.4,7.136a65.619,65.619,0,0,0-15.278-52.775,63.386,63.386,0,0,0-11.94-10.5C328.843,615.451,325.148,623.177,325.148,623.177Z" transform="translate(-274.555 -307.558)" fill="#f2f2f2"/>
    <circle id="Ellipse_1290" data-name="Ellipse 1290" cx="13.86" cy="13.86" r="13.86" transform="translate(323.8 129.879)" fill="#c99e41"/>
    <path id="Path_32639" data-name="Path 32639" d="M735.431,389.536a1.121,1.121,0,0,0-1.547,0,45.907,45.907,0,0,0-7.865,8.034l-1.681-3.253c-.647-1.252-2.536-.146-1.89,1.1l2.459,4.758a1.107,1.107,0,0,0,1.89,0,44.313,44.313,0,0,1,8.635-9.1,1.1,1.1,0,0,0,0-1.547Z" transform="translate(-390.656 -251.573)" fill="#fff"/>
    <circle id="Ellipse_1291" data-name="Ellipse 1291" cx="13.86" cy="13.86" r="13.86" transform="translate(272.736 170.73)" fill="#c99e41"/>
    <path id="Path_32640" data-name="Path 32640" d="M665.431,445.536a1.121,1.121,0,0,0-1.547,0,45.907,45.907,0,0,0-7.865,8.034l-1.681-3.253c-.647-1.252-2.536-.146-1.89,1.1l2.459,4.758a1.107,1.107,0,0,0,1.89,0,44.318,44.318,0,0,1,8.635-9.1A1.1,1.1,0,0,0,665.431,445.536Z" transform="translate(-371.72 -266.722)" fill="#fff"/>
    <circle id="Ellipse_1292" data-name="Ellipse 1292" cx="13.86" cy="13.86" r="13.86" transform="translate(220.943 132.797)" fill="#c99e41"/>
    <path id="Path_32641" data-name="Path 32641" d="M594.431,393.536a1.121,1.121,0,0,0-1.547,0,45.906,45.906,0,0,0-7.865,8.034l-1.681-3.253c-.647-1.252-2.536-.146-1.89,1.1l2.459,4.758a1.107,1.107,0,0,0,1.89,0,44.317,44.317,0,0,1,8.635-9.1A1.1,1.1,0,0,0,594.431,393.536Z" transform="translate(-352.513 -252.655)" fill="#fff"/>
    <path id="Path_32642" data-name="Path 32642" d="M841.59,373.749l9.124-33.969-24.383-4.616,1.311,23.316-32.037,32.988a8.747,8.747,0,1,0,8.318,9.86Z" transform="translate(-408.019 -236.949)" fill="#e8b886"/>
    <path id="Path_32643" data-name="Path 32643" d="M867.143,287.735c8.276,6.534-2.346,43.081-2.346,43.081-1.645-1.8-3.556,24.871-5.566,23.963-5.714-2.582-16.186-11.484-20.223-10.758-2.309.415.11-17.645.11-17.645s.445-10.355,1.281-23.667a22.354,22.354,0,0,1,11.232-18.416S858.867,281.2,867.143,287.735Z" transform="translate(-421.953 -222.989)" fill="#3f3d56"/>
    <path id="Path_32644" data-name="Path 32644" d="M198.291,192.115l10.031,44.765-64.281-4,17.48-43.964Z" transform="translate(-38.966 -51.106)" fill="#a0616a"/>
    <path id="Path_32645" data-name="Path 32645" d="M203.735,466.2h7.22l3.435-27.851H203.734Z" transform="translate(-55.114 -118.581)" fill="#a0616a"/>
    <path id="Path_32646" data-name="Path 32646" d="M467.515,671.92l11.414-.681v4.89l10.852,7.495a3.055,3.055,0,0,1-1.736,5.569H474.456l-2.342-4.837-.915,4.837h-5.124Z" transform="translate(-321.339 -327.863)" fill="#2f2e41"/>
    <path id="Path_32647" data-name="Path 32647" d="M110.182,461.51l7.057,1.53,9.261-26.49-10.415-2.259Z" transform="translate(-29.806 -117.484)" fill="#a0616a"/>
    <path id="Path_32648" data-name="Path 32648" d="M373.727,666.648l11.3,1.754-1.037,4.779,9.016,9.625a3.055,3.055,0,0,1-2.877,5.074L376.849,685l-1.264-5.224-1.919,4.534-5.007-1.086Z" transform="translate(-294.986 -326.621)" fill="#2f2e41"/>
    <path id="Path_32649" data-name="Path 32649" d="M468.039,485.28c-5.068,27.85-6.334,39.875-6.334,39.875s3.8,4.431,1.267,6.964,0,7.594,0,7.594l-5.7,61.4-4.586-.743-11.048-1.776-3.985-.644,2.534-57.6s-2.534-5.067-1.267-6.334-1.267-8.861-1.267-8.861l-3.164-60.131-19.626,65.829s1.9,2.534,0,4.431-5.69,11.395-5.69,11.395L397.5,587.516l-.991,3.468-6.087-1.139L383.8,588.6l-1.217-.227-2.166-.41-1.394-.262-.474-.085-2.293-.432.694-3.079.361-1.621,9.873-43.853.226-1.012.241-1.069s-1.267-3.164.63-5.068a4.946,4.946,0,0,0,1.267-4.431,1.729,1.729,0,0,1-.17-.212,2.628,2.628,0,0,1-.453-1.033,3.426,3.426,0,0,1,1.26-3.185,5.4,5.4,0,0,0,.9-1.288c1.925-3.645,2.895-11.367,2.895-11.367s1.713-61.157,7.318-70.5c.3-.488,6.248-9.864,6.559-10.055,6.327-3.794,55.623,1.446,55.623,1.446s2.986,8.021,3.12,8.856C467.329,444.407,472.335,461.655,468.039,485.28Z" transform="translate(-297.041 -262.071)" fill="#2f2e41"/>
    <path id="Path_32650" data-name="Path 32650" d="M464.925,298.345s1.067-5.537-9.183-15.787c-5.426-1.809-14.828-.755-18.088,0-15.073,19.9-12.374,16.386-16.3,27.5a15.657,15.657,0,0,0-1.074,7.913c1.809,9.044,4.745,55.468,4.142,57.879s-4.823,5.426-.6,5.426,58.647-.953,57.441-2.761S464.925,298.345,464.925,298.345Z" transform="translate(-308.906 -222.447)" fill="#c99e41"/>
    <path id="Path_32651" data-name="Path 32651" d="M559.222,399.515a6.063,6.063,0,0,1-8.14-4.492l-21.331-3.03,7.417-8.387,19.119,4.163a6.1,6.1,0,0,1,2.935,11.745Z" transform="translate(-338.564 -250.053)" fill="#a0616a"/>
    <path id="Path_32652" data-name="Path 32652" d="M446.438,298.489c1.72-1.148,3.673-1.687,5.246-3.221,5.742,4.135,6.164-2.6,11.368,7.53s23.763,34.544,31.588,41.886,22.151,11.055,26.3,13.638a50.537,50.537,0,0,0,7.608,3.738c-1.666,3.244-2.589,6.8-4.671,9.9-11.766-1.442-27.191-6.15-35.866-8.451s-5.375-.586-8.943-3.285-.618-1.455-4.771-2.55-7.319-6.595-8.57-10.844c-2.981-3.047-5.537-6.338-8.486-9.354C453.835,324.439,450.043,311.462,446.438,298.489Z" transform="translate(-316.026 -226.156)" fill="#c99e41"/>
    <circle id="Ellipse_1293" data-name="Ellipse 1293" cx="17.459" cy="17.459" r="17.459" transform="translate(126.422 17.477)" fill="#a0616a"/>
    <path id="Path_32653" data-name="Path 32653" d="M465.612,269.761c-.828-1.182-7.015-12.9-8.854-17.331a20.255,20.255,0,0,0-.357,2.908l-.018.364-.361.047c-.544.069-13.384,1.628-20.067-5.949-3.959-4.488-4.857-11.221-2.672-20.014a3.485,3.485,0,0,1-1.125-.433,4.832,4.832,0,0,1-2.06-3.509l-.37.1c-11.889-5.785-1.646-22.708,9.213-14.294a5.247,5.247,0,0,1,2.867.165,5.319,5.319,0,0,1,3.284,4.352c5.611-2.951,13.036-2.471,16.876-.257a4.805,4.805,0,0,1,2.7,3.4c4.536.253,9.415,4.672,9.415,10.932v.436h-.436a10.063,10.063,0,0,0-8.768,5.523,12.824,12.824,0,0,0,.394,13.084,18.45,18.45,0,0,1,2.546,14.106l-1.638,7.178Z" transform="translate(-310.067 -202.913)" fill="#2f2e41"/>
    <path id="Path_32654" data-name="Path 32654" d="M473.868,695.726a.866.866,0,0,1-.868.868H268.533a.868.868,0,1,1,0-1.736H473a.866.866,0,0,1,.868.868Z" transform="translate(-267.665 -334.252)" fill="#ccc"/>
    <path id="Path_32655" data-name="Path 32655" d="M855.868,695.726a.866.866,0,0,1-.868.868H650.533a.868.868,0,1,1,0-1.736H855a.866.866,0,0,1,.868.868Z" transform="translate(-371.003 -334.252)" fill="#ccc"/>
    <circle id="Ellipse_1294" data-name="Ellipse 1294" cx="7.726" cy="7.726" r="7.726" transform="translate(226.647 283.461)" fill="#e6e6e6"/>
    <circle id="Ellipse_1295" data-name="Ellipse 1295" cx="7.726" cy="7.726" r="7.726" transform="translate(278.44 291.485)" fill="#e6e6e6"/>
    <circle id="Ellipse_1296" data-name="Ellipse 1296" cx="7.726" cy="7.726" r="7.726" transform="translate(330.233 282.002)" fill="#e6e6e6"/>
  </g>
</svg>
