<svg id="Group_34748" data-name="Group 34748" xmlns="http://www.w3.org/2000/svg" width="742.909" height="401" viewBox="0 0 742.909 401">
  <path id="Path_32656" data-name="Path 32656" d="M183.113,617.883,180.8,629.509c-.175.889-.357,1.794-.556,2.69a11.338,11.338,0,0,0-5.825.325,54.369,54.369,0,0,1,4,6.69c-1.46,4.5-3.6,8.658-7.19,11.666a18.03,18.03,0,0,1-17.419,3.063l.1-.46c-3.857-7.484-1.762-16.919,3.032-23.832a46.334,46.334,0,0,1,8.611-9.1c3.238-2.7,6.738-5.119,10.206-7.507a4.754,4.754,0,0,1,7.357,4.841Z" transform="translate(-136.056 -282.98)" fill="#e4e4e4"/>
  <path id="a4b268fa-75d0-4ac1-9d87-14bdca948464-2189" d="M154.944,688.044c-.975-7.105-1.978-14.3-1.294-21.482a33.785,33.785,0,0,1,6.515-17.714A29.468,29.468,0,0,1,167.725,642c.756-.476,1.451.721.7,1.2a28.014,28.014,0,0,0-11.081,13.37c-2.413,6.136-2.8,12.825-2.381,19.343.252,3.942.784,7.857,1.321,11.769a.714.714,0,0,1-.484.852.7.7,0,0,1-.852-.484Z" transform="translate(-136.37 -289.107)" fill="#f2f2f2"/>
  <path id="Path_32657" data-name="Path 32657" d="M165.588,250.232q50.993-.887,102-.255t101.959,2.8q28.6,1.213,57.171,2.906c1.53.091,1.525-2.291,0-2.381q-50.912-3.013-101.9-4.508T222.83,247.332q-28.623.019-57.243.519a1.191,1.191,0,0,0,0,2.381Z" transform="translate(-138.643 -207.668)" fill="#cbcbcb"/>
  <path id="Path_32658" data-name="Path 32658" d="M464.125,231.267l14.865-1.106c1.519-.113,1.531-2.495,0-2.381l-14.865,1.106C462.606,229,462.594,231.381,464.125,231.267Z" transform="translate(-200.264 -203.632)" fill="#cbcbcb"/>
  <path id="Path_32659" data-name="Path 32659" d="M464.125,249.267l14.865-1.106c1.519-.113,1.531-2.495,0-2.381l-14.865,1.106C462.606,247,462.594,249.381,464.125,249.267Z" transform="translate(-200.264 -207.347)" fill="#cbcbcb"/>
  <path id="Path_32660" data-name="Path 32660" d="M462.716,241.334l21.135,1.92c1.525.139,1.516-2.243,0-2.381l-21.135-1.92C461.191,238.815,461.2,241.2,462.716,241.334Z" transform="translate(-199.974 -205.938)" fill="#cbcbcb"/>
  <path id="Path_32661" data-name="Path 32661" d="M175.579,228.141a5.266,5.266,0,0,0-4.867,3.179,4.741,4.741,0,0,0,1.091,5.631,5.636,5.636,0,0,0,5.34,1.085,4.764,4.764,0,0,0,3.193-4.478,5.323,5.323,0,0,0-3.316-5.134,1.2,1.2,0,0,0-1.464.831,1.224,1.224,0,0,0,.831,1.464c.207.08-.19-.1,0,0,.08.043.161.083.239.129s.13.082.195.125c.222.145-.108-.106.034.024.123.113.245.223.357.348.042.047.208.178.079.087-.1-.07-.038-.054,0,0s.059.084.088.127a4.249,4.249,0,0,1,.253.437c.018.035.033.07.051.105.033.065.082.082,0,0s-.027-.072,0,0c.018.049.037.1.054.147a4.584,4.584,0,0,1,.14.49c.017.077.031.154.046.231.053.273-.008-.17.005.033.011.17.023.337.02.508q0,.117-.01.233c0,.039-.007.077-.01.116-.012.187-.013-.068.013-.086a2.2,2.2,0,0,0-.108.49c-.021.074-.047.146-.07.22-.083.255.078-.139-.01.035a4.358,4.358,0,0,1-.243.436c-.039.059-.185.192-.065.1s-.068.073-.11.117-.11.112-.169.166a1.352,1.352,0,0,1-.118.1c-.008,0,.2-.138.088-.067-.141.09-.275.187-.424.265-.017.009-.208.1-.207.1-.008-.032.245-.089.071-.033-.037.012-.072.026-.109.038a3.887,3.887,0,0,1-.484.129c-.038.007-.077.011-.114.021-.123.032.118-.019.125-.014a1.038,1.038,0,0,0-.271.024,4.43,4.43,0,0,1-.507,0l-.117-.008c-.091-.005-.157-.071-.037,0,.093.055.085.015,0,0l-.116-.02a4.618,4.618,0,0,1-.5-.121c-.088-.027-.173-.058-.26-.088a.69.69,0,0,1-.11-.042c0-.01.223.107.1.043-.149-.08-.3-.147-.448-.235-.077-.047-.152-.1-.227-.148a.731.731,0,0,1-.094-.067c0-.01.185.159.089.068-.121-.115-.25-.218-.365-.341-.026-.028-.051-.057-.077-.086l-.025-.029q-.1-.118,0,0c.063.019.06.088,0,0-.021-.032-.044-.063-.065-.1a2.487,2.487,0,0,1-.246-.439c.006,0,.1.286.029.067-.014-.041-.03-.082-.044-.124q-.041-.124-.072-.25c-.021-.084-.031-.17-.052-.253-.035-.14.02.111.014.1s-.011-.141-.013-.17c-.01-.187.012-.368.015-.554,0-.144-.012.112-.015.1a.4.4,0,0,1,.023-.126c.022-.1.042-.2.068-.293s.065-.22.1-.329c.015-.04.033-.08.046-.121.05-.149-.1.181-.017.046.113-.185.2-.386.318-.569.029-.043.2-.285.11-.163s.094-.109.129-.148c.146-.163.318-.3.469-.452.089-.092-.062.045-.071.052.047-.033.093-.068.14-.1q.124-.085.254-.162c.1-.057.208-.1.3-.16.112-.072-.086.031-.089.034a.885.885,0,0,1,.159-.061c.092-.033.493-.206.577-.152,0,0-.3.024-.061.009.057,0,.115-.009.172-.012.116,0,.232,0,.348,0a1.2,1.2,0,0,0,1.19-1.19,1.217,1.217,0,0,0-1.19-1.19Z" transform="translate(-139.837 -203.707)" fill="#cbcbcb"/>
  <path id="Path_32662" data-name="Path 32662" d="M196.579,228.141a5.266,5.266,0,0,0-4.867,3.179,4.741,4.741,0,0,0,1.091,5.631,5.636,5.636,0,0,0,5.34,1.085,4.764,4.764,0,0,0,3.193-4.478,5.323,5.323,0,0,0-3.316-5.134,1.2,1.2,0,0,0-1.464.831,1.224,1.224,0,0,0,.831,1.464c.207.08-.19-.1,0,0,.08.043.161.083.239.129s.13.082.195.125c.222.145-.108-.106.034.024.123.113.245.223.357.348.042.047.208.178.079.087-.1-.07-.038-.054,0,0s.059.084.088.127a4.236,4.236,0,0,1,.253.437c.017.035.033.07.051.105.033.065.082.082,0,0s-.027-.072,0,0c.018.049.037.1.054.147a4.58,4.58,0,0,1,.14.49c.017.077.031.154.046.231.053.273-.008-.17.005.033.011.17.023.337.02.508q0,.117-.01.233c0,.039-.007.077-.01.116-.012.187-.013-.068.013-.086a2.2,2.2,0,0,0-.108.49c-.021.074-.047.146-.07.22-.083.255.078-.139-.01.035a4.36,4.36,0,0,1-.243.436c-.039.059-.185.192-.065.1s-.068.073-.11.117-.11.112-.169.166a1.352,1.352,0,0,1-.118.1c-.008,0,.2-.138.088-.067-.141.09-.275.187-.424.265-.017.009-.208.1-.207.1-.008-.032.245-.089.071-.033-.036.012-.072.026-.109.038a3.887,3.887,0,0,1-.484.129c-.038.007-.077.011-.114.021-.123.032.118-.019.125-.014a1.038,1.038,0,0,0-.271.024,4.43,4.43,0,0,1-.507,0l-.117-.008c-.091-.005-.157-.071-.037,0,.093.055.085.015,0,0l-.116-.02a4.62,4.62,0,0,1-.5-.121c-.088-.027-.173-.058-.26-.088a.691.691,0,0,1-.11-.042c0-.01.223.107.1.043-.149-.08-.3-.147-.448-.235-.077-.047-.152-.1-.227-.148a.729.729,0,0,1-.094-.067c0-.01.185.159.089.068-.121-.115-.25-.218-.365-.341-.026-.028-.051-.057-.077-.086l-.025-.029q-.1-.118,0,0c.063.019.06.088,0,0-.021-.032-.044-.063-.065-.1a2.488,2.488,0,0,1-.246-.439c.006,0,.1.286.029.067-.014-.041-.03-.082-.044-.124q-.041-.124-.072-.25c-.021-.084-.031-.17-.052-.253-.035-.14.02.111.014.1s-.011-.141-.013-.17c-.01-.187.012-.368.015-.554,0-.144-.012.112-.015.1a.4.4,0,0,1,.023-.126c.022-.1.042-.2.068-.293s.065-.22.1-.329c.015-.04.033-.08.046-.121.05-.149-.1.181-.017.046.113-.185.2-.386.318-.569.029-.043.2-.285.11-.163s.094-.109.129-.148c.146-.163.318-.3.469-.452.09-.092-.062.045-.071.052.047-.033.093-.068.14-.1q.124-.085.254-.162c.1-.057.208-.1.3-.16.112-.072-.086.031-.089.034a.885.885,0,0,1,.159-.061c.092-.033.493-.206.577-.152,0,0-.3.024-.061.009.057,0,.115-.009.172-.012.116,0,.232,0,.348,0a1.2,1.2,0,0,0,1.19-1.19,1.217,1.217,0,0,0-1.19-1.19Z" transform="translate(-144.172 -203.707)" fill="#cbcbcb"/>
  <path id="Path_32663" data-name="Path 32663" d="M217.579,228.141a5.266,5.266,0,0,0-4.867,3.179,4.741,4.741,0,0,0,1.091,5.631,5.636,5.636,0,0,0,5.34,1.085,4.764,4.764,0,0,0,3.193-4.478,5.323,5.323,0,0,0-3.316-5.134,1.2,1.2,0,0,0-1.464.831,1.224,1.224,0,0,0,.831,1.464c.207.08-.19-.1,0,0,.08.043.161.083.239.129s.13.082.195.125c.222.145-.108-.106.034.024.123.113.245.223.357.348.042.047.208.178.079.087-.1-.07-.038-.054,0,0s.059.084.088.127a4.246,4.246,0,0,1,.253.437c.018.035.034.07.051.105.033.065.082.082,0,0s-.027-.072,0,0c.018.049.037.1.054.147a4.587,4.587,0,0,1,.14.49c.017.077.031.154.046.231.053.273-.008-.17.005.033.011.17.023.337.02.508q0,.117-.01.233c0,.039-.007.077-.01.116-.012.187-.013-.068.013-.086a2.2,2.2,0,0,0-.108.49c-.021.074-.047.146-.07.22-.083.255.078-.139-.01.035a4.354,4.354,0,0,1-.243.436c-.039.059-.185.192-.065.1s-.068.073-.11.117-.11.112-.169.166a1.353,1.353,0,0,1-.118.1c-.008,0,.2-.138.088-.067-.141.09-.275.187-.424.265-.017.009-.208.1-.207.1-.008-.032.245-.089.071-.033-.037.012-.072.026-.109.038a3.887,3.887,0,0,1-.484.129c-.038.007-.077.011-.114.021-.123.032.118-.019.125-.014a1.038,1.038,0,0,0-.271.024,4.43,4.43,0,0,1-.507,0l-.117-.008c-.091-.005-.157-.071-.037,0,.093.055.085.015,0,0l-.116-.02a4.619,4.619,0,0,1-.5-.121c-.088-.027-.173-.058-.26-.088a.69.69,0,0,1-.11-.042c0-.01.223.107.1.043-.149-.08-.3-.147-.448-.235-.077-.047-.152-.1-.227-.148a.731.731,0,0,1-.094-.067c0-.01.185.159.089.068-.121-.115-.25-.218-.365-.341-.026-.028-.051-.057-.077-.086l-.025-.029q-.1-.118,0,0c.063.019.06.088,0,0-.021-.032-.044-.063-.065-.1a2.486,2.486,0,0,1-.246-.439c.006,0,.1.286.029.067-.014-.041-.03-.082-.044-.124q-.041-.124-.072-.25c-.021-.084-.031-.17-.052-.253-.035-.14.02.111.014.1s-.011-.141-.013-.17c-.01-.187.012-.368.015-.554,0-.144-.012.112-.015.1a.4.4,0,0,1,.023-.126c.022-.1.042-.2.068-.293s.065-.22.1-.329c.015-.04.033-.08.046-.121.05-.149-.1.181-.017.046.113-.185.2-.386.318-.569.029-.043.2-.285.11-.163s.094-.109.129-.148c.146-.163.318-.3.469-.452.089-.092-.062.045-.071.052.047-.033.093-.068.14-.1q.124-.085.254-.162c.1-.057.208-.1.3-.16.112-.072-.086.031-.089.034a.885.885,0,0,1,.159-.061c.092-.033.493-.206.577-.152,0,0-.3.024-.061.009.057,0,.115-.009.172-.012.116,0,.232,0,.348,0a1.2,1.2,0,0,0,1.19-1.19,1.217,1.217,0,0,0-1.19-1.19Z" transform="translate(-148.506 -203.707)" fill="#cbcbcb"/>
  <path id="Path_32664" data-name="Path 32664" d="M442.786,485.427H150.818A13.941,13.941,0,0,1,136.893,471.5V211.278a13.941,13.941,0,0,1,13.925-13.925H442.786a13.941,13.941,0,0,1,13.925,13.925V471.5A13.941,13.941,0,0,1,442.786,485.427ZM150.818,198.939a12.352,12.352,0,0,0-12.338,12.338V471.5a12.352,12.352,0,0,0,12.338,12.338H442.786A12.352,12.352,0,0,0,455.124,471.5V211.278a12.352,12.352,0,0,0-12.338-12.338Z" transform="translate(-132.958 -197.352)" fill="#cbcbcb"/>
  <path id="Path_32665" data-name="Path 32665" d="M153.532,419.631l102.675-.312,102.151-.311,57.624-.175a1.191,1.191,0,0,0,0-2.381l-102.675.312-102.151.311-57.624.175a1.191,1.191,0,0,0,0,2.381Z" transform="translate(-136.155 -242.576)" fill="#e6e6e6"/>
  <path id="Path_32666" data-name="Path 32666" d="M218.481,407.977l.635-37.487a1.191,1.191,0,0,0-2.381,0l-.635,37.487A1.191,1.191,0,0,0,218.481,407.977Z" transform="translate(-149.307 -232.851)" fill="#e6e6e6"/>
  <path id="Path_32667" data-name="Path 32667" d="M280.316,402.482l1.547-47.119.442-13.463c.05-1.532-2.331-1.531-2.381,0l-1.547,47.119-.442,13.463C277.885,404.014,280.266,404.012,280.316,402.482Z" transform="translate(-162.07 -226.95)" fill="#cbcbcb"/>
  <path id="Path_32668" data-name="Path 32668" d="M341.669,313.755c-.933,16.689-2.66,65.916-3.593,82.605-.086,1.531,2.3,1.526,2.381,0,.933-16.689,2.66-65.916,3.593-82.605C344.135,312.224,341.754,312.229,341.669,313.755Z" transform="translate(-174.483 -221.142)" fill="#cbcbcb"/>
  <path id="Path_32669" data-name="Path 32669" d="M403.9,394.184l-.292,16.041a1.191,1.191,0,0,0,2.381,0c.345-18.946,1.229-18.328,1.326-23.675a1.191,1.191,0,0,0-2.381,0S404.244,375.239,403.9,394.184Z" transform="translate(-188.009 -235.712)" fill="#e6e6e6"/>
  <path id="Path_32670" data-name="Path 32670" d="M464.088,343.642l.269,45,.077,12.887a1.191,1.191,0,0,0,2.381,0l-.269-45-.077-12.887a1.191,1.191,0,0,0-2.381,0Z" transform="translate(-200.493 -227.31)" fill="#cbcbcb"/>
  <path id="Path_32671" data-name="Path 32671" d="M153.326,397.957c-1.971-5.415,2.472-10.624,7.036-12.964,5.469-2.8,11.76-3.44,17.286-6.143,8.239-4.03,14.241-11.262,19.581-18.5,5.5-7.451,10.525-15.448,17.509-21.639a35.072,35.072,0,0,1,12.752-7.38,43.948,43.948,0,0,1,18.42-1.237c12.712,1.547,24.5,6.8,36.762,10.135,11.564,3.146,24.306,4.916,35.657.023,5.767-2.486,10.483-6.655,15.548-10.262a51.818,51.818,0,0,1,16.2-7.813,48.163,48.163,0,0,1,34.446,3.034,46.221,46.221,0,0,1,21.8,23.008c5.029,12.014,4.374,25.439,2.732,38.085-.425,3.269-.93,6.526-1.441,9.782-.235,1.5,2.059,2.145,2.3.633,2.046-13.039,4.085-26.492,1.54-39.613a47.977,47.977,0,0,0-17.722-28.868,49.237,49.237,0,0,0-32.467-10.246,53.234,53.234,0,0,0-17.835,3.967c-5.888,2.435-10.874,6.045-15.938,9.844-5.207,3.905-10.575,7.136-17.039,8.409a50.765,50.765,0,0,1-19.037-.394c-12.882-2.407-24.889-7.924-37.662-10.751-11.834-2.619-24.6-2.881-35.2,3.8-8.151,5.142-13.911,13.126-19.439,20.835-5.479,7.641-11.028,15.813-19.04,21.033-4.888,3.184-10.382,4.359-15.849,6.15s-10.744,4.824-12.979,10.44a10.153,10.153,0,0,0-.208,7.265c.52,1.428,2.821.812,2.3-.633Z" transform="translate(-135.758 -222.241)" fill="#cbcbcb"/>
  <path id="Path_32672" data-name="Path 32672" d="M86.17,166.9l0,0,.006,0Z" transform="translate(-17.785 -34.45)" fill="#e6e6e6"/>
  <path id="Path_32673" data-name="Path 32673" d="M221,360.872a4.731,4.731,0,0,0-5.732-2.122,4.164,4.164,0,0,0-2.372,2.209c-.046.108-.072.221-.109.332-.052.083-.114.159-.16.246A4.728,4.728,0,0,0,220,367.186,5.092,5.092,0,0,0,221,360.872Zm-2.982,2.022C218.026,362.954,218.023,363.009,218.017,362.894Zm-.3-.689Zm-1.336.537C216.36,362.714,216.358,362.71,216.378,362.742Zm.317.268C216.77,363.036,216.74,363.03,216.694,363.01Zm.141.067.031-.014a.04.04,0,0,1-.022,0h0l.025,0,0,0-.014,0c.012,0,.014,0,.015,0,.142-.065.046-.034-.036-.008h-.005a.54.54,0,0,0-.163-.052l-.016-.008c-.046-.032-.276-.212-.062-.024-.047-.041-.092-.081-.136-.126a.619.619,0,0,1-.07-.086q-.042-.072-.082-.146l0-.026c0-.022-.006-.031-.009-.044s0-.028.006-.042a.514.514,0,0,0,.03-.133l.009-.012c.034-.048.064-.1.1-.153-.173.262.067-.029.085-.066,0-.006,0,0,0-.007s0,0,.013-.006c.053-.031.1-.067.158-.1s.319-.108.055-.033c.06-.017.118-.039.178-.055.011,0,.1-.015.148-.024l.087,0,.059,0c-.044.006.15.048.208.057l.024.019c.049.036.108.067.16.1-.23-.149,0,.012.047.056.026.026.051.054.075.082a.642.642,0,0,1,.061.084c.038.069.078.139.118.207l.011.017a.066.066,0,0,0,0,.007,1.883,1.883,0,0,0,.091.324.266.266,0,0,1,0,.027c0,.06.009.121.009.182v.012a1.3,1.3,0,0,0-1.189-.008Z" transform="translate(-148.486 -230.607)" fill="#e6e6e6"/>
  <path id="Path_32674" data-name="Path 32674" d="M218.114,364.255s0,0,0,0Z" transform="translate(-149.722 -231.802)" fill="#e6e6e6"/>
  <path id="Path_32675" data-name="Path 32675" d="M218.113,364.255h0Z" transform="translate(-149.722 -231.802)" fill="#e6e6e6"/>
  <path id="Path_32676" data-name="Path 32676" d="M218.113,364.257h0S218.112,364.257,218.113,364.257Z" transform="translate(-149.721 -231.802)" fill="#e6e6e6"/>
  <path id="Path_32677" data-name="Path 32677" d="M86.177,166.9Z" transform="translate(-17.787 -34.45)" fill="#e6e6e6"/>
  <path id="Path_32678" data-name="Path 32678" d="M150.17,138.9l0,0,.006,0Z" transform="translate(-30.995 -28.671)" fill="#cbcbcb"/>
  <path id="Path_32679" data-name="Path 32679" d="M285,332.872a4.731,4.731,0,0,0-5.732-2.122,4.164,4.164,0,0,0-2.372,2.209c-.046.108-.072.221-.109.332-.052.083-.114.159-.16.246A4.728,4.728,0,0,0,284,339.186,5.092,5.092,0,0,0,285,332.872Zm-2.982,2.022C282.026,334.954,282.023,335.009,282.017,334.894Zm-.3-.689Zm-1.336.537C280.36,334.714,280.358,334.71,280.378,334.742Zm.317.268C280.77,335.036,280.74,335.03,280.694,335.01Zm.141.067.031-.014a.04.04,0,0,1-.022,0h0l.025,0,0,0-.014,0c.012,0,.014,0,.015,0,.142-.065.046-.034-.036-.008h-.005a.54.54,0,0,0-.163-.052l-.016-.008c-.046-.032-.276-.212-.062-.024-.046-.041-.092-.081-.136-.126a.616.616,0,0,1-.07-.086q-.042-.072-.082-.146l0-.026c0-.022-.006-.031-.009-.044s0-.028.006-.042a.514.514,0,0,0,.03-.133l.009-.012c.034-.048.064-.1.1-.153-.173.262.067-.029.085-.066,0-.006,0,0,0-.007s0,0,.013-.006c.053-.031.1-.067.158-.1s.319-.108.055-.033c.06-.017.118-.039.178-.055.011,0,.1-.015.148-.024l.087,0,.059,0c-.044.006.15.048.208.057l.024.019c.049.036.108.067.16.1-.23-.149,0,.012.047.056.026.026.051.054.075.082a.639.639,0,0,1,.061.084c.038.069.078.139.118.207l.011.017s0,0,0,.007a1.886,1.886,0,0,0,.091.324.267.267,0,0,1,0,.027c0,.06.009.121.009.182v.012a1.3,1.3,0,0,0-1.189-.008Z" transform="translate(-161.695 -224.828)" fill="#cbcbcb"/>
  <path id="Path_32680" data-name="Path 32680" d="M282.113,336.257h0S282.112,336.257,282.113,336.257Z" transform="translate(-162.931 -226.023)" fill="#cbcbcb"/>
  <path id="Path_32681" data-name="Path 32681" d="M150.177,138.9Z" transform="translate(-30.997 -28.67)" fill="#cbcbcb"/>
  <path id="Path_32682" data-name="Path 32682" d="M282.114,336.255s0,0,0,0Z" transform="translate(-162.932 -226.022)" fill="#cbcbcb"/>
  <path id="Path_32683" data-name="Path 32683" d="M282.113,336.255h0Z" transform="translate(-162.932 -226.022)" fill="#cbcbcb"/>
  <path id="Path_32684" data-name="Path 32684" d="M212.177,152.9Z" transform="translate(-43.795 -31.56)" fill="#e6e6e6"/>
  <path id="Path_32685" data-name="Path 32685" d="M347,304.872a4.731,4.731,0,0,0-5.732-2.122,4.164,4.164,0,0,0-2.372,2.209c-.046.108-.072.222-.109.332-.052.083-.114.159-.16.246A4.728,4.728,0,0,0,346,311.186,5.092,5.092,0,0,0,347,304.872Zm-2.982,2.022C344.026,306.954,344.023,307.009,344.017,306.894Zm-.3-.689Zm-1.336.537C342.36,306.714,342.358,306.71,342.378,306.742Zm.317.268C342.77,307.036,342.74,307.03,342.694,307.01Zm.141.067.031-.014a.04.04,0,0,1-.022,0h0l.025,0,0,0-.014,0c.012,0,.014,0,.015,0,.142-.065.046-.034-.036-.008h-.005a.541.541,0,0,0-.163-.052l-.016-.008c-.046-.032-.276-.212-.062-.024-.047-.041-.092-.081-.136-.126a.618.618,0,0,1-.07-.086q-.042-.072-.082-.146l0-.026c0-.022-.006-.031-.009-.044s0-.028.006-.042a.512.512,0,0,0,.03-.133l.009-.012c.034-.048.064-.1.1-.153-.173.262.067-.029.085-.066,0-.006,0,0,0-.007s0,0,.013-.006c.053-.031.1-.067.158-.1s.319-.108.055-.033c.06-.017.118-.039.178-.055.011,0,.1-.015.148-.024l.087,0,.059,0c-.044.006.15.048.208.057l.024.019c.049.036.108.067.16.1-.23-.149,0,.012.047.056.026.026.051.054.075.082a.64.64,0,0,1,.061.084c.038.069.078.139.118.207l.011.017a.061.061,0,0,0,0,.007,1.878,1.878,0,0,0,.091.324.267.267,0,0,1,0,.027c0,.06.009.121.009.181v.012a1.3,1.3,0,0,0-1.189-.008Z" transform="translate(-174.493 -219.048)" fill="#cbcbcb"/>
  <path id="Path_32686" data-name="Path 32686" d="M212.17,152.9l0,0,.006,0Z" transform="translate(-43.792 -31.56)" fill="#e6e6e6"/>
  <path id="Path_32687" data-name="Path 32687" d="M344.113,350.255h0Z" transform="translate(-175.729 -228.912)" fill="#e6e6e6"/>
  <path id="Path_32688" data-name="Path 32688" d="M344.113,350.257h0S344.112,350.257,344.113,350.257Z" transform="translate(-175.728 -228.912)" fill="#e6e6e6"/>
  <path id="Path_32689" data-name="Path 32689" d="M344.114,350.255s0,0,0,0Z" transform="translate(-175.729 -228.912)" fill="#e6e6e6"/>
  <path id="Path_32690" data-name="Path 32690" d="M410,381.872a4.731,4.731,0,0,0-5.732-2.122,4.164,4.164,0,0,0-2.372,2.209c-.046.108-.072.221-.109.332-.052.083-.114.159-.16.246A4.728,4.728,0,0,0,409,388.186a5.092,5.092,0,0,0,1-6.314Zm-2.982,2.022C407.026,383.954,407.023,384.009,407.017,383.894Zm-.3-.689Zm-1.336.537C405.36,383.714,405.358,383.71,405.378,383.742Zm.317.268C405.77,384.036,405.74,384.03,405.694,384.01Zm.141.067.031-.014a.04.04,0,0,1-.022,0h0l.025,0,0,0-.014,0c.012,0,.014,0,.015,0,.142-.065.046-.034-.036-.008h-.005a.54.54,0,0,0-.163-.052l-.016-.008c-.046-.032-.276-.212-.062-.024-.047-.041-.092-.081-.136-.126a.628.628,0,0,1-.07-.086q-.042-.072-.082-.146l0-.026c0-.022-.006-.031-.009-.044s0-.028.006-.042a.513.513,0,0,0,.03-.133l.009-.012c.034-.048.064-.1.1-.153-.173.262.067-.029.085-.066,0-.006,0,0,0-.007s0,0,.013-.006c.053-.031.1-.067.158-.1s.319-.108.055-.033c.06-.017.118-.039.178-.055.011,0,.1-.015.148-.024l.087,0,.059,0c-.044.006.15.048.208.057l.024.019c.049.036.108.067.16.1-.23-.149,0,.012.047.056.026.026.05.054.075.082a.643.643,0,0,1,.061.084c.038.069.078.139.118.207l.011.017a.061.061,0,0,0,0,.007,1.884,1.884,0,0,0,.091.324c0,.009,0,.018,0,.027,0,.06.009.121.009.181v.012A1.3,1.3,0,0,0,405.836,384.078Z" transform="translate(-187.496 -234.942)" fill="#e6e6e6"/>
  <path id="Path_32691" data-name="Path 32691" d="M275.17,121.9l0,0,.006,0Z" transform="translate(-56.796 -25.162)" fill="#cbcbcb"/>
  <path id="Path_32692" data-name="Path 32692" d="M407.113,319.255h0Z" transform="translate(-188.733 -222.513)" fill="#cbcbcb"/>
  <path id="Path_32693" data-name="Path 32693" d="M407.113,319.257h0S407.112,319.257,407.113,319.257Z" transform="translate(-188.732 -222.514)" fill="#cbcbcb"/>
  <path id="Path_32694" data-name="Path 32694" d="M407.114,319.255s0,0,0,0Z" transform="translate(-188.733 -222.514)" fill="#cbcbcb"/>
  <path id="Path_32695" data-name="Path 32695" d="M275.177,121.9Z" transform="translate(-56.798 -25.161)" fill="#cbcbcb"/>
  <path id="Path_32696" data-name="Path 32696" d="M466.113,339.255h0Z" transform="translate(-200.911 -226.642)" fill="#cbcbcb"/>
  <path id="Path_32697" data-name="Path 32697" d="M469,335.872a4.731,4.731,0,0,0-5.732-2.122,4.164,4.164,0,0,0-2.372,2.209c-.046.108-.072.221-.109.332-.052.083-.114.159-.16.246A4.728,4.728,0,0,0,468,342.186a5.092,5.092,0,0,0,1-6.314Zm-2.982,2.022C466.026,337.954,466.023,338.009,466.017,337.894Zm-.3-.689Zm-1.336.537C464.36,337.714,464.358,337.71,464.378,337.742Zm.317.268C464.77,338.036,464.74,338.03,464.694,338.01Zm.141.067.031-.014a.04.04,0,0,1-.022,0h0l.025,0,0,0-.014,0c.012,0,.014,0,.015,0,.142-.065.046-.034-.036-.008h-.005a.54.54,0,0,0-.163-.052l-.016-.008c-.046-.032-.276-.212-.062-.024-.047-.041-.092-.081-.136-.126a.626.626,0,0,1-.07-.086q-.042-.072-.082-.146l0-.026c0-.022-.006-.031-.009-.044s0-.028.006-.042a.512.512,0,0,0,.03-.133l.009-.012c.034-.048.064-.1.1-.153-.173.262.067-.029.085-.066,0-.006,0,0,0-.007s0,0,.013-.006c.053-.031.1-.067.158-.1s.319-.108.055-.033c.06-.017.118-.039.178-.055.011,0,.1-.015.148-.024l.087,0,.059,0c-.044.006.15.048.208.057l.024.019c.049.036.108.067.16.1-.23-.149,0,.012.047.056.026.026.051.054.075.082a.643.643,0,0,1,.061.084c.038.069.078.139.118.207l.011.017s0,0,0,.007a1.876,1.876,0,0,0,.091.324.265.265,0,0,1,0,.027c0,.06.009.121.009.182v.012a1.3,1.3,0,0,0-1.189-.008Z" transform="translate(-199.674 -225.447)" fill="#cbcbcb"/>
  <path id="Path_32698" data-name="Path 32698" d="M334.17,141.9l0,0,.006,0Z" transform="translate(-68.974 -29.29)" fill="#cbcbcb"/>
  <path id="Path_32699" data-name="Path 32699" d="M334.177,141.9Z" transform="translate(-68.976 -29.289)" fill="#cbcbcb"/>
  <path id="Path_32700" data-name="Path 32700" d="M466.114,339.255s0,0,0,0Z" transform="translate(-200.911 -226.642)" fill="#cbcbcb"/>
  <path id="Path_32701" data-name="Path 32701" d="M466.113,339.257h0S466.112,339.257,466.113,339.257Z" transform="translate(-200.91 -226.642)" fill="#cbcbcb"/>
  <path id="Path_32702" data-name="Path 32702" d="M440.117,383.6l-36.9,2.051a.814.814,0,0,1-.176-1.615l37.715-6.137Z" transform="translate(-187.751 -234.618)" fill="#3f3d56"/>
  <path id="Path_32703" data-name="Path 32703" d="M507.769,482.517l13.905-23.394,10.278,4.854s-17.709,22.119-18.274,22.755a5.442,5.442,0,1,1-5.909-4.215Z" transform="translate(-208.509 -251.383)" fill="#e8b886"/>
  <path id="Path_32704" data-name="Path 32704" d="M515.656,420.126l22.528,11.754a12.472,12.472,0,0,1,2.111,18.315L524.765,468.01,518,458.842l5.215-10.9-10.1-2.663Z" transform="translate(-210.612 -243.334)" fill="#c99e41"/>
  <path id="Path_32705" data-name="Path 32705" d="M431.8,382.947l-2.537,27.1-11.366.019s6.521-27.574,6.758-28.391a5.442,5.442,0,1,1,7.145,1.276Z" transform="translate(-190.959 -233.581)" fill="#e8b886"/>
  <path id="Path_32706" data-name="Path 32706" d="M453.483,444.155l-26.16-4.8c-11.016-1.325-15.537-8.573-13.549-15.643l6.4-22.753,10.042,5.384-.039,12.087,14.057-1.922Z" transform="translate(-190.013 -239.378)" fill="#c99e41"/>
  <path id="Path_32707" data-name="Path 32707" d="M315.74,486.776h-7.193l-3.422-27.746h10.617Z" transform="translate(-62.98 -94.746)" fill="#e8b886"/>
  <path id="Path_32708" data-name="Path 32708" d="M445,697.691h-22.12v-.28a8.61,8.61,0,0,1,8.609-8.61h0l4.041-3.065,7.539,3.066H445Z" transform="translate(-191.987 -298.157)" fill="#2f2e41"/>
  <path id="Path_32709" data-name="Path 32709" d="M382.636,486.776h7.193l3.422-27.746H382.634Z" transform="translate(-78.978 -94.746)" fill="#e8b886"/>
  <path id="Path_32710" data-name="Path 32710" d="M514.251,697.691h22.12v-.28a8.61,8.61,0,0,0-8.609-8.61h0l-4.041-3.065-7.539,3.066H514.25Z" transform="translate(-210.847 -298.157)" fill="#2f2e41"/>
  <path id="Path_32711" data-name="Path 32711" d="M436.657,607.005c.106-1.583.951-10.339.951-10.339l2.023-18.568,3.566-49.22,3.178-12.937,15.734,6.129,12.767-6.12L490.05,520.8l11.816,4.431s.02,1.9.111,4.188c.121,3,.334,6.677.84,7.633.845,1.689.632,10.759.632,10.759s.84,18.452,1.9,20.475a14.054,14.054,0,0,1,.951,7.081c-.319.845,1.057,23,1.057,23s3.531,39.214,1.316,45.127-10.587,2.04-10.587,2.04.4-1.578-2.023-2.322-9.823-56.347-9.823-56.347-1.376-11.4-2.64-14.668-2.428-12.448-2.428-12.448-7.81-15.194-7.911-18.573c0,0-1.022-3.161-1.988.319s-3.814,11.816-3.814,11.816l-2.777,10.237-3.267,15.3L459.3,591.725s-3.166,17.091-3.672,17.83,0,16.353,0,16.353-2.448,13.3-5.908,15.619-12.626.037-12.626.037S436.551,608.588,436.657,607.005Z" transform="translate(-194.828 -263.111)" fill="#2f2e41"/>
  <path id="Path_32712" data-name="Path 32712" d="M448.873,452.321l-2.01,26.044-3.02,3.126a2.913,2.913,0,0,0,.153,4.195h0l-1.664,2.854-.589,8.992a4.887,4.887,0,0,0,4.523,6.023L498.349,506a4.887,4.887,0,0,0,5.074-5.525l-4.429-33.342v-2.493l-1.983-4.815L498.03,443.7l2.37-25.6-13.779-3.559-7.471-5.14-12.979.207-7.875,6.468-10.5,1.645-7.941,1.579-1.012,2.2,2.023-.44,7.333,28.6Z" transform="translate(-195.282 -241.119)" fill="#c99e41"/>
  <circle id="Ellipse_1297" data-name="Ellipse 1297" cx="15.289" cy="15.289" r="15.289" transform="translate(261.8 134.209)" fill="#e8b886"/>
  <path id="Path_32713" data-name="Path 32713" d="M471.909,395.207l11.047-.563c1.415-.072,2.96-.2,3.99-1.171a6.043,6.043,0,0,0,1.252-2.08c1.021-2.372,2.043-4.744,3.038-7.128,1.377-3.3,2.728-6.777,2.377-10.332a6.575,6.575,0,0,0-1.911-4.31,3.65,3.65,0,0,0-4.436-.45,7.5,7.5,0,0,0-3.724-5.406,11.5,11.5,0,0,0-6.557-1.39,15.825,15.825,0,0,0-9.012,3.552,19.567,19.567,0,0,1-2.3,1.822,3.609,3.609,0,0,1-2.806.519,2.031,2.031,0,0,1-1.491-2.213,3.907,3.907,0,0,0-1,5.158,3.605,3.605,0,0,1-3.524-.417,4.308,4.308,0,1,0,4.518,7.292c.67.939.421,2.215.333,3.366s.221,2.58,1.33,2.9c1.5.43,2.714-1.589,4.274-1.568a2.345,2.345,0,0,1,1.86,1.2,6.922,6.922,0,0,1,.745,2.174l2,8.987" transform="translate(-198.505 -231.405)" fill="#2f2e41"/>
  <path id="Path_32742" data-name="Path 32742" d="M351.935,460.933H338.328a3.108,3.108,0,0,1-3.075-2.672,69.188,69.188,0,0,1,0-18.633,3.109,3.109,0,0,1,3.023-2.672,17.024,17.024,0,0,1,13.706,0,3.072,3.072,0,0,1,2.338,1.128,3.144,3.144,0,0,1,.649,2.62,41.831,41.831,0,0,0,0,16.482,3.143,3.143,0,0,1-.649,2.62,3.072,3.072,0,0,1-2.385,1.128Z" transform="translate(-173.77 -246.511)" fill="#c99e41"/>
  <path id="Path_32743" data-name="Path 32743" d="M351.477,445.91H340.025a.716.716,0,1,1,0-1.432h11.453a.716.716,0,1,1,0,1.432Z" transform="translate(-174.738 -248.36)" fill="#fff"/>
  <path id="Path_32744" data-name="Path 32744" d="M351.477,453.126H340.025a.716.716,0,1,1,0-1.432h11.453a.716.716,0,1,1,0,1.432Z" transform="translate(-174.738 -249.85)" fill="#fff"/>
  <path id="Path_32745" data-name="Path 32745" d="M351.477,460.341H340.025a.716.716,0,1,1,0-1.432h11.453a.716.716,0,1,1,0,1.432Z" transform="translate(-174.738 -251.339)" fill="#fff"/>
  <path id="Path_32748" data-name="Path 32748" d="M221.956,525.326a5.274,5.274,0,0,0-.733-8.054l8.4-41.712-9.274,2.978-6.722,40.345a5.3,5.3,0,0,0,8.332,6.443Z" transform="translate(-148.64 -254.776)" fill="#9e616a"/>
  <path id="Path_32749" data-name="Path 32749" d="M233.89,425.936l-5.754-4.343s-5.076-.359-5.975,8.794-2.745,26.993-2.745,26.993l-8.8,40.78,12.188,2.675,9.43-44.009,5.657-13.069Z" transform="translate(-148.174 -243.636)" fill="#ccc"/>
  <path id="Path_32750" data-name="Path 32750" d="M96.057,307.72l32.424-.54,2.7-22.156H96.057Z" transform="translate(-19.827 -58.83)" fill="#9e616a"/>
  <path id="Path_32751" data-name="Path 32751" d="M132.828,477.918h7.485l3.561-28.872H132.826Z" transform="translate(-27.416 -92.686)" fill="#9e616a"/>
  <path id="Path_32752" data-name="Path 32752" d="M73.738,478.772l7.485-.053,3.358-28.9-9.735,2.233Z" transform="translate(-15.22 -92.846)" fill="#9e616a"/>
  <path id="Path_32753" data-name="Path 32753" d="M102.8,260.1l-1.7,4.409.339,4.41,33.194,11.5-1.647-19.3-3.731-4.41Z" transform="translate(-20.868 -52.985)" fill="#e8b886"/>
  <circle id="Ellipse_1301" data-name="Ellipse 1301" cx="11.855" cy="11.855" r="11.855" transform="translate(84.314 143.718)" fill="#9e616a"/>
  <path id="Path_32754" data-name="Path 32754" d="M262.035,677.943l11.833-.706v5.07l11.25,7.769a3.167,3.167,0,0,1-1.8,5.773H269.231l-2.428-5.015-.948,5.015h-5.311Z" transform="translate(-158.48 -296.403)" fill="#2f2e41"/>
  <path id="Path_32755" data-name="Path 32755" d="M202.09,678.817l11.827-.789.035,5.069,11.3,7.69a3.167,3.167,0,0,1-1.759,5.785l-14.087.1-2.463-5-.913,5.021-5.311.037Z" transform="translate(-146.133 -296.566)" fill="#2f2e41"/>
  <path id="Path_32756" data-name="Path 32756" d="M202.294,623.064l5.45-43.567,6.485-45.934c-4.749-8.819,5.944-36.207,5.944-36.207l1.509.072,34.164,6.445-.007-.033c6.988,19.059,9.3,28.474,8.92,48.77l-1.377,72.959h.432a2.7,2.7,0,0,1,0,5.4H250.3a2.7,2.7,0,1,1,0-5.4h.348l-12.4-86.873-10.514,36.476L215.85,622.729c4.323-1.081,3.652,1.423,3.652,2.842a2.7,2.7,0,0,1-2.7,2.7H203.29a2.7,2.7,0,0,1-1-5.209Z" transform="translate(-146.105 -259.275)" fill="#2f2e41"/>
  <path id="Path_32757" data-name="Path 32757" d="M221.913,481.938l1.081-10.808a2.154,2.154,0,0,1,1.948-1.618c.45-5.149,2.345-27.36,2.458-28.328l0-.041.862-18.4a2.722,2.722,0,0,1,2.541-2.589l4.551-.3a.241.241,0,0,0,.233-.241,3.827,3.827,0,0,1,3.827-3.827H252.89a3.583,3.583,0,0,1,3.553,3.136.238.238,0,0,0,.242.214h0a6.4,6.4,0,0,1,6.439,5.309c1.842,10.717,5.533,35.039,3.708,48.561-.635,4.707.734.979.975,4.918a2.9,2.9,0,0,1-.722,2.1,2.09,2.09,0,0,1,1.258,2.657l.237-.059a2.162,2.162,0,0,1-2.624,1.568l-35.248,4.776C229.552,488.674,221.621,483.1,221.913,481.938Z" transform="translate(-150.505 -242.438)" fill="#ccc"/>
  <path id="Path_32758" data-name="Path 32758" d="M334.653,441.989a5.274,5.274,0,0,1-7.428,3.2L313.6,457.624l-1.809-9.571,13.226-10.311a5.3,5.3,0,0,1,9.638,4.247Z" transform="translate(-169.057 -246.432)" fill="#9e616a"/>
  <path id="Path_32759" data-name="Path 32759" d="M277.076,429.483s-4.752-10.738-10.753-8.6-2.9,12.553-2.9,12.553l22.547,33.975s32.521-20.862,28.566-21.009-5.137-7.34-5.137-7.34l-17.188,8.588-.582-3.057-.932.932-2.405-1.893Z" transform="translate(-158.909 -243.432)" fill="#ccc"/>
  <g id="Group_34749" data-name="Group 34749" transform="translate(-20)">
    <path id="Path_32714" data-name="Path 32714" d="M947.788,572.546c0-2.368-.8-4.289-1.771-4.293H679.889c-.981,0-1.771,1.926-1.776,4.293v97.461a.885.885,0,0,1-.8.881q-1.071.1-2.143.191c-.018,0-.035,0-.053,0-.389.035-.777.062-1.166.093h0q-.3-.555-.593-1.119a.888.888,0,0,1-.1-.41V566.976c0-.654.026-1.312.071-1.961a25.125,25.125,0,0,1,.331-2.659c.747-4.1,2.434-6.882,4.351-6.891H947.894a2.068,2.068,0,0,1,.813.172,3.168,3.168,0,0,1,1,.7,6.214,6.214,0,0,1,.985,1.347,17.731,17.731,0,0,1,1.86,7.037c0,.026,0,.053,0,.079.062.716.093,1.444.088,2.173l.062,9.466.04,5.645.119,17.713.044,6.29.194,64.578h0a.883.883,0,0,1-.883.883h-3.551a.883.883,0,0,1-.883-.883Z" transform="translate(-243.666 -271.269)" fill="#e6e6e6"/>
    <path id="Path_32715" data-name="Path 32715" d="M920.212,499.652H891.536a1.53,1.53,0,0,0-1.528,1.532v45.3h31.735v-45.3a1.531,1.531,0,0,0-1.532-1.532Zm-14.241,25.738A3.4,3.4,0,0,1,902.584,522V516.78a3.386,3.386,0,0,1,6.772,0V522A3.4,3.4,0,0,1,905.971,525.391Z" transform="translate(-288.405 -259.748)" fill="#ccc"/>
    <path id="Path_32716" data-name="Path 32716" d="M889.884,556.837v4.37a.856.856,0,0,0,.854.854h30.223a.859.859,0,0,0,.854-.854v-4.37Z" transform="translate(-288.379 -271.552)" fill="#3f3d56"/>
    <path id="Path_32717" data-name="Path 32717" d="M954.988,410.571H832.41a3.979,3.979,0,0,0-3.973,3.973v82.716a3.977,3.977,0,0,0,3.973,3.973H954.988a3.977,3.977,0,0,0,3.973-3.973V414.543a3.979,3.979,0,0,0-3.973-3.973Z" transform="translate(-275.696 -241.361)" fill="#e6e6e6"/>
    <path id="Path_32718" data-name="Path 32718" d="M954.712,414.186H834.181a2.129,2.129,0,0,0-2.125,2.129v80.666a2.128,2.128,0,0,0,2.125,2.125h120.53a2.128,2.128,0,0,0,2.125-2.125V416.315a2.129,2.129,0,0,0-2.124-2.129Z" transform="translate(-276.443 -242.107)" fill="#fff"/>
    <path id="Path_32719" data-name="Path 32719" d="M938.036,563.277H866.327a1.319,1.319,0,0,1-1.291-1.591l1.113-5.285a1.325,1.325,0,0,1,1.291-1.047h69.484a1.325,1.325,0,0,1,1.291,1.047l1.113,5.285a1.319,1.319,0,0,1-1.291,1.591Z" transform="translate(-283.245 -271.246)" fill="#ccc"/>
    <rect id="Rectangle_18313" data-name="Rectangle 18313" width="2.209" height="1.325" rx="0.488" transform="translate(584.704 285.06)" fill="#e6e6e6"/>
    <rect id="Rectangle_18314" data-name="Rectangle 18314" width="2.209" height="1.325" rx="0.488" transform="translate(589.121 285.06)" fill="#e6e6e6"/>
    <rect id="Rectangle_18315" data-name="Rectangle 18315" width="2.209" height="1.325" rx="0.488" transform="translate(593.538 285.06)" fill="#e6e6e6"/>
    <rect id="Rectangle_18316" data-name="Rectangle 18316" width="2.209" height="1.325" rx="0.488" transform="translate(597.955 285.06)" fill="#e6e6e6"/>
    <rect id="Rectangle_18317" data-name="Rectangle 18317" width="2.209" height="1.325" rx="0.488" transform="translate(602.372 285.06)" fill="#e6e6e6"/>
    <rect id="Rectangle_18318" data-name="Rectangle 18318" width="2.209" height="1.325" rx="0.488" transform="translate(606.789 285.06)" fill="#e6e6e6"/>
    <rect id="Rectangle_18319" data-name="Rectangle 18319" width="2.209" height="1.325" rx="0.488" transform="translate(611.206 285.06)" fill="#e6e6e6"/>
    <rect id="Rectangle_18320" data-name="Rectangle 18320" width="2.209" height="1.325" rx="0.488" transform="translate(615.624 285.06)" fill="#e6e6e6"/>
    <rect id="Rectangle_18321" data-name="Rectangle 18321" width="2.209" height="1.325" rx="0.488" transform="translate(620.041 285.06)" fill="#e6e6e6"/>
    <rect id="Rectangle_18322" data-name="Rectangle 18322" width="2.209" height="1.325" rx="0.488" transform="translate(624.458 285.06)" fill="#e6e6e6"/>
    <rect id="Rectangle_18323" data-name="Rectangle 18323" width="2.209" height="1.325" rx="0.488" transform="translate(628.875 285.06)" fill="#e6e6e6"/>
    <rect id="Rectangle_18324" data-name="Rectangle 18324" width="2.209" height="1.325" rx="0.488" transform="translate(633.292 285.06)" fill="#e6e6e6"/>
    <rect id="Rectangle_18325" data-name="Rectangle 18325" width="2.209" height="1.325" rx="0.488" transform="translate(637.709 285.06)" fill="#e6e6e6"/>
    <rect id="Rectangle_18326" data-name="Rectangle 18326" width="2.209" height="1.325" rx="0.488" transform="translate(642.126 285.06)" fill="#e6e6e6"/>
    <rect id="Rectangle_18327" data-name="Rectangle 18327" width="2.209" height="1.325" rx="0.488" transform="translate(646.543 285.06)" fill="#e6e6e6"/>
    <rect id="Rectangle_18328" data-name="Rectangle 18328" width="2.209" height="1.325" rx="0.488" transform="translate(650.96 285.06)" fill="#e6e6e6"/>
    <rect id="Rectangle_18329" data-name="Rectangle 18329" width="2.209" height="1.325" rx="0.488" transform="translate(584.651 287.269)" fill="#e6e6e6"/>
    <rect id="Rectangle_18330" data-name="Rectangle 18330" width="2.209" height="1.325" rx="0.488" transform="translate(589.068 287.269)" fill="#e6e6e6"/>
    <rect id="Rectangle_18331" data-name="Rectangle 18331" width="2.209" height="1.325" rx="0.488" transform="translate(593.485 287.269)" fill="#e6e6e6"/>
    <rect id="Rectangle_18332" data-name="Rectangle 18332" width="2.209" height="1.325" rx="0.488" transform="translate(597.903 287.269)" fill="#e6e6e6"/>
    <rect id="Rectangle_18333" data-name="Rectangle 18333" width="2.209" height="1.325" rx="0.488" transform="translate(602.32 287.269)" fill="#e6e6e6"/>
    <rect id="Rectangle_18334" data-name="Rectangle 18334" width="2.209" height="1.325" rx="0.488" transform="translate(606.737 287.269)" fill="#e6e6e6"/>
    <rect id="Rectangle_18335" data-name="Rectangle 18335" width="2.209" height="1.325" rx="0.488" transform="translate(611.154 287.269)" fill="#e6e6e6"/>
    <rect id="Rectangle_18336" data-name="Rectangle 18336" width="2.209" height="1.325" rx="0.488" transform="translate(615.571 287.269)" fill="#e6e6e6"/>
    <rect id="Rectangle_18337" data-name="Rectangle 18337" width="2.209" height="1.325" rx="0.488" transform="translate(619.988 287.269)" fill="#e6e6e6"/>
    <rect id="Rectangle_18338" data-name="Rectangle 18338" width="2.209" height="1.325" rx="0.488" transform="translate(624.405 287.269)" fill="#e6e6e6"/>
    <rect id="Rectangle_18339" data-name="Rectangle 18339" width="2.209" height="1.325" rx="0.488" transform="translate(628.823 287.269)" fill="#e6e6e6"/>
    <rect id="Rectangle_18340" data-name="Rectangle 18340" width="2.209" height="1.325" rx="0.488" transform="translate(633.24 287.269)" fill="#e6e6e6"/>
    <rect id="Rectangle_18341" data-name="Rectangle 18341" width="2.209" height="1.325" rx="0.488" transform="translate(637.657 287.269)" fill="#e6e6e6"/>
    <rect id="Rectangle_18342" data-name="Rectangle 18342" width="2.209" height="1.325" rx="0.488" transform="translate(642.074 287.269)" fill="#e6e6e6"/>
    <rect id="Rectangle_18343" data-name="Rectangle 18343" width="2.209" height="1.325" rx="0.488" transform="translate(646.491 287.269)" fill="#e6e6e6"/>
    <rect id="Rectangle_18344" data-name="Rectangle 18344" width="2.209" height="1.325" rx="0.488" transform="translate(650.908 287.269)" fill="#e6e6e6"/>
    <rect id="Rectangle_18345" data-name="Rectangle 18345" width="17.669" height="1.325" rx="0.488" transform="translate(605.854 289.919)" fill="#e6e6e6"/>
    <path id="Path_32720" data-name="Path 32720" d="M949.529,427.958H836.749a.449.449,0,1,1,0-.9h112.78a.449.449,0,1,1,0,.9Z" transform="translate(-277.319 -244.766)" fill="#cacaca"/>
    <ellipse id="Ellipse_1298" data-name="Ellipse 1298" cx="2.628" cy="2.687" rx="2.628" ry="2.687" transform="translate(564.479 174.632)" fill="#ccc"/>
    <ellipse id="Ellipse_1299" data-name="Ellipse 1299" cx="2.628" cy="2.687" rx="2.628" ry="2.687" transform="translate(573.558 174.632)" fill="#ccc"/>
    <ellipse id="Ellipse_1300" data-name="Ellipse 1300" cx="2.628" cy="2.687" rx="2.628" ry="2.687" transform="translate(582.638 174.632)" fill="#ccc"/>
    <path id="Path_32721" data-name="Path 32721" d="M970.285,418.243h-6.45a.488.488,0,1,0,0,.977h6.45a.488.488,0,1,0,0-.977Z" transform="translate(-303.542 -242.945)" fill="#ccc"/>
    <path id="Path_32722" data-name="Path 32722" d="M970.285,420.553h-6.45a.488.488,0,1,0,0,.977h6.45a.488.488,0,1,0,0-.977Z" transform="translate(-303.542 -243.422)" fill="#ccc"/>
    <path id="Path_32723" data-name="Path 32723" d="M970.285,422.86h-6.45a.488.488,0,1,0,0,.977h6.45a.488.488,0,1,0,0-.977Z" transform="translate(-303.542 -243.898)" fill="#ccc"/>
    <rect id="Rectangle_18346" data-name="Rectangle 18346" width="17.926" height="3.833" rx="1.917" transform="translate(608.916 207.627)" fill="#c99e41"/>
    <rect id="Rectangle_18347" data-name="Rectangle 18347" width="36.133" height="3.833" rx="1.917" transform="translate(599.813 215.293)" fill="#e6e6e6"/>
    <rect id="Rectangle_18348" data-name="Rectangle 18348" width="36.133" height="3.833" rx="1.917" transform="translate(599.813 222.96)" fill="#e6e6e6"/>
    <path id="Path_32724" data-name="Path 32724" d="M523.036,423.576l-6.5-3.108,8.924-27.154,9.588,4.585Z" transform="translate(-106.617 -81.183)" fill="#e8b886"/>
    <path id="Path_32725" data-name="Path 32725" d="M707.216,616.616c-.472.3-.945.587-1.422.878-.95.582-1.909,1.155-2.868,1.718-.482.282-.969.563-1.451.84v.014l-.029,0-.01,0-.735.181-1.055-2.787-.487-1.284-.687-1.818-1.26-3.326-6.633-17.513,10.312-2.544.387,1.58h0l.191.783,3.6,14.612.735,2.987.024.091.444,1.785.382,1.546.425,1.727Z" transform="translate(-247.242 -278.601)" fill="#e8b886"/>
    <path id="Path_32726" data-name="Path 32726" d="M766.737,537.638c-.654,1.05-1.322,2.095-1.995,3.13q-1.875,2.892-3.851,5.7s0,0-.01.01a13.471,13.471,0,0,1-2.529,1.847c-.038.029-.081.048-.119.072a9.323,9.323,0,0,1-2.128.854l-.806.2c-.964.229-1.918.425-2.868.6-1.689.3-3.359.515-5.02.649-.134.014-.267.024-.4.033A77.638,77.638,0,0,1,726.6,549.1c-3.426-.649-6.924-1.427-10.546-2.233-1.183-.267-2.372-.53-3.574-.792-.091-.019-.186-.043-.282-.062-1.718-.377-3.464-.749-5.254-1.117-2.252-.463-4.576-.911-6.991-1.336l.172,3.4a25.608,25.608,0,0,0,1.613,7.649c1.031,3.016,1.847,5.4.124,10.369l-.83,2.405a8.214,8.214,0,0,1-.845,7.268l-.167.253,6.924,17.518.449,1.136h-3.546l-4.362,0h-7.392l-10.665-21.4-.511-1.021v-.052l1.1-41.12c.014-.363.043-.73.091-1.093a12.5,12.5,0,0,1,4.758-8.418,12.039,12.039,0,0,1,8.966-2.453l3.651.472,7.459.964,5.254.682.1.014,15.495,2,1.112-4.533.205-.076,6.523-2.391,22.562-8.27.057-.019,1.484-.544.177.286c.053.086.105.172.153.258a44.235,44.235,0,0,1,3.565,8.275,129.924,129.924,0,0,1,3.746,14.3q.065.315.115.573l.014.052c.014.081.024.134.029.148a13.347,13.347,0,0,1-.8,7.43Z" transform="translate(-245.247 -261.124)" fill="#2f2e41"/>
    <path id="Path_32727" data-name="Path 32727" d="M762.352,520.809c-.072-.305-.162-.616-.258-.916a65.277,65.277,0,0,0-2.644-6.69c-1.126-2.482-2.477-5.139-4.085-8.017q-1.167-2.09-2.51-4.347-.673-1.131-1.4-2.3a1.209,1.209,0,0,0-.062-.1l-.138-.229-22.323,2.987-8.313,1.112-.5,4.142-.119,1.026s0,0,0,0l-.334,2.8v0l-.444,3.693-.038,0-12.335-1.6-12.713-1.646-6.829-.883a12.032,12.032,0,0,0-8.967,2.453,12.508,12.508,0,0,0-4.758,8.418c-.043.334-.072.678-.086,1.016l-6.442,15.265a98.49,98.49,0,0,0-7.282,28.651l-4.724,15.1.673.062,10.012.931,2.644.248,5.822-8.5c.663-.969,1.293-1.966,1.88-2.987a45.355,45.355,0,0,0,2.572-5.173l12.593-29.968q1.46.251,2.892.477,6.621,1.074,12.712,1.751c13.2,1.475,24.638,1.589,34.816.339q4.288-.522,8.289-1.374,1.468-.308,2.9-.663c.224-.052.444-.1.663-.162a12.177,12.177,0,0,0,8.518-7.96A12.425,12.425,0,0,0,762.352,520.809Z" transform="translate(-239.909 -259.448)" fill="#2f2e41"/>
    <path id="Path_32728" data-name="Path 32728" d="M652.909,622.2l-7.029-3.369-1.1-.53-1.761,4.323-12.293,2.706a2.917,2.917,0,0,0-.477,5.55l12.011,4.9,3.813-3.431-.935,4.6,4.524,1.847,4.958-15.781Z" transform="translate(-234.414 -284.238)" fill="#2f2e41"/>
    <path id="Path_32729" data-name="Path 32729" d="M581.774,417.469l.449,1.136h-.449Z" transform="translate(-120.082 -86.168)" fill="#2f2e41"/>
    <path id="Path_32730" data-name="Path 32730" d="M706.975,616.4l-7.365,2.552-1.156.4,1.791,4.311-6.831,10.572a2.917,2.917,0,0,0,3.566,4.279l11.983-4.969.3-5.121,2.575,3.93,4.514-1.871-7.581-14.7Z" transform="translate(-247.73 -283.718)" fill="#2f2e41"/>
    <path id="Path_32731" data-name="Path 32731" d="M654.139,415.6a5.231,5.231,0,0,0,7.823,1.773l15.488,10.281.03-9.66-14.712-8.282a5.259,5.259,0,0,0-8.628,5.888Z" transform="translate(-239.597 -240.813)" fill="#e8b886"/>
    <path id="Path_32732" data-name="Path 32732" d="M668.874,421.089l7.226-8.221,29.422,17.467,39-3.572a13.189,13.189,0,0,1,14.335,14.349h0a13.2,13.2,0,0,1-14.348,11.917l-43.926-4.066Z" transform="translate(-242.762 -241.836)" fill="#ccc"/>
    <path id="Path_32733" data-name="Path 32733" d="M773.282,423.329l-.068-.085h0a28.5,28.5,0,0,0-27.579,14.29l-3.31,5.831c-10.706,13.089-2.926,22.115-2.461,23.458l-3.716,17.135.833,5.735.416,1.7,42.421,22.166c2.415-11.6.08-21.493-8.719-29.046l8.513-26.489A37.314,37.314,0,0,0,773.282,423.329Z" transform="translate(-256.647 -243.949)" fill="#ccc"/>
    <path id="Path_32734" data-name="Path 32734" d="M735.935,578.933H722.328a3.108,3.108,0,0,1-3.075-2.672,69.181,69.181,0,0,1,0-18.633,3.109,3.109,0,0,1,3.023-2.672,17.024,17.024,0,0,1,13.706,0,3.073,3.073,0,0,1,2.338,1.128,3.143,3.143,0,0,1,.649,2.62,41.83,41.83,0,0,0,0,16.482,3.143,3.143,0,0,1-.649,2.62A3.072,3.072,0,0,1,735.935,578.933Z" transform="translate(-253.03 -270.866)" fill="#c99e41"/>
    <path id="Path_32735" data-name="Path 32735" d="M735.477,563.91H724.024a.716.716,0,0,1,0-1.432h11.453a.716.716,0,1,1,0,1.432Z" transform="translate(-253.997 -272.716)" fill="#fff"/>
    <path id="Path_32736" data-name="Path 32736" d="M735.477,571.126H724.024a.716.716,0,0,1,0-1.432h11.453a.716.716,0,0,1,0,1.432Z" transform="translate(-253.997 -274.205)" fill="#fff"/>
    <path id="Path_32737" data-name="Path 32737" d="M735.477,578.341H724.024a.716.716,0,0,1,0-1.432h11.453a.716.716,0,1,1,0,1.432Z" transform="translate(-253.997 -275.695)" fill="#fff"/>
    <path id="Path_32738" data-name="Path 32738" d="M652.935,416.933H639.328a3.109,3.109,0,0,1-3.075-2.672,69.181,69.181,0,0,1,0-18.633,3.109,3.109,0,0,1,3.023-2.672,17.024,17.024,0,0,1,13.706,0,3.073,3.073,0,0,1,2.338,1.128,3.143,3.143,0,0,1,.649,2.62,41.831,41.831,0,0,0,0,16.482,3.143,3.143,0,0,1-.649,2.62A3.072,3.072,0,0,1,652.935,416.933Z" transform="translate(-235.898 -237.429)" fill="#c99e41"/>
    <path id="Path_32739" data-name="Path 32739" d="M652.477,401.91H641.025a.716.716,0,1,1,0-1.432h11.453a.716.716,0,0,1,0,1.432Z" transform="translate(-236.866 -239.278)" fill="#fff"/>
    <path id="Path_32740" data-name="Path 32740" d="M652.477,409.126H641.025a.716.716,0,1,1,0-1.432h11.453a.716.716,0,0,1,0,1.432Z" transform="translate(-236.866 -240.768)" fill="#fff"/>
    <path id="Path_32741" data-name="Path 32741" d="M652.477,416.341H641.025a.716.716,0,1,1,0-1.432h11.453a.716.716,0,1,1,0,1.432Z" transform="translate(-236.866 -242.257)" fill="#fff"/>
    <path id="Path_32746" data-name="Path 32746" d="M743.39,557.388a5.231,5.231,0,0,0,1.306-7.914l9.344-16.07-9.645.544L737,549.124a5.259,5.259,0,0,0,6.389,8.264Z" transform="translate(-256.499 -266.715)" fill="#e8b886"/>
    <path id="Path_32747" data-name="Path 32747" d="M747.967,525.065l-8.635-6.725,15.69-30.406-5.879-38.721a13.189,13.189,0,0,1,13.473-15.161h0a13.2,13.2,0,0,1,12.747,13.616l-1.453,44.089Z" transform="translate(-257.305 -246.207)" fill="#ccc"/>
    <circle id="Ellipse_1302" data-name="Ellipse 1302" cx="16.552" cy="16.552" r="16.552" transform="translate(490.303 141.152)" fill="#e8b886"/>
    <path id="Path_32760" data-name="Path 32760" d="M818.63,414.356a14.355,14.355,0,0,1-7.89,5.555,16.5,16.5,0,0,1-3.928.667,14.851,14.851,0,0,0-1.168-4.364,12.264,12.264,0,0,1-.606,4.354,14.593,14.593,0,0,1-5.742-1.539,12.654,12.654,0,0,1-6.771-9.082c-.7-4.527,1.351-8.973,2.094-13.493s-.654-10.246-5.079-11.434c-3.37-.905-2.992-.514-5.794,1.566,2.914,4.309-7.849,20.1-12.254,18.722-2.49-.779-4.085-3.064-4.6-3.064-3.462,5.964,3.057,16.012-3.513,18.1l.541-.541c3.966-4.878-4.323-15.2-.357-20.08,1.106-1.365,2.284-2.982,1.957-4.708-.31-1.641-2.914-2.509-3.676-1.161a6.2,6.2,0,0,0-4.006-8.142c-2.978-.718-2.924.167-5.913.551a14.832,14.832,0,0,0-1.086-3.748,12.161,12.161,0,0,1-.446,3.819,4.8,4.8,0,0,1-2.9-1.048c-2.437-1.964-1.944-6.09.231-8.34s5.416-3.06,8.5-3.584c.9-6.25,18.141-6.9,20.427-.657.974-4.663,6.811-7.084,11.349-5.637s7.686,5.685,9.344,10.151,2.121,9.266,3.142,13.915,2.747,9.385,6.3,12.554,9.344,4.214,13.088,1.273a10.482,10.482,0,0,1-1.249,9.395Z" transform="translate(-258.654 -232.297)" fill="#2f2e41"/>
    <path id="Path_32761" data-name="Path 32761" d="M1025.113,472.883l-2.317,11.626c-.175.889-.357,1.794-.555,2.69a11.338,11.338,0,0,0-5.825.325,54.38,54.38,0,0,1,4,6.69c-1.46,4.5-3.6,8.658-7.19,11.666a18.03,18.03,0,0,1-17.419,3.063l.1-.46c-3.857-7.484-1.762-16.919,3.032-23.832a46.336,46.336,0,0,1,8.611-9.1c3.238-2.7,6.738-5.119,10.206-7.507a4.754,4.754,0,0,1,7.357,4.841Z" transform="translate(-309.85 -253.051)" fill="#e4e4e4"/>
    <path id="a4b268fa-75d0-4ac1-9d87-14bdca948464-2189-2" data-name="a4b268fa-75d0-4ac1-9d87-14bdca948464-2189" d="M996.944,543.044c-.975-7.105-1.978-14.3-1.294-21.482a33.785,33.785,0,0,1,6.515-17.714,29.469,29.469,0,0,1,7.561-6.851c.756-.476,1.451.721.7,1.2a28.014,28.014,0,0,0-11.081,13.37c-2.413,6.136-2.8,12.825-2.381,19.343.252,3.942.784,7.857,1.321,11.769a.714.714,0,0,1-.484.852.7.7,0,0,1-.852-.484Z" transform="translate(-310.164 -259.178)" fill="#f2f2f2"/>
  </g>
  <path id="Path_32762" data-name="Path 32762" d="M873.9,701.849l-741.019.244a.945.945,0,1,1,0-1.89l741.019-.244a.945.945,0,1,1,0,1.89Z" transform="translate(-131.934 -301.093)" fill="#cacaca"/>
  <path id="Path_32763" data-name="Path 32763" d="M222.067,380.413c-1.818.873-3.854-.44-5.423-1.741l.562.485c-2.774,2.7-4.072,6.583-4.705,10.406s-.705,7.724-1.5,11.516-2.458,7.594-5.555,9.913c-4.15,3.107-9.873,2.908-14.966,1.955l-.2-.038a31.09,31.09,0,0,0,1.638-12.325,28.268,28.268,0,0,1-6.786,11.123,64.894,64.894,0,0,1-9.855-3.591c-2.059-.948-4.277-2.244-4.848-4.438-.573-2.178.758-4.462,2.537-5.838s3.963-2.093,5.99-3.072,4.026-2.365,4.836-4.464c1.869-4.828-3.455-10.369-1.38-15.115,1.023-2.334,3.529-3.6,5.884-4.582a86.366,86.366,0,0,1,11.051-3.728c3.3-.871,6.754-1.549,10.119-.977s6.663,2.618,7.874,5.815c2.021.683,4.167,1.453,5.464,3.154S223.993,379.49,222.067,380.413Z" transform="translate(-139.851 -232.098)" fill="#2f2e41"/>
  <path id="Path_32764" data-name="Path 32764" d="M250.3,376.431c-5.2-4.106-9.407-3.405-12.652-.854-.545-.607-2.867,1.063-3.652.823l-2.843,5.336c-1.463,2.581-2.063,5.216-1.826,6.7-2.691,7.545,3.69,12.641,11.235,15.331a14.4,14.4,0,0,0,9.337.135l.093-1.286.571,1.054s6.9,14.2,8.528,14.841c-.989-2.566-3.6-14.76-4.326-17.3-1-3.458-.316-8.953.27-12.321a19.09,19.09,0,0,0,.057-6.283l-.015-.091,1.614,3.258,3.621-2.277C258.931,379.463,258.9,374.641,250.3,376.431Z" transform="translate(-151.908 -233.711)" fill="#2f2e41"/>
</svg>
