<svg xmlns="http://www.w3.org/2000/svg" width="300" height="232" viewBox="0 0 300 232">
  <g id="Group_34741" data-name="Group 34741" transform="translate(-951.139 -2793.01)">
    <rect id="Rectangle_18310" data-name="Rectangle 18310" width="300" height="232" transform="translate(951.139 2793.01)" fill="none"/>
    <g id="Group_34736" data-name="Group 34736" transform="translate(879.476 2770.58)">
      <g id="Group_34737" data-name="Group 34737" transform="translate(240.795 90.576)">
        <path id="Path_32537" data-name="Path 32537" d="M900.722,564.7H873.546c0,.781-28.009,1.415-28.009,1.415a7.28,7.28,0,0,0-1.194,1.132,7.025,7.025,0,0,0-1.642,4.529v1.132a7.079,7.079,0,0,0,7.076,7.076h50.946a7.082,7.082,0,0,0,7.076-7.076v-1.132a7.086,7.086,0,0,0-7.076-7.076Z" transform="translate(-806.29 -464.759)" fill="#3f3d56"/>
        <rect id="Rectangle_18308" data-name="Rectangle 18308" width="7.359" height="47.55" transform="translate(65.56 114.947)" fill="#3f3d56"/>
        <path id="Path_32538" data-name="Path 32538" d="M906.01,669.306c0,.8-11.151.308-24.907.308s-24.907.488-24.907-.308,11.151-7.1,24.907-7.1S906.01,668.511,906.01,669.306Z" transform="translate(-812.146 -507.067)" fill="#3f3d56"/>
        <path id="Path_32539" data-name="Path 32539" d="M621.249,419.737h-6.94l-3.3-26.768H621.25Z" transform="translate(-589.092 -263.753)" fill="#e8b886"/>
        <path id="Path_32540" data-name="Path 32540" d="M601.623,436.753h13.384v8.427H593.2A8.427,8.427,0,0,1,601.623,436.753Z" transform="translate(-581.364 -282.752)" fill="#2f2e41"/>
        <path id="Path_32541" data-name="Path 32541" d="M604.886,411.485l-6.621-2.078,4.864-26.529,9.773,3.067Z" transform="translate(-583.563 -259.374)" fill="#e8b886"/>
        <path id="Path_32542" data-name="Path 32542" d="M8.427,0H21.811V8.427H0A8.427,8.427,0,0,1,8.427,0Z" transform="translate(2.523 144.133) rotate(17.423)" fill="#2f2e41"/>
        <path id="Path_32543" data-name="Path 32543" d="M866.439,548.963a21.44,21.44,0,0,0-.86-3.974l-1.3-1.63-3.374-4.234-.147.006c-.249.011-1.285.068-2.887.192h-.017c-.991.079-2.2.181-3.578.311-.362.04-.742.074-1.132.113v5.91h7.076a1.418,1.418,0,0,1,1.4,1.234c.005.062.011.119.011.181a1.416,1.416,0,0,1-1.415,1.415h-41.1a16.064,16.064,0,0,0-1.506,1.132,8.425,8.425,0,0,0-2.972,4.449c-2.4,10.552-6.776,30.228-8.067,36.008a2.569,2.569,0,0,0,.764,2.423,2.508,2.508,0,0,0,.832.515l5.106,1.913a2.708,2.708,0,0,0,.651.153c.028,0,.051.006.079.006a1.474,1.474,0,0,0,.158.006,2.566,2.566,0,0,0,2.383-1.642l4.03-10.574,6.21-16.3,2.457-6.448c2.847.668,26.735,5.955,34.734-2.564a9.1,9.1,0,0,0,1.834-2.893,11.775,11.775,0,0,0,.617-5.706Z" transform="translate(-790.593 -453.66)" fill="#2f2e41"/>
        <path id="Path_32544" data-name="Path 32544" d="M879.01,553.541c-.124-.5-.266-1.025-.43-1.551l-4.67-5.864-.147.006c-.295.017-1.693.091-3.838.266-2.434.2-5.836.532-9.657,1.047-.113.011-.232.028-.345.045-.374.051-.753.1-1.132.158V548.7h7.076a1.418,1.418,0,0,1,1.4,1.234c.006.062.011.119.011.181a1.416,1.416,0,0,1-1.415,1.415H840.857c-1.092.357-2.145.73-3.153,1.132-5.287,2.094-9.244,4.84-10.054,8.412-.272,1.2-.572,2.519-.889,3.923-1.177,5.219-2.609,11.61-3.906,17.418v.006c-.266,1.2-.532,2.366-.787,3.5-1.081,4.868-2,8.995-2.485,11.163-.011.062-.022.119-.034.181v.011a2.644,2.644,0,0,0,.159,1.3l.006.006v.006a2.508,2.508,0,0,0,.736,1.013,2.6,2.6,0,0,0,.73.425l5.106,1.913a2.591,2.591,0,0,0,.889.164,2.511,2.511,0,0,0,1.217-.311,2.549,2.549,0,0,0,1.166-1.33L840.551,571.6l1.7-4.478c2.847.668,26.735,5.949,34.734-2.564a9.562,9.562,0,0,0,2.536-6.266,16.806,16.806,0,0,0-.515-4.755Z" transform="translate(-796.235 -456.697)" fill="#2f2e41"/>
        <path id="Path_32545" data-name="Path 32545" d="M901.8,467.462c-.09-.108-.187-.215-.289-.317a13.853,13.853,0,0,0-11.871-4.183,44.923,44.923,0,0,0-5.61,1.1,14.141,14.141,0,0,0-6.329,3.549,13.82,13.82,0,0,0-4.195,10.3c.023.775.028,1.568.017,2.372,0,.374-.006.753-.011,1.132H879.1a3.015,3.015,0,0,1,.719.085,3.12,3.12,0,0,1,2.395,3.029v26.333c.379.108.758.215,1.132.328.119.04.232.074.345.107.13.04.26.079.385.119q1.724.535,3.368,1.132h1.845a1.417,1.417,0,0,1,1.4,1.234c.385.153.758.306,1.126.459,1.308.543,2.547,1.087,3.685,1.613,1.534.7,2.9,1.37,4.042,1.953a2.6,2.6,0,0,0,1.16.283,2.493,2.493,0,0,0,1.472-.487,3.117,3.117,0,0,0,.254-.209,2.55,2.55,0,0,0,.776-2.253,72.51,72.51,0,0,1-.509-13.416c.158-3.764.5-7.625.94-11.355.238-2.021.5-4,.781-5.91.266-1.823.549-3.572.827-5.225a13.929,13.929,0,0,0-3.442-11.78Z" transform="translate(-819.658 -420.556)" fill="#c99e41"/>
        <path id="Path_32546" data-name="Path 32546" d="M872.592,471.414a6.72,6.72,0,0,0-.894-.311,6.509,6.509,0,0,0-7.665,3.7l-3.889,8.978-.487,1.132H873.09a3.012,3.012,0,0,1,.719.085l.453-1.047,1.721-3.974A6.516,6.516,0,0,0,872.592,471.414Z" transform="translate(-813.648 -424.045)" fill="#c99e41"/>
        <circle id="Ellipse_1276" data-name="Ellipse 1276" cx="13.903" cy="13.903" r="13.903" transform="translate(57.117 10.179)" fill="#e8b886"/>
        <path id="Path_32547" data-name="Path 32547" d="M911.094,500.984l-7.936.215-.577,5.576-.13,1.291-12.431,5.581-1.132.51v9.923l1.132-.323,3.577-1.019h.017l15.759-4.489.181-.051A6.158,6.158,0,0,0,914,512.34l.04-6.583.034-4.851Z" transform="translate(-826.332 -437.074)" fill="#e8b886"/>
        <path id="Path_32548" data-name="Path 32548" d="M922.7,476.88a6.511,6.511,0,1,0-13,.8l.866,14.129a2.539,2.539,0,0,0,1.036,1.891,2.511,2.511,0,0,0,1.664.492l6.068-.374,1.84-.113a2.482,2.482,0,0,0,1.755-.855,1.771,1.771,0,0,0,.136-.17,2.531,2.531,0,0,0,.5-1.676Z" transform="translate(-835.362 -423.997)" fill="#c99e41"/>
        <path id="Path_32549" data-name="Path 32549" d="M846.488,524.8h-.73v-.074c-.374.051-.753.1-1.132.159v1.047h5.23Q848.209,525.337,846.488,524.8Zm0,0h-.73v-.074c-.374.051-.753.1-1.132.159v1.047h5.23Q848.209,525.337,846.488,524.8Zm5.214,0h-5.944V497.911a4.252,4.252,0,0,0-3.074-4.076,3.993,3.993,0,0,0-1.172-.17h-50.38a4.251,4.251,0,0,0-4.245,4.246v27.737a4.247,4.247,0,0,0,4.245,4.246H851.7a2.55,2.55,0,0,0,2.53-2.27,2.2,2.2,0,0,0,.017-.278A2.551,2.551,0,0,0,851.7,524.8Zm1.415,2.547a1.416,1.416,0,0,1-1.415,1.415H791.132a3.115,3.115,0,0,1-3.113-3.113V497.911a3.115,3.115,0,0,1,3.113-3.113h50.38a3.013,3.013,0,0,1,.719.085,3.12,3.12,0,0,1,2.394,3.029v28.02H851.7a1.418,1.418,0,0,1,1.4,1.234c.005.062.011.119.011.181Zm-6.629-2.547h-.73v-.074c-.374.051-.753.1-1.132.159v1.047h5.23Q848.209,525.337,846.488,524.8Z" transform="translate(-782.071 -433.933)" fill="#3f3d56"/>
        <circle id="Ellipse_1277" data-name="Ellipse 1277" cx="3.396" cy="3.396" r="3.396" transform="translate(30.853 74.451)" fill="#c99e41"/>
        <path id="Path_32550" data-name="Path 32550" d="M887.24,406.71c-3.229,2.885-7.559,5.981-11.513,3.868a6.641,6.641,0,0,1-3.146-7.312c1.091-5.181,5.569-7.98,9.906-10.243,5.637-2.942,11.858-5.507,18.171-4.742s12.48,5.981,12.182,12.333c-.24,5.108-4.411,9.873-3.09,14.813,1.329,4.972,7.364,6.9,12.5,7.15s10.8-.185,14.876,2.955c5.2,4.006,5.118,12.381,1.415,17.8s-9.956,8.472-16.1,10.791c-8.138,3.072-17.082,5.292-25.482,3.034s-15.754-10.318-14.522-18.929c.52-3.637,2.434-6.9,4.281-10.079s3.7-6.489,4.092-10.142a9.909,9.909,0,0,0-2.89-8.367,2.512,2.512,0,0,1-.711-2.868Z" transform="translate(-819.188 -388.144)" fill="#2f2e41"/>
      </g>
      <g id="Group_34738" data-name="Group 34738" transform="translate(80.524 95.526)">
        <path id="Path_32552" data-name="Path 32552" d="M246.516,571.778v1.132a7.082,7.082,0,0,0,7.076,7.076h50.946a7.078,7.078,0,0,0,7.076-7.076v-1.132a7.025,7.025,0,0,0-1.642-4.529,7.278,7.278,0,0,0-1.194-1.132s-28.009-.634-28.009-1.415H253.592a7.086,7.086,0,0,0-7.076,7.076Z" transform="translate(-246.516 -469.708)" fill="#3f3d56"/>
        <rect id="Rectangle_18309" data-name="Rectangle 18309" width="7.359" height="47.55" transform="translate(35.948 157.547) rotate(180)" fill="#3f3d56"/>
        <path id="Path_32553" data-name="Path 32553" d="M260.021,669.306c0,.8,11.151.308,24.907.308s24.907.488,24.907-.308-11.151-7.1-24.907-7.1S260.021,668.511,260.021,669.306Z" transform="translate(-252.377 -512.017)" fill="#3f3d56"/>
        <path id="Path_32554" data-name="Path 32554" d="M163.529,420.5h6.94l3.3-26.768H163.528Z" transform="translate(-93.846 -269.033)" fill="#a0616a"/>
        <path id="Path_32555" data-name="Path 32555" d="M0,0H21.811V8.427H8.427A8.427,8.427,0,0,1,0,0H0Z" transform="translate(90.005 157.91) rotate(179.997)" fill="#2f2e41"/>
        <path id="Path_32556" data-name="Path 32556" d="M176.524,412.247l6.621-2.078-4.864-26.529-9.773,3.067Z" transform="translate(-96.008 -264.655)" fill="#a0616a"/>
        <path id="Path_32557" data-name="Path 32557" d="M0,0H21.811V8.427H8.427A8.427,8.427,0,0,1,0,0H0Z" transform="translate(101.837 147.657) rotate(162.577)" fill="#2f2e41"/>
        <path id="Path_32558" data-name="Path 32558" d="M342.239,594.21l-12.7-33.325c-2.848.669-26.733,5.954-34.733-2.563-2.742-2.919-3.276-7.149-1.589-12.571l4.669-5.867.145.008c1.765.093,43.268,2.419,46.113,14.938,2.4,10.554,6.78,30.231,8.065,36.011a2.556,2.556,0,0,1-1.593,2.934l-5.106,1.914a2.525,2.525,0,0,1-.89.162,2.554,2.554,0,0,1-2.385-1.64Z" transform="translate(-266.366 -458.938)" fill="#2f2e41"/>
        <path id="Path_32559" data-name="Path 32559" d="M329.239,601.21l-12.7-33.325c-2.848.669-26.733,5.954-34.733-2.563-2.742-2.919-3.276-7.149-1.589-12.571l4.669-5.867.145.008c1.765.093,43.268,2.419,46.113,14.938,2.4,10.554,6.78,30.231,8.065,36.01a2.556,2.556,0,0,1-1.593,2.934l-5.105,1.914a2.525,2.525,0,0,1-.89.162,2.555,2.555,0,0,1-2.385-1.64Z" transform="translate(-260.725 -461.976)" fill="#2f2e41"/>
        <path id="Path_32560" data-name="Path 32560" d="M337.135,514.942a10.866,10.866,0,0,1-9.331-5.3l-4.032-6.83,9.583-5.238,4.069,5.579,27.609-2.909a5.971,5.971,0,0,1,.452-.7h0a6.236,6.236,0,0,1,4.457-2.442,6.166,6.166,0,0,1,4.807,1.705,6.227,6.227,0,0,1-8.068,9.461,5.887,5.887,0,0,1-.466-.4l-26.444,6.742A10.655,10.655,0,0,1,337.135,514.942Z" transform="translate(-280.04 -440.363)" fill="#a0616a"/>
        <path id="Path_32561" data-name="Path 32561" d="M278.14,518.378a2.551,2.551,0,0,1-1.029-2.462c1.575-10.383-.237-25.257-2.035-35.907a14.036,14.036,0,0,1,15.6-16.281,45.219,45.219,0,0,1,5.611,1.106h0a13.923,13.923,0,0,1,10.519,13.85c-.269,10.277,1.818,23.1,2.727,28.134a2.558,2.558,0,0,1-.472,1.987,2.486,2.486,0,0,1-1.752.991c-10.081,1.029-20.951,5.945-26.534,8.783a2.548,2.548,0,0,1-1.16.284A2.507,2.507,0,0,1,278.14,518.378Z" transform="translate(-258.823 -425.843)" fill="#ccc"/>
        <path id="Path_32562" data-name="Path 32562" d="M322.917,495.075a2.531,2.531,0,0,1-1.4-1.357L315.9,480.731a6.51,6.51,0,1,1,11.948-5.171l5.622,12.987a2.551,2.551,0,0,1-1.326,3.349l-7.273,3.148A2.529,2.529,0,0,1,322.917,495.075Z" transform="translate(-276.39 -429.322)" fill="#ccc"/>
        <circle id="Ellipse_1278" data-name="Ellipse 1278" cx="13.903" cy="13.903" r="13.903" transform="translate(16.915 5.66)" fill="#a0616a"/>
        <path id="Path_32563" data-name="Path 32563" d="M277.031,428.8a2.25,2.25,0,0,1-3.221.185,25.148,25.148,0,0,1-7.173-9.368c-1.808-4.308-2.072-9.566-.015-13.6,1.739-3.414,4.861-5.587,7.977-7.363a13.018,13.018,0,0,1,3.876-1.638,5.091,5.091,0,0,1,4.05.8,4.27,4.27,0,0,1,1.629,4.091,12.654,12.654,0,0,1,5.549-4.164,6.434,6.434,0,0,1,4.276-.286c2,.668,3.483,2.689,4.307,4.86a10.835,10.835,0,0,1,.711,5.244,6.3,6.3,0,0,1-2.417,4.343c-1.633,1.126-3.736,1.012-5.634.513a44.146,44.146,0,0,0-5.673-1.579,5.34,5.34,0,0,0-5.223,2,9.676,9.676,0,0,0-1.167,4.335l-.86,7.924a10.5,10.5,0,0,1-.723,3.306,1.839,1.839,0,0,1-.268.408Z" transform="translate(-254.614 -396.888)" fill="#2f2e41"/>
        <path id="Path_32564" data-name="Path 32564" d="M355.792,579.289H333.222a2.4,2.4,0,0,1-1.9-.921,2.444,2.444,0,0,1-.457-2.1,57.924,57.924,0,0,0,0-26.9,2.445,2.445,0,0,1,.457-2.1,2.4,2.4,0,0,1,1.9-.92h22.571a2.436,2.436,0,0,1,2.4,2.041,94.822,94.822,0,0,1,0,28.856A2.436,2.436,0,0,1,355.792,579.289Z" transform="translate(-283.088 -461.745)" fill="#ccc"/>
        <path id="Path_32565" data-name="Path 32565" d="M344.352,566.218v-.663a1.7,1.7,0,0,1,1.7-1.7h11.844a1.7,1.7,0,0,1,1.7,1.7v.663a1.7,1.7,0,0,1-1.7,1.7H346.05A1.7,1.7,0,0,1,344.352,566.218Z" transform="translate(-288.971 -469.341)" fill="#fff"/>
        <path id="Path_32566" data-name="Path 32566" d="M344.352,578.562V577.9a1.7,1.7,0,0,1,1.7-1.7h11.844a1.7,1.7,0,0,1,1.7,1.7v.664a1.7,1.7,0,0,1-1.7,1.7H346.05A1.7,1.7,0,0,1,344.352,578.562Z" transform="translate(-288.971 -474.698)" fill="#fff"/>
        <path id="Path_32567" data-name="Path 32567" d="M356.8,507.338a2.485,2.485,0,0,1-.465-2.132,58.873,58.873,0,0,0,0-27.344,2.486,2.486,0,0,1,.465-2.132,2.444,2.444,0,0,1,1.93-.935h22.941a2.475,2.475,0,0,1,2.438,2.075,96.365,96.365,0,0,1,0,29.33,2.475,2.475,0,0,1-2.438,2.075H358.734A2.444,2.444,0,0,1,356.8,507.338Z" transform="translate(-294.141 -430.694)" fill="#c99e41"/>
        <path id="Path_32568" data-name="Path 32568" d="M382.765,493.46H370.68a1.7,1.7,0,0,1-1.7-1.7v-.721a1.7,1.7,0,0,1,1.7-1.7h12.085a1.7,1.7,0,0,1,1.7,1.7v.721A1.7,1.7,0,0,1,382.765,493.46Z" transform="translate(-299.658 -437.007)" fill="#fff"/>
        <path id="Path_32569" data-name="Path 32569" d="M382.765,506.008H370.68a1.7,1.7,0,0,1-1.7-1.7v-.721a1.7,1.7,0,0,1,1.7-1.7h12.085a1.7,1.7,0,0,1,1.7,1.7v.721A1.7,1.7,0,0,1,382.765,506.008Z" transform="translate(-299.658 -442.452)" fill="#fff"/>
        <path id="Path_32570" data-name="Path 32570" d="M309.458,531.452a6.238,6.238,0,0,1-3.7-3.486,5.82,5.82,0,0,1-.2-.577l-29.618-8.431a6.159,6.159,0,0,1-4.45-5.855l-.072-11.435,10.917.292.711,6.869L308.37,520.2a5.985,5.985,0,0,1,.742-.376h0a6.232,6.232,0,1,1,.345,11.628Z" transform="translate(-257.321 -442.356)" fill="#a0616a"/>
        <path id="Path_32571" data-name="Path 32571" d="M271.226,493.612a2.531,2.531,0,0,1-.634-1.844l.868-14.125a6.51,6.51,0,1,1,12.995.8l-.868,14.125a2.55,2.55,0,0,1-2.7,2.386l-7.91-.486A2.529,2.529,0,0,1,271.226,493.612Z" transform="translate(-256.961 -429.279)" fill="#ccc"/>
      </g>
      <path id="Path_32572" data-name="Path 32572" d="M457.121,330.077H410.7a5.1,5.1,0,0,1-5.095-5.095V274.6a5.1,5.1,0,0,1,5.095-5.095h46.418a5.1,5.1,0,0,1,5.095,5.095v50.38a5.1,5.1,0,0,1-5.095,5.095ZM410.7,270.64a3.967,3.967,0,0,0-3.963,3.962v50.38a3.967,3.967,0,0,0,3.963,3.962h46.418a3.967,3.967,0,0,0,3.962-3.962V274.6a3.967,3.967,0,0,0-3.962-3.962Z" transform="translate(-301.934 -246.088)" fill="#3f3d56"/>
      <path id="Path_32573" data-name="Path 32573" d="M607.121,330.077H560.7a5.1,5.1,0,0,1-5.095-5.095V274.6a5.1,5.1,0,0,1,5.095-5.095h46.418a5.1,5.1,0,0,1,5.095,5.095v50.38a5.1,5.1,0,0,1-5.095,5.095ZM560.7,270.64a3.967,3.967,0,0,0-3.963,3.962v50.38a3.967,3.967,0,0,0,3.962,3.962h46.418a3.967,3.967,0,0,0,3.962-3.962V274.6a3.967,3.967,0,0,0-3.962-3.962Z" transform="translate(-367.023 -246.088)" fill="#3f3d56"/>
      <path id="Path_32574" data-name="Path 32574" d="M425.7,299.131h-4.529a2.55,2.55,0,0,1-2.547-2.547v-4.529a2.55,2.55,0,0,1,2.547-2.547H425.7a2.55,2.55,0,0,1,2.547,2.547v4.529A2.55,2.55,0,0,1,425.7,299.131Z" transform="translate(-307.581 -254.766)" fill="#c99e41"/>
      <path id="Path_32575" data-name="Path 32575" d="M425.7,324.131h-4.529a2.55,2.55,0,0,1-2.547-2.547v-4.529a2.55,2.55,0,0,1,2.547-2.547H425.7a2.55,2.55,0,0,1,2.547,2.547v4.529a2.55,2.55,0,0,1-2.547,2.547Z" transform="translate(-307.581 -265.615)" fill="#ccc"/>
      <path id="Path_32576" data-name="Path 32576" d="M472.084,298.488H450.942a1.7,1.7,0,0,1-1.7-1.7v-.721a1.7,1.7,0,0,1,1.7-1.7h21.142a1.7,1.7,0,0,1,1.7,1.7v.721A1.7,1.7,0,0,1,472.084,298.488Z" transform="translate(-320.868 -256.876)" fill="#c99e41"/>
      <path id="Path_32577" data-name="Path 32577" d="M576.389,297.563H571.86a2.55,2.55,0,0,1-2.547-2.547v-4.529a2.55,2.55,0,0,1,2.547-2.547h4.529a2.55,2.55,0,0,1,2.547,2.547v4.529a2.55,2.55,0,0,1-2.547,2.547Z" transform="translate(-372.97 -254.086)" fill="#ccc"/>
      <path id="Path_32578" data-name="Path 32578" d="M622.774,296.92H601.632a1.7,1.7,0,0,1-1.7-1.7V294.5a1.7,1.7,0,0,1,1.7-1.7h21.142a1.7,1.7,0,0,1,1.7,1.7v.721A1.7,1.7,0,0,1,622.774,296.92Z" transform="translate(-386.258 -256.196)" fill="#ccc"/>
      <path id="Path_32579" data-name="Path 32579" d="M608.888,320.92H569.632a1.7,1.7,0,0,1-1.7-1.7V318.5a1.7,1.7,0,0,1,1.7-1.7h39.256a1.7,1.7,0,0,1,1.7,1.7v.721A1.7,1.7,0,0,1,608.888,320.92Z" transform="translate(-372.372 -266.61)" fill="#c99e41"/>
      <path id="Path_32580" data-name="Path 32580" d="M608.888,337.92H569.632a1.7,1.7,0,0,1-1.7-1.7V335.5a1.7,1.7,0,0,1,1.7-1.7h39.256a1.7,1.7,0,0,1,1.7,1.7v.721A1.7,1.7,0,0,1,608.888,337.92Z" transform="translate(-372.372 -273.987)" fill="#ccc"/>
      <path id="Path_32581" data-name="Path 32581" d="M608.888,354.92H569.632a1.7,1.7,0,0,1-1.7-1.7V352.5a1.7,1.7,0,0,1,1.7-1.7h39.256a1.7,1.7,0,0,1,1.7,1.7v.721a1.7,1.7,0,0,1-1.7,1.7Z" transform="translate(-372.372 -281.364)" fill="#ccc"/>
      <path id="Path_32582" data-name="Path 32582" d="M757.121,330.077H710.7a5.1,5.1,0,0,1-5.095-5.095V274.6a5.1,5.1,0,0,1,5.095-5.095h46.418a5.1,5.1,0,0,1,5.095,5.095v50.38a5.1,5.1,0,0,1-5.095,5.095ZM710.7,270.64a3.967,3.967,0,0,0-3.963,3.962v50.38a3.967,3.967,0,0,0,3.962,3.962h46.418a3.967,3.967,0,0,0,3.963-3.962V274.6a3.967,3.967,0,0,0-3.962-3.962Z" transform="translate(-432.113 -246.088)" fill="#3f3d56"/>
      <path id="Path_32583" data-name="Path 32583" d="M772.774,296.92H751.632a1.7,1.7,0,0,1-1.7-1.7V294.5a1.7,1.7,0,0,1,1.7-1.7h21.142a1.7,1.7,0,0,1,1.7,1.7v.721A1.7,1.7,0,0,1,772.774,296.92Z" transform="translate(-451.347 -256.196)" fill="#ccc"/>
      <path id="Path_32584" data-name="Path 32584" d="M758.888,320.92H719.632a1.7,1.7,0,0,1-1.7-1.7V318.5a1.7,1.7,0,0,1,1.7-1.7h39.256a1.7,1.7,0,0,1,1.7,1.7v.721a1.7,1.7,0,0,1-1.7,1.7Z" transform="translate(-437.462 -266.61)" fill="#ccc"/>
      <path id="Path_32585" data-name="Path 32585" d="M758.888,337.92H719.632a1.7,1.7,0,0,1-1.7-1.7V335.5a1.7,1.7,0,0,1,1.7-1.7h39.256a1.7,1.7,0,0,1,1.7,1.7v.721a1.7,1.7,0,0,1-1.7,1.7Z" transform="translate(-437.462 -273.987)" fill="#ccc"/>
      <path id="Path_32586" data-name="Path 32586" d="M758.888,354.92H719.632a1.7,1.7,0,0,1-1.7-1.7V352.5a1.7,1.7,0,0,1,1.7-1.7h39.256a1.7,1.7,0,0,1,1.7,1.7v.721a1.7,1.7,0,0,1-1.7,1.7Z" transform="translate(-437.462 -281.364)" fill="#ccc"/>
      <path id="Path_32587" data-name="Path 32587" d="M472.084,323.488H450.942a1.7,1.7,0,0,1-1.7-1.7v-.721a1.7,1.7,0,0,1,1.7-1.7h21.142a1.7,1.7,0,0,1,1.7,1.7v.721A1.7,1.7,0,0,1,472.084,323.488Z" transform="translate(-320.868 -267.725)" fill="#ccc"/>
      <path id="Path_32588" data-name="Path 32588" d="M425.7,349.131h-4.529a2.55,2.55,0,0,1-2.547-2.547v-4.529a2.55,2.55,0,0,1,2.547-2.547H425.7a2.55,2.55,0,0,1,2.547,2.547v4.529A2.55,2.55,0,0,1,425.7,349.131Z" transform="translate(-307.581 -276.463)" fill="#ccc"/>
      <path id="Path_32589" data-name="Path 32589" d="M472.084,348.488H450.942a1.7,1.7,0,0,1-1.7-1.7v-.721a1.7,1.7,0,0,1,1.7-1.7h21.142a1.7,1.7,0,0,1,1.7,1.7v.721A1.7,1.7,0,0,1,472.084,348.488Z" transform="translate(-320.868 -278.573)" fill="#ccc"/>
      <path id="Path_32590" data-name="Path 32590" d="M732.7,291.573c0-.013,0-.026,0-.039a5.1,5.1,0,0,0-5.095-5.095v5.133Z" transform="translate(-441.66 -253.435)" fill="#c99e41"/>
      <path id="Path_32591" data-name="Path 32591" d="M722.7,292.573v-5.133a5.095,5.095,0,1,0,5.093,5.133Z" transform="translate(-437.319 -253.869)" fill="#ccc"/>
    </g>
  </g>
</svg>
