<svg xmlns="http://www.w3.org/2000/svg" width="300" height="232" viewBox="0 0 300 232">
  <g id="Group_34742" data-name="Group 34742" transform="translate(-541.294 -2793.009)">
    <rect id="Rectangle_18311" data-name="Rectangle 18311" width="300" height="232" transform="translate(541.294 2793.009)" fill="none"/>
    <g id="Group_34735" data-name="Group 34735" transform="translate(559.929 2794)">
      <path id="Path_339" data-name="Path 339" d="M566.394,164.66H565.13V130.038A20.039,20.039,0,0,0,545.091,110h-73.35A20.039,20.039,0,0,0,451.7,130.038v189.94a20.039,20.039,0,0,0,20.039,20.039h73.352a20.039,20.039,0,0,0,20.039-20.039V189.305h1.262Z" transform="translate(-378.725 -109.999)" fill="#3f3d56"/>
      <path id="Path_340" data-name="Path 340" d="M569.047,135.546V328.169a15.2,15.2,0,0,1-15.19,15.2H479a15.2,15.2,0,0,1-15.2-15.2V135.546a15.2,15.2,0,0,1,15.2-15.2h9.081a7.227,7.227,0,0,0,6.685,9.949H537.44a7.227,7.227,0,0,0,6.684-9.95h9.727a15.2,15.2,0,0,1,15.2,15.19Z" transform="translate(-386.727 -116.848)" fill="#e6e6e6"/>
      <path id="Path_32536" data-name="Path 32536" d="M571.05,371.41h-89.3a2.878,2.878,0,0,1-2.875-2.875V180.8a2.878,2.878,0,0,1,2.875-2.875h89.3a2.878,2.878,0,0,1,2.875,2.875V368.535a2.878,2.878,0,0,1-2.875,2.875Z" transform="translate(-396.706 -154.949)" fill="#fff"/>
      <circle id="Ellipse_56" data-name="Ellipse 56" cx="24.604" cy="24.604" r="24.604" transform="translate(104.752 37.153)" fill="#e6e6e6"/>
      <circle id="Ellipse_60" data-name="Ellipse 60" cx="21.273" cy="21.273" r="21.273" transform="translate(107.745 40.484)" fill="#fff"/>
      <path id="Path_341" data-name="Path 341" d="M595.047,256.9a12.129,12.129,0,1,0,12.129,12.129A12.129,12.129,0,0,0,595.047,256.9Zm0,3.639a3.639,3.639,0,1,1-3.639,3.639A3.639,3.639,0,0,1,595.047,260.539Zm0,17.516a8.836,8.836,0,0,1-7.277-3.884c.058-2.426,4.851-3.761,7.277-3.761s7.219,1.335,7.277,3.761a8.85,8.85,0,0,1-7.277,3.885Z" transform="translate(-465.556 -207.209)" fill="#c99e41"/>
      <rect id="Rectangle_26" data-name="Rectangle 26" width="42.566" height="3.199" transform="translate(107.095 94.628)" fill="#e6e6e6"/>
      <rect id="Rectangle_27" data-name="Rectangle 27" width="53.57" height="3.199" transform="translate(101.4 102.942)" fill="#e6e6e6"/>
      <rect id="Rectangle_25-2" data-name="Rectangle 25-2" width="75.464" height="75.464" transform="translate(91.962 126.822)" fill="#e6e6e6"/>
      <rect id="Rectangle_25-3" data-name="Rectangle 25-3" width="72.271" height="72.271" transform="translate(93.162 128.418)" fill="#fff"/>
      <g id="Group_22" data-name="Group 22" transform="translate(108.046 135.395)">
        <rect id="Rectangle_28" data-name="Rectangle 28" width="28.132" height="2.114" fill="#e6e6e6"/>
        <rect id="Rectangle_29" data-name="Rectangle 29" width="43.442" height="2.114" transform="translate(0 6.208)" fill="#c99e41"/>
        <rect id="Rectangle_30" data-name="Rectangle 30" width="35.405" height="2.114" transform="translate(0.452 12.12)" fill="#e6e6e6"/>
        <rect id="Rectangle_31" data-name="Rectangle 31" width="20.669" height="2.114" transform="translate(0 18.606)" fill="#e6e6e6"/>
        <rect id="Rectangle_32" data-name="Rectangle 32" width="31.194" height="2.114" transform="translate(0 24.942)" fill="#c99e41"/>
        <rect id="Rectangle_38" data-name="Rectangle 38" width="28.132" height="2.114" transform="translate(0 31.318)" fill="#e6e6e6"/>
        <rect id="Rectangle_39" data-name="Rectangle 39" width="43.442" height="2.114" transform="translate(0 37.525)" fill="#c99e41"/>
        <rect id="Rectangle_40" data-name="Rectangle 40" width="35.405" height="2.114" transform="translate(0.452 43.437)" fill="#e6e6e6"/>
        <rect id="Rectangle_41" data-name="Rectangle 41" width="20.669" height="2.114" transform="translate(0 49.924)" fill="#e6e6e6"/>
        <rect id="Rectangle_42" data-name="Rectangle 42" width="31.194" height="2.114" transform="translate(0 56.26)" fill="#e6e6e6"/>
      </g>
      <g id="Group_23" data-name="Group 23" transform="translate(187.669 55.811)">
        <path id="Path_385" data-name="Path 385" d="M914.948,550.521a4.022,4.022,0,0,1-6.983-3.993l.027-.047a4.346,4.346,0,0,1,.379-.537l-3.384-24.116-.1-.722-.687-4.921-.1-.709.375.018,6.555.3,1.758.079.22,4.489,1.247,25.239A4.017,4.017,0,0,1,914.948,550.521Z" transform="translate(-857.443 -462.21)" fill="#e8b886"/>
        <path id="Path_386" data-name="Path 386" d="M900.428,496.239l8.324-.763a1.643,1.643,0,0,0,1.482-1.779l-1.542-17.31a6.311,6.311,0,0,0-12.573,1.122q.016.179.042.356l2.5,16.979a1.641,1.641,0,0,0,1.62,1.4A1.168,1.168,0,0,0,900.428,496.239Z" transform="translate(-852.965 -437.124)" fill="#c99e41"/>
        <path id="Path_387" data-name="Path 387" d="M884.7,478.009a11.594,11.594,0,0,0-4.264-13.343c-3.139-2.148-7.434-2.919-12.06,2.588A57.588,57.588,0,0,0,856.7,490.383l18.944,3.084S882.085,485.592,884.7,478.009Z" transform="translate(-830.926 -432.879)" fill="#c99e41"/>
        <path id="Path_388" data-name="Path 388" d="M840.585,752.159h-5.4l-2.569-20.833h7.971Z" transform="translate(-817.451 -582.968)" fill="#e8b886"/>
        <path id="Path_389" data-name="Path 389" d="M814.805,781.669H831.78V775.11H821.364A6.558,6.558,0,0,0,814.805,781.669Z" transform="translate(-807.488 -607.463)" fill="#2f2e41"/>
        <path id="Path_390" data-name="Path 390" d="M933.587,742.8l-5.128,1.7-8.978-18.973,7.569-2.5Z" transform="translate(-866.049 -578.322)" fill="#e8b886"/>
        <path id="Path_391" data-name="Path 391" d="M920.56,775.325,936.677,770l-2.058-6.227-9.89,3.269a6.559,6.559,0,0,0-4.169,8.285Z" transform="translate(-866.467 -601.119)" fill="#2f2e41"/>
        <circle id="Ellipse_65" data-name="Ellipse 65" cx="10.82" cy="10.82" r="10.82" transform="translate(31.06 4.684)" fill="#e8b886"/>
        <path id="Path_392" data-name="Path 392" d="M833.877,629.381l5.016-33.105a1.542,1.542,0,0,1,3.023-.132l7.638,31.548a2,2,0,0,0,2.242,1.491l21.069-3.386a1.982,1.982,0,0,0,1.583-2.533l-27.473-90.577a1.542,1.542,0,0,1-.027-.793l.914-3.965a1.975,1.975,0,0,0-1.025-2.209c-3.741-1.909-13.216-5.877-20.367-1.531a2.005,2.005,0,0,0-.916,1.289L804.092,626.352a1.983,1.983,0,0,0,1.762,2.387l25.885,2.318q.088.008.176.008a1.986,1.986,0,0,0,1.96-1.685Z" transform="translate(-801.47 -465.989)" fill="#2f2e41"/>
        <path id="Path_393" data-name="Path 393" d="M906.068,404.938a8.186,8.186,0,0,1-2.139-1.859,2.775,2.775,0,0,1-.427-2.687,2.82,2.82,0,0,1,3.43-1.177,8.192,8.192,0,0,1,3.151,2.35,8.1,8.1,0,0,1,2.026,2.815,2.462,2.462,0,0,1-3.959,2.849,8.136,8.136,0,0,1-1.993-2.762Z" transform="translate(-857.013 -397.078)" fill="#2f2e41"/>
        <path id="Path_394" data-name="Path 394" d="M917.865,399.343c.06-3.049,3.535-5.235,6.536-4.695s5.308,3.1,6.463,5.921c2.44,5.963.608,12.767-1.742,18.767s-5.26,12.088-4.917,18.522a19.351,19.351,0,0,0,11.241,16.3c-3.387,1.535-7.436-.051-10.282-2.444a20.548,20.548,0,0,1-5.8-22.487c1.461-3.8,4.037-7.055,6.047-10.6s3.486-7.718,2.448-11.656-5.456-7.128-9.233-5.6Z" transform="translate(-865.145 -394.567)" fill="#2f2e41"/>
        <path id="Path_395" data-name="Path 395" d="M876.539,419.1c.943-1.594,1.894-3.687.171-5.08a3.553,3.553,0,0,0-2.665-.7,12.713,12.713,0,0,1-5.942-.375,5.57,5.57,0,0,1-3.231-2.9c-.969-2.3.245-5.1,2.276-6.553a7.665,7.665,0,0,1,8.484-.15,8.74,8.74,0,0,1,8.211.954,13.049,13.049,0,0,1,4.913,6.895,13.305,13.305,0,0,1,.406,7.32,10.877,10.877,0,0,1-6.747,7.436,3.917,3.917,0,0,1-3.869-.573,7.276,7.276,0,0,1-1.958-2.87A4.615,4.615,0,0,1,876.539,419.1Z" transform="translate(-835.308 -398.798)" fill="#2f2e41"/>
        <path id="Path_397" data-name="Path 397" d="M807.328,458.041a4.625,4.625,0,0,1,.105.723l18.925,10.918,4.6-2.648,4.9,6.42-7.688,5.479a3.524,3.524,0,0,1-4.229-.1l-19.516-15.4a4.626,4.626,0,1,1,2.9-5.393Z" transform="translate(-798.196 -428.08)" fill="#e8b886"/>
        <path id="Path_398" data-name="Path 398" d="M863.032,478.712l6.117,7.927a1.982,1.982,0,0,0,3,.164l6.924-7.19a5.507,5.507,0,0,0-6.576-8.835q-.09.067-.177.137l-8.684,4.856a1.983,1.983,0,0,0-.6,2.941Z" transform="translate(-834.237 -436.594)" fill="#c99e41"/>
      </g>
      <g id="Group_24" data-name="Group 24" transform="translate(2 55.811)">
        <path id="Path_552" data-name="Path 552" d="M322.807,516.093a4.442,4.442,0,0,0-.62.346l-19.725-8.419-.7-5.2-7.882-.048.466,11.918,26.036,6.886a4.648,4.648,0,0,0,.2.531,4.5,4.5,0,1,0,2.234-6.017Z" transform="translate(-268.404 -454.887)" fill="#a0616a"/>
        <path id="Path_553" data-name="Path 553" d="M287.356,752.124h5.392l2.565-20.8h-7.958Z" transform="translate(-264.752 -582.924)" fill="#a0616a"/>
        <path id="Path_554" data-name="Path 554" d="M295.129,775.11h-10.4v6.545h16.946a6.547,6.547,0,0,0-6.547-6.547h0Z" transform="translate(-263.281 -607.451)" fill="#2f2e41"/>
        <path id="Path_555" data-name="Path 555" d="M239.677,748.79l5.365.528,4.592-20.445-7.919-.778Z" transform="translate(-238.042 -581.113)" fill="#a0616a"/>
        <path id="Path_556" data-name="Path 556" d="M246.947,772.43,236.6,771.411l-.642,6.514,16.86,1.661a6.546,6.546,0,0,0-5.873-7.156Z" transform="translate(-235.959 -605.38)" fill="#2f2e41"/>
        <circle id="Ellipse_84" data-name="Ellipse 84" cx="10.802" cy="10.802" r="10.802" transform="translate(10.302 4.275)" fill="#a0616a"/>
        <path id="Path_557" data-name="Path 557" d="M265.466,672.221a1.966,1.966,0,0,0,1.942-1.627c2.789-15.489,11.913-66.144,12.131-67.548a.631.631,0,0,0,.007-.1v-3.777a.655.655,0,0,0-.123-.383l-1.205-1.688a.65.65,0,0,0-.5-.275c-6.87-.322-29.371-1.266-30.458.092h0c-1.092,1.363-.7,5.5-.616,6.315l0,.085-10.109,64.649a1.984,1.984,0,0,0,1.634,2.258l6.314,1.04a1.988,1.988,0,0,0,2.21-1.36c1.953-6.24,8.5-27.231,10.77-35.353a.22.22,0,0,1,.431.061c-.113,7.743-.387,27.5-.484,34.32l-.01.735a1.987,1.987,0,0,0,1.8,1.995l6.088.552A1.831,1.831,0,0,0,265.466,672.221Z" transform="translate(-236.265 -507.227)" fill="#2f2e41"/>
        <path id="Path_99" data-name="Path 99" d="M271.127,461.108a9.03,9.03,0,0,1,3.66,5.277,50,50,0,0,1,2.148,11.944l.684,12.138,8.468,32.179c-7.34,6.21-11.573,4.8-21.453-.281s-11.009,1.694-11.009,1.694l-1.976-27.38-2.823-29.92a13.264,13.264,0,0,1,2.138-2.056,21.84,21.84,0,0,1,18.666-3.958Z" transform="translate(-243.168 -430.982)" fill="#e6e6e6"/>
        <path id="Path_558" data-name="Path 558" d="M268.891,528.345a4.641,4.641,0,0,0-.66.308l-19.5-9.763L248.4,513.6l-8.045-.555-.431,12.056,26.065,8.62a4.618,4.618,0,1,0,2.9-5.38Z" transform="translate(-238.182 -460.641)" fill="#a0616a"/>
        <path id="Path_101" data-name="Path 101" d="M241.958,474.8c-4.8,1.694-5.644,20.043-5.644,20.043,5.646-3.1,12.42,1.976,12.42,1.976s1.411-4.8,3.1-11.009a10.788,10.788,0,0,0-2.258-10.162S246.757,473.108,241.958,474.8Z" transform="translate(-236.158 -438.89)" fill="#e6e6e6"/>
        <path id="Path_102" data-name="Path 102" d="M259.863,411.82c1.346-1.077,3.182.88,3.182.88l1.077-9.689s6.729.806,11.036-.269,4.98,3.9,4.98,3.9a34.56,34.56,0,0,0,.135-6.056c-.269-2.422-3.768-4.845-9.959-6.46s-9.421,5.383-9.421,5.383C256.583,401.665,258.516,412.9,259.863,411.82Z" transform="translate(-248.443 -393.886)" fill="#2f2e41"/>
      </g>
    </g>
  </g>
</svg>
