<svg xmlns="http://www.w3.org/2000/svg" width="494.93" height="393.989" viewBox="0 0 494.93 393.989">
  <g id="Group_34746" data-name="Group 34746" transform="translate(0 0)">
    <path id="Path_32592" data-name="Path 32592" d="M281.769,502.225c31.237-16.193,95.811-43.358,177.319-43.358s146.082,27.165,177.319,43.358c30.41,15.765,54.868,34.352,66.388,49.518,4.2-5.716-1.964-107.405-19.022-147.734A326.842,326.842,0,0,0,382.366,204.223,173.015,173.015,0,0,0,259.22,255.232q-1.028,1.028-2.037,2.07c-36.1,37.291-52.955,89.172-46.8,140.708,4.381,36.691,15.18,113.434,30.437,129.706a290.488,290.488,0,0,1,40.95-25.491Z" transform="translate(-209.139 -157.754)" fill="#f2f2f2"/>
    <circle id="Ellipse_1279" data-name="Ellipse 1279" cx="46.684" cy="46.684" r="46.684" transform="translate(259.933 0.901)" fill="#c99e41"/>
    <ellipse id="Ellipse_1280" data-name="Ellipse 1280" cx="56.286" cy="10.827" rx="56.286" ry="10.827" transform="translate(173.397 330.962)" fill="#f2f2f2"/>
    <path id="Path_32593" data-name="Path 32593" d="M643.769,221.967c-47.573,0-84.838-8.629-84.837-19.635,0-6.6,13.206-12.485,36.229-16.149a.633.633,0,0,1,.209,1.249h-.01c-21.688,3.452-35.161,9.16-35.162,14.9,0,9.953,38.27,18.364,83.571,18.368s83.573-8.4,83.574-18.353c0-5.762-13.558-11.487-35.384-14.94a.633.633,0,1,1,.191-1.252h.007c23.166,3.666,36.453,9.567,36.452,16.191C728.609,213.354,691.342,221.971,643.769,221.967Z" transform="translate(-337.468 -151.123)" fill="#3f3d56"/>
    <path id="Path_32594" data-name="Path 32594" d="M649.732,194.13c-40.994,24.139-77.481,35.618-83.065,26.134-3.348-5.686,5.043-17.459,23.022-32.3a.633.633,0,1,1,.814.97l0,0-.006.005c-16.936,13.98-25.648,25.737-22.737,30.681,5.05,8.576,42.3-3.6,81.332-26.583s67.749-49.65,62.7-58.226c-2.924-4.965-17.512-3.018-38.071,5.083a.633.633,0,0,1-.47-1.176h0l0,0c21.822-8.6,36.265-10.255,39.626-4.547C718.465,143.654,690.727,169.991,649.732,194.13Z" transform="translate(-340.041 -130.827)" fill="#3f3d56"/>
    <circle id="Ellipse_1286" data-name="Ellipse 1286" cx="4.432" cy="4.432" r="4.432" transform="translate(32.154 196.203)" fill="#fff"/>
    <circle id="Ellipse_1287" data-name="Ellipse 1287" cx="4.432" cy="4.432" r="4.432" transform="translate(342.387 260.782)" fill="#fff"/>
    <path id="Path_32595" data-name="Path 32595" d="M516.719,307.807c10.76,3.071,10.346,9.5,23.109,9.5s23.109,1.692,23.109-9.5-5.08-31.99-23.109-31.023C520.424,277.825,510.2,305.946,516.719,307.807Z" transform="translate(-321.261 -184.363)" fill="#2f2e41"/>
    <path id="Path_32596" data-name="Path 32596" d="M472.679,437.412a6.8,6.8,0,0,1,3.959-9.649l26.475-56.006,12.11,8.492-29.832,52.382a6.838,6.838,0,0,1-12.712,4.781Z" transform="translate(-305.538 -219.218)" fill="#e8b886"/>
    <path id="Path_32597" data-name="Path 32597" d="M508.89,371.648a3.046,3.046,0,0,1,.35-2.515l8.232-12.9a8.47,8.47,0,0,1,15.484,6.869l-4.146,14.785a3.05,3.05,0,0,1-4.181,1.96l-14.061-6.287A3.046,3.046,0,0,1,508.89,371.648Z" transform="translate(-319.062 -211.673)" fill="#c99e41"/>
    <path id="Path_32598" data-name="Path 32598" d="M403.664,499.273l-7.294,2.656-13.714-26.869,10.764-3.92Z" transform="translate(-140.386 -172.849)" fill="#e8b886"/>
    <path id="Path_32599" data-name="Path 32599" d="M600.434,647.333l14.066-5.122h0l3.225,8.857h0L594.8,659.415h0a9.425,9.425,0,0,1,5.632-12.081Z" transform="translate(-350.418 -318.44)" fill="#2f2e41"/>
    <path id="Path_32600" data-name="Path 32600" d="M577.193,576.654l-27.786-48.625a3.053,3.053,0,0,1,.033-3.082l12.512-20.853a3.049,3.049,0,0,1,5.483.533l23.656,65.508a3.038,3.038,0,0,1-1.563,3.792l-8.382,3.97a3.022,3.022,0,0,1-1.294.291,3.064,3.064,0,0,1-2.659-1.533Z" transform="translate(-333.827 -267.225)" fill="#2f2e41"/>
    <circle id="Ellipse_1288" data-name="Ellipse 1288" cx="15.55" cy="15.55" r="15.55" transform="translate(202.031 101.234)" fill="#e8b886"/>
    <path id="Path_32601" data-name="Path 32601" d="M514.838,397.59c-12.246-27.154.1-42.33,5.976-47.594a9.217,9.217,0,0,1,6.16-2.356H548.88a9.229,9.229,0,0,1,8.255,13.356l-14.644,29.288-27.533,7.572Z" transform="translate(-319.375 -210.37)" fill="#c99e41"/>
    <path id="Path_32602" data-name="Path 32602" d="M330.061,509.823H322.3l-3.692-29.939h11.456Z" transform="translate(-116.888 -176.056)" fill="#e8b886"/>
    <path id="Path_32603" data-name="Path 32603" d="M519.358,654.5h14.969v9.425H509.933a9.425,9.425,0,0,1,9.425-9.425Z" transform="translate(-319.492 -322.947)" fill="#2f2e41"/>
    <path id="Path_32604" data-name="Path 32604" d="M531.78,555.48l-12.427-1.434a3.05,3.05,0,0,1-2.68-3.38c0-.017,0-.034.006-.051l11.091-83.509a2.373,2.373,0,0,0-.046-.872L516.577,420.24a3.015,3.015,0,0,1,.477-2.486c1.729-2.383,7.652-7.937,25.271-8.042h.019a3.061,3.061,0,0,1,2.784,1.789l2.35,5.17a2.381,2.381,0,0,0,.793.958c3.235,2.29,18.906,15.143,9.7,43.362-9.044,27.736-20.632,81.581-22.863,92.094a3.034,3.034,0,0,1-2.974,2.415A3.132,3.132,0,0,1,531.78,555.48Z" transform="translate(-321.897 -233.142)" fill="#2f2e41"/>
    <path id="Path_32605" data-name="Path 32605" d="M619.568,317.29a6.662,6.662,0,0,0,.173,1.035l-21.113,23.241-7.457-1.607-3.9,10.936,12.924,4.128a5.065,5.065,0,0,0,5.742-2L625.9,323.4a6.646,6.646,0,1,0-6.33-6.11Z" transform="translate(-347.866 -196.603)" fill="#e8b886"/>
    <path id="Path_32606" data-name="Path 32606" d="M588.692,357.243,583.8,370.774a2.849,2.849,0,0,1-4.03,1.539l-12.63-6.8a7.912,7.912,0,1,1,5.427-14.865l14.015,2.838a2.849,2.849,0,0,1,2.113,3.761Z" transform="translate(-338.571 -211.295)" fill="#c99e41"/>
    <path id="Path_32607" data-name="Path 32607" d="M561.946,304.264H555.8l-2.713-7.6-.543,7.6H549.6l-1.583-4.432-.317,4.432c-7.693,3.246-14.985,3.335-21.843,0A16.461,16.461,0,0,1,542.319,287.8h3.166A16.461,16.461,0,0,1,561.946,304.264Z" transform="translate(-325.334 -188.417)" fill="#2f2e41"/>
    <path id="Path_32608" data-name="Path 32608" d="M315.9,567.788h-2.216v-2.216a2.849,2.849,0,1,0-5.7,0v2.216h-2.216a2.849,2.849,0,0,0,0,5.7h2.216V575.7a2.849,2.849,0,0,0,5.7,0v-2.216H315.9a2.849,2.849,0,0,0,0-5.7Z" transform="translate(-243.546 -289.278)" fill="#fff"/>
    <path id="Path_32609" data-name="Path 32609" d="M834.675,483.357h-1.152V482.2a1.482,1.482,0,0,0-2.963,0v1.152h-1.152a1.482,1.482,0,1,0,0,2.963h1.152v1.152a1.482,1.482,0,0,0,2.963,0V486.32h1.152a1.482,1.482,0,0,0,.005-2.963Z" transform="translate(-436.155 -259.194)" fill="#ff6584"/>
    <path id="Path_32610" data-name="Path 32610" d="M303.673,362.355h-1.152V361.2a1.482,1.482,0,1,0-2.963-.005v1.158h-1.152a1.482,1.482,0,1,0-.005,2.963h1.158v1.152a1.482,1.482,0,0,0,2.963.006v-1.158h1.152a1.482,1.482,0,1,0,.008-2.963h0Z" transform="translate(-241.344 -214.801)" fill="#c99e41"/>
    <path id="Path_32611" data-name="Path 32611" d="M438.673,362.355h-1.152V361.2a1.482,1.482,0,1,0-2.963-.005v1.158h-1.152a1.482,1.482,0,0,0-.005,2.963h1.158v1.152a1.482,1.482,0,0,0,2.963.006v-1.158h1.152a1.482,1.482,0,1,0,.008-2.963h0Z" transform="translate(-290.872 -214.801)" fill="#fff"/>
    <path id="Path_32612" data-name="Path 32612" d="M903.674,602.357h-1.152V601.2a1.482,1.482,0,0,0-2.963,0v1.152h-1.152a1.482,1.482,0,0,0,0,2.963h1.152v1.152a1.482,1.482,0,1,0,2.963,0V605.32h1.152a1.482,1.482,0,0,0,0-2.963Z" transform="translate(-461.469 -302.852)" fill="#fff"/>
    <path id="Path_32613" data-name="Path 32613" d="M693.675,407.357h-1.152V406.2a1.482,1.482,0,1,0-2.963,0v1.152h-1.152a1.482,1.482,0,1,0,0,2.963h1.152v1.152a1.482,1.482,0,0,0,2.963,0V410.32h1.152a1.482,1.482,0,0,0,.005-2.963Z" transform="translate(-384.426 -231.312)" fill="#fff"/>
    <path id="Path_32614" data-name="Path 32614" d="M372.673,457.355h-1.152V456.2a1.482,1.482,0,1,0-2.963-.005v1.158h-1.152a1.482,1.482,0,1,0-.005,2.963h1.158v1.152a1.482,1.482,0,0,0,2.963.005v-1.158h1.152a1.482,1.482,0,0,0,.005-2.963Z" transform="translate(-266.658 -249.654)" fill="#fff"/>
    <path id="Path_32615" data-name="Path 32615" d="M378.673,291.355h-1.152V290.2a1.482,1.482,0,1,0-2.963-.005v1.158h-1.152a1.482,1.482,0,1,0-.005,2.963h1.158v1.152a1.482,1.482,0,1,0,2.963.005v-1.158h1.152a1.482,1.482,0,0,0,.005-2.963h0Z" transform="translate(-268.859 -188.753)" fill="#fff"/>
    <path id="Path_32616" data-name="Path 32616" d="M644.267,207.57c-45.861-23.166-84.32-15.639-84.837-19.635,0-6.6,13.206-12.485,36.229-16.149a.633.633,0,0,1,.209,1.249h-.01c-21.688,3.452-35.161,9.16-35.162,14.9,0,9.953,38.27,18.364,83.571,18.368s83.574-8.4,83.574-18.353c0-5.762-13.558-11.487-35.384-14.94a.633.633,0,0,1,.191-1.252h.006c23.167,3.666,36.453,9.567,36.452,16.191C729.107,198.957,686.73,229.02,644.267,207.57Z" transform="translate(-337.651 -145.841)" fill="#3f3d56"/>
  </g>
</svg>
