<?xml version="1.0" encoding="UTF-8"?>
<svg id="Layer_2" data-name="Layer 2" xmlns="http://www.w3.org/2000/svg" viewBox="0 0 214.08 184.64">
  <defs>
    <style>
      .cls-1 {
        fill: #f4d3d3;
      }

      .cls-2 {
        fill: #e8b886;
      }

      .cls-3 {
        fill: #fff;
      }

      .cls-4 {
        fill: #e8e8e8;
      }

      .cls-5 {
        fill: #bc9c49;
      }

      .cls-6 {
        fill: #c99e41;
      }

      .cls-7 {
        fill: #caefbd;
      }

      .cls-8 {
        fill: #d42424;
      }

      .cls-9 {
        fill: #d29660;
      }

      .cls-10 {
        fill: #251a51;
      }

      .cls-11 {
        fill: #a1e0dc;
      }

      .cls-12 {
        fill: #353584;
      }

      .cls-13 {
        fill: #56a73c;
      }

      .cls-14 {
        fill: #514233;
      }

      .cls-15 {
        fill: #f7e8cb;
        stroke: #c99e41;
        stroke-miterlimit: 10;
      }

      .cls-16 {
        opacity: .36;
      }

      .cls-17 {
        opacity: .6;
      }
    </style>
  </defs>
  <g id="Layer_1-2" data-name="Layer 1">
    <g>
      <g>
        <g>
          <path class="cls-3" d="m121.67,93.84v65.43c0,1.45,1.18,2.63,2.63,2.63h87.15c1.45,0,2.63-1.18,2.63-2.63v-67.7c0-1.48-1.22-2.67-2.7-2.63l-87.15,2.27c-1.43.04-2.56,1.2-2.56,2.63Z"/>
          <g class="cls-16">
            <path class="cls-10" d="m140.51,146.43c0,.19-2.06.34-4.61.34s-4.61-.15-4.61-.34,2.06-.34,4.61-.34,4.61.15,4.61.34Z"/>
          </g>
          <path class="cls-12" d="m206.3,105.29c-.03.07-1.11-.56-3.22-1.23-2.1-.65-5.33-1.28-9.25-.69-1.94.31-4.04.9-6.1,1.96-2.07,1.04-4.04,2.57-6,4.31-1.97,1.74-3.92,3.71-6.17,5.53-2.25,1.79-4.84,3.49-7.87,4.26-1.51.39-3.09.49-4.6.28-1.51-.21-2.94-.7-4.26-1.32-2.64-1.24-4.9-2.88-7.14-4.24-2.22-1.39-4.45-2.49-6.71-3.01-2.24-.55-4.42-.66-6.38-.49-3.95.34-6.93,1.74-8.81,2.87-1.89,1.16-2.78,2.03-2.83,1.96-.02-.02.2-.23.64-.63.43-.4,1.11-.95,2.05-1.56,1.86-1.21,4.87-2.71,8.91-3.13,2-.2,4.24-.12,6.56.42,2.33.5,4.66,1.63,6.91,3.02,2.27,1.36,4.53,2.98,7.09,4.17,2.54,1.22,5.52,1.77,8.41.98,2.89-.73,5.41-2.37,7.62-4.12,2.22-1.78,4.18-3.74,6.17-5.48,1.99-1.74,4.01-3.3,6.16-4.35,2.13-1.07,4.29-1.65,6.29-1.93,4.02-.54,7.3.18,9.4.91,1.06.37,1.85.74,2.37,1.02.52.28.78.44.77.46Z"/>
          <g class="cls-17">
            <rect class="cls-13" x="142.25" y="120.66" width="8.52" height="23.05"/>
            <rect class="cls-13" x="178.42" y="120.66" width="8.52" height="23.05"/>
            <rect class="cls-13" x="190.48" y="107.12" width="8.52" height="36.59"/>
            <rect class="cls-13" x="131.22" y="136.46" width="8.52" height="7.76"/>
            <rect class="cls-13" x="154.31" y="131.07" width="8.52" height="12.64"/>
            <rect class="cls-13" x="166.37" y="128.17" width="8.52" height="15.55"/>
          </g>
          <g class="cls-16">
            <path class="cls-10" d="m200.69,146.43c0,.19-2.33.34-5.21.34s-5.21-.15-5.21-.34,2.33-.34,5.21-.34,5.21.15,5.21.34Z"/>
          </g>
          <g class="cls-16">
            <path class="cls-10" d="m188.02,146.43c0,.19-2.33.34-5.21.34s-5.21-.15-5.21-.34,2.33-.34,5.21-.34,5.21.15,5.21.34Z"/>
          </g>
          <g class="cls-16">
            <path class="cls-10" d="m174.89,146.43c0,.19-2.06.34-4.61.34s-4.61-.15-4.61-.34,2.06-.34,4.61-.34,4.61.15,4.61.34Z"/>
          </g>
          <g class="cls-16">
            <path class="cls-10" d="m162.43,146.43c0,.19-2.06.34-4.61.34s-4.61-.15-4.61-.34,2.06-.34,4.61-.34,4.61.15,4.61.34Z"/>
          </g>
          <g class="cls-16">
            <path class="cls-10" d="m151,146.43c0,.19-2.06.34-4.61.34s-4.61-.15-4.61-.34,2.06-.34,4.61-.34,4.61.15,4.61.34Z"/>
          </g>
        </g>
        <g>
          <rect class="cls-3" x="16.63" y="148.64" width="92.48" height="35.79" rx="2" ry="2"/>
          <path class="cls-8" d="m24.34,168.16c5.73-4.8,12.8-6.31,19.62-2.66,3.43,1.83,6.22,4.53,10.19,5.13,6.85,1.04,12.87-3.59,17.91-7.52.48-.37-.19-1.03-.66-.66-6.12,4.77-12.91,9.48-20.88,5.97-3.71-1.64-6.63-4.51-10.66-5.44-5.79-1.34-11.81.59-15.91,4.78-.26.27.13.64.41.41h0Z"/>
          <path class="cls-11" d="m73.9,161.13c.46.41.82.96.6,1.61-.2.61-.94.99-1.55.77-.56-.2-.93-.91-.77-1.48.2-.73.9-.78,1.52-.88.39-.06.29-.59,0-.7-.96-.36-2.05.56-2.3,1.45-.28.99.34,2.13,1.33,2.42.95.29,2.09-.23,2.46-1.16.37-.92-.1-2.11-1.05-2.44-.23-.08-.42.25-.24.41h0Z"/>
          <path class="cls-11" d="m56.53,169.68c.32.04.78.27.75.66-.02.3-.39.51-.66.45-.66-.14-.17-.84.05-1.13.24-.32-.15-.69-.48-.62-1.59.33-.79,3.02.85,2.61.69-.17,1.21-.81,1.07-1.54-.14-.74-.93-1.33-1.67-1.05-.34.13-.27.57.08.61h0Z"/>
          <path d="m24.67,175.22c3.32.04,6.64.09,9.96.06.42,0,.42-.65,0-.65-3.32-.03-6.64.02-9.96.06-.34,0-.34.53,0,.53h0Z"/>
          <path d="m23.01,178.28c17.44.39,34.95.41,52.39.26.64,0,.64-.99,0-1-17.44-.16-34.95-.13-52.39.26-.31,0-.31.48,0,.49h0Z"/>
          <g class="cls-17">
            <rect class="cls-8" x="83.49" y="160.74" width="5.11" height="15.34"/>
            <rect class="cls-8" x="89.95" y="166.26" width="5.11" height="9.82"/>
            <rect class="cls-8" x="96.41" y="169.91" width="5.11" height="6.17"/>
          </g>
        </g>
      </g>
      <g>
        <path class="cls-2" d="m69.1,115.42l-4.21-7.43-5.29-3.58c-.69-.47-1.06-1.3-.94-2.13l.62-4.37c.11-.75.39-1.46.84-2.07l1.12-1.24s-5.85-6.95-4.59-7.37c1.26-.42,7.69,7.85,8.95,7.99,1.26.14,2.26-.7,3.51-.14,1.25.56,2.5,3.92,2.5,3.92l.7,7.99,2.24,4.77-5.44,3.64Z"/>
        <g>
          <path class="cls-9" d="m129.88,82.2l.81,19.07c.18,4.3-3.26,7.87-7.55,7.84h0c-3.97-.03-7.24-3.15-7.45-7.13l-.57-10.91,14.75-8.87Z"/>
          <path class="cls-5" d="m151.44,147.14l.08-25.45-2.21-14.49c-1.13-7.43-8.5-12.18-15.71-10.14l-13.77,3.9c-4.41,1.25-8.5,3.41-12.01,6.36l-21.21,18.09-13.11-19.34-8.01,5.62c0,1.61,9.61,35.33,18.82,34.13,6.56-.86,20.75-8.77,27.37-11.77,2.23,4.69,4.24,10.7,4.24,10.7l-1.21,30.02c-.22,5.33,4,9.78,9.32,9.86,12.16.18,32.19-1.94,38.37-16.97l-10.96-20.51Z"/>
          <path class="cls-2" d="m127.62,70.08l1.06,6.93s5.46-.52,5.07,4.68c-.39,5.2-4.51,3.92-4.51,3.92,0,0,1.96,12.63-11.63,11.64-10.91-.79-13.27-14.25-14.57-25.79-.48-4.3,2.79-8.09,7.1-8.25l8.83-.31c4.28-.15,8,2.93,8.64,7.18Z"/>
          <path class="cls-14" d="m112.77,60.4s11.07-6.14,17.67,1.18c6.59,7.32,6.83,24.09,12.48,27.16,5.65,3.07,16.02,3.54,17.67,13.7s6.36,10.63,6.36,10.63l-9.89,6.38-4.48-2.13.94,4.25-5.18,2.36-3.53-2.13.24,4.96s-4.24,6.14-7.07,0-.47-19.84-5.42-23.38c-4.95-3.54-17.9-3.54-17.9-17,0,0,4.95-1.65,3.53-4.96-1.41-3.31-5.42-1.65-5.42-1.65,0,0-4.71-1.65-4.24-5.67l-6.48,3.22s-5.14-18.32,10.72-16.92Z"/>
        </g>
      </g>
      <g>
        <rect class="cls-1" y="101.89" width="58.68" height="24.95" rx="5.54" ry="5.54"/>
        <g>
          <path class="cls-8" d="m17.91,112.22h-1.01v-1.34h2.5v7.58h-1.5v-6.23Z"/>
          <path class="cls-8" d="m20.76,117.27c1.71-1.45,3.51-2.8,3.51-4.19,0-.68-.3-1.13-1.02-1.13s-1.08.5-1.09,1.3h-1.41c.05-1.74,1.16-2.54,2.53-2.54,1.63,0,2.45.97,2.45,2.29,0,1.76-1.69,3.13-2.9,4.15h3.07v1.21h-5.13v-1.08Z"/>
          <path class="cls-8" d="m31.9,110.86v1.28h-3.37v1.78c.28-.34.85-.61,1.49-.61,1.77,0,2.37,1.33,2.37,2.5,0,1.55-.89,2.65-2.62,2.65-1.63,0-2.57-.9-2.69-2.14h1.41c.12.53.55.91,1.26.91.85,0,1.24-.6,1.24-1.4,0-.85-.43-1.32-1.25-1.32-.6,0-.99.33-1.14.8h-1.39v-4.45h4.7Z"/>
          <path class="cls-8" d="m34.32,118.53c-.53,0-.9-.37-.9-.85s.37-.85.9-.85.88.37.88.85-.37.85-.88.85Z"/>
          <path class="cls-8" d="m41.3,110.86v1.28h-3.37v1.78c.28-.34.85-.61,1.49-.61,1.77,0,2.37,1.33,2.37,2.5,0,1.55-.89,2.65-2.62,2.65-1.63,0-2.57-.9-2.69-2.14h1.41c.12.53.55.91,1.26.91.85,0,1.24-.6,1.24-1.4,0-.85-.43-1.32-1.25-1.32-.6,0-.99.33-1.14.8h-1.39v-4.45h4.7Z"/>
        </g>
      </g>
      <g>
        <rect class="cls-15" x="13.52" y="56.14" width="58.68" height="24.95" rx="5.54" ry="5.54"/>
        <g>
          <path class="cls-6" d="m28.3,66.48h-1.01v-1.34h2.5v7.58h-1.5v-6.23Z"/>
          <path class="cls-6" d="m33.78,64.96c1.56,0,2.39.88,2.39,2.01,0,.95-.59,1.53-1.14,1.71v.04c.77.24,1.28.86,1.28,1.89,0,1.24-.87,2.15-2.46,2.15-1.5,0-2.63-.75-2.69-2.34h1.41c.03.65.47,1.12,1.25,1.12.73,0,1.1-.46,1.1-1.06,0-.85-.54-1.16-1.62-1.16h-.3v-1.2h.3c.85,0,1.48-.24,1.48-.99,0-.59-.36-.95-1.03-.95-.71,0-1.01.46-1.06.94h-1.42c.07-1.4,1.07-2.17,2.53-2.17Z"/>
          <path class="cls-6" d="m40.27,64.99c2.14,0,2.81,1.64,2.81,3.83s-.67,3.87-2.81,3.87-2.81-1.65-2.81-3.87.67-3.83,2.81-3.83Zm0,1.35c-1.23,0-1.37,1.18-1.37,2.48s.15,2.51,1.37,2.51,1.37-1.16,1.37-2.51-.15-2.48-1.37-2.48Z"/>
          <path class="cls-6" d="m44.99,72.78c-.53,0-.9-.37-.9-.85s.37-.85.9-.85.88.37.88.85-.37.85-.88.85Z"/>
          <path class="cls-6" d="m46.8,71.53c1.71-1.45,3.51-2.8,3.51-4.19,0-.68-.3-1.13-1.02-1.13s-1.08.5-1.09,1.3h-1.41c.05-1.74,1.16-2.54,2.53-2.54,1.63,0,2.45.97,2.45,2.29,0,1.76-1.69,3.13-2.9,4.15h3.07v1.21h-5.13v-1.08Z"/>
          <path class="cls-6" d="m57.94,65.11v1.28h-3.37v1.78c.28-.34.85-.61,1.49-.61,1.77,0,2.37,1.33,2.37,2.5,0,1.55-.89,2.65-2.62,2.65-1.63,0-2.57-.9-2.69-2.14h1.41c.12.53.55.91,1.26.91.85,0,1.24-.6,1.24-1.4,0-.85-.43-1.32-1.25-1.32-.6,0-.99.33-1.14.8h-1.39v-4.45h4.7Z"/>
        </g>
      </g>
      <g>
        <rect class="cls-4" x="47.83" y="14.56" width="58.68" height="24.95" rx="5.54" ry="5.54"/>
        <g>
          <path d="m65.6,24.89h-1.01v-1.34h2.5v7.58h-1.5v-6.23Z"/>
          <path d="m71.08,23.37c1.56,0,2.39.88,2.39,2.01,0,.95-.59,1.53-1.14,1.71v.04c.77.24,1.28.86,1.28,1.89,0,1.24-.87,2.15-2.46,2.15-1.5,0-2.63-.75-2.69-2.34h1.41c.03.65.47,1.12,1.25,1.12.73,0,1.1-.46,1.1-1.06,0-.85-.54-1.16-1.62-1.16h-.3v-1.2h.3c.85,0,1.48-.24,1.48-.99,0-.59-.36-.95-1.03-.95-.71,0-1.01.46-1.06.94h-1.42c.07-1.4,1.07-2.17,2.53-2.17Z"/>
          <path d="m79.85,23.53v1.28h-3.37v1.78c.28-.34.85-.61,1.49-.61,1.77,0,2.37,1.33,2.37,2.5,0,1.55-.89,2.65-2.62,2.65-1.63,0-2.57-.9-2.69-2.14h1.41c.12.53.55.91,1.26.91.85,0,1.24-.6,1.24-1.4,0-.85-.43-1.32-1.25-1.32-.6,0-.99.33-1.14.8h-1.39v-4.45h4.7Z"/>
          <path d="m82.26,31.2c-.53,0-.9-.37-.9-.85s.37-.85.9-.85.88.37.88.85-.37.85-.88.85Z"/>
          <path d="m86.96,23.4c2.14,0,2.81,1.64,2.81,3.83s-.67,3.87-2.81,3.87-2.81-1.65-2.81-3.87.67-3.83,2.81-3.83Zm0,1.35c-1.23,0-1.37,1.18-1.37,2.48s.15,2.51,1.37,2.51,1.37-1.16,1.37-2.51-.15-2.48-1.37-2.48Z"/>
        </g>
      </g>
      <g>
        <rect class="cls-7" x="150.76" y="37.43" width="58.68" height="24.95" rx="5.54" ry="5.54"/>
        <g>
          <path class="cls-13" d="m168.21,47.76h-1.01v-1.34h2.5v7.58h-1.5v-6.23Z"/>
          <path class="cls-13" d="m174.72,52.52h-3.64v-1.14l3.4-4.86h1.69v4.74h.91v1.27h-.91v1.48h-1.45v-1.48Zm.09-1.27v-3.18l-2.13,3.18h2.13Z"/>
          <path class="cls-13" d="m183.11,46.4v1.28h-3.37v1.78c.28-.34.85-.61,1.49-.61,1.77,0,2.37,1.33,2.37,2.5,0,1.55-.89,2.65-2.62,2.65-1.63,0-2.57-.9-2.69-2.14h1.41c.12.53.55.91,1.26.91.85,0,1.24-.6,1.24-1.4,0-.85-.43-1.32-1.25-1.32-.6,0-.99.33-1.14.8h-1.39v-4.45h4.7Z"/>
          <path class="cls-13" d="m185.53,54.07c-.53,0-.9-.37-.9-.85s.37-.85.9-.85.88.37.88.85-.37.85-.88.85Z"/>
          <path class="cls-13" d="m192.51,46.4v1.28h-3.37v1.78c.28-.34.85-.61,1.49-.61,1.77,0,2.37,1.33,2.37,2.5,0,1.55-.89,2.65-2.62,2.65-1.63,0-2.57-.9-2.69-2.14h1.41c.12.53.55.91,1.26.91.85,0,1.24-.6,1.24-1.4,0-.85-.43-1.32-1.25-1.32-.6,0-.99.33-1.14.8h-1.39v-4.45h4.7Z"/>
        </g>
      </g>
      <g>
        <rect class="cls-7" x="118.53" width="58.68" height="24.95" rx="5.54" ry="5.54"/>
        <g>
          <path class="cls-13" d="m134.03,10.33h-1.01v-1.34h2.5v7.58h-1.5v-6.23Z"/>
          <path class="cls-13" d="m140.54,15.09h-3.64v-1.14l3.4-4.86h1.69v4.74h.91v1.27h-.91v1.48h-1.45v-1.48Zm.09-1.27v-3.18l-2.13,3.18h2.13Z"/>
          <path class="cls-13" d="m146.64,8.85c2.14,0,2.81,1.64,2.81,3.83s-.67,3.87-2.81,3.87-2.81-1.65-2.81-3.87.67-3.83,2.81-3.83Zm0,1.35c-1.23,0-1.37,1.18-1.37,2.48s.15,2.51,1.37,2.51,1.37-1.16,1.37-2.51-.15-2.48-1.37-2.48Z"/>
          <path class="cls-13" d="m151.36,16.64c-.53,0-.9-.37-.9-.85s.37-.85.9-.85.88.37.88.85-.37.85-.88.85Z"/>
          <path class="cls-13" d="m153.17,15.38c1.71-1.45,3.51-2.8,3.51-4.19,0-.68-.3-1.13-1.02-1.13s-1.08.5-1.09,1.3h-1.41c.05-1.74,1.16-2.54,2.53-2.54,1.63,0,2.45.97,2.45,2.29,0,1.76-1.69,3.13-2.9,4.15h3.07v1.21h-5.13v-1.08Z"/>
          <path class="cls-13" d="m164.31,8.97v1.28h-3.37v1.78c.28-.34.85-.61,1.49-.61,1.77,0,2.37,1.33,2.37,2.5,0,1.55-.89,2.65-2.62,2.65-1.63,0-2.57-.9-2.69-2.14h1.41c.12.53.55.91,1.26.91.85,0,1.24-.6,1.24-1.4,0-.85-.43-1.32-1.25-1.32-.6,0-.99.33-1.14.8h-1.39v-4.45h4.7Z"/>
        </g>
      </g>
    </g>
  </g>
</svg>