<?xml version="1.0" encoding="UTF-8"?>
<svg id="Layer_2" data-name="Layer 2" xmlns="http://www.w3.org/2000/svg" viewBox="0 0 240.22 218.7">
  <defs>
    <style>
      .cls-1 {
        fill: #e8947e;
      }

      .cls-2 {
        fill: #e8b886;
      }

      .cls-3 {
        fill: #fff;
      }

      .cls-4 {
        fill: #edc483;
      }

      .cls-5 {
        fill: #bc9c49;
      }

      .cls-6 {
        fill: #d42424;
      }

      .cls-7 {
        fill: #d29660;
      }

      .cls-8 {
        fill: #260a04;
      }

      .cls-9 {
        fill: #56a73c;
      }

      .cls-10 {
        fill: #473a60;
      }

      .cls-11 {
        fill: #514233;
      }
    </style>
  </defs>
  <g id="Layer_1-2" data-name="Layer 1">
    <g>
      <path class="cls-6" d="m17.97,124.07c-.77,4.52-1.46,9.04-2.12,13.58-.1.68.36,1.14,1.04,1.04,4.24-.64,8.49-1.25,12.69-2.08.51-.1.7-.74.47-1.16-2.48-4.4-5.48-9.2-9.73-12.09-.85-.58-1.68.66-1.05,1.36,3.39,3.77,6.95,6.99,9.42,11.53l.68-1.18c-4.33.53-8.63,1.28-12.94,1.99l1.07.82c.56-4.55,1.07-9.1,1.52-13.66.06-.6-.96-.75-1.06-.14h0Z"/>
      <path class="cls-9" d="m136.75,136.78c2.43-5.76,9.44-6.4,12.6-1.08.99,1.67,1.26,3.67,2.18,5.37,1.19,2.19,2.88,3.86,5.45,4.26,4.69.72,8.15-3.24,7.76-7.71-.1-1.08-1.74-1.12-1.72,0,.12,6.32-6.94,7.87-9.94,2.54-.95-1.68-1.21-3.69-2.18-5.37-1.08-1.88-2.52-3.31-4.6-4.09-4.84-1.81-9.2,1.16-10.66,5.77-.23.72.82.96,1.1.3h0Z"/>
      <path class="cls-9" d="m186.59,24.23c-1.85-3.57-.87-8.14,3-9.86,2.69-1.19,5.15-.19,7.72.69s5.31,1.57,7.87.08c4.67-2.72,4.19-8.84.11-11.75-.79-.56-1.79.73-1.04,1.35,1.12.92,2.6,3.1,2.57,4.56l-2.55,4.29-4.08.5c-1.63-.15-3.24-1.18-4.8-1.63-2.46-.72-4.86-.75-7.16.51-4.48,2.46-5.26,7.73-2.63,11.83.4.62,1.32.08.98-.57h0Z"/>
      <path class="cls-4" d="m94.73,90.62c.87,2.2,2.16,4.18,3.54,6.1.79,1.1,1.82,2.97,3.28,3.29s2.48-.79,3.57-1.56c2.48-1.74,4.95-3.5,7.42-5.26.4-.28.63-.82.34-1.28-2.18-3.36-4.37-6.73-6.55-10.09-.26-.4-.85-.64-1.28-.34-2.6,1.84-5.25,3.64-7.8,5.56-.9.68-.08,2.21.91,1.55,2.66-1.76,5.23-3.66,7.83-5.5l-1.28-.34c2.18,3.36,4.37,6.72,6.55,10.09l.34-1.28c-1.48,1.06-2.97,2.11-4.45,3.17-1.08.77-3.17,2.97-4.43,3.19-2.48.44-5.84-6.02-7.37-7.67-.24-.26-.76.01-.62.36h0Z"/>
      <path class="cls-7" d="m138.02,79.24s-3.91-3.93-4.44-4.51c-3.07-3.41-.01-1.48,1.37-1.1,1.23.34-2.27-8.14-1.14-7.83,1.13.31,2.4,4.43,2.4,4.43,0,0-1.49-5.74-.25-4.56,1.24,1.18,2.4,4.44,2.4,4.44,0,0-1.31-5.97-.26-4.73,1.05,1.24,1.79,3.45,1.79,3.45,0,0-.65-5.17.29-3.74s7.12,13.1,7.12,13.1l-9.28,1.07Z"/>
      <path class="cls-2" d="m132.14,81.86s3.91-3.93,4.44-4.51c3.07-3.41.01-1.48-1.37-1.1-1.23.34,2.27-8.14,1.14-7.83-1.13.31-2.4,4.43-2.4,4.43,0,0,1.49-5.73.25-4.56-1.24,1.18-2.4,4.44-2.4,4.44,0,0,1.31-5.97.26-4.73-1.05,1.24-1.79,3.45-1.79,3.45,0,0,.65-5.17-.29-3.74-.94,1.43-7.12,13.1-7.12,13.1l9.28,1.07Z"/>
      <path class="cls-5" d="m186.27,181.15s2.19-29.06,1.24-31.28-5.14-16.67-5.14-16.67l9.04-14.53,11.71-1.9,8.75,7.57c4.92,4.26,7.82,10.38,8.01,16.88l1.14,38.78s-.88,6.72-15.88,7.72-18.88-6.56-18.88-6.56Z"/>
      <path class="cls-5" d="m85.16,134.73c-.21-.65,1.05-13.7-13.93-13.35-14.05.33-23.35,4.55-29.32,11.17l5.04,20.38,1.8,34.3s3.4,5.47,20.4,5.47,19.39-9.13,19.39-9.13l-3.38-48.85Z"/>
      <path class="cls-5" d="m42.81,131.16s-19.83,29.33-17.96,52.48c1.87,23.15,29.39,1.17,32.42-1.4,3.03-2.57,6.08-7.02,6.08-7.02l-1.83-10.76-18.7,8.65,6.86-13.45-6.86-28.51Z"/>
      <path class="cls-5" d="m74.3,121.3s17.73-9.02,26.59-17.42c8.86-8.4,24.68-27.47,24.68-27.47l7.27,5.99s-16.14,26.49-26.08,37.42c-6.5,7.15-22.73,22.56-22.73,22.56l-9.74-21.09Z"/>
      <path class="cls-5" d="m194,117.6s-17.08-8.69-25.62-16.78c-8.54-8.09-25.17-28.78-25.17-28.78l-5.62,8.09s15.55,25.52,25.13,36.06c6.26,6.89,21.9,21.74,21.9,21.74l9.38-20.32Z"/>
      <path class="cls-7" d="m68.2,110.05l-.63,14.28c-.18,4-4.42,6.5-8,4.7-.05-.02-.09-.05-.14-.07-1.93-.97-3.12-2.96-3.05-5.12.15-5.02.21-13.66.21-13.66l11.62-.13Z"/>
      <path class="cls-11" d="m55.23,115.39c-4.1,1.49-2.66-3.19-2.81-5.18-.15-1.99-.03-4.07-.85-5.88-.66-1.45-1.9-2.73-1.9-4.32,0-1.21,1.06-6.78,1.33-8.43.52-3.15,3.78-5.57,6.94-5.16,1.58.21,7.74-.85,9.25-1.74,2.12-1.24,4.87-1.44,7.05-.32s3.66,3.6,3.39,6.04c-.27,2.44-2.38,4.61-4.83,4.74-1.43.08-2.81-.47-4.2-.82-1.39-.35-2.97-.48-4.15.32-1.49,1.02-2.14,3.36-3.93,3.53-.95.09-1.8-.52-2.68-.9-.87-.38-2.09-.46-2.59.36-.41.67-.07,1.53.02,2.31.17,1.43-.17,2.86-1.47,3.5-.52,3.95.67,7.75,1.85,11.56"/>
      <path class="cls-2" d="m54.01,92.18l-.51,11.71s-3.6-.04-3.59,3.26c0,4.15,3.9,3.45,3.9,3.45,0,0-.8,7.92,10.06,8.57,12.71.76,10-19.1,9.51-28.42l-19.36,1.43Z"/>
      <path class="cls-11" d="m53.67,103.91c-.24.72-.47,1.51-.18,2.2.29.69,1.39,1.03,1.8.4.16-.25.17-.56.17-.86.02-2.03.03-4.05.05-6.08,2.92-.52,5.44-2.84,6.18-5.71,1.54.94,3.59,1.01,5.19.17.66-.35,1.33-.85,2.07-.75.89.12,1.41,1.04,2.14,1.56,1.27.9,3.31.34,3.94-1.08.65-1.47-.23-3.28-1.61-4.12-1.73-1.05-3.92-.85-5.94-.61-3.72.44-7.44.88-11.16,1.32-.71.08-1.47.19-2.03.63-.58.46-.85,1.2-1.06,1.91-.83,2.79-1.22,5.72-1.14,8.63.03.89.18,1.93.96,2.37"/>
      <g>
        <g>
          <path class="cls-3" d="m58.78,143.96s4.17,14.46,4.63,15.03c.46.58,4.75,1.13,4.75,1.13l.31,1.34-.96.22c-.44.1-.74.52-.69.97h0c.05.48.47.83.95.8l1.15-.07,1.63,7.37-5.35,1.85.25,1.46,16.34-2.03-.56-1.73-6.12-.29-1.17-7.54.72-.17c.6-.14.97-.73.83-1.33h0c-.14-.6-.73-.97-1.33-.83l-.57.13-.2-1.59,3.93-3.37-2.47-14.65-6.99-1.71-3.6.83-5.46,4.17Z"/>
          <path class="cls-3" d="m64.11,130.78s2.98,1.71,3.01,2.41c.02.7-.81,1.81-.81,1.81l.25,1.07,2.99.23.34,1.47-2.27.53.29,1.84-3.64.84-.35-1.54h-2.4s-.28-1.22-.28-1.22l2.45-1.27-.14-.92s-1.58-1.51-1.61-1.92c-.03-.42.22-2.31,2.19-3.33Z"/>
          <path class="cls-3" d="m60.94,146.6s-2.9-3.05-6.16-1.4c-3.25,1.65-2.23,6.82.37,8.92,2.6,2.1,8.48,4.75,8.48,4.75l-.61-2.64s-6.12-2.2-7.77-5.7c-.55-1.16-.77-4.44,2.5-3.8,3.28.64,3.57,3.36,3.57,3.36l-.38-3.48Z"/>
          <path class="cls-3" d="m73.41,143.2s1.03-4.09,4.68-4.24c3.65-.15,5.29,4.85,4.05,7.96-1.23,3.11-5.07,8.3-5.07,8.3l-.77-2.6s4.26-4.92,3.98-8.78c-.09-1.28-1.51-4.25-4.05-2.09-2.54,2.16-1.46,4.68-1.46,4.68l-1.38-3.22Z"/>
        </g>
        <path class="cls-8" d="m68.74,144.94l1.58,8.55-2.13.39-.85-4.58c-.12-.66-.21-1.06-.27-1.18-.06-.13-.16-.21-.32-.25-.16-.04-.48-.02-.97.07l-.21.04-.18-1c.99-.41,1.69-1.01,2.1-1.8l1.26-.23Z"/>
      </g>
      <path class="cls-2" d="m60.9,164.56s4.4-4.75,5.26-4.63c.99.14.76-.16,1.13,1.58.3,1.38,9.14-2.02,8.73-.79-.41,1.23-5.04,2.38-5.04,2.38,0,0,6.43-1.3,5.06,0-1.38,1.3-5.06,2.39-5.06,2.39,0,0,6.68-1.09,5.25,0-1.43,1.09-3.92,1.77-3.92,1.77,0,0,5.76-.41,4.12.55-1.64.95-14.92,7.09-14.92,7.09l-.62-10.33Z"/>
      <path class="cls-7" d="m193.32,108.17l.63,14.28c.18,4,4.42,6.5,8.01,4.7.05-.02.09-.05.14-.07,1.93-.97,3.12-2.96,3.05-5.12-.15-5.02-.21-13.66-.21-13.66l-11.62-.13Z"/>
      <path d="m188.15,150.71s-.04-.06-.1-.19c-.08-.18-.17-.37-.26-.57-.22-.49-.52-1.21-.86-2.11-.69-1.8-1.53-4.34-2.28-7.18-.76-2.84-1.35-5.44-1.79-7.32-.19-.84-.36-1.58-.51-2.22-.05-.21-.09-.41-.13-.61-.03-.14-.04-.21-.03-.21,0,0,.03.07.07.2.05.19.11.39.17.6.17.64.36,1.37.58,2.21.47,1.87,1.09,4.46,1.85,7.3.76,2.84,1.57,5.37,2.22,7.18.33.9.6,1.63.8,2.13.08.21.15.4.22.58.05.13.07.21.06.21Z"/>
      <path d="m205.52,118.78s.16.26.33.78c.17.52.32,1.31.26,2.3-.07.98-.38,2.15-1.13,3.23-.74,1.08-1.96,1.98-3.41,2.41-1.45.42-2.97.33-4.17-.19-1.21-.5-2.11-1.33-2.69-2.12-.58-.8-.88-1.55-1.02-2.08-.14-.53-.14-.84-.14-.84.06-.03.1,1.27,1.28,2.83.59.76,1.47,1.55,2.65,2.03,1.17.49,2.63.57,4.04.17,1.4-.42,2.59-1.28,3.31-2.32.74-1.04,1.05-2.18,1.14-3.13.15-1.95-.51-3.06-.44-3.07Z"/>
      <path class="cls-6" d="m7.73,97.42c-3.61-1.05-6.67-4.74-5.47-8.69,1.19-3.93,4.73-4.14,8.01-4.96,2.72-.67,4.72-1.94,5.8-4.67,1.97-4.97-1.36-10.05-5.97-11.87-1.04-.41-1.49,1.12-.71,1.68,2.39,1.72,5.05,3.94,5.02,7.22-.04,4.94-5.23,4.97-8.73,6.28-2.18.81-3.93,2.47-4.91,4.58-2.45,5.28,1.2,10.71,6.65,11.54.72.11,1.04-.9.31-1.11h0Z"/>
      <path class="cls-9" d="m29.43,17.62c-2.35,2.29-3.13,5.95-.88,8.63,2.13,2.54,6.23,3.08,8.86,1.01s3.27-5.63,1.65-8.39c-1.76-2.99-5.61-4.4-8.93-3.71-.85.18-.64,1.49.2,1.49,2.27,0,4.71.22,6.48,1.83,1.96,1.79,2.08,4.78.4,6.8-1.78,2.15-5.09,2.3-7.16.4s-2.04-5.55-.1-7.55c.33-.34-.18-.86-.53-.53h0Z"/>
      <path class="cls-4" d="m219.07,42.95c-.77,4.52-1.46,9.04-2.12,13.58-.1.68.36,1.14,1.04,1.04,4.24-.64,8.49-1.25,12.69-2.08.51-.1.7-.74.47-1.16-2.48-4.39-5.48-9.2-9.73-12.09-.85-.58-1.68.66-1.05,1.36,3.39,3.77,6.95,6.99,9.42,11.53l.68-1.18c-4.33.53-8.63,1.28-12.94,2l1.07.82c.56-4.55,1.07-9.1,1.52-13.66.06-.6-.96-.75-1.06-.14h0Z"/>
      <path class="cls-4" d="m139.62,107.06c-4.31,1.57-8.58,3.21-12.85,4.89-.63.25-.79.89-.37,1.42,2.66,3.37,5.29,6.75,8.09,10,.34.39.99.25,1.24-.16,2.65-4.39,5.16-9.28,5.69-14.46.1-1-1.42-1.12-1.7-.23-1.51,4.84-2.68,9.49-5.35,13.89h1.36c-2.6-3.5-5.38-6.86-8.13-10.24l-.37,1.42c4.29-1.8,8.57-3.62,12.82-5.53.56-.25.16-1.2-.42-.99h0Z"/>
      <path class="cls-9" d="m232.03,88.56c-4.5.13-8.11,3.94-6.55,8.57,1.46,4.34,6.66,6.34,10.64,4.11s5.19-7.38,3-11.37c-2.55-4.65-8.4-5.64-12.8-3.13-1.03.59-.12,2.1.92,1.58,3.06-1.52,6.94-1.44,9.42,1.13s2.69,6.52.14,9.07c-2.42,2.41-6.18,2.52-8.53-.07-2.87-3.17-.61-8.77,3.74-9.02.55-.03.56-.87,0-.86h0Z"/>
      <path class="cls-1" d="m129.69,49.85c.81-4.46,1.49-9.05,1.81-13.57.06-.88-1.42-1.1-1.56-.21-.71,4.49-1.08,9.1-1.3,13.64-.03.59.94.74,1.05.14h0Z"/>
      <path class="cls-6" d="m111.69,151.68c.81-4.46,1.49-9.05,1.81-13.57.06-.88-1.42-1.1-1.56-.21-.71,4.49-1.08,9.11-1.3,13.64-.03.59.94.74,1.05.14h0Z"/>
      <path class="cls-4" d="m132.21,13.88c-1.78-2.52-4.18-4.56-6.41-6.67-2.45-2.33-4.82-4.89-7.49-6.96-1-.78-2.32.44-1.43,1.43,2.27,2.5,5.01,4.66,7.53,6.92,2.29,2.06,4.52,4.32,7.18,5.9.36.22.87-.23.61-.61h0Z"/>
      <path class="cls-9" d="m74.59,73.23c-1.85-3.57-.87-8.14,3-9.86,2.69-1.19,5.15-.19,7.72.69s5.31,1.57,7.87.08c4.67-2.72,4.19-8.84.11-11.75-.79-.56-1.79.73-1.04,1.35,1.12.92,2.6,3.1,2.57,4.56l-2.55,4.29-4.08.5c-1.63-.15-3.24-1.18-4.8-1.63-2.46-.72-4.86-.75-7.16.51-4.48,2.46-5.26,7.73-2.63,11.83.4.62,1.32.08.98-.57h0Z"/>
      <path class="cls-6" d="m68.11,20.04c.87,2.2,2.16,4.18,3.54,6.1.79,1.1,1.82,2.97,3.28,3.29s2.48-.79,3.57-1.56c2.48-1.74,4.95-3.5,7.42-5.26.4-.28.63-.82.34-1.28-2.18-3.36-4.37-6.73-6.55-10.09-.26-.4-.85-.64-1.28-.34-2.6,1.84-5.25,3.64-7.79,5.56-.9.68-.08,2.21.91,1.55,2.66-1.76,5.23-3.66,7.83-5.5l-1.28-.34c2.19,3.36,4.37,6.73,6.55,10.09l.34-1.28c-1.48,1.05-2.97,2.11-4.45,3.16-1.08.77-3.17,2.97-4.43,3.19-2.48.44-5.84-6.02-7.36-7.67-.24-.26-.76.01-.62.36h0Z"/>
      <path class="cls-6" d="m157.64,33.67c2.94-3.43,5.91-7.03,8.41-10.8.49-.74-.66-1.66-1.25-.96-2.91,3.47-5.53,7.32-8,11.11-.33.5.44,1.11.84.65h0Z"/>
      <path class="cls-6" d="m166.29,77.69c2.41.42,4.89.3,7.32.09,1.42-.12,3.55-.04,4.49-1.35s.28-3.39.18-4.78c-.19-2.64-.4-5.28-.61-7.91-.04-.49-.4-.95-.94-.94-4.01.14-8.02.28-12.02.42-.48.02-.97.42-.94.94.24,3.18.41,6.37.75,9.54.12,1.12,1.85,1.18,1.8,0-.13-3.18-.44-6.37-.68-9.54l-.94.94c4.01-.14,8.02-.28,12.02-.42l-.94-.94c.13,1.65.26,3.3.38,4.95.12,1.52.82,3.99.45,5.44-.74,2.83-7.75,2.28-10.34,2.85-.35.08-.36.65,0,.72h0Z"/>
      <path class="cls-4" d="m26.67,67.09c6.07-.86,12.82-3.37,18.47-5.72,1.16-.48.76-2.29-.54-1.94-5.96,1.61-12.9,3.78-18.28,6.85-.47.27-.13.88.34.81h0Z"/>
      <path class="cls-2" d="m209.69,205.88s-3.38,3.61-3.84,4.15c-2.65,3.13.03,1.32,1.25.95,1.09-.33-1.8,7.33-.81,7.02,1-.3,2.02-4.02,2.02-4.02,0,0-1.17,5.16-.1,4.08,1.07-1.08,2.02-4.03,2.02-4.03,0,0-1.01,5.37-.1,4.23.91-1.14,1.51-3.13,1.51-3.13,0,0-.44,4.64.36,3.34.8-1.3,6-11.89,6-11.89l-8.32-.7Z"/>
      <path class="cls-5" d="m204.3,135.52s13.2,21.73,11.52,34.3c-1.28,9.58-8.4,36.56-8.4,36.56l10.85,3.95s9.13-28.41,9.65-44.69c.52-16.29-13.57-39.02-13.57-39.02l-10.06,8.9"/>
      <path d="m215.31,127.79c0,.06-.84-.33-2.36-.05-1.48.24-3.62,1.36-5.05,3.71-.72,1.16-1.12,2.64-1.24,4.23-.11,1.6.1,3.32.53,5.08.88,3.52,2.55,7.16,4.19,11.01,1.65,3.85,3.08,7.62,3.63,11.24.56,3.61.38,6.92.05,9.64-.33,2.73-.8,4.91-1.13,6.41-.17.7-.3,1.27-.41,1.72-.1.39-.16.6-.16.6,0,0,.03-.21.12-.61.1-.45.22-1.02.37-1.73.3-1.5.75-3.68,1.06-6.41.3-2.72.47-6.01-.1-9.59-.55-3.59-1.98-7.34-3.63-11.19-1.64-3.85-3.31-7.5-4.18-11.05-.43-1.77-.64-3.51-.51-5.14.13-1.62.54-3.12,1.29-4.3,1.46-2.39,3.65-3.5,5.16-3.72.76-.14,1.37-.06,1.77-.01.4.09.6.15.6.15Z"/>
      <path class="cls-10" d="m178.58,119.66c-.06-.01.04-.69.22-1.52.18-.83.37-1.49.43-1.47.06.01-.04.69-.22,1.52-.18.83-.37,1.49-.43,1.47Z"/>
      <path class="cls-10" d="m184.95,120.96c-.06,0-.13-.43-.17-.97-.04-.54-.02-.98.04-.98.06,0,.13.43.17.97.04.54.02.98-.04.98Z"/>
      <path class="cls-10" d="m187.16,129.02s-.49-.4-.99-.97c-.5-.57-.88-1.07-.83-1.11.04-.04.49.4.99.97.5.57.88,1.07.83,1.11Z"/>
      <path class="cls-10" d="m190.66,127.59c-.06-.01.01-.55.16-1.19.14-.65.3-1.16.36-1.15.06.01-.01.55-.16,1.19-.14.65-.3,1.16-.36,1.15Z"/>
      <path class="cls-10" d="m191.71,138.39c-.05.03-.5-.68-1-1.57-.5-.9-.87-1.65-.82-1.68.05-.03.5.68,1,1.57.5.9.87,1.65.82,1.68Z"/>
      <path class="cls-10" d="m198.07,137.21c-.06-.02.04-.55.22-1.2.18-.65.37-1.16.42-1.14.06.02-.04.55-.22,1.2-.18.65-.37,1.16-.42,1.14Z"/>
      <path class="cls-10" d="m191.19,148.4s-.54-.45-1.12-1.1c-.57-.65-1.01-1.2-.96-1.24.04-.04.54.45,1.12,1.1.57.65,1.01,1.2.96,1.24Z"/>
      <path class="cls-10" d="m194.83,132.53c-.05-.02.08-.53.29-1.14.22-.61.43-1.09.49-1.07.05.02-.08.53-.29,1.14-.22.61-.43,1.09-.49,1.07Z"/>
      <path class="cls-10" d="m195.74,145.41s-.49-.49-.99-1.17c-.5-.68-.87-1.26-.83-1.3.05-.03.49.49.99,1.17.5.68.87,1.26.83,1.3Z"/>
      <path class="cls-10" d="m203.97,141.26s-.21.57-.58,1.21c-.37.64-.71,1.14-.76,1.11-.05-.03.21-.57.58-1.21.37-.64.71-1.14.76-1.11Z"/>
      <path class="cls-10" d="m204.97,130.05s-.31.4-.78.8c-.47.4-.87.68-.91.64-.04-.04.31-.4.78-.8.47-.4.87-.68.91-.64Z"/>
      <path class="cls-10" d="m210.57,125.51s-.49-.2-1.03-.56c-.54-.36-.95-.69-.92-.74.03-.05.49.2,1.03.56.54.36.95.69.92.74Z"/>
      <path class="cls-10" d="m206.91,152.55c-.05-.02.08-.42.3-.89.22-.47.43-.82.48-.8.05.02-.08.42-.3.89-.22.47-.43.82-.48.8Z"/>
      <path class="cls-10" d="m202.11,153.86s-.47-.56-.93-1.31c-.47-.75-.81-1.39-.76-1.42.05-.03.47.56.93,1.31.47.75.81,1.39.76,1.42Z"/>
      <path class="cls-10" d="m193.01,158.8c-.05.03-.38-.5-.74-1.19-.36-.68-.61-1.26-.56-1.28s.38.5.74,1.19c.36.68.61,1.26.56,1.28Z"/>
      <path class="cls-10" d="m196.12,152.16c.05.02-.15.59-.46,1.26-.31.67-.59,1.2-.65,1.18-.05-.02.15-.59.46-1.26.31-.67.59-1.2.65-1.18Z"/>
      <path class="cls-10" d="m191.26,167.56s-.42-.31-.84-.79c-.42-.47-.73-.89-.69-.93.04-.04.42.31.84.79.42.47.73.89.69.93Z"/>
      <path class="cls-10" d="m198.34,163.87s-.36.56-.9,1.17c-.54.61-1.01,1.08-1.05,1.04-.04-.04.36-.56.9-1.17.54-.61,1.01-1.08,1.05-1.04Z"/>
      <path class="cls-10" d="m193.64,163.5s-.44-.37-.87-.9c-.44-.53-.76-.99-.71-1.03.04-.04.44.37.87.9.44.53.76.99.71,1.03Z"/>
      <path class="cls-10" d="m195.36,173.1c-.05.02-.26-.32-.47-.78-.21-.45-.34-.84-.28-.86.05-.02.26.32.47.78.21.45.34.84.28.86Z"/>
      <path class="cls-10" d="m191.32,175.71c.01.06-.56.19-1.21.51-.64.32-1.1.69-1.14.65-.04-.04.37-.5,1.05-.84.67-.34,1.29-.38,1.3-.33Z"/>
      <path class="cls-10" d="m207.83,169.59s-.87-.52-1.57-1.52c-.71-1-.95-1.98-.9-1.99.06-.02.38.9,1.07,1.87.68.97,1.44,1.59,1.4,1.64Z"/>
      <path class="cls-10" d="m212.38,172.7s.44-.73,1.09-1.56c.65-.83,1.21-1.47,1.25-1.43.05.04-.44.73-1.09,1.56-.65.83-1.21,1.47-1.25,1.43Z"/>
      <path class="cls-10" d="m203.41,172.58s-.56-.5-1.28-1.07c-.71-.57-1.35-.96-1.32-1.01.02-.05.72.26,1.45.85.73.58,1.19,1.2,1.15,1.23Z"/>
      <path class="cls-10" d="m204.45,175.65c0,.06-1.25.15-2.79.22-1.54.06-2.8.07-2.8,0,0-.06,1.25-.15,2.79-.22,1.54-.06,2.8-.07,2.8,0Z"/>
      <path class="cls-10" d="m210.89,164.3c-.05-.03.28-.78.74-1.68.46-.9.87-1.61.92-1.59.05.03-.28.78-.74,1.68-.46.9-.87,1.61-.92,1.59Z"/>
      <path class="cls-10" d="m204.97,158.93c-.02.05-1.05-.25-2.31-.68-1.26-.43-2.26-.82-2.24-.88.02-.05,1.05.25,2.31.68,1.26.43,2.26.82,2.24.88Z"/>
      <path class="cls-10" d="m210.26,139.93c-.05-.02.19-.82.54-1.8.35-.97.68-1.74.74-1.73.05.02-.19.82-.54,1.8-.35.97-.68,1.74-.74,1.72Z"/>
      <path class="cls-10" d="m217.59,137.61s-.49-.4-.99-.97c-.5-.57-.87-1.07-.83-1.11.04-.04.49.4.99.97.5.57.87,1.07.83,1.11Z"/>
      <path class="cls-10" d="m215.83,143.27s-.58-.48-1.2-1.15c-.62-.67-1.09-1.25-1.05-1.29.04-.04.58.48,1.2,1.15.62.67,1.09,1.25,1.05,1.29Z"/>
      <path class="cls-10" d="m220.06,147.36c-.06-.01.04-.64.22-1.39.18-.75.37-1.35.43-1.34.06.01-.04.64-.22,1.39-.18.75-.37,1.35-.43,1.34Z"/>
      <path class="cls-10" d="m215.11,151.52s-.53-.3-1.11-.76c-.57-.47-1.01-.88-.97-.93.04-.04.53.3,1.11.76.57.47,1.01.88.97.93Z"/>
      <path class="cls-10" d="m222.53,156.59c-.05.02-.39-.63-.75-1.45-.36-.83-.61-1.51-.55-1.54.05-.02.39.63.75,1.45.36.83.61,1.51.55,1.54Z"/>
      <path class="cls-10" d="m220.06,160.23s-.54-.39-1.11-.97c-.57-.57-1.01-1.07-.97-1.11.04-.04.54.39,1.11.97.57.57,1.01,1.07.97,1.11Z"/>
      <path class="cls-10" d="m224.87,164.13s-.35.38-.85.73c-.5.36-.94.61-.97.57-.03-.05.35-.38.85-.73.5-.36.94-.61.97-.57Z"/>
      <path class="cls-10" d="m219.04,169.45c-.05.03-.47-.62-.93-1.45-.46-.83-.8-1.52-.75-1.55.05-.03.47.62.93,1.45.46.83.8,1.52.75,1.55Z"/>
      <path class="cls-10" d="m224.88,174.26s-.53-.83-.83-2c-.31-1.17-.32-2.15-.26-2.15.06,0,.16.95.47,2.1.3,1.14.69,2.03.63,2.05Z"/>
      <path class="cls-10" d="m221.76,177.14s-.41.59-1.16,1.03c-.75.44-1.45.56-1.46.51-.02-.06.64-.27,1.35-.69.72-.42,1.22-.89,1.26-.85Z"/>
      <path class="cls-10" d="m217.2,176.09c-.06.01-.19-.39-.3-.89-.11-.5-.15-.92-.09-.93.06-.01.19.39.3.89.11.5.15.92.09.93Z"/>
      <path class="cls-10" d="m216.81,187.92c-.06.01-.22-.5-.36-1.15-.14-.65-.21-1.18-.16-1.19.06-.01.22.5.36,1.15.14.65.21,1.18.16,1.19Z"/>
      <path class="cls-10" d="m221.89,187.14c-.05.02-.33-.67-.62-1.53-.29-.86-.48-1.58-.42-1.59.05-.02.33.67.62,1.53.29.86.48,1.57.42,1.59Z"/>
      <path class="cls-10" d="m217.32,194.17c-.01.06-.87-.11-1.95-.18-1.07-.07-1.95-.02-1.95-.08,0-.05.87-.2,1.97-.13,1.09.07,1.95.34,1.93.39Z"/>
      <path class="cls-10" d="m220.03,195.07c-.06,0-.08-.56-.04-1.24.03-.68.11-1.23.17-1.23s.08.56.04,1.24c-.03.68-.11,1.23-.17,1.23Z"/>
      <path class="cls-5" d="m211.74,199.24c.95.17,1.91.35,2.86.52"/>
      <path class="cls-10" d="m218.73,202.2s-.54.71-1.3,1.49c-.76.78-1.41,1.39-1.45,1.35-.04-.04.54-.71,1.3-1.49.76-.78,1.41-1.39,1.45-1.35Z"/>
      <path class="cls-10" d="m212.12,203.39c.01.06-.71.25-1.6.43-.9.18-1.63.28-1.65.22-.01-.06.71-.25,1.6-.43.9-.18,1.63-.28,1.65-.22Z"/>
      <path class="cls-10" d="m178.97,127.2c-.06,0-.02-.71.09-1.57.11-.86.24-1.55.3-1.55.06,0,.02.71-.09,1.57-.11.86-.24,1.55-.3,1.55Z"/>
      <path class="cls-10" d="m175.59,123.04s-.75-.34-1.51-1c-.77-.65-1.26-1.31-1.22-1.34.05-.04.6.54,1.36,1.18.75.64,1.41,1.11,1.38,1.16Z"/>
      <path class="cls-10" d="m174.68,115.5c-.06,0-.02-.74.09-1.64.11-.9.24-1.62.3-1.61s.02.74-.09,1.64c-.11.9-.24,1.62-.3,1.61Z"/>
      <path class="cls-10" d="m169.61,114.98s-.58-.29-1.29-.6c-.71-.32-1.32-.51-1.31-.57.01-.05.66.04,1.39.38.73.33,1.24.75,1.21.79Z"/>
      <path class="cls-10" d="m181.55,113.03c-.06,0-.13-.46-.17-1.03-.04-.57-.02-1.04.04-1.05.06,0,.13.46.17,1.03.04.57.02,1.04-.04,1.05Z"/>
      <path class="cls-10" d="m186.38,115.37s-.52-.35-1.16-.74c-.64-.39-1.2-.64-1.18-.69.02-.05.63.11,1.29.52.66.4,1.09.88,1.05.91Z"/>
      <path class="cls-10" d="m170.65,108.22c-.05,0-.11-.83.11-1.82.21-.99.61-1.72.66-1.7.06.02-.25.77-.45,1.74-.21.97-.25,1.77-.31,1.77Z"/>
      <path class="cls-10" d="m168.02,109.2c-.02.05-.74-.21-1.59-.58-.86-.37-1.53-.72-1.51-.77.02-.05.73.21,1.59.58.86.37,1.53.72,1.51.77Z"/>
      <path class="cls-10" d="m159.43,106.13c-.06-.01,0-.63.14-1.39.14-.76.29-1.36.35-1.35s0,.63-.14,1.39c-.14.76-.29,1.36-.35,1.35Z"/>
      <path class="cls-10" d="m163.5,99.51c-.02.06-.52-.05-1.13-.22-.61-.18-1.09-.37-1.08-.42.02-.06.52.05,1.13.22.61.18,1.09.37,1.08.42Z"/>
      <path class="cls-10" d="m155.16,99.12c-.06-.02.19-1.02.55-2.24.36-1.22.69-2.2.75-2.18.06.02-.19,1.02-.55,2.24-.36,1.22-.69,2.2-.75,2.18Z"/>
      <path class="cls-10" d="m154.12,95.37s-.58-.26-1.23-.69c-.65-.43-1.14-.82-1.11-.87.03-.05.58.26,1.23.69.65.43,1.14.82,1.11.87Z"/>
      <path class="cls-10" d="m155.45,89.36s-.51-.57-1.03-1.35c-.52-.78-.91-1.43-.86-1.47.05-.03.51.57,1.03,1.35.52.78.91,1.43.86,1.47Z"/>
      <path class="cls-10" d="m149.19,90.15s-.82-.27-1.6-.98c-.78-.7-1.18-1.47-1.13-1.49.05-.03.52.66,1.27,1.34.75.68,1.49,1.08,1.46,1.13Z"/>
      <path class="cls-10" d="m152.31,89.11s-.51-.33-1.05-.83c-.54-.5-.94-.94-.9-.99.04-.04.51.33,1.05.83.54.5.94.94.9.99Z"/>
      <path class="cls-10" d="m148.29,83.91c-.05,0-.01-.69.36-1.44.37-.75.89-1.21.92-1.17.05.04-.39.54-.74,1.26-.36.71-.49,1.36-.55,1.35Z"/>
      <path class="cls-10" d="m143.18,82.85s.29-.64.76-1.35c.47-.72.89-1.27.94-1.24.05.03-.29.64-.76,1.35-.47.72-.89,1.27-.94,1.24Z"/>
      <path class="cls-10" d="m143.08,81.31c0,.05-.64-.02-1.34-.35-.7-.33-1.16-.78-1.13-.82.04-.05.54.31,1.22.63.68.32,1.27.48,1.26.54Z"/>
      <path class="cls-10" d="m143.34,77.54c-.06,0-.05-.65.03-1.44.07-.79.18-1.43.23-1.42s.05.65-.03,1.44c-.07.79-.18,1.43-.23,1.42Z"/>
      <path d="m66.89,121.26s.41.09,1.03.5c.61.41,1.45,1.18,1.92,2.45.49,1.24.41,3.03-.61,4.5-.5.73-1.23,1.38-2.14,1.75-.9.37-1.94.48-2.95.29-.59-.12-1.14-.34-1.62-.63l.13-.02c-1.33,1.41-3.49,1.37-4.8.52-1.36-.85-2.06-2.2-2.31-3.33-.26-1.15-.18-2.1-.09-2.73.1-.64.22-.97.22-.97,0,0,0,.09-.04.25-.03.17-.07.41-.11.73-.07.63-.13,1.57.15,2.69.27,1.1.96,2.4,2.28,3.2.65.39,1.45.61,2.28.55.82-.06,1.68-.4,2.28-1.05l.06-.06.07.04c.46.28.99.49,1.55.6.97.19,1.97.08,2.83-.27.87-.35,1.57-.96,2.06-1.67,1-1.42,1.09-3.13.63-4.35-.44-1.24-1.24-2.02-1.83-2.44-.6-.43-1-.55-.99-.57Z"/>
      <path d="m130.81,86.01s-.13-.07-.34-.23c-.21-.15-.51-.39-.88-.69-.73-.59-1.7-1.45-2.72-2.46-1.02-1.01-1.89-1.98-2.49-2.7-.3-.36-.54-.66-.69-.87-.16-.21-.24-.33-.23-.34.02-.02.41.42,1.03,1.11.63.7,1.51,1.64,2.52,2.65,1.02,1,1.97,1.88,2.67,2.5.7.62,1.14,1,1.12,1.02Z"/>
      <path class="cls-10" d="m130.41,81.67s-.08.25-.27.48c-.19.23-.38.39-.43.35-.04-.04.08-.25.27-.48.19-.23.38-.39.43-.35Z"/>
      <path class="cls-5" d="m37.93,175.22c7.78-2.99,15.42-6.35,22.88-10.06"/>
      <path d="m61.78,177.69c-.06,0-.4-2.99-.77-6.69-.37-3.7-.62-6.7-.56-6.71.06,0,.4,2.99.77,6.69.37,3.7.62,6.7.56,6.71Z"/>
      <path d="m61.78,177.69s-.04.06-.14.17c-.13.14-.28.29-.43.45-.38.38-.94.91-1.67,1.54-1.45,1.26-3.53,2.89-5.88,4.62-2.35,1.73-4.53,3.24-6.11,4.32-.71.48-1.33.89-1.88,1.26-.18.12-.35.23-.52.33-.12.07-.18.11-.19.1,0,0,.05-.05.16-.14.16-.12.32-.24.5-.37.54-.38,1.15-.82,1.84-1.32,1.56-1.11,3.72-2.63,6.07-4.36,2.35-1.73,4.44-3.34,5.91-4.56.74-.61,1.31-1.12,1.71-1.48.16-.15.31-.29.45-.42.11-.09.16-.14.17-.14Z"/>
      <path d="m47.18,149.67s.01.07.02.21c0,.19.01.4.02.61.01.66.03,1.41.05,2.26.04,1.91.12,4.54.27,7.44.14,2.91.32,5.53.44,7.44.06.85.1,1.6.15,2.25.01.22.02.42.03.61,0,.14,0,.21,0,.22s-.02-.07-.04-.21c-.02-.19-.05-.39-.07-.61-.06-.65-.13-1.4-.21-2.25-.16-1.9-.36-4.53-.5-7.44-.14-2.91-.2-5.54-.2-7.45,0-.85.01-1.6.02-2.26,0-.22.01-.42.02-.61,0-.14.01-.21.02-.21Z"/>
      <path class="cls-11" d="m208.44,100.75c1.48-.61,3.25-.47,4.62.36,1.37.83,2.31,2.34,2.45,3.93.11,1.2-.21,2.39-.44,3.57-.23,1.18-.36,2.44.08,3.56.44,1.12,1.64,2.02,2.81,1.75.48-.11.93-.4,1.41-.34.65.07,1.1.8,1.01,1.45-.08.65-.58,1.19-1.16,1.5-.58.31-1.24.42-1.89.54.71.73,1.29,1.58,1.71,2.51.16.35.29.74.17,1.1-.17.48-.77.7-1.27.61-.5-.09-.93-.41-1.34-.72.7.4.51,1.57-.15,2.04-.66.47-1.54.44-2.35.4-1.74-.09-3.6-.23-5.01-1.26-1.34-.98-2.04-2.6-2.54-4.19-1.05-3.34-1.5-6.87-1.31-10.37l3.2-6.43Z"/>
      <path class="cls-2" d="m207.49,92.75l.39,8.79s3.56-.04,3.55,3.22c0,4.11-3.86,3.42-3.86,3.42,0,0,.8,7.83-9.95,8.48-10.92.66-10.34-14.07-9.68-24,.15-2.27,2.12-3.98,4.39-3.82l12.25.9c1.59.12,2.84,1.41,2.91,3Z"/>
      <path class="cls-11" d="m207.69,102.8c.23.69.46,1.45.17,2.12-.29.67-1.34.99-1.73.38-.15-.24-.16-.54-.16-.82-.02-1.95-.03-3.9-.05-5.85-2.81-.5-5.24-2.74-5.96-5.5-1.49.91-3.45.97-5,.17-.64-.33-1.28-.82-1.99-.72-.86.12-1.36,1-2.06,1.5-1.22.87-3.59.58-4.76-.35-5-4,1.19-7.85,2.52-8.66,1.67-1.01,3.78-.82,5.72-.59,3.59.42,11.76-1.76,13.72,7.71.8,2.69,1.17,5.51,1.09,8.32-.02.86-.17,1.86-.92,2.29"/>
    </g>
  </g>
</svg>