<?xml version="1.0" encoding="UTF-8"?>
<svg id="Layer_2" data-name="Layer 2" xmlns="http://www.w3.org/2000/svg" viewBox="0 0 195.6 176.41">
  <defs>
    <style>
      .cls-1 {
        font-size: 10.35px;
      }

      .cls-1, .cls-2 {
        font-family: MyriadPro-Semibold, 'Myriad Pro';
        font-weight: 600;
      }

      .cls-1, .cls-3 {
        fill: #d42424;
      }

      .cls-4 {
        letter-spacing: 0em;
      }

      .cls-2 {
        font-size: 12.42px;
      }

      .cls-2, .cls-5 {
        fill: #56a73c;
      }

      .cls-6 {
        fill: #f4d3d3;
      }

      .cls-7 {
        fill: #e8b886;
      }

      .cls-8 {
        fill: #bc9c49;
      }

      .cls-9 {
        fill: #caefbd;
      }

      .cls-10 {
        fill: #d29660;
      }

      .cls-11 {
        fill: #251a51;
      }

      .cls-12 {
        fill: #514233;
      }

      .cls-13 {
        opacity: .36;
      }

      .cls-14 {
        letter-spacing: 0em;
      }
    </style>
  </defs>
  <g id="Layer_1-2" data-name="Layer 1">
    <g>
      <g>
        <rect class="cls-9" x="115.91" width="79.69" height="24.84" rx="5.54" ry="5.54"/>
        <path class="cls-5" d="m176.12,14.84c-.08-.09-.17-.19-.25-.28-.46-.46-.93-.92-1.38-1.39-.14-.14-.2-.12-.33,0-1.76,1.77-3.54,3.54-5.3,5.31-.18.18-.27.17-.44,0-1.51-1.53-3.03-3.04-4.55-4.56-.14-.14-.14-.21,0-.35,1.79-1.77,3.56-3.56,5.35-5.33.15-.15.14-.21,0-.35-.5-.48-.98-.97-1.47-1.46-.05-.05-.13-.09-.15-.18.07-.05.14-.02.21-.02,2.7,0,5.4,0,8.11,0,.2,0,.27.03.27.26,0,2.77,0,5.55,0,8.32-.02.01-.04.03-.05.04Z"/>
        <text class="cls-2" transform="translate(139.66 16.62)"><tspan x="0" y="0">UP</tspan></text>
      </g>
      <g>
        <rect class="cls-6" width="79.69" height="24.84" rx="5.54" ry="5.54"/>
        <path class="cls-3" d="m15.36,10c.57.58,1.13,1.12,1.67,1.68.13.13.19.13.31,0,1.78-1.79,3.57-3.57,5.35-5.37.14-.14.21-.14.35,0,1.53,1.54,3.07,3.08,4.61,4.61.13.13.14.2,0,.33-1.79,1.78-3.56,3.56-5.35,5.33-.15.15-.15.22,0,.37.55.53,1.08,1.08,1.62,1.61-.02.09-.08.05-.12.05-2.75,0-5.5,0-8.25,0-.14,0-.22,0-.21-.19,0-2.78,0-5.57,0-8.35,0-.01,0-.03.02-.09Z"/>
        <text class="cls-1" transform="translate(36.81 16.61)"><tspan x="0" y="0">D</tspan><tspan class="cls-4" x="7.07" y="0">O</tspan><tspan class="cls-14" x="14.32" y="0">WN</tspan></text>
      </g>
      <g>
        <path class="cls-7" d="m137.81,34.27s4.41-11.1,5.07-10.06c.66,1.05-.52,2.58-.28,5.28,0,0,8.13-9.8,8.56-8.66.43,1.14-4.59,7.74-4.48,7.89.11.15,6.02-6.79,6.65-6.02.62.77-4.9,7.2-4.9,7.2,0,0,5.59-5.57,6.3-4.79s-4.44,5.93-4.44,5.93c0,0,4.35-4.27,4.99-3.55.39.44-10.63,14.23-10.32,14.52.16.15-7.15-7.76-7.15-7.76"/>
        <path class="cls-8" d="m138.85,31.37s-19.84,23.76-30.71,33.78c-10.87,10.02-32.88,23.02-32.88,23.02l.02.03c-5.15,1.01-8.58,2.02-10.92,2.65-7.24,1.95-8.84,2.19-13.84,4.15-9.23,3.62-16.87,10.24-21.66,18.73-6.89,12.22-15.64,31.48-14.22,48.51,1.52,18.36,17.02,12.86,28.29,6.25.05.49-16.07-15.39.07.74,16.14,16.14,48.27,0,48.27,0v-55.68s0-.55-.07-1.49l.07.1s17.55-21.28,25.81-29.55c14.07-14.07,29.94-40.84,29.94-40.84l-8.18-10.41Zm-102.66,118.37l5.52-22.58c.37,3.89-1.55,17-1.21,20.65l-4.31,1.94Z"/>
        <path d="m57.71,92.5s-3.15,14.64,1.27,12.51c4.41-2.13,7.7-4.06,7.7-4.06,0,0,4.39,5.42,6.52,2.12,2.12-3.3-2.02-14.08-2.02-14.08l-13.47,3.52Z"/>
        <path class="cls-10" d="m55.03,78.18l3.24,17.3c.73,3.9,4.56,6.39,8.41,5.47h0c3.57-.85,5.85-4.34,5.21-7.96l-1.76-9.92-15.1-4.89Z"/>
        <g class="cls-13">
          <path d="m56.77,156.07s-.15.26-.49.68c-.34.42-.85,1.01-1.5,1.73-1.3,1.42-3.2,3.31-5.46,5.2-2.26,1.89-4.45,3.42-6.09,4.44-.82.51-1.49.91-1.96,1.16-.47.26-.74.39-.76.36-.03-.06.97-.7,2.55-1.78,1.58-1.08,3.73-2.64,5.98-4.52,2.25-1.88,4.16-3.71,5.51-5.07,1.35-1.36,2.16-2.24,2.21-2.19Z"/>
        </g>
        <g class="cls-13">
          <path d="m32.59,155.5c-.1-.06.57-1.43,1.5-3.06.93-1.63,1.77-2.91,1.88-2.85.1.06-.57,1.43-1.5,3.06-.93,1.63-1.77,2.91-1.88,2.85Z"/>
        </g>
        <g class="cls-13">
          <path d="m35.86,150.03s.43-.26,1.24-.65c.88-.42,2.04-.97,3.44-1.64,2.91-1.38,6.91-3.31,11.29-5.53.73-.37,1.44-.74,2.12-1.08l.27-.14.04.3c.63,4.32,1.16,8.14,1.53,10.89.17,1.32.3,2.4.41,3.24.09.76.12,1.18.1,1.18-.03,0-.11-.41-.25-1.16-.14-.83-.32-1.91-.54-3.22-.44-2.73-1.03-6.55-1.67-10.87l.31.16c-.68.35-1.4.72-2.12,1.09-4.38,2.23-8.42,4.11-11.36,5.43-1.47.66-2.67,1.17-3.5,1.51-.83.34-1.3.52-1.31.49Z"/>
        </g>
        <g class="cls-13">
          <path d="m36.18,149.42c.08.09-1.05,1.19-2.52,2.45-1.47,1.26-2.72,2.21-2.8,2.11-.08-.09,1.05-1.19,2.52-2.45,1.47-1.26,2.72-2.21,2.8-2.11Z"/>
        </g>
        <g class="cls-13">
          <path d="m68.42,169.45c-.12,0-.65-14.81-1.19-33.07-.54-18.27-.88-33.08-.76-33.09.12,0,.65,14.8,1.19,33.08.54,18.27.88,33.08.76,33.08Z"/>
        </g>
        <path class="cls-7" d="m54.72,144.32s9.69-6.96,9.69-5.72-1.83,1.89-3.08,4.3c0,0,12.12-3.85,11.87-2.66-.25,1.19-8.04,4.03-8.03,4.22,0,.19,8.73-2.45,8.83-1.46.11.99-8,3.41-8,3.41,0,0,7.71-1.66,7.88-.61.17,1.05-6.93,2.59-6.93,2.59,0,0,5.96-1.23,6.11-.28.09.58-16.61,6.22-16.51,6.63.05.22-1.84-10.4-1.84-10.4"/>
        <g class="cls-13">
          <path class="cls-11" d="m144.99,44.47c-.08.09-2.31-1.99-4.97-4.62-2.66-2.64-4.75-4.85-4.66-4.93.08-.09,2.31,1.98,4.97,4.62,2.66,2.64,4.75,4.85,4.66,4.93Z"/>
        </g>
        <g class="cls-13">
          <path d="m52.78,159.9c-.12.02-.98-3.6-1.93-8.09-.95-4.49-1.62-8.16-1.5-8.18.12-.02.98,3.6,1.93,8.09.95,4.49,1.62,8.16,1.5,8.18Z"/>
        </g>
        <g class="cls-13">
          <path d="m52.26,145.33c.05.11-.33.37-.85.58-.51.21-.97.29-1.01.18-.05-.11.33-.37.85-.58.51-.21.97-.29,1.01-.18Z"/>
        </g>
        <g class="cls-13">
          <path d="m83.61,116.29c.02.12-2.05.59-4.63,1.06-2.58.47-4.68.75-4.71.63-.02-.12,2.05-.59,4.63-1.06,2.58-.47,4.68-.75,4.71-.63Z"/>
        </g>
        <g class="cls-13">
          <path d="m38.47,102.88s.1,0,.29.06c.19.05.45.14.78.28.67.29,1.59.83,2.54,1.73.94.9,1.89,2.18,2.55,3.78.66,1.6,1,3.51.97,5.5-.08,4.01-1.47,7.42-2.48,9.76-.53,1.18-.99,2.11-1.31,2.76-.33.64-.52.99-.55.98-.03-.01.12-.39.4-1.05.31-.74.71-1.68,1.18-2.81.94-2.37,2.26-5.74,2.33-9.65.03-1.94-.28-3.79-.9-5.34-.62-1.56-1.51-2.81-2.39-3.71-1.8-1.82-3.45-2.2-3.39-2.29Z"/>
        </g>
        <path class="cls-7" d="m54.02,59.9l1.01,13.37s-5.02.68-3.59,5.26c1.43,4.59,4.86,2.58,4.86,2.58,0,0,.86,11.75,12.87,8.03,12.01-3.73,8.01-22.36,6.86-33.54l-22.02,4.3Z"/>
        <path class="cls-12" d="m53.93,73.57c-1.55-3.5-2.01-6.97-2.4-10.78-.16-1.56-.21-3.16.22-4.66.44-1.5,1.43-2.91,2.87-3.51,2.06-.86,10.82-4.5,11.73-5.19s5.17-3.98,9.74-2.84,4.8,9.72,3.43,11.42c-1.28,1.59-1.86,1.16-3.45,2.43-3.36,2.68-8.63,3.23-13.93,2.02-2.3-.53-5.06.37-5.52,2.68-.17.86-.02,4.25.03,5.12.05.87,0,1.8-.47,2.53-.47.74-1.48,1.18-2.25.77"/>
      </g>
    </g>
  </g>
</svg>